  0
SECTION
  2
HEADER
  9
$ACADVER
  1
AC1015
  9
$ACADMAINTVER
 70
     6
  9
$DWGCODEPAGE
  3
ANSI_1250
  9
$INSBASE
 10
0.0
 20
0.0
 30
0.0
  9
$EXTMIN
 10
0.0
 20
0.0
 30
0.0
  9
$EXTMAX
 10
420.0
 20
297.0
 30
0.0
  9
$LIMMIN
 10
0.0
 20
0.0
  9
$LIMMAX
 10
420.0
 20
297.0
  9
$ORTHOMODE
 70
     0
  9
$REGENMODE
 70
     1
  9
$FILLMODE
 70
     1
  9
$QTEXTMODE
 70
     0
  9
$MIRRTEXT
 70
     1
  9
$LTSCALE
 40
1.0
  9
$ATTMODE
 70
     1
  9
$TEXTSIZE
 40
3.5
  9
$TRACEWID
 40
1.0
  9
$TEXTSTYLE
  7
Standard
  9
$CLAYER
  8
0
  9
$CELTYPE
  6
ByLayer
  9
$CECOLOR
 62
   256
  9
$CELTSCALE
 40
1.0
  9
$DISPSILH
 70
     0
  9
$DIMSCALE
 40
1.0
  9
$DIMASZ
 40
3.302
  9
$DIMEXO
 40
1.0
  9
$DIMDLI
 40
3.75
  9
$DIMRND
 40
0.0
  9
$DIMDLE
 40
0.0
  9
$DIMEXE
 40
1.0
  9
$DIMTP
 40
0.0
  9
$DIMTM
 40
0.0
  9
$DIMTXT
 40
3.5
  9
$DIMCEN
 40
2.5
  9
$DIMTSZ
 40
0.0
  9
$DIMTOL
 70
     0
  9
$DIMLIM
 70
     0
  9
$DIMTIH
 70
     1
  9
$DIMTOH
 70
     1
  9
$DIMSE1
 70
     0
  9
$DIMSE2
 70
     0
  9
$DIMTAD
 70
     1
  9
$DIMZIN
 70
     0
  9
$DIMBLK
  1

  9
$DIMASO
 70
     1
  9
$DIMSHO
 70
     1
  9
$DIMPOST
  1

  9
$DIMAPOST
  1

  9
$DIMALT
 70
     0
  9
$DIMALTD
 70
     3
  9
$DIMALTF
 40
0.0393700787
  9
$DIMLFAC
 40
1.0
  9
$DIMTOFL
 70
     1
  9
$DIMTVP
 40
0.0
  9
$DIMTIX
 70
     0
  9
$DIMSOXD
 70
     0
  9
$DIMSAH
 70
     0
  9
$DIMBLK1
  1

  9
$DIMBLK2
  1

  9
$DIMSTYLE
  2
ISO-25
  9
$DIMCLRD
 70
     0
  9
$DIMCLRE
 70
     0
  9
$DIMCLRT
 70
     0
  9
$DIMTFAC
 40
1.0
  9
$DIMGAP
 40
1.524
  9
$DIMJUST
 70
     0
  9
$DIMSD1
 70
     0
  9
$DIMSD2
 70
     0
  9
$DIMTOLJ
 70
     0
  9
$DIMTZIN
 70
     0
  9
$DIMALTZ
 70
     0
  9
$DIMALTTZ
 70
     0
  9
$DIMUPT
 70
     0
  9
$DIMDEC
 70
     2
  9
$DIMTDEC
 70
     2
  9
$DIMALTU
 70
     2
  9
$DIMALTTD
 70
     3
  9
$DIMTXSTY
  7
Standard
  9
$DIMAUNIT
 70
     0
  9
$DIMADEC
 70
     2
  9
$DIMALTRND
 40
0.0
  9
$DIMAZIN
 70
     0
  9
$DIMDSEP
 70
    44
  9
$DIMATFIT
 70
     3
  9
$DIMFRAC
 70
     0
  9
$DIMLDRBLK
  1

  9
$DIMLUNIT
 70
     2
  9
$DIMLWD
 70
    -2
  9
$DIMLWE
 70
    -2
  9
$DIMTMOVE
 70
     0
  9
$LUNITS
 70
     2
  9
$LUPREC
 70
     2
  9
$SKETCHINC
 40
1.0
  9
$FILLETRAD
 40
10.0
  9
$AUNITS
 70
     0
  9
$AUPREC
 70
     2
  9
$MENU
  1
.
  9
$ELEVATION
 40
0.0
  9
$PELEVATION
 40
0.0
  9
$THICKNESS
 40
0.0
  9
$LIMCHECK
 70
     0
  9
$CHAMFERA
 40
0.0
  9
$CHAMFERB
 40
0.0
  9
$CHAMFERC
 40
0.0
  9
$CHAMFERD
 40
0.0
  9
$SKPOLY
 70
     0
  9
$TDCREATE
 40
2457406.569149884
  9
$TDUCREATE
 40
2457406.527483217
  9
$TDUPDATE
 40
2457406.569151887
  9
$TDUUPDATE
 40
2457406.52748522
  9
$TDINDWG
 40
0.0000000116
  9
$TDUSRTIMER
 40
0.0000000116
  9
$USRTIMER
 70
     1
  9
$ANGBASE
 50
0.0
  9
$ANGDIR
 70
     0
  9
$PDMODE
 70
     0
  9
$PDSIZE
 40
-1.0
  9
$PLINEWID
 40
0.0
  9
$SPLFRAME
 70
     0
  9
$SPLINETYPE
 70
     6
  9
$SPLINESEGS
 70
     8
  9
$HANDSEED
  5
24F
  9
$SURFTAB1
 70
     6
  9
$SURFTAB2
 70
     6
  9
$SURFTYPE
 70
     6
  9
$SURFU
 70
     6
  9
$SURFV
 70
     6
  9
$UCSBASE
  2

  9
$UCSNAME
  2

  9
$UCSORG
 10
0.0
 20
0.0
 30
0.0
  9
$UCSXDIR
 10
1.0
 20
0.0
 30
0.0
  9
$UCSYDIR
 10
0.0
 20
1.0
 30
0.0
  9
$UCSORTHOREF
  2

  9
$UCSORTHOVIEW
 70
     0
  9
$UCSORGTOP
 10
0.0
 20
0.0
 30
0.0
  9
$UCSORGBOTTOM
 10
0.0
 20
0.0
 30
0.0
  9
$UCSORGLEFT
 10
0.0
 20
0.0
 30
0.0
  9
$UCSORGRIGHT
 10
0.0
 20
0.0
 30
0.0
  9
$UCSORGFRONT
 10
0.0
 20
0.0
 30
0.0
  9
$UCSORGBACK
 10
0.0
 20
0.0
 30
0.0
  9
$PUCSBASE
  2

  9
$PUCSNAME
  2

  9
$PUCSORG
 10
0.0
 20
0.0
 30
0.0
  9
$PUCSXDIR
 10
1.0
 20
0.0
 30
0.0
  9
$PUCSYDIR
 10
0.0
 20
1.0
 30
0.0
  9
$PUCSORTHOREF
  2

  9
$PUCSORTHOVIEW
 70
     0
  9
$PUCSORGTOP
 10
0.0
 20
0.0
 30
0.0
  9
$PUCSORGBOTTOM
 10
0.0
 20
0.0
 30
0.0
  9
$PUCSORGLEFT
 10
0.0
 20
0.0
 30
0.0
  9
$PUCSORGRIGHT
 10
0.0
 20
0.0
 30
0.0
  9
$PUCSORGFRONT
 10
0.0
 20
0.0
 30
0.0
  9
$PUCSORGBACK
 10
0.0
 20
0.0
 30
0.0
  9
$USERI1
 70
     0
  9
$USERI2
 70
     0
  9
$USERI3
 70
     0
  9
$USERI4
 70
     0
  9
$USERI5
 70
     0
  9
$USERR1
 40
0.0
  9
$USERR2
 40
0.0
  9
$USERR3
 40
0.0
  9
$USERR4
 40
0.0
  9
$USERR5
 40
0.0
  9
$WORLDVIEW
 70
     1
  9
$SHADEDGE
 70
     3
  9
$SHADEDIF
 70
    70
  9
$TILEMODE
 70
     1
  9
$MAXACTVP
 70
    64
  9
$PINSBASE
 10
0.0
 20
0.0
 30
0.0
  9
$PLIMCHECK
 70
     0
  9
$PEXTMIN
 10
1.0000000000E+20
 20
1.0000000000E+20
 30
1.0000000000E+20
  9
$PEXTMAX
 10
-1.0000000000E+20
 20
-1.0000000000E+20
 30
-1.0000000000E+20
  9
$PLIMMIN
 10
0.0
 20
0.0
  9
$PLIMMAX
 10
420.0
 20
297.0
  9
$UNITMODE
 70
     0
  9
$VISRETAIN
 70
     1
  9
$PLINEGEN
 70
     0
  9
$PSLTSCALE
 70
     1
  9
$TREEDEPTH
 70
  3020
  9
$CMLSTYLE
  2
Standard
  9
$CMLJUST
 70
     0
  9
$CMLSCALE
 40
20.0
  9
$PROXYGRAPHICS
 70
     1
  9
$MEASUREMENT
 70
     1
  9
$CELWEIGHT
370
    -1
  9
$ENDCAPS
280
     0
  9
$JOINSTYLE
280
     0
  9
$LWDISPLAY
290
     1
  9
$INSUNITS
 70
     4
  9
$HYPERLINKBASE
  1

  9
$STYLESHEET
  1

  9
$XEDIT
290
     1
  9
$CEPSNTYPE
380
     0
  9
$PSTYLEMODE
290
     1
  9
$FINGERPRINTGUID
  2
{B3ADA2DA-188F-47EF-A93A-D1528ED33388}
  9
$VERSIONGUID
  2
{FAEB1C32-E019-11D5-929B-00C0DF256EC4}
  9
$EXTNAMES
290
     1
  9
$PSVPSCALE
 40
0.0
  9
$OLESTARTUP
290
     0
  0
ENDSEC
  0
SECTION
  2
CLASSES
  0
CLASS
  1
ACDBDICTIONARYWDFLT
  2
AcDbDictionaryWithDefault
  3
ObjectDBX Classes
 90
        0
280
     0
281
     0
  0
CLASS
  1
VISUALSTYLE
  2
AcDbVisualStyle
  3
ObjectDBX Classes
 90
     4095
280
     0
281
     0
  0
CLASS
  1
MATERIAL
  2
AcDbMaterial
  3
ObjectDBX Classes
 90
     1153
280
     0
281
     0
  0
CLASS
  1
SCALE
  2
AcDbScale
  3
ObjectDBX Classes
 90
     1153
280
     0
281
     0
  0
CLASS
  1
TABLESTYLE
  2
AcDbTableStyle
  3
ObjectDBX Classes
 90
     4095
280
     0
281
     0
  0
CLASS
  1
MLEADERSTYLE
  2
AcDbMLeaderStyle
  3
ACDB_MLEADERSTYLE_CLASS
 90
     4095
280
     0
281
     0
  0
CLASS
  1
SUN
  2
AcDbSun
  3
SCENEOE
 90
     1153
280
     0
281
     0
  0
CLASS
  1
ACDBPLACEHOLDER
  2
AcDbPlaceHolder
  3
ObjectDBX Classes
 90
        0
280
     0
281
     0
  0
CLASS
  1
LAYOUT
  2
AcDbLayout
  3
ObjectDBX Classes
 90
        0
280
     0
281
     0
  0
ENDSEC
  0
SECTION
  2
TABLES
  0
TABLE
  2
VPORT
  5
8
330
0
100
AcDbSymbolTable
 70
     1
  0
VPORT
  5
29
330
8
100
AcDbSymbolTableRecord
100
AcDbViewportTableRecord
  2
*Active
 70
     0
 10
0.0
 20
0.0
 11
1.0
 21
1.0
 12
210.0
 22
148.5
 13
0.0
 23
0.0
 14
10.0
 24
10.0
 15
10.0
 25
10.0
 16
0.0
 26
0.0
 36
1.0
 17
0.0
 27
0.0
 37
0.0
 40
297.0
 41
1.4141414141
 42
50.0
 43
0.0
 44
0.0
 50
0.0
 51
0.0
 71
     0
 72
  2000
 73
     1
 74
     3
 75
     0
 76
     0
 77
     0
 78
     0
281
     0
 65
     1
110
0.0
120
0.0
130
0.0
111
1.0
121
0.0
131
0.0
112
0.0
122
1.0
132
0.0
 79
     0
146
0.0
  0
ENDTAB
  0
TABLE
  2
LTYPE
  5
5
330
0
100
AcDbSymbolTable
 70
     6
  0
LTYPE
  5
14
330
5
100
AcDbSymbolTableRecord
100
AcDbLinetypeTableRecord
  2
ByBlock
 70
     0
  3

 72
    65
 73
     0
 40
0.0
  0
LTYPE
  5
15
330
5
100
AcDbSymbolTableRecord
100
AcDbLinetypeTableRecord
  2
ByLayer
 70
     0
  3

 72
    65
 73
     0
 40
0.0
  0
LTYPE
  5
16
330
5
100
AcDbSymbolTableRecord
100
AcDbLinetypeTableRecord
  2
Continuous
 70
     0
  3
Solid line
 72
    65
 73
     0
 40
0.0
  0
LTYPE
  5
6E
330
5
100
AcDbSymbolTableRecord
100
AcDbLinetypeTableRecord
  2
HIDDEN
 70
     0
  3
Hidden __ __ __ __ __ __ __ __ __ __ __ __ __ __
 72
    65
 73
     2
 40
1.905
 49
1.27
 74
     0
 49
-0.635
 74
     0
  0
LTYPE
  5
6F
330
5
100
AcDbSymbolTableRecord
100
AcDbLinetypeTableRecord
  2
PHANTOM
 70
     0
  3
Phantom ______  __  __  ______  __  __  ______
 72
    65
 73
     6
 40
12.7
 49
6.35
 74
     0
 49
-1.27
 74
     0
 49
1.27
 74
     0
 49
-1.27
 74
     0
 49
1.27
 74
     0
 49
-1.27
 74
     0
  0
LTYPE
  5
70
330
5
100
AcDbSymbolTableRecord
100
AcDbLinetypeTableRecord
  2
CENTER
 70
     0
  3
Center ____ _ ____ _ ____ _ ____ _ ____ _ ____
 72
    65
 73
     4
 40
10.16
 49
6.35
 74
     0
 49
-1.27
 74
     0
 49
1.27
 74
     0
 49
-1.27
 74
     0
  0
LTYPE
  5
71
330
5
100
AcDbSymbolTableRecord
100
AcDbLinetypeTableRecord
  2
CENTERX2
 70
     0
  3
Center (2x) ________  __  ________  __  _____
 72
    65
 73
     4
 40
20.32
 49
12.7
 74
     0
 49
-2.54
 74
     0
 49
2.54
 74
     0
 49
-2.54
 74
     0
  0
LTYPE
  5
72
330
5
100
AcDbSymbolTableRecord
100
AcDbLinetypeTableRecord
  2
DOT2
 70
     0
  3
Dot (.5x) ........................................
 72
    65
 73
     2
 40
0.635
 49
0.0
 74
     0
 49
-0.635
 74
     0
  0
ENDTAB
  0
TABLE
  2
LAYER
  5
2
330
0
100
AcDbSymbolTable
 70
     2
  0
LAYER
  5
10
330
2
100
AcDbSymbolTableRecord
100
AcDbLayerTableRecord
  2
0
 70
     0
 62
     7
  6
Continuous
370
    -3
390
F
  0
LAYER
  5
73
330
2
100
AcDbSymbolTableRecord
100
AcDbLayerTableRecord
  2
FORMAT
 70
     0
 62
     7
  6
Continuous
370
    -3
390
F
  0
ENDTAB
  0
TABLE
  2
STYLE
  5
3
330
0
100
AcDbSymbolTable
 70
     4
  0
STYLE
  5
11
330
3
100
AcDbSymbolTableRecord
100
AcDbTextStyleTableRecord
  2
Standard
 70
     0
 40
0.0
 41
1.0
 50
0.0
 71
     0
 42
3.5
  3
txt
  4

  0
STYLE
  5
AF
330
3
100
AcDbSymbolTableRecord
100
AcDbTextStyleTableRecord
  2
SLDTEXTSTYLE0
 70
     0
 40
0.0
 41
0.75
 50
0.0
 71
     0
 42
3.5
  3
TXT
  4

  0
STYLE
  5
CC
330
3
100
AcDbSymbolTableRecord
100
AcDbTextStyleTableRecord
  2
SLDTEXTSTYLE1
 70
     0
 40
0.0
 41
0.6864493306
 50
0.0
 71
     0
 42
3.5
  3
TXT
  4

  0
STYLE
  5
ED
330
3
100
AcDbSymbolTableRecord
100
AcDbTextStyleTableRecord
  2
SLDTEXTSTYLE2
 70
     0
 40
0.0
 41
0.6875
 50
0.0
 71
     0
 42
3.5
  3
TXT
  4

  0
ENDTAB
  0
TABLE
  2
VIEW
  5
6
330
0
100
AcDbSymbolTable
 70
     0
  0
ENDTAB
  0
TABLE
  2
UCS
  5
7
330
0
100
AcDbSymbolTable
 70
     0
  0
ENDTAB
  0
TABLE
  2
APPID
  5
9
330
0
100
AcDbSymbolTable
 70
     1
  0
APPID
  5
12
330
9
100
AcDbSymbolTableRecord
100
AcDbRegAppTableRecord
  2
ACAD
 70
     0
  0
ENDTAB
  0
TABLE
  2
DIMSTYLE
  5
A
330
0
100
AcDbSymbolTable
 70
     4
100
AcDbDimStyleTable
  0
DIMSTYLE
105
27
330
A
100
AcDbSymbolTableRecord
100
AcDbDimStyleTableRecord
  2
ISO-25
 70
     0
 41
2.5
 42
0.625
 43
3.75
 44
1.25
 73
     0
 74
     0
 77
     1
 78
     8
140
2.5
141
2.5
143
0.0393700787
147
0.625
171
     3
172
     1
178
     0
271
     2
272
     2
274
     3
278
    44
283
     0
284
     8
340
11
  0
DIMSTYLE
105
108
102
{ACAD_REACTORS
330
107
330
13F
330
153
102
}
330
A
100
AcDbSymbolTableRecord
100
AcDbDimStyleTableRecord
  2
SLDDIMSTYLE0
 70
     0
 41
3.302
 44
0.0
 45
0.000000001
 73
     0
 74
     0
 77
     1
 78
    12
 79
     3
140
3.5
147
0.875
173
     1
178
     0
271
     2
272
     2
276
     2
284
    12
340
AF
  0
DIMSTYLE
105
135
102
{ACAD_REACTORS
330
134
330
149
102
}
330
A
100
AcDbSymbolTableRecord
100
AcDbDimStyleTableRecord
  2
SLDDIMSTYLE1
 70
     0
 41
3.302
 44
0.0
 45
0.000000001
 73
     0
 74
     0
 77
     1
 78
    12
 79
     3
140
3.5
147
0.875
173
     1
178
     0
271
     0
272
     0
276
     2
284
    12
340
AF
  0
DIMSTYLE
105
15E
102
{ACAD_REACTORS
330
15D
102
}
330
A
100
AcDbSymbolTableRecord
100
AcDbDimStyleTableRecord
  2
SLDDIMSTYLE2
 70
     0
 41
3.302
 44
0.0
 45
0.000000001
 73
     0
 74
     0
 77
     1
 78
    12
 79
     3
140
3.5
141
0.0
147
0.875
172
     1
173
     1
178
     0
271
     2
272
     2
276
     2
284
    12
340
AF
341
15F
343
15F
  0
ENDTAB
  0
TABLE
  2
BLOCK_RECORD
  5
1
330
0
100
AcDbSymbolTable
 70
    24
  0
BLOCK_RECORD
  5
1F
330
1
100
AcDbSymbolTableRecord
100
AcDbBlockTableRecord
  2
*Model_Space
340
22
  0
BLOCK_RECORD
  5
1B
330
1
100
AcDbSymbolTableRecord
100
AcDbBlockTableRecord
  2
*Paper_Space
340
1E
  0
BLOCK_RECORD
  5
23
330
1
100
AcDbSymbolTableRecord
100
AcDbBlockTableRecord
  2
*Paper_Space0
340
26
  0
BLOCK_RECORD
  5
D2
330
1
100
AcDbSymbolTableRecord
100
AcDbBlockTableRecord
  2
SW_NOTE_0
340
0
102
{BLKREFS
331
DB
102
}
  0
BLOCK_RECORD
  5
DD
330
1
100
AcDbSymbolTableRecord
100
AcDbBlockTableRecord
  2
SW_NOTE_1
340
0
102
{BLKREFS
331
E3
102
}
  0
BLOCK_RECORD
  5
109
330
1
100
AcDbSymbolTableRecord
100
AcDbBlockTableRecord
  2
_D
340
0
  0
BLOCK_RECORD
  5
136
330
1
100
AcDbSymbolTableRecord
100
AcDbBlockTableRecord
  2
_D_1
340
0
  0
BLOCK_RECORD
  5
140
330
1
100
AcDbSymbolTableRecord
100
AcDbBlockTableRecord
  2
_D_2
340
0
  0
BLOCK_RECORD
  5
14A
330
1
100
AcDbSymbolTableRecord
100
AcDbBlockTableRecord
  2
_D_3
340
0
  0
BLOCK_RECORD
  5
154
330
1
100
AcDbSymbolTableRecord
100
AcDbBlockTableRecord
  2
_D_4
340
0
  0
BLOCK_RECORD
  5
15F
330
1
100
AcDbSymbolTableRecord
100
AcDbBlockTableRecord
  2
_NONE
340
0
  0
BLOCK_RECORD
  5
162
330
1
100
AcDbSymbolTableRecord
100
AcDbBlockTableRecord
  2
_D_5
340
0
  0
BLOCK_RECORD
  5
16A
330
1
100
AcDbSymbolTableRecord
100
AcDbBlockTableRecord
  2
SW_CENTERMARKSYMBOL_0
340
0
102
{BLKREFS
331
175
102
}
  0
BLOCK_RECORD
  5
176
330
1
100
AcDbSymbolTableRecord
100
AcDbBlockTableRecord
  2
SW_CENTERMARKSYMBOL_1
340
0
102
{BLKREFS
331
181
102
}
  0
BLOCK_RECORD
  5
182
330
1
100
AcDbSymbolTableRecord
100
AcDbBlockTableRecord
  2
SW_CENTERMARKSYMBOL_2
340
0
102
{BLKREFS
331
18D
102
}
  0
BLOCK_RECORD
  5
18E
330
1
100
AcDbSymbolTableRecord
100
AcDbBlockTableRecord
  2
SW_CENTERMARKSYMBOL_3
340
0
102
{BLKREFS
331
199
102
}
  0
BLOCK_RECORD
  5
19A
330
1
100
AcDbSymbolTableRecord
100
AcDbBlockTableRecord
  2
SW_CENTERMARKSYMBOL_4
340
0
102
{BLKREFS
331
1A5
102
}
  0
BLOCK_RECORD
  5
1A6
330
1
100
AcDbSymbolTableRecord
100
AcDbBlockTableRecord
  2
SW_CENTERMARKSYMBOL_5
340
0
102
{BLKREFS
331
1B1
102
}
  0
BLOCK_RECORD
  5
1B2
330
1
100
AcDbSymbolTableRecord
100
AcDbBlockTableRecord
  2
SW_CENTERMARKSYMBOL_6
340
0
102
{BLKREFS
331
1BD
102
}
  0
BLOCK_RECORD
  5
1BE
330
1
100
AcDbSymbolTableRecord
100
AcDbBlockTableRecord
  2
SW_CENTERMARKSYMBOL_7
340
0
102
{BLKREFS
331
1C9
102
}
  0
BLOCK_RECORD
  5
1CA
330
1
100
AcDbSymbolTableRecord
100
AcDbBlockTableRecord
  2
SW_CENTERMARKSYMBOL_8
340
0
102
{BLKREFS
331
1D5
102
}
  0
BLOCK_RECORD
  5
1D6
330
1
100
AcDbSymbolTableRecord
100
AcDbBlockTableRecord
  2
SW_CENTERMARKSYMBOL_9
340
0
102
{BLKREFS
331
1E1
102
}
  0
BLOCK_RECORD
  5
1E2
330
1
100
AcDbSymbolTableRecord
100
AcDbBlockTableRecord
  2
SW_CENTERMARKSYMBOL_10
340
0
102
{BLKREFS
331
1ED
102
}
  0
BLOCK_RECORD
  5
1EE
330
1
100
AcDbSymbolTableRecord
100
AcDbBlockTableRecord
  2
SW_CENTERMARKSYMBOL_11
340
0
102
{BLKREFS
331
1F9
102
}
  0
BLOCK_RECORD
  5
1FA
330
1
100
AcDbSymbolTableRecord
100
AcDbBlockTableRecord
  2
SW_CENTERMARKSYMBOL_12
340
0
102
{BLKREFS
331
205
102
}
  0
BLOCK_RECORD
  5
206
330
1
100
AcDbSymbolTableRecord
100
AcDbBlockTableRecord
  2
SW_CENTERMARKSYMBOL_13
340
0
102
{BLKREFS
331
211
102
}
  0
ENDTAB
  0
ENDSEC
  0
SECTION
  2
BLOCKS
  0
BLOCK
  5
20
330
1F
100
AcDbEntity
  8
0
100
AcDbBlockBegin
  2
*Model_Space
 70
     0
 10
0.0
 20
0.0
 30
0.0
  3
*Model_Space
  1

  0
ENDBLK
  5
21
330
1F
100
AcDbEntity
  8
0
100
AcDbBlockEnd
  0
BLOCK
  5
1C
330
1B
100
AcDbEntity
 67
     1
  8
0
100
AcDbBlockBegin
  2
*Paper_Space
 70
     0
 10
0.0
 20
0.0
 30
0.0
  3
*Paper_Space
  1

  0
ENDBLK
  5
1D
330
1B
100
AcDbEntity
 67
     1
  8
0
100
AcDbBlockEnd
  0
BLOCK
  5
24
330
23
100
AcDbEntity
  8
0
100
AcDbBlockBegin
  2
*Paper_Space0
 70
     0
 10
0.0
 20
0.0
 30
0.0
  3
*Paper_Space0
  1

  0
ENDBLK
  5
25
330
23
100
AcDbEntity
  8
0
100
AcDbBlockEnd
  0
BLOCK
  5
D3
330
D2
100
AcDbEntity
  8
0
100
AcDbBlockBegin
  2
SW_NOTE_0
 70
     0
 10
0.0
 20
0.0
 30
0.0
  3
SW_NOTE_0
  1

  0
MTEXT
  5
D5
330
D2
100
AcDbEntity
  8
0
  6
Continuous
 62
     0
370
     0
100
AcDbMText
 10
0.0
 20
1.9336016097
 30
0.0
 40
1.5
 41
0.0
 71
     1
 72
     1
  1
UNLESS OTHERWISE SPECIFIED:
  7
SLDTEXTSTYLE0
 73
     1
 44
1.0
  0
MTEXT
  5
D6
330
D2
100
AcDbEntity
  8
0
  6
Continuous
 62
     0
370
     0
100
AcDbMText
 10
0.0
 20
-0.5663983345
 30
0.0
 40
1.5
 41
0.0
 71
     1
 72
     1
  1
DIMENSIONS ARE IN MILLIMETERS
  7
SLDTEXTSTYLE0
 73
     1
 44
1.0
  0
MTEXT
  5
D7
330
D2
100
AcDbEntity
  8
0
  6
Continuous
 62
     0
370
     0
100
AcDbMText
 10
0.0
 20
-3.0663982786
 30
0.0
 40
1.5
 41
0.0
 71
     1
 72
     1
  1
SURFACE FINISH:
  7
SLDTEXTSTYLE0
 73
     1
 44
1.0
  0
MTEXT
  5
D8
330
D2
100
AcDbEntity
  8
0
  6
Continuous
 62
     0
370
     0
100
AcDbMText
 10
0.0
 20
-5.5663982227
 30
0.0
 40
1.5
 41
0.0
 71
     1
 72
     1
  1
TOLERANCES:
  7
SLDTEXTSTYLE0
 73
     1
 44
1.0
  0
MTEXT
  5
D9
330
D2
100
AcDbEntity
  8
0
  6
Continuous
 62
     0
370
     0
100
AcDbMText
 10
1.6875
 20
-8.0663981668
 30
0.0
 40
1.5
 41
0.0
 71
     1
 72
     1
  1
LINEAR:
  7
SLDTEXTSTYLE0
 73
     1
 44
1.0
  0
MTEXT
  5
DA
330
D2
100
AcDbEntity
  8
0
  6
Continuous
 62
     0
370
     0
100
AcDbMText
 10
1.6875
 20
-10.5663981109
 30
0.0
 40
1.5
 41
0.0
 71
     1
 72
     1
  1
ANGULAR:
  7
SLDTEXTSTYLE0
 73
     1
 44
1.0
  0
ENDBLK
  5
D4
330
D2
100
AcDbEntity
  8
0
100
AcDbBlockEnd
  0
BLOCK
  5
DE
330
DD
100
AcDbEntity
  8
0
100
AcDbBlockBegin
  2
SW_NOTE_1
 70
     0
 10
0.0
 20
0.0
 30
0.0
  3
SW_NOTE_1
  1

  0
MTEXT
  5
E0
330
DD
100
AcDbEntity
  8
0
  6
Continuous
 62
     0
370
     0
100
AcDbMText
 10
0.0
 20
1.9336016097
 30
0.0
 40
1.5
 41
0.0
 71
     1
 72
     1
  1
DEBURR AND
  7
SLDTEXTSTYLE0
 73
     1
 44
1.0
  0
MTEXT
  5
E1
330
DD
100
AcDbEntity
  8
0
  6
Continuous
 62
     0
370
     0
100
AcDbMText
 10
0.0
 20
-0.5663983345
 30
0.0
 40
1.5
 41
0.0
 71
     1
 72
     1
  1
BREAK SHARP
  7
SLDTEXTSTYLE0
 73
     1
 44
1.0
  0
MTEXT
  5
E2
330
DD
100
AcDbEntity
  8
0
  6
Continuous
 62
     0
370
     0
100
AcDbMText
 10
0.0
 20
-3.0663982786
 30
0.0
 40
1.5
 41
0.0
 71
     1
 72
     1
  1
EDGES
  7
SLDTEXTSTYLE0
 73
     1
 44
1.0
  0
ENDBLK
  5
DF
330
DD
100
AcDbEntity
  8
0
100
AcDbBlockEnd
  0
BLOCK
  5
10A
330
109
100
AcDbEntity
  8
0
100
AcDbBlockBegin
  2
_D
 70
     0
 10
0.0
 20
0.0
 30
0.0
  3
_D
  1

  0
SOLID
  5
10C
330
109
100
AcDbEntity
  8
0
  6
Continuous
 62
     7
370
     0
100
AcDbTrace
 10
83.3040654912
 20
240.9886182121
 30
0.0
 11
82.7960654912
 21
237.6866182121
 31
0.0
 12
83.8120654912
 22
237.6866182121
 32
0.0
 13
83.8120654912
 23
237.6866182121
 33
0.0
  0
SOLID
  5
10D
330
109
100
AcDbEntity
  8
0
  6
Continuous
 62
     7
370
     0
100
AcDbTrace
 10
83.3040654912
 20
210.2358283596
 30
0.0
 11
83.8120654912
 21
213.5378283596
 31
0.0
 12
82.7960654912
 22
213.5378283596
 32
0.0
 13
82.7960654912
 23
213.5378283596
 33
0.0
  0
LINE
  5
10E
330
109
100
AcDbEntity
  8
0
  6
Continuous
 62
     7
370
     0
100
AcDbLine
 10
146.8098557591
 20
240.9886182121
 30
0.0
 11
82.3040654912
 21
240.9886182121
 31
0.0
  0
LINE
  5
10F
330
109
100
AcDbEntity
  8
0
  6
Continuous
 62
     7
370
     0
100
AcDbLine
 10
92.4825584583
 20
210.2358283596
 30
0.0
 11
82.3040654912
 21
210.2358283596
 31
0.0
  0
LINE
  5
110
330
109
100
AcDbEntity
  8
0
  6
Continuous
 62
     7
370
     0
100
AcDbLine
 10
83.3040654912
 20
240.9886182121
 30
0.0
 11
83.3040654912
 21
210.2358283596
 31
0.0
  0
MTEXT
  5
111
330
109
100
AcDbEntity
  8
0
  6
Continuous
 62
     7
370
     0
100
AcDbMText
 10
78.7923285766
 20
220.0454277604
 30
0.0
 40
3.5
 41
0.0
 71
     1
 72
     1
  1
30,75
  7
SLDTEXTSTYLE0
 11
-7.044195017643634E-15
 21
1.0
 31
0.0
 73
     1
 44
1.0
  0
ENDBLK
  5
10B
330
109
100
AcDbEntity
  8
0
100
AcDbBlockEnd
  0
BLOCK
  5
137
330
136
100
AcDbEntity
  8
0
100
AcDbBlockBegin
  2
_D_1
 70
     0
 10
0.0
 20
0.0
 30
0.0
  3
_D_1
  1

  0
SOLID
  5
139
330
136
100
AcDbEntity
  8
0
  6
Continuous
 62
     7
370
     0
100
AcDbTrace
 10
93.4825584583
 20
190.0678021978
 30
0.0
 11
96.7845584583
 21
189.5598021978
 31
0.0
 12
96.7845584583
 22
190.5758021978
 32
0.0
 13
96.7845584583
 23
190.5758021978
 33
0.0
  0
SOLID
  5
13A
330
136
100
AcDbEntity
  8
0
  6
Continuous
 62
     7
370
     0
100
AcDbTrace
 10
205.5633756076
 20
190.0678021978
 30
0.0
 11
202.2613756076
 21
190.5758021978
 31
0.0
 12
202.2613756076
 22
189.5598021978
 32
0.0
 13
202.2613756076
 23
189.5598021978
 33
0.0
  0
LINE
  5
13B
330
136
100
AcDbEntity
  8
0
  6
Continuous
 62
     7
370
     0
100
AcDbLine
 10
93.4825584583
 20
171.8401870133
 30
0.0
 11
93.4825584583
 21
191.0678021978
 31
0.0
  0
LINE
  5
13C
330
136
100
AcDbEntity
  8
0
  6
Continuous
 62
     7
370
     0
100
AcDbLine
 10
205.5633756076
 20
171.8401870133
 30
0.0
 11
205.5633756076
 21
191.0678021978
 31
0.0
  0
LINE
  5
13D
330
136
100
AcDbEntity
  8
0
  6
Continuous
 62
     7
370
     0
100
AcDbLine
 10
93.4825584583
 20
190.0678021978
 30
0.0
 11
205.5633756076
 21
190.0678021978
 31
0.0
  0
MTEXT
  5
13E
330
136
100
AcDbEntity
  8
0
  6
Continuous
 62
     7
370
     0
100
AcDbMText
 10
147.8573025106
 20
194.5795391124
 30
0.0
 40
3.5
 41
0.0
 71
     1
 72
     1
  1
112
  7
SLDTEXTSTYLE0
 73
     1
 44
1.0
  0
ENDBLK
  5
138
330
136
100
AcDbEntity
  8
0
100
AcDbBlockEnd
  0
BLOCK
  5
141
330
140
100
AcDbEntity
  8
0
100
AcDbBlockBegin
  2
_D_2
 70
     0
 10
0.0
 20
0.0
 30
0.0
  3
_D_2
  1

  0
SOLID
  5
143
330
140
100
AcDbEntity
  8
0
  6
Continuous
 62
     7
370
     0
100
AcDbTrace
 10
77.3040654912
 20
174.0678021978
 30
0.0
 11
76.7960654912
 21
170.7658021978
 31
0.0
 12
77.8120654912
 22
170.7658021978
 32
0.0
 13
77.8120654912
 23
170.7658021978
 33
0.0
  0
SOLID
  5
144
330
140
100
AcDbEntity
  8
0
  6
Continuous
 62
     7
370
     0
100
AcDbTrace
 10
77.3040654912
 20
104.0678021978
 30
0.0
 11
77.8120654912
 21
107.3698021978
 31
0.0
 12
76.7960654912
 22
107.3698021978
 32
0.0
 13
76.7960654912
 23
107.3698021978
 33
0.0
  0
LINE
  5
145
330
140
100
AcDbEntity
  8
0
  6
Continuous
 62
     7
370
     0
100
AcDbLine
 10
98.1413902423
 20
174.0678021978
 30
0.0
 11
76.3040654912
 21
174.0678021978
 31
0.0
  0
LINE
  5
146
330
140
100
AcDbEntity
  8
0
  6
Continuous
 62
     7
370
     0
100
AcDbLine
 10
98.1413902423
 20
104.0678021978
 30
0.0
 11
76.3040654912
 21
104.0678021978
 31
0.0
  0
LINE
  5
147
330
140
100
AcDbEntity
  8
0
  6
Continuous
 62
     7
370
     0
100
AcDbLine
 10
77.3040654912
 20
174.0678021978
 30
0.0
 11
77.3040654912
 21
104.0678021978
 31
0.0
  0
MTEXT
  5
148
330
140
100
AcDbEntity
  8
0
  6
Continuous
 62
     7
370
     0
100
AcDbMText
 10
72.7923285766
 20
140.7365477897
 30
0.0
 40
3.5
 41
0.0
 71
     1
 72
     1
  1
70
  7
SLDTEXTSTYLE0
 11
-7.044195017643634E-15
 21
1.0
 31
0.0
 73
     1
 44
1.0
  0
ENDBLK
  5
142
330
140
100
AcDbEntity
  8
0
100
AcDbBlockEnd
  0
BLOCK
  5
14B
330
14A
100
AcDbEntity
  8
0
100
AcDbBlockBegin
  2
_D_3
 70
     0
 10
0.0
 20
0.0
 30
0.0
  3
_D_3
  1

  0
SOLID
  5
14D
330
14A
100
AcDbEntity
  8
0
  6
Continuous
 62
     7
370
     0
100
AcDbTrace
 10
102.4825584583
 20
184.0678021978
 30
0.0
 11
105.7845584583
 21
183.5598021978
 31
0.0
 12
105.7845584583
 22
184.5758021978
 32
0.0
 13
105.7845584583
 23
184.5758021978
 33
0.0
  0
SOLID
  5
14E
330
14A
100
AcDbEntity
  8
0
  6
Continuous
 62
     7
370
     0
100
AcDbTrace
 10
196.5633756076
 20
184.0678021978
 30
0.0
 11
193.2613756076
 21
184.5758021978
 31
0.0
 12
193.2613756076
 22
183.5598021978
 32
0.0
 13
193.2613756076
 23
183.5598021978
 33
0.0
  0
LINE
  5
14F
330
14A
100
AcDbEntity
  8
0
  6
Continuous
 62
     7
370
     0
100
AcDbLine
 10
102.4825584583
 20
162.0678021978
 30
0.0
 11
102.4825584583
 21
185.0678021978
 31
0.0
  0
LINE
  5
150
330
14A
100
AcDbEntity
  8
0
  6
Continuous
 62
     7
370
     0
100
AcDbLine
 10
196.5633756076
 20
162.0678021978
 30
0.0
 11
196.5633756076
 21
185.0678021978
 31
0.0
  0
LINE
  5
151
330
14A
100
AcDbEntity
  8
0
  6
Continuous
 62
     7
370
     0
100
AcDbLine
 10
102.4825584583
 20
184.0678021978
 30
0.0
 11
196.5633756076
 21
184.0678021978
 31
0.0
  0
MTEXT
  5
152
330
14A
100
AcDbEntity
  8
0
  6
Continuous
 62
     7
370
     0
100
AcDbMText
 10
149.150357991
 20
188.5795391124
 30
0.0
 40
3.5
 41
0.0
 71
     1
 72
     1
  1
94
  7
SLDTEXTSTYLE0
 73
     1
 44
1.0
  0
ENDBLK
  5
14C
330
14A
100
AcDbEntity
  8
0
100
AcDbBlockEnd
  0
BLOCK
  5
155
330
154
100
AcDbEntity
  8
0
100
AcDbBlockBegin
  2
_D_4
 70
     0
 10
0.0
 20
0.0
 30
0.0
  3
_D_4
  1

  0
SOLID
  5
157
330
154
100
AcDbEntity
  8
0
  6
Continuous
 62
     7
370
     0
100
AcDbTrace
 10
86.8641603709
 20
165.0678021978
 30
0.0
 11
86.3561603709
 21
161.7658021978
 31
0.0
 12
87.3721603709
 22
161.7658021978
 32
0.0
 13
87.3721603709
 23
161.7658021978
 33
0.0
  0
SOLID
  5
158
330
154
100
AcDbEntity
  8
0
  6
Continuous
 62
     7
370
     0
100
AcDbTrace
 10
86.8641603709
 20
113.0678021978
 30
0.0
 11
87.3721603709
 21
116.3698021978
 31
0.0
 12
86.3561603709
 22
116.3698021978
 32
0.0
 13
86.3561603709
 23
116.3698021978
 33
0.0
  0
LINE
  5
159
330
154
100
AcDbEntity
  8
0
  6
Continuous
 62
     7
370
     0
100
AcDbLine
 10
105.4825584583
 20
165.0678021978
 30
0.0
 11
85.8641603709
 21
165.0678021978
 31
0.0
  0
LINE
  5
15A
330
154
100
AcDbEntity
  8
0
  6
Continuous
 62
     7
370
     0
100
AcDbLine
 10
105.4825584583
 20
113.0678021978
 30
0.0
 11
85.8641603709
 21
113.0678021978
 31
0.0
  0
LINE
  5
15B
330
154
100
AcDbEntity
  8
0
  6
Continuous
 62
     7
370
     0
100
AcDbLine
 10
86.8641603709
 20
165.0678021978
 30
0.0
 11
86.8641603709
 21
113.0678021978
 31
0.0
  0
MTEXT
  5
15C
330
154
100
AcDbEntity
  8
0
  6
Continuous
 62
     7
370
     0
100
AcDbMText
 10
82.3524234563
 20
140.7365477897
 30
0.0
 40
3.5
 41
0.0
 71
     1
 72
     1
  1
52
  7
SLDTEXTSTYLE0
 11
-7.044195017643634E-15
 21
1.0
 31
0.0
 73
     1
 44
1.0
  0
ENDBLK
  5
156
330
154
100
AcDbEntity
  8
0
100
AcDbBlockEnd
  0
BLOCK
  5
160
330
15F
100
AcDbEntity
  8
0
100
AcDbBlockBegin
  2
_NONE
 70
     0
 10
0.0
 20
0.0
 30
0.0
  3
_NONE
  1

  0
ENDBLK
  5
161
330
15F
100
AcDbEntity
  8
0
100
AcDbBlockEnd
  0
BLOCK
  5
163
330
162
100
AcDbEntity
  8
0
100
AcDbBlockBegin
  2
_D_5
 70
     0
 10
0.0
 20
0.0
 30
0.0
  3
_D_5
  1

  0
SOLID
  5
165
330
162
100
AcDbEntity
  8
0
  6
Continuous
 62
     7
370
     0
100
AcDbTrace
 10
99.5508099823
 20
151.3849569824
 30
0.0
 11
102.8879857092
 21
151.5415653102
 31
0.0
 12
102.6865924209
 22
152.537405028
 32
0.0
 13
102.6865924209
 23
152.537405028
 33
0.0
  0
LINE
  5
166
330
162
100
AcDbEntity
  8
0
  6
Continuous
 62
     7
370
     0
100
AcDbLine
 10
99.5508099823
 20
151.3849569824
 30
0.0
 11
119.2481360167
 21
155.3684386495
 31
0.0
  0
LINE
  5
167
330
162
100
AcDbEntity
  8
0
  6
Continuous
 62
     7
370
     0
100
AcDbLine
 10
99.5508099823
 20
151.3849569824
 30
0.0
 11
96.4143069343
 21
150.7506474132
 31
0.0
  0
MTEXT
  5
168
330
162
100
AcDbEntity
  8
0
  6
Continuous
 62
     7
370
     0
100
AcDbMText
 10
106.4513868415
 20
157.3398526477
 30
0.0
 40
3.5
 41
0.0
 71
     1
 72
     1
  1
%%c
  7
SLDTEXTSTYLE0
 11
0.9801572025165374
 21
0.1982217403691017
 31
0.0
 73
     1
 44
1.0
  0
MTEXT
  5
169
330
162
100
AcDbEntity
  8
0
  6
Continuous
 62
     7
370
     0
100
AcDbMText
 10
111.6144859276
 20
158.4385648344
 30
0.0
 40
3.5
 41
0.0
 71
     1
 72
     1
  1
M4
  7
SLDTEXTSTYLE0
 11
0.9801572025165374
 21
0.1982217403691017
 31
0.0
 73
     1
 44
1.0
  0
ENDBLK
  5
164
330
162
100
AcDbEntity
  8
0
100
AcDbBlockEnd
  0
BLOCK
  5
16B
330
16A
100
AcDbEntity
  8
0
100
AcDbBlockBegin
  2
SW_CENTERMARKSYMBOL_0
 70
     0
 10
0.0
 20
0.0
 30
0.0
  3
SW_CENTERMARKSYMBOL_0
  1

  0
LINE
  5
16D
330
16A
100
AcDbEntity
  8
0
  6
Continuous
 62
     0
370
     0
100
AcDbLine
 10
0.0
 20
0.0
 30
0.0
 11
0.0
 21
2.5
 31
0.0
  0
LINE
  5
16E
330
16A
100
AcDbEntity
  8
0
  6
Continuous
 62
     0
370
     0
100
AcDbLine
 10
0.0
 20
0.0
 30
0.0
 11
-2.5
 21
0.0
 31
0.0
  0
LINE
  5
16F
330
16A
100
AcDbEntity
  8
0
  6
Continuous
 62
     0
370
     0
100
AcDbLine
 10
0.0
 20
0.0
 30
0.0
 11
0.0
 21
-2.5
 31
0.0
  0
LINE
  5
170
330
16A
100
AcDbEntity
  8
0
  6
Continuous
 62
     0
370
     0
100
AcDbLine
 10
0.0
 20
0.0
 30
0.0
 11
2.5
 21
0.0
 31
0.0
  0
LINE
  5
171
330
16A
100
AcDbEntity
  8
0
  6
Continuous
 62
     0
370
     0
100
AcDbLine
 10
0.0
 20
2.5
 30
0.0
 11
0.0
 21
4.1
 31
0.0
  0
LINE
  5
172
330
16A
100
AcDbEntity
  8
0
  6
Continuous
 62
     0
370
     0
100
AcDbLine
 10
-2.5
 20
0.0
 30
0.0
 11
-4.1
 21
0.0
 31
0.0
  0
LINE
  5
173
330
16A
100
AcDbEntity
  8
0
  6
Continuous
 62
     0
370
     0
100
AcDbLine
 10
0.0
 20
-2.5
 30
0.0
 11
0.0
 21
-4.1
 31
0.0
  0
LINE
  5
174
330
16A
100
AcDbEntity
  8
0
  6
Continuous
 62
     0
370
     0
100
AcDbLine
 10
2.5
 20
0.0
 30
0.0
 11
4.1
 21
0.0
 31
0.0
  0
ENDBLK
  5
16C
330
16A
100
AcDbEntity
  8
0
100
AcDbBlockEnd
  0
BLOCK
  5
177
330
176
100
AcDbEntity
  8
0
100
AcDbBlockBegin
  2
SW_CENTERMARKSYMBOL_1
 70
     0
 10
0.0
 20
0.0
 30
0.0
  3
SW_CENTERMARKSYMBOL_1
  1

  0
LINE
  5
179
330
176
100
AcDbEntity
  8
0
  6
Continuous
 62
     0
370
     0
100
AcDbLine
 10
0.0
 20
0.0
 30
0.0
 11
0.0
 21
2.5
 31
0.0
  0
LINE
  5
17A
330
176
100
AcDbEntity
  8
0
  6
Continuous
 62
     0
370
     0
100
AcDbLine
 10
0.0
 20
0.0
 30
0.0
 11
-2.5
 21
0.0
 31
0.0
  0
LINE
  5
17B
330
176
100
AcDbEntity
  8
0
  6
Continuous
 62
     0
370
     0
100
AcDbLine
 10
0.0
 20
0.0
 30
0.0
 11
0.0
 21
-2.5
 31
0.0
  0
LINE
  5
17C
330
176
100
AcDbEntity
  8
0
  6
Continuous
 62
     0
370
     0
100
AcDbLine
 10
0.0
 20
0.0
 30
0.0
 11
2.5
 21
0.0
 31
0.0
  0
LINE
  5
17D
330
176
100
AcDbEntity
  8
0
  6
Continuous
 62
     0
370
     0
100
AcDbLine
 10
0.0
 20
2.5
 30
0.0
 11
0.0
 21
4.1
 31
0.0
  0
LINE
  5
17E
330
176
100
AcDbEntity
  8
0
  6
Continuous
 62
     0
370
     0
100
AcDbLine
 10
-2.5
 20
0.0
 30
0.0
 11
-4.1
 21
0.0
 31
0.0
  0
LINE
  5
17F
330
176
100
AcDbEntity
  8
0
  6
Continuous
 62
     0
370
     0
100
AcDbLine
 10
0.0
 20
-2.5
 30
0.0
 11
0.0
 21
-4.1
 31
0.0
  0
LINE
  5
180
330
176
100
AcDbEntity
  8
0
  6
Continuous
 62
     0
370
     0
100
AcDbLine
 10
2.5
 20
0.0
 30
0.0
 11
4.1
 21
0.0
 31
0.0
  0
ENDBLK
  5
178
330
176
100
AcDbEntity
  8
0
100
AcDbBlockEnd
  0
BLOCK
  5
183
330
182
100
AcDbEntity
  8
0
100
AcDbBlockBegin
  2
SW_CENTERMARKSYMBOL_2
 70
     0
 10
0.0
 20
0.0
 30
0.0
  3
SW_CENTERMARKSYMBOL_2
  1

  0
LINE
  5
185
330
182
100
AcDbEntity
  8
0
  6
Continuous
 62
     0
370
     0
100
AcDbLine
 10
0.0
 20
0.0
 30
0.0
 11
0.0
 21
2.5
 31
0.0
  0
LINE
  5
186
330
182
100
AcDbEntity
  8
0
  6
Continuous
 62
     0
370
     0
100
AcDbLine
 10
0.0
 20
0.0
 30
0.0
 11
-2.5
 21
0.0
 31
0.0
  0
LINE
  5
187
330
182
100
AcDbEntity
  8
0
  6
Continuous
 62
     0
370
     0
100
AcDbLine
 10
0.0
 20
0.0
 30
0.0
 11
0.0
 21
-2.5
 31
0.0
  0
LINE
  5
188
330
182
100
AcDbEntity
  8
0
  6
Continuous
 62
     0
370
     0
100
AcDbLine
 10
0.0
 20
0.0
 30
0.0
 11
2.5
 21
0.0
 31
0.0
  0
LINE
  5
189
330
182
100
AcDbEntity
  8
0
  6
Continuous
 62
     0
370
     0
100
AcDbLine
 10
0.0
 20
2.5
 30
0.0
 11
0.0
 21
4.1
 31
0.0
  0
LINE
  5
18A
330
182
100
AcDbEntity
  8
0
  6
Continuous
 62
     0
370
     0
100
AcDbLine
 10
-2.5
 20
0.0
 30
0.0
 11
-4.1
 21
0.0
 31
0.0
  0
LINE
  5
18B
330
182
100
AcDbEntity
  8
0
  6
Continuous
 62
     0
370
     0
100
AcDbLine
 10
0.0
 20
-2.5
 30
0.0
 11
0.0
 21
-4.1
 31
0.0
  0
LINE
  5
18C
330
182
100
AcDbEntity
  8
0
  6
Continuous
 62
     0
370
     0
100
AcDbLine
 10
2.5
 20
0.0
 30
0.0
 11
4.1
 21
0.0
 31
0.0
  0
ENDBLK
  5
184
330
182
100
AcDbEntity
  8
0
100
AcDbBlockEnd
  0
BLOCK
  5
18F
330
18E
100
AcDbEntity
  8
0
100
AcDbBlockBegin
  2
SW_CENTERMARKSYMBOL_3
 70
     0
 10
0.0
 20
0.0
 30
0.0
  3
SW_CENTERMARKSYMBOL_3
  1

  0
LINE
  5
191
330
18E
100
AcDbEntity
  8
0
  6
Continuous
 62
     0
370
     0
100
AcDbLine
 10
0.0
 20
0.0
 30
0.0
 11
0.0
 21
2.5
 31
0.0
  0
LINE
  5
192
330
18E
100
AcDbEntity
  8
0
  6
Continuous
 62
     0
370
     0
100
AcDbLine
 10
0.0
 20
0.0
 30
0.0
 11
-2.5
 21
0.0
 31
0.0
  0
LINE
  5
193
330
18E
100
AcDbEntity
  8
0
  6
Continuous
 62
     0
370
     0
100
AcDbLine
 10
0.0
 20
0.0
 30
0.0
 11
0.0
 21
-2.5
 31
0.0
  0
LINE
  5
194
330
18E
100
AcDbEntity
  8
0
  6
Continuous
 62
     0
370
     0
100
AcDbLine
 10
0.0
 20
0.0
 30
0.0
 11
2.5
 21
0.0
 31
0.0
  0
LINE
  5
195
330
18E
100
AcDbEntity
  8
0
  6
Continuous
 62
     0
370
     0
100
AcDbLine
 10
0.0
 20
2.5
 30
0.0
 11
0.0
 21
4.1
 31
0.0
  0
LINE
  5
196
330
18E
100
AcDbEntity
  8
0
  6
Continuous
 62
     0
370
     0
100
AcDbLine
 10
-2.5
 20
0.0
 30
0.0
 11
-4.1
 21
0.0
 31
0.0
  0
LINE
  5
197
330
18E
100
AcDbEntity
  8
0
  6
Continuous
 62
     0
370
     0
100
AcDbLine
 10
0.0
 20
-2.5
 30
0.0
 11
0.0
 21
-4.1
 31
0.0
  0
LINE
  5
198
330
18E
100
AcDbEntity
  8
0
  6
Continuous
 62
     0
370
     0
100
AcDbLine
 10
2.5
 20
0.0
 30
0.0
 11
4.1
 21
0.0
 31
0.0
  0
ENDBLK
  5
190
330
18E
100
AcDbEntity
  8
0
100
AcDbBlockEnd
  0
BLOCK
  5
19B
330
19A
100
AcDbEntity
  8
0
100
AcDbBlockBegin
  2
SW_CENTERMARKSYMBOL_4
 70
     0
 10
0.0
 20
0.0
 30
0.0
  3
SW_CENTERMARKSYMBOL_4
  1

  0
LINE
  5
19D
330
19A
100
AcDbEntity
  8
0
  6
Continuous
 62
     0
370
     0
100
AcDbLine
 10
0.0
 20
0.0
 30
0.0
 11
0.0
 21
2.5
 31
0.0
  0
LINE
  5
19E
330
19A
100
AcDbEntity
  8
0
  6
Continuous
 62
     0
370
     0
100
AcDbLine
 10
0.0
 20
0.0
 30
0.0
 11
-2.5
 21
0.0
 31
0.0
  0
LINE
  5
19F
330
19A
100
AcDbEntity
  8
0
  6
Continuous
 62
     0
370
     0
100
AcDbLine
 10
0.0
 20
0.0
 30
0.0
 11
0.0
 21
-2.5
 31
0.0
  0
LINE
  5
1A0
330
19A
100
AcDbEntity
  8
0
  6
Continuous
 62
     0
370
     0
100
AcDbLine
 10
0.0
 20
0.0
 30
0.0
 11
2.5
 21
0.0
 31
0.0
  0
LINE
  5
1A1
330
19A
100
AcDbEntity
  8
0
  6
Continuous
 62
     0
370
     0
100
AcDbLine
 10
0.0
 20
2.5
 30
0.0
 11
0.0
 21
4.1
 31
0.0
  0
LINE
  5
1A2
330
19A
100
AcDbEntity
  8
0
  6
Continuous
 62
     0
370
     0
100
AcDbLine
 10
-2.5
 20
0.0
 30
0.0
 11
-4.1
 21
0.0
 31
0.0
  0
LINE
  5
1A3
330
19A
100
AcDbEntity
  8
0
  6
Continuous
 62
     0
370
     0
100
AcDbLine
 10
0.0
 20
-2.5
 30
0.0
 11
0.0
 21
-4.1
 31
0.0
  0
LINE
  5
1A4
330
19A
100
AcDbEntity
  8
0
  6
Continuous
 62
     0
370
     0
100
AcDbLine
 10
2.5
 20
0.0
 30
0.0
 11
4.1
 21
0.0
 31
0.0
  0
ENDBLK
  5
19C
330
19A
100
AcDbEntity
  8
0
100
AcDbBlockEnd
  0
BLOCK
  5
1A7
330
1A6
100
AcDbEntity
  8
0
100
AcDbBlockBegin
  2
SW_CENTERMARKSYMBOL_5
 70
     0
 10
0.0
 20
0.0
 30
0.0
  3
SW_CENTERMARKSYMBOL_5
  1

  0
LINE
  5
1A9
330
1A6
100
AcDbEntity
  8
0
  6
Continuous
 62
     0
370
     0
100
AcDbLine
 10
0.0
 20
0.0
 30
0.0
 11
0.0
 21
2.5
 31
0.0
  0
LINE
  5
1AA
330
1A6
100
AcDbEntity
  8
0
  6
Continuous
 62
     0
370
     0
100
AcDbLine
 10
0.0
 20
0.0
 30
0.0
 11
-2.5
 21
0.0
 31
0.0
  0
LINE
  5
1AB
330
1A6
100
AcDbEntity
  8
0
  6
Continuous
 62
     0
370
     0
100
AcDbLine
 10
0.0
 20
0.0
 30
0.0
 11
0.0
 21
-2.5
 31
0.0
  0
LINE
  5
1AC
330
1A6
100
AcDbEntity
  8
0
  6
Continuous
 62
     0
370
     0
100
AcDbLine
 10
0.0
 20
0.0
 30
0.0
 11
2.5
 21
0.0
 31
0.0
  0
LINE
  5
1AD
330
1A6
100
AcDbEntity
  8
0
  6
Continuous
 62
     0
370
     0
100
AcDbLine
 10
0.0
 20
2.5
 30
0.0
 11
0.0
 21
4.1
 31
0.0
  0
LINE
  5
1AE
330
1A6
100
AcDbEntity
  8
0
  6
Continuous
 62
     0
370
     0
100
AcDbLine
 10
-2.5
 20
0.0
 30
0.0
 11
-4.1
 21
0.0
 31
0.0
  0
LINE
  5
1AF
330
1A6
100
AcDbEntity
  8
0
  6
Continuous
 62
     0
370
     0
100
AcDbLine
 10
0.0
 20
-2.5
 30
0.0
 11
0.0
 21
-4.1
 31
0.0
  0
LINE
  5
1B0
330
1A6
100
AcDbEntity
  8
0
  6
Continuous
 62
     0
370
     0
100
AcDbLine
 10
2.5
 20
0.0
 30
0.0
 11
4.1
 21
0.0
 31
0.0
  0
ENDBLK
  5
1A8
330
1A6
100
AcDbEntity
  8
0
100
AcDbBlockEnd
  0
BLOCK
  5
1B3
330
1B2
100
AcDbEntity
  8
0
100
AcDbBlockBegin
  2
SW_CENTERMARKSYMBOL_6
 70
     0
 10
0.0
 20
0.0
 30
0.0
  3
SW_CENTERMARKSYMBOL_6
  1

  0
LINE
  5
1B5
330
1B2
100
AcDbEntity
  8
0
  6
Continuous
 62
     0
370
     0
100
AcDbLine
 10
0.0
 20
0.0
 30
0.0
 11
0.0
 21
2.5
 31
0.0
  0
LINE
  5
1B6
330
1B2
100
AcDbEntity
  8
0
  6
Continuous
 62
     0
370
     0
100
AcDbLine
 10
0.0
 20
0.0
 30
0.0
 11
-2.5
 21
0.0
 31
0.0
  0
LINE
  5
1B7
330
1B2
100
AcDbEntity
  8
0
  6
Continuous
 62
     0
370
     0
100
AcDbLine
 10
0.0
 20
0.0
 30
0.0
 11
0.0
 21
-2.5
 31
0.0
  0
LINE
  5
1B8
330
1B2
100
AcDbEntity
  8
0
  6
Continuous
 62
     0
370
     0
100
AcDbLine
 10
0.0
 20
0.0
 30
0.0
 11
2.5
 21
0.0
 31
0.0
  0
LINE
  5
1B9
330
1B2
100
AcDbEntity
  8
0
  6
Continuous
 62
     0
370
     0
100
AcDbLine
 10
0.0
 20
2.5
 30
0.0
 11
0.0
 21
4.1
 31
0.0
  0
LINE
  5
1BA
330
1B2
100
AcDbEntity
  8
0
  6
Continuous
 62
     0
370
     0
100
AcDbLine
 10
-2.5
 20
0.0
 30
0.0
 11
-4.1
 21
0.0
 31
0.0
  0
LINE
  5
1BB
330
1B2
100
AcDbEntity
  8
0
  6
Continuous
 62
     0
370
     0
100
AcDbLine
 10
0.0
 20
-2.5
 30
0.0
 11
0.0
 21
-4.1
 31
0.0
  0
LINE
  5
1BC
330
1B2
100
AcDbEntity
  8
0
  6
Continuous
 62
     0
370
     0
100
AcDbLine
 10
2.5
 20
0.0
 30
0.0
 11
4.1
 21
0.0
 31
0.0
  0
ENDBLK
  5
1B4
330
1B2
100
AcDbEntity
  8
0
100
AcDbBlockEnd
  0
BLOCK
  5
1BF
330
1BE
100
AcDbEntity
  8
0
100
AcDbBlockBegin
  2
SW_CENTERMARKSYMBOL_7
 70
     0
 10
0.0
 20
0.0
 30
0.0
  3
SW_CENTERMARKSYMBOL_7
  1

  0
LINE
  5
1C1
330
1BE
100
AcDbEntity
  8
0
  6
Continuous
 62
     0
370
     0
100
AcDbLine
 10
0.0
 20
0.0
 30
0.0
 11
0.0
 21
2.5
 31
0.0
  0
LINE
  5
1C2
330
1BE
100
AcDbEntity
  8
0
  6
Continuous
 62
     0
370
     0
100
AcDbLine
 10
0.0
 20
0.0
 30
0.0
 11
-2.5
 21
0.0
 31
0.0
  0
LINE
  5
1C3
330
1BE
100
AcDbEntity
  8
0
  6
Continuous
 62
     0
370
     0
100
AcDbLine
 10
0.0
 20
0.0
 30
0.0
 11
0.0
 21
-2.5
 31
0.0
  0
LINE
  5
1C4
330
1BE
100
AcDbEntity
  8
0
  6
Continuous
 62
     0
370
     0
100
AcDbLine
 10
0.0
 20
0.0
 30
0.0
 11
2.5
 21
0.0
 31
0.0
  0
LINE
  5
1C5
330
1BE
100
AcDbEntity
  8
0
  6
Continuous
 62
     0
370
     0
100
AcDbLine
 10
0.0
 20
2.5
 30
0.0
 11
0.0
 21
4.1
 31
0.0
  0
LINE
  5
1C6
330
1BE
100
AcDbEntity
  8
0
  6
Continuous
 62
     0
370
     0
100
AcDbLine
 10
-2.5
 20
0.0
 30
0.0
 11
-4.1
 21
0.0
 31
0.0
  0
LINE
  5
1C7
330
1BE
100
AcDbEntity
  8
0
  6
Continuous
 62
     0
370
     0
100
AcDbLine
 10
0.0
 20
-2.5
 30
0.0
 11
0.0
 21
-4.1
 31
0.0
  0
LINE
  5
1C8
330
1BE
100
AcDbEntity
  8
0
  6
Continuous
 62
     0
370
     0
100
AcDbLine
 10
2.5
 20
0.0
 30
0.0
 11
4.1
 21
0.0
 31
0.0
  0
ENDBLK
  5
1C0
330
1BE
100
AcDbEntity
  8
0
100
AcDbBlockEnd
  0
BLOCK
  5
1CB
330
1CA
100
AcDbEntity
  8
0
100
AcDbBlockBegin
  2
SW_CENTERMARKSYMBOL_8
 70
     0
 10
0.0
 20
0.0
 30
0.0
  3
SW_CENTERMARKSYMBOL_8
  1

  0
LINE
  5
1CD
330
1CA
100
AcDbEntity
  8
0
  6
Continuous
 62
     0
370
     0
100
AcDbLine
 10
0.0
 20
0.0
 30
0.0
 11
0.0
 21
2.5
 31
0.0
  0
LINE
  5
1CE
330
1CA
100
AcDbEntity
  8
0
  6
Continuous
 62
     0
370
     0
100
AcDbLine
 10
0.0
 20
0.0
 30
0.0
 11
-2.5
 21
0.0
 31
0.0
  0
LINE
  5
1CF
330
1CA
100
AcDbEntity
  8
0
  6
Continuous
 62
     0
370
     0
100
AcDbLine
 10
0.0
 20
0.0
 30
0.0
 11
0.0
 21
-2.5
 31
0.0
  0
LINE
  5
1D0
330
1CA
100
AcDbEntity
  8
0
  6
Continuous
 62
     0
370
     0
100
AcDbLine
 10
0.0
 20
0.0
 30
0.0
 11
2.5
 21
0.0
 31
0.0
  0
LINE
  5
1D1
330
1CA
100
AcDbEntity
  8
0
  6
Continuous
 62
     0
370
     0
100
AcDbLine
 10
0.0
 20
2.5
 30
0.0
 11
0.0
 21
4.1
 31
0.0
  0
LINE
  5
1D2
330
1CA
100
AcDbEntity
  8
0
  6
Continuous
 62
     0
370
     0
100
AcDbLine
 10
-2.5
 20
0.0
 30
0.0
 11
-4.1
 21
0.0
 31
0.0
  0
LINE
  5
1D3
330
1CA
100
AcDbEntity
  8
0
  6
Continuous
 62
     0
370
     0
100
AcDbLine
 10
0.0
 20
-2.5
 30
0.0
 11
0.0
 21
-4.1
 31
0.0
  0
LINE
  5
1D4
330
1CA
100
AcDbEntity
  8
0
  6
Continuous
 62
     0
370
     0
100
AcDbLine
 10
2.5
 20
0.0
 30
0.0
 11
4.1
 21
0.0
 31
0.0
  0
ENDBLK
  5
1CC
330
1CA
100
AcDbEntity
  8
0
100
AcDbBlockEnd
  0
BLOCK
  5
1D7
330
1D6
100
AcDbEntity
  8
0
100
AcDbBlockBegin
  2
SW_CENTERMARKSYMBOL_9
 70
     0
 10
0.0
 20
0.0
 30
0.0
  3
SW_CENTERMARKSYMBOL_9
  1

  0
LINE
  5
1D9
330
1D6
100
AcDbEntity
  8
0
  6
Continuous
 62
     0
370
     0
100
AcDbLine
 10
0.0
 20
0.0
 30
0.0
 11
0.0
 21
2.5
 31
0.0
  0
LINE
  5
1DA
330
1D6
100
AcDbEntity
  8
0
  6
Continuous
 62
     0
370
     0
100
AcDbLine
 10
0.0
 20
0.0
 30
0.0
 11
-2.5
 21
0.0
 31
0.0
  0
LINE
  5
1DB
330
1D6
100
AcDbEntity
  8
0
  6
Continuous
 62
     0
370
     0
100
AcDbLine
 10
0.0
 20
0.0
 30
0.0
 11
0.0
 21
-2.5
 31
0.0
  0
LINE
  5
1DC
330
1D6
100
AcDbEntity
  8
0
  6
Continuous
 62
     0
370
     0
100
AcDbLine
 10
0.0
 20
0.0
 30
0.0
 11
2.5
 21
0.0
 31
0.0
  0
LINE
  5
1DD
330
1D6
100
AcDbEntity
  8
0
  6
Continuous
 62
     0
370
     0
100
AcDbLine
 10
0.0
 20
2.5
 30
0.0
 11
0.0
 21
4.1
 31
0.0
  0
LINE
  5
1DE
330
1D6
100
AcDbEntity
  8
0
  6
Continuous
 62
     0
370
     0
100
AcDbLine
 10
-2.5
 20
0.0
 30
0.0
 11
-4.1
 21
0.0
 31
0.0
  0
LINE
  5
1DF
330
1D6
100
AcDbEntity
  8
0
  6
Continuous
 62
     0
370
     0
100
AcDbLine
 10
0.0
 20
-2.5
 30
0.0
 11
0.0
 21
-4.1
 31
0.0
  0
LINE
  5
1E0
330
1D6
100
AcDbEntity
  8
0
  6
Continuous
 62
     0
370
     0
100
AcDbLine
 10
2.5
 20
0.0
 30
0.0
 11
4.1
 21
0.0
 31
0.0
  0
ENDBLK
  5
1D8
330
1D6
100
AcDbEntity
  8
0
100
AcDbBlockEnd
  0
BLOCK
  5
1E3
330
1E2
100
AcDbEntity
  8
0
100
AcDbBlockBegin
  2
SW_CENTERMARKSYMBOL_10
 70
     0
 10
0.0
 20
0.0
 30
0.0
  3
SW_CENTERMARKSYMBOL_10
  1

  0
LINE
  5
1E5
330
1E2
100
AcDbEntity
  8
0
  6
Continuous
 62
     0
370
     0
100
AcDbLine
 10
0.0
 20
0.0
 30
0.0
 11
0.0
 21
2.5
 31
0.0
  0
LINE
  5
1E6
330
1E2
100
AcDbEntity
  8
0
  6
Continuous
 62
     0
370
     0
100
AcDbLine
 10
0.0
 20
0.0
 30
0.0
 11
-2.5
 21
0.0
 31
0.0
  0
LINE
  5
1E7
330
1E2
100
AcDbEntity
  8
0
  6
Continuous
 62
     0
370
     0
100
AcDbLine
 10
0.0
 20
0.0
 30
0.0
 11
0.0
 21
-2.5
 31
0.0
  0
LINE
  5
1E8
330
1E2
100
AcDbEntity
  8
0
  6
Continuous
 62
     0
370
     0
100
AcDbLine
 10
0.0
 20
0.0
 30
0.0
 11
2.5
 21
0.0
 31
0.0
  0
LINE
  5
1E9
330
1E2
100
AcDbEntity
  8
0
  6
Continuous
 62
     0
370
     0
100
AcDbLine
 10
0.0
 20
2.5
 30
0.0
 11
0.0
 21
4.1
 31
0.0
  0
LINE
  5
1EA
330
1E2
100
AcDbEntity
  8
0
  6
Continuous
 62
     0
370
     0
100
AcDbLine
 10
-2.5
 20
0.0
 30
0.0
 11
-4.1
 21
0.0
 31
0.0
  0
LINE
  5
1EB
330
1E2
100
AcDbEntity
  8
0
  6
Continuous
 62
     0
370
     0
100
AcDbLine
 10
0.0
 20
-2.5
 30
0.0
 11
0.0
 21
-4.1
 31
0.0
  0
LINE
  5
1EC
330
1E2
100
AcDbEntity
  8
0
  6
Continuous
 62
     0
370
     0
100
AcDbLine
 10
2.5
 20
0.0
 30
0.0
 11
4.1
 21
0.0
 31
0.0
  0
ENDBLK
  5
1E4
330
1E2
100
AcDbEntity
  8
0
100
AcDbBlockEnd
  0
BLOCK
  5
1EF
330
1EE
100
AcDbEntity
  8
0
100
AcDbBlockBegin
  2
SW_CENTERMARKSYMBOL_11
 70
     0
 10
0.0
 20
0.0
 30
0.0
  3
SW_CENTERMARKSYMBOL_11
  1

  0
LINE
  5
1F1
330
1EE
100
AcDbEntity
  8
0
  6
Continuous
 62
     0
370
     0
100
AcDbLine
 10
0.0
 20
0.0
 30
0.0
 11
0.0
 21
2.5
 31
0.0
  0
LINE
  5
1F2
330
1EE
100
AcDbEntity
  8
0
  6
Continuous
 62
     0
370
     0
100
AcDbLine
 10
0.0
 20
0.0
 30
0.0
 11
-2.5
 21
0.0
 31
0.0
  0
LINE
  5
1F3
330
1EE
100
AcDbEntity
  8
0
  6
Continuous
 62
     0
370
     0
100
AcDbLine
 10
0.0
 20
0.0
 30
0.0
 11
0.0
 21
-2.5
 31
0.0
  0
LINE
  5
1F4
330
1EE
100
AcDbEntity
  8
0
  6
Continuous
 62
     0
370
     0
100
AcDbLine
 10
0.0
 20
0.0
 30
0.0
 11
2.5
 21
0.0
 31
0.0
  0
LINE
  5
1F5
330
1EE
100
AcDbEntity
  8
0
  6
Continuous
 62
     0
370
     0
100
AcDbLine
 10
0.0
 20
2.5
 30
0.0
 11
0.0
 21
4.1
 31
0.0
  0
LINE
  5
1F6
330
1EE
100
AcDbEntity
  8
0
  6
Continuous
 62
     0
370
     0
100
AcDbLine
 10
-2.5
 20
0.0
 30
0.0
 11
-4.1
 21
0.0
 31
0.0
  0
LINE
  5
1F7
330
1EE
100
AcDbEntity
  8
0
  6
Continuous
 62
     0
370
     0
100
AcDbLine
 10
0.0
 20
-2.5
 30
0.0
 11
0.0
 21
-4.1
 31
0.0
  0
LINE
  5
1F8
330
1EE
100
AcDbEntity
  8
0
  6
Continuous
 62
     0
370
     0
100
AcDbLine
 10
2.5
 20
0.0
 30
0.0
 11
4.1
 21
0.0
 31
0.0
  0
ENDBLK
  5
1F0
330
1EE
100
AcDbEntity
  8
0
100
AcDbBlockEnd
  0
BLOCK
  5
1FB
330
1FA
100
AcDbEntity
  8
0
100
AcDbBlockBegin
  2
SW_CENTERMARKSYMBOL_12
 70
     0
 10
0.0
 20
0.0
 30
0.0
  3
SW_CENTERMARKSYMBOL_12
  1

  0
LINE
  5
1FD
330
1FA
100
AcDbEntity
  8
0
  6
Continuous
 62
     0
370
     0
100
AcDbLine
 10
0.0
 20
0.0
 30
0.0
 11
0.0
 21
2.5
 31
0.0
  0
LINE
  5
1FE
330
1FA
100
AcDbEntity
  8
0
  6
Continuous
 62
     0
370
     0
100
AcDbLine
 10
0.0
 20
0.0
 30
0.0
 11
-2.5
 21
0.0
 31
0.0
  0
LINE
  5
1FF
330
1FA
100
AcDbEntity
  8
0
  6
Continuous
 62
     0
370
     0
100
AcDbLine
 10
0.0
 20
0.0
 30
0.0
 11
0.0
 21
-2.5
 31
0.0
  0
LINE
  5
200
330
1FA
100
AcDbEntity
  8
0
  6
Continuous
 62
     0
370
     0
100
AcDbLine
 10
0.0
 20
0.0
 30
0.0
 11
2.5
 21
0.0
 31
0.0
  0
LINE
  5
201
330
1FA
100
AcDbEntity
  8
0
  6
Continuous
 62
     0
370
     0
100
AcDbLine
 10
0.0
 20
2.5
 30
0.0
 11
0.0
 21
4.1
 31
0.0
  0
LINE
  5
202
330
1FA
100
AcDbEntity
  8
0
  6
Continuous
 62
     0
370
     0
100
AcDbLine
 10
-2.5
 20
0.0
 30
0.0
 11
-4.1
 21
0.0
 31
0.0
  0
LINE
  5
203
330
1FA
100
AcDbEntity
  8
0
  6
Continuous
 62
     0
370
     0
100
AcDbLine
 10
0.0
 20
-2.5
 30
0.0
 11
0.0
 21
-4.1
 31
0.0
  0
LINE
  5
204
330
1FA
100
AcDbEntity
  8
0
  6
Continuous
 62
     0
370
     0
100
AcDbLine
 10
2.5
 20
0.0
 30
0.0
 11
4.1
 21
0.0
 31
0.0
  0
ENDBLK
  5
1FC
330
1FA
100
AcDbEntity
  8
0
100
AcDbBlockEnd
  0
BLOCK
  5
207
330
206
100
AcDbEntity
  8
0
100
AcDbBlockBegin
  2
SW_CENTERMARKSYMBOL_13
 70
     0
 10
0.0
 20
0.0
 30
0.0
  3
SW_CENTERMARKSYMBOL_13
  1

  0
LINE
  5
209
330
206
100
AcDbEntity
  8
0
  6
Continuous
 62
     0
370
     0
100
AcDbLine
 10
0.0
 20
0.0
 30
0.0
 11
0.0
 21
2.5
 31
0.0
  0
LINE
  5
20A
330
206
100
AcDbEntity
  8
0
  6
Continuous
 62
     0
370
     0
100
AcDbLine
 10
0.0
 20
0.0
 30
0.0
 11
-2.5
 21
0.0
 31
0.0
  0
LINE
  5
20B
330
206
100
AcDbEntity
  8
0
  6
Continuous
 62
     0
370
     0
100
AcDbLine
 10
0.0
 20
0.0
 30
0.0
 11
0.0
 21
-2.5
 31
0.0
  0
LINE
  5
20C
330
206
100
AcDbEntity
  8
0
  6
Continuous
 62
     0
370
     0
100
AcDbLine
 10
0.0
 20
0.0
 30
0.0
 11
2.5
 21
0.0
 31
0.0
  0
LINE
  5
20D
330
206
100
AcDbEntity
  8
0
  6
Continuous
 62
     0
370
     0
100
AcDbLine
 10
0.0
 20
2.5
 30
0.0
 11
0.0
 21
4.1
 31
0.0
  0
LINE
  5
20E
330
206
100
AcDbEntity
  8
0
  6
Continuous
 62
     0
370
     0
100
AcDbLine
 10
-2.5
 20
0.0
 30
0.0
 11
-4.1
 21
0.0
 31
0.0
  0
LINE
  5
20F
330
206
100
AcDbEntity
  8
0
  6
Continuous
 62
     0
370
     0
100
AcDbLine
 10
0.0
 20
-2.5
 30
0.0
 11
0.0
 21
-4.1
 31
0.0
  0
LINE
  5
210
330
206
100
AcDbEntity
  8
0
  6
Continuous
 62
     0
370
     0
100
AcDbLine
 10
2.5
 20
0.0
 30
0.0
 11
4.1
 21
0.0
 31
0.0
  0
ENDBLK
  5
208
330
206
100
AcDbEntity
  8
0
100
AcDbBlockEnd
  0
ENDSEC
  0
SECTION
  2
ENTITIES
  0
LINE
  5
74
330
1F
100
AcDbEntity
  8
0
  6
Continuous
 62
     7
370
    60
100
AcDbLine
 10
20.0
 20
287.0
 30
0.0
 11
410.0
 21
287.0
 31
0.0
  0
LINE
  5
75
330
1F
100
AcDbEntity
  8
0
  6
Continuous
 62
     7
370
    60
100
AcDbLine
 10
410.0
 20
287.0
 30
0.0
 11
410.0
 21
10.0
 31
0.0
  0
LINE
  5
76
330
1F
100
AcDbEntity
  8
0
  6
Continuous
 62
     7
370
    60
100
AcDbLine
 10
410.0
 20
10.0
 30
0.0
 11
20.0
 21
10.0
 31
0.0
  0
LINE
  5
77
330
1F
100
AcDbEntity
  8
0
  6
Continuous
 62
     7
370
    60
100
AcDbLine
 10
20.0
 20
10.0
 30
0.0
 11
20.0
 21
287.0
 31
0.0
  0
LINE
  5
78
330
1F
100
AcDbEntity
  8
0
  6
Continuous
 62
     7
370
    60
100
AcDbLine
 10
15.0
 20
292.0
 30
0.0
 11
415.0
 21
292.0
 31
0.0
  0
LINE
  5
79
330
1F
100
AcDbEntity
  8
0
  6
Continuous
 62
     7
370
    60
100
AcDbLine
 10
415.0
 20
292.0
 30
0.0
 11
415.0
 21
5.0
 31
0.0
  0
LINE
  5
7A
330
1F
100
AcDbEntity
  8
0
  6
Continuous
 62
     7
370
    60
100
AcDbLine
 10
415.0
 20
5.0
 30
0.0
 11
15.0
 21
5.0
 31
0.0
  0
LINE
  5
7B
330
1F
100
AcDbEntity
  8
0
  6
Continuous
 62
     7
370
    60
100
AcDbLine
 10
15.0
 20
5.0
 30
0.0
 11
15.0
 21
292.0
 31
0.0
  0
LINE
  5
7C
330
1F
100
AcDbEntity
  8
0
  6
Continuous
 62
     7
370
    60
100
AcDbLine
 10
410.0
 20
65.25
 30
0.0
 11
410.0
 21
10.0
 31
0.0
  0
LINE
  5
7D
330
1F
100
AcDbEntity
  8
0
  6
Continuous
 62
     7
370
    60
100
AcDbLine
 10
410.0
 20
10.0
 30
0.0
 11
222.8
 21
10.0
 31
0.0
  0
LINE
  5
7E
330
1F
100
AcDbEntity
  8
0
  6
Continuous
 62
     7
370
    60
100
AcDbLine
 10
415.0
 20
148.5
 30
0.0
 11
405.0
 21
148.5
 31
0.0
  0
LINE
  5
7F
330
1F
100
AcDbEntity
  8
0
  6
Continuous
 62
     7
370
    60
100
AcDbLine
 10
215.0
 20
292.0
 30
0.0
 11
215.0
 21
282.0
 31
0.0
  0
LINE
  5
80
330
1F
100
AcDbEntity
  8
0
  6
Continuous
 62
     7
370
    60
100
AcDbLine
 10
215.0
 20
5.0
 30
0.0
 11
215.0
 21
15.0
 31
0.0
  0
LINE
  5
81
330
1F
100
AcDbEntity
  8
0
  6
Continuous
 62
     7
370
    60
100
AcDbLine
 10
15.0
 20
148.5
 30
0.0
 11
25.0
 21
148.5
 31
0.0
  0
LINE
  5
82
330
1F
100
AcDbEntity
  8
0
  6
Continuous
 62
     7
370
    40
100
AcDbLine
 10
230.0
 20
14.25
 30
0.0
 11
410.0
 21
14.25
 31
0.0
  0
LINE
  5
83
330
1F
100
AcDbEntity
  8
0
  6
Continuous
 62
     7
370
    40
100
AcDbLine
 10
410.0
 20
48.25
 30
0.0
 11
230.0
 21
48.25
 31
0.0
  0
LINE
  5
84
330
1F
100
AcDbEntity
  8
0
  6
Continuous
 62
     7
370
    40
100
AcDbLine
 10
230.0
 20
65.25
 30
0.0
 11
410.0
 21
65.25
 31
0.0
  0
LINE
  5
85
330
1F
100
AcDbEntity
  8
0
  6
Continuous
 62
     7
370
    40
100
AcDbLine
 10
256.9909524338
 20
48.25
 30
0.0
 11
256.9909524338
 21
10.0
 31
0.0
  0
LINE
  5
86
330
1F
100
AcDbEntity
  8
0
  6
Continuous
 62
     7
370
    40
100
AcDbLine
 10
328.8
 20
31.25
 30
0.0
 11
230.0
 21
31.25
 31
0.0
  0
LINE
  5
87
330
1F
100
AcDbEntity
  8
0
  6
Continuous
 62
     7
370
    40
100
AcDbLine
 10
328.8
 20
35.5
 30
0.0
 11
230.0
 21
35.5
 31
0.0
  0
LINE
  5
88
330
1F
100
AcDbEntity
  8
0
  6
Continuous
 62
     7
370
    40
100
AcDbLine
 10
328.8
 20
39.75
 30
0.0
 11
230.0
 21
39.75
 31
0.0
  0
LINE
  5
89
330
1F
100
AcDbEntity
  8
0
  6
Continuous
 62
     7
370
    40
100
AcDbLine
 10
328.8
 20
44.0
 30
0.0
 11
230.0
 21
44.0
 31
0.0
  0
LINE
  5
8A
330
1F
100
AcDbEntity
  8
0
  6
Continuous
 62
     7
370
    40
100
AcDbLine
 10
284.6
 20
10.0
 30
0.0
 11
284.6
 21
48.25
 31
0.0
  0
LINE
  5
8B
330
1F
100
AcDbEntity
  8
0
  6
Continuous
 62
     7
370
    40
100
AcDbLine
 10
230.0
 20
65.25
 30
0.0
 11
230.0
 21
10.0
 31
0.0
  0
LINE
  5
8C
330
1F
100
AcDbEntity
  8
0
  6
Continuous
 62
     7
370
    40
100
AcDbLine
 10
237.8
 20
48.25
 30
0.0
 11
237.8
 21
10.0
 31
0.0
  0
LINE
  5
8D
330
1F
100
AcDbEntity
  8
0
  6
Continuous
 62
     7
370
    40
100
AcDbLine
 10
263.8
 20
48.25
 30
0.0
 11
263.8
 21
65.25
 31
0.0
  0
LINE
  5
8E
330
1F
100
AcDbEntity
  8
0
  6
Continuous
 62
     7
370
    40
100
AcDbLine
 10
274.3989261635
 20
48.25
 30
0.0
 11
274.3989261635
 21
10.0
 31
0.0
  0
LINE
  5
8F
330
1F
100
AcDbEntity
  8
0
  6
Continuous
 62
     7
370
    40
100
AcDbLine
 10
295.0
 20
31.25
 30
0.0
 11
295.0
 21
48.25
 31
0.0
  0
LINE
  5
90
330
1F
100
AcDbEntity
  8
0
  6
Continuous
 62
     7
370
    40
100
AcDbLine
 10
284.6
 20
18.5
 30
0.0
 11
230.0
 21
18.5
 31
0.0
  0
LINE
  5
91
330
1F
100
AcDbEntity
  8
0
  6
Continuous
 62
     7
370
    40
100
AcDbLine
 10
310.6
 20
65.25
 30
0.0
 11
310.6
 21
27.0
 31
0.0
  0
LINE
  5
92
330
1F
100
AcDbEntity
  8
0
  6
Continuous
 62
     7
370
    40
100
AcDbLine
 10
284.6
 20
22.749928
 30
0.0
 11
230.0
 21
22.749928
 31
0.0
  0
LINE
  5
93
330
1F
100
AcDbEntity
  8
0
  6
Continuous
 62
     7
370
    40
100
AcDbLine
 10
284.6
 20
27.0
 30
0.0
 11
230.0
 21
27.0
 31
0.0
  0
LINE
  5
94
330
1F
100
AcDbEntity
  8
0
  6
Continuous
 62
     7
370
    40
100
AcDbLine
 10
284.6
 20
27.0
 30
0.0
 11
410.0
 21
27.0
 31
0.0
  0
LINE
  5
95
330
1F
100
AcDbEntity
  8
0
  6
Continuous
 62
     7
370
    40
100
AcDbLine
 10
328.8
 20
65.25
 30
0.0
 11
328.8
 21
10.0
 31
0.0
  0
LINE
  5
96
330
1F
100
AcDbEntity
  8
0
  6
Continuous
 62
     7
370
    40
100
AcDbLine
 10
373.0
 20
10.0
 30
0.0
 11
373.0
 21
14.25
 31
0.0
  0
LINE
  5
97
330
1F
100
AcDbEntity
  8
0
  6
Continuous
 62
     7
370
    40
100
AcDbLine
 10
380.8
 20
58.875
 30
0.0
 11
380.8
 21
65.25
 31
0.0
  0
LINE
  5
98
330
1F
100
AcDbEntity
  8
0
  6
Continuous
 62
     7
370
    40
100
AcDbLine
 10
397.0
 20
14.25
 30
0.0
 11
397.0
 21
27.0
 31
0.0
  0
LINE
  5
99
330
1F
100
AcDbEntity
  8
0
  6
Continuous
 62
     7
370
    40
100
AcDbLine
 10
410.0
 20
58.875
 30
0.0
 11
328.8
 21
58.875
 31
0.0
  0
LINE
  5
9A
330
1F
100
AcDbEntity
  8
0
  6
Continuous
 62
     7
370
    40
100
AcDbLine
 10
410.0
 20
18.5
 30
0.0
 11
397.0
 21
18.5
 31
0.0
  0
LINE
  5
9B
330
1F
100
AcDbEntity
  8
0
  6
Continuous
 62
     7
370
    30
100
AcDbLine
 10
65.0
 20
292.0
 30
0.0
 11
65.0
 21
287.0
 31
0.0
  0
LINE
  5
9C
330
1F
100
AcDbEntity
  8
0
  6
Continuous
 62
     7
370
    30
100
AcDbLine
 10
115.0
 20
292.0
 30
0.0
 11
115.0
 21
287.0
 31
0.0
  0
LINE
  5
9D
330
1F
100
AcDbEntity
  8
0
  6
Continuous
 62
     7
370
    30
100
AcDbLine
 10
165.0
 20
292.0
 30
0.0
 11
165.0
 21
287.0
 31
0.0
  0
LINE
  5
9E
330
1F
100
AcDbEntity
  8
0
  6
Continuous
 62
     7
370
    30
100
AcDbLine
 10
265.0
 20
292.0
 30
0.0
 11
265.0
 21
287.0
 31
0.0
  0
LINE
  5
9F
330
1F
100
AcDbEntity
  8
0
  6
Continuous
 62
     7
370
    30
100
AcDbLine
 10
315.0
 20
292.0
 30
0.0
 11
315.0
 21
287.0
 31
0.0
  0
LINE
  5
A0
330
1F
100
AcDbEntity
  8
0
  6
Continuous
 62
     7
370
    30
100
AcDbLine
 10
365.0
 20
292.0
 30
0.0
 11
365.0
 21
287.0
 31
0.0
  0
LINE
  5
A1
330
1F
100
AcDbEntity
  8
0
  6
Continuous
 62
     7
370
    30
100
AcDbLine
 10
415.0
 20
248.5
 30
0.0
 11
410.0
 21
248.5
 31
0.0
  0
LINE
  5
A2
330
1F
100
AcDbEntity
  8
0
  6
Continuous
 62
     7
370
    30
100
AcDbLine
 10
415.0
 20
198.5
 30
0.0
 11
410.0
 21
198.5
 31
0.0
  0
LINE
  5
A3
330
1F
100
AcDbEntity
  8
0
  6
Continuous
 62
     7
370
    30
100
AcDbLine
 10
415.0
 20
98.5
 30
0.0
 11
410.0
 21
98.5
 31
0.0
  0
LINE
  5
A4
330
1F
100
AcDbEntity
  8
0
  6
Continuous
 62
     7
370
    30
100
AcDbLine
 10
415.0
 20
48.5
 30
0.0
 11
410.0
 21
48.5
 31
0.0
  0
LINE
  5
A5
330
1F
100
AcDbEntity
  8
0
  6
Continuous
 62
     7
370
    30
100
AcDbLine
 10
365.0
 20
5.0
 30
0.0
 11
365.0
 21
10.0
 31
0.0
  0
LINE
  5
A6
330
1F
100
AcDbEntity
  8
0
  6
Continuous
 62
     7
370
    30
100
AcDbLine
 10
315.0
 20
5.0
 30
0.0
 11
315.0
 21
10.0
 31
0.0
  0
LINE
  5
A7
330
1F
100
AcDbEntity
  8
0
  6
Continuous
 62
     7
370
    30
100
AcDbLine
 10
265.0
 20
5.0
 30
0.0
 11
265.0
 21
10.0
 31
0.0
  0
LINE
  5
A8
330
1F
100
AcDbEntity
  8
0
  6
Continuous
 62
     7
370
    30
100
AcDbLine
 10
165.0
 20
5.0
 30
0.0
 11
165.0
 21
10.0
 31
0.0
  0
LINE
  5
A9
330
1F
100
AcDbEntity
  8
0
  6
Continuous
 62
     7
370
    30
100
AcDbLine
 10
115.0
 20
5.0
 30
0.0
 11
115.0
 21
10.0
 31
0.0
  0
LINE
  5
AA
330
1F
100
AcDbEntity
  8
0
  6
Continuous
 62
     7
370
    30
100
AcDbLine
 10
65.0
 20
5.0
 30
0.0
 11
65.0
 21
10.0
 31
0.0
  0
LINE
  5
AB
330
1F
100
AcDbEntity
  8
0
  6
Continuous
 62
     7
370
    30
100
AcDbLine
 10
15.0
 20
48.5
 30
0.0
 11
20.0
 21
48.5
 31
0.0
  0
LINE
  5
AC
330
1F
100
AcDbEntity
  8
0
  6
Continuous
 62
     7
370
    30
100
AcDbLine
 10
15.0
 20
98.5
 30
0.0
 11
20.0
 21
98.5
 31
0.0
  0
LINE
  5
AD
330
1F
100
AcDbEntity
  8
0
  6
Continuous
 62
     7
370
    30
100
AcDbLine
 10
15.0
 20
198.5
 30
0.0
 11
20.0
 21
198.5
 31
0.0
  0
LINE
  5
AE
330
1F
100
AcDbEntity
  8
0
  6
Continuous
 62
     7
370
    30
100
AcDbLine
 10
15.0
 20
248.5
 30
0.0
 11
20.0
 21
248.5
 31
0.0
  0
MTEXT
  5
B0
330
1F
100
AcDbEntity
  8
0
  6
Continuous
 62
     7
370
     0
100
AcDbMText
 10
32.4647569032
 20
9.4948948176
 30
0.0
 40
3.5
 41
0.0
 71
     2
 72
     1
  1
8
  7
SLDTEXTSTYLE0
 73
     1
 44
1.0
  0
MTEXT
  5
B1
330
1F
100
AcDbEntity
  8
0
  6
Continuous
 62
     7
370
     0
100
AcDbMText
 10
89.9647569032
 20
9.4948948176
 30
0.0
 40
3.5
 41
0.0
 71
     2
 72
     1
  1
7
  7
SLDTEXTSTYLE0
 73
     1
 44
1.0
  0
MTEXT
  5
B2
330
1F
100
AcDbEntity
  8
0
  6
Continuous
 62
     7
370
     0
100
AcDbMText
 10
17.3602431025
 20
26.4948948176
 30
0.0
 40
3.5
 41
0.0
 71
     2
 72
     1
  1
A
  7
SLDTEXTSTYLE0
 73
     1
 44
1.0
  0
MTEXT
  5
B3
330
1F
100
AcDbEntity
  8
0
  6
Continuous
 62
     7
370
     0
100
AcDbMText
 10
17.4732638421
 20
75.7448948176
 30
0.0
 40
3.5
 41
0.0
 71
     2
 72
     1
  1
B
  7
SLDTEXTSTYLE0
 73
     1
 44
1.0
  0
MTEXT
  5
B4
330
1F
100
AcDbEntity
  8
0
  6
Continuous
 62
     7
370
     0
100
AcDbMText
 10
339.9647569032
 20
9.4948948176
 30
0.0
 40
3.5
 41
0.0
 71
     2
 72
     1
  1
2
  7
SLDTEXTSTYLE0
 73
     1
 44
1.0
  0
MTEXT
  5
B5
330
1F
100
AcDbEntity
  8
0
  6
Continuous
 62
     7
370
     0
100
AcDbMText
 10
289.9647569032
 20
9.4948948176
 30
0.0
 40
3.5
 41
0.0
 71
     2
 72
     1
  1
3
  7
SLDTEXTSTYLE0
 73
     1
 44
1.0
  0
MTEXT
  5
B6
330
1F
100
AcDbEntity
  8
0
  6
Continuous
 62
     7
370
     0
100
AcDbMText
 10
239.9647569032
 20
9.4948948176
 30
0.0
 40
3.5
 41
0.0
 71
     2
 72
     1
  1
4
  7
SLDTEXTSTYLE0
 73
     1
 44
1.0
  0
MTEXT
  5
B7
330
1F
100
AcDbEntity
  8
0
  6
Continuous
 62
     7
370
     0
100
AcDbMText
 10
189.9647569032
 20
9.4948948176
 30
0.0
 40
3.5
 41
0.0
 71
     2
 72
     1
  1
5
  7
SLDTEXTSTYLE0
 73
     1
 44
1.0
  0
MTEXT
  5
B8
330
1F
100
AcDbEntity
  8
0
  6
Continuous
 62
     7
370
     0
100
AcDbMText
 10
139.9647569032
 20
9.4948948176
 30
0.0
 40
3.5
 41
0.0
 71
     2
 72
     1
  1
6
  7
SLDTEXTSTYLE0
 73
     1
 44
1.0
  0
MTEXT
  5
B9
330
1F
100
AcDbEntity
  8
0
  6
Continuous
 62
     7
370
     0
100
AcDbMText
 10
392.4647569032
 20
9.4948948176
 30
0.0
 40
3.5
 41
0.0
 71
     2
 72
     1
  1
1
  7
SLDTEXTSTYLE0
 73
     1
 44
1.0
  0
MTEXT
  5
BA
330
1F
100
AcDbEntity
  8
0
  6
Continuous
 62
     7
370
     0
100
AcDbMText
 10
189.9647569032
 20
291.4948948176
 30
0.0
 40
3.5
 41
0.0
 71
     2
 72
     1
  1
5
  7
SLDTEXTSTYLE0
 73
     1
 44
1.0
  0
MTEXT
  5
BB
330
1F
100
AcDbEntity
  8
0
  6
Continuous
 62
     7
370
     0
100
AcDbMText
 10
89.9647569032
 20
291.4948948176
 30
0.0
 40
3.5
 41
0.0
 71
     2
 72
     1
  1
7
  7
SLDTEXTSTYLE0
 73
     1
 44
1.0
  0
MTEXT
  5
BC
330
1F
100
AcDbEntity
  8
0
  6
Continuous
 62
     7
370
     0
100
AcDbMText
 10
32.4647569032
 20
291.4948948176
 30
0.0
 40
3.5
 41
0.0
 71
     2
 72
     1
  1
8
  7
SLDTEXTSTYLE0
 73
     1
 44
1.0
  0
MTEXT
  5
BD
330
1F
100
AcDbEntity
  8
0
  6
Continuous
 62
     7
370
     0
100
AcDbMText
 10
339.9647569032
 20
291.4948948176
 30
0.0
 40
3.5
 41
0.0
 71
     2
 72
     1
  1
2
  7
SLDTEXTSTYLE0
 73
     1
 44
1.0
  0
MTEXT
  5
BE
330
1F
100
AcDbEntity
  8
0
  6
Continuous
 62
     7
370
     0
100
AcDbMText
 10
239.9647569032
 20
291.4948948176
 30
0.0
 40
3.5
 41
0.0
 71
     2
 72
     1
  1
4
  7
SLDTEXTSTYLE0
 73
     1
 44
1.0
  0
MTEXT
  5
BF
330
1F
100
AcDbEntity
  8
0
  6
Continuous
 62
     7
370
     0
100
AcDbMText
 10
139.9647569032
 20
291.4948948176
 30
0.0
 40
3.5
 41
0.0
 71
     2
 72
     1
  1
6
  7
SLDTEXTSTYLE0
 73
     1
 44
1.0
  0
MTEXT
  5
C0
330
1F
100
AcDbEntity
  8
0
  6
Continuous
 62
     7
370
     0
100
AcDbMText
 10
392.4647569032
 20
291.4948948176
 30
0.0
 40
3.5
 41
0.0
 71
     2
 72
     1
  1
1
  7
SLDTEXTSTYLE0
 73
     1
 44
1.0
  0
MTEXT
  5
C1
330
1F
100
AcDbEntity
  8
0
  6
Continuous
 62
     7
370
     0
100
AcDbMText
 10
289.9647569032
 20
291.4948948176
 30
0.0
 40
3.5
 41
0.0
 71
     2
 72
     1
  1
3
  7
SLDTEXTSTYLE0
 73
     1
 44
1.0
  0
MTEXT
  5
C2
330
1F
100
AcDbEntity
  8
0
  6
Continuous
 62
     7
370
     0
100
AcDbMText
 10
17.5060764262
 20
225.7448948176
 30
0.0
 40
3.5
 41
0.0
 71
     2
 72
     1
  1
E
  7
SLDTEXTSTYLE0
 73
     1
 44
1.0
  0
MTEXT
  5
C3
330
1F
100
AcDbEntity
  8
0
  6
Continuous
 62
     7
370
     0
100
AcDbMText
 10
17.4598957933
 20
175.7448948176
 30
0.0
 40
3.5
 41
0.0
 71
     2
 72
     1
  1
D
  7
SLDTEXTSTYLE0
 73
     1
 44
1.0
  0
MTEXT
  5
C4
330
1F
100
AcDbEntity
  8
0
  6
Continuous
 62
     7
370
     0
100
AcDbMText
 10
17.4635417052
 20
125.7448948176
 30
0.0
 40
3.5
 41
0.0
 71
     2
 72
     1
  1
C
  7
SLDTEXTSTYLE0
 73
     1
 44
1.0
  0
MTEXT
  5
C5
330
1F
100
AcDbEntity
  8
0
  6
Continuous
 62
     7
370
     0
100
AcDbMText
 10
17.4635416269
 20
274.9948948176
 30
0.0
 40
3.5
 41
0.0
 71
     2
 72
     1
  1
F
  7
SLDTEXTSTYLE0
 73
     1
 44
1.0
  0
MTEXT
  5
C6
330
1F
100
AcDbEntity
  8
0
  6
Continuous
 62
     7
370
     0
100
AcDbMText
 10
412.4635416269
 20
274.9948948176
 30
0.0
 40
3.5
 41
0.0
 71
     2
 72
     1
  1
F
  7
SLDTEXTSTYLE0
 73
     1
 44
1.0
  0
MTEXT
  5
C7
330
1F
100
AcDbEntity
  8
0
  6
Continuous
 62
     7
370
     0
100
AcDbMText
 10
412.4598957933
 20
175.7448948176
 30
0.0
 40
3.5
 41
0.0
 71
     2
 72
     1
  1
D
  7
SLDTEXTSTYLE0
 73
     1
 44
1.0
  0
MTEXT
  5
C8
330
1F
100
AcDbEntity
  8
0
  6
Continuous
 62
     7
370
     0
100
AcDbMText
 10
412.4732638421
 20
75.7448948176
 30
0.0
 40
3.5
 41
0.0
 71
     2
 72
     1
  1
B
  7
SLDTEXTSTYLE0
 73
     1
 44
1.0
  0
MTEXT
  5
C9
330
1F
100
AcDbEntity
  8
0
  6
Continuous
 62
     7
370
     0
100
AcDbMText
 10
412.3602431025
 20
26.4948948176
 30
0.0
 40
3.5
 41
0.0
 71
     2
 72
     1
  1
A
  7
SLDTEXTSTYLE0
 73
     1
 44
1.0
  0
MTEXT
  5
CA
330
1F
100
AcDbEntity
  8
0
  6
Continuous
 62
     7
370
     0
100
AcDbMText
 10
412.5060764262
 20
225.7448948176
 30
0.0
 40
3.5
 41
0.0
 71
     2
 72
     1
  1
E
  7
SLDTEXTSTYLE0
 73
     1
 44
1.0
  0
MTEXT
  5
CB
330
1F
100
AcDbEntity
  8
0
  6
Continuous
 62
     7
370
     0
100
AcDbMText
 10
412.4635417052
 20
125.7448948176
 30
0.0
 40
3.5
 41
0.0
 71
     2
 72
     1
  1
C
  7
SLDTEXTSTYLE0
 73
     1
 44
1.0
  0
MTEXT
  5
CD
330
1F
100
AcDbEntity
  8
0
  6
Continuous
 62
     7
370
     0
100
AcDbMText
 10
230.6433628979
 20
42.3847813173
 30
0.0
 40
1.5
 41
0.0
 71
     1
 72
     1
  1
DRAWN
  7
SLDTEXTSTYLE1
 73
     1
 44
1.0
  0
MTEXT
  5
CE
330
1F
100
AcDbEntity
  8
0
  6
Continuous
 62
     7
370
     0
100
AcDbMText
 10
230.9392221937
 20
38.1618530186
 30
0.0
 40
1.5
 41
0.0
 71
     1
 72
     1
  1
CHK'D
  7
SLDTEXTSTYLE0
 73
     1
 44
1.0
  0
MTEXT
  5
CF
330
1F
100
AcDbEntity
  8
0
  6
Continuous
 62
     7
370
     0
100
AcDbMText
 10
230.4017224083
 20
34.0658666243
 30
0.0
 40
1.5
 41
0.0
 71
     1
 72
     1
  1
APPV'D
  7
SLDTEXTSTYLE0
 73
     1
 44
1.0
  0
MTEXT
  5
D0
330
1F
100
AcDbEntity
  8
0
  6
Continuous
 62
     7
370
     0
100
AcDbMText
 10
231.1240107386
 20
29.7157844608
 30
0.0
 40
1.5
 41
0.0
 71
     1
 72
     1
  1
MFG
  7
SLDTEXTSTYLE0
 73
     1
 44
1.0
  0
MTEXT
  5
D1
330
1F
100
AcDbEntity
  8
0
  6
Continuous
 62
     7
370
     0
100
AcDbMText
 10
231.509036604
 20
25.504662132
 30
0.0
 40
1.5
 41
0.0
 71
     1
 72
     1
  1
Q.A
  7
SLDTEXTSTYLE0
 73
     1
 44
1.0
  0
INSERT
  5
DB
330
1F
100
AcDbEntity
  8
0
  6
Continuous
 62
     7
370
     0
100
AcDbBlockReference
  2
SW_NOTE_0
 10
230.5936687456
 20
61.9873698743
 30
0.0
  0
MTEXT
  5
DC
330
1F
100
AcDbEntity
  8
0
  6
Continuous
 62
     7
370
     0
100
AcDbMText
 10
264.3712921668
 20
63.9192719951
 30
0.0
 40
1.5
 41
0.0
 71
     1
 72
     1
  1
FINISH:
  7
SLDTEXTSTYLE0
 73
     1
 44
1.0
  0
INSERT
  5
E3
330
1F
100
AcDbEntity
  8
0
  6
Continuous
 62
     7
370
     0
100
AcDbBlockReference
  2
SW_NOTE_1
 10
311.3092156863
 20
62.069489643
 30
0.0
  0
MTEXT
  5
E4
330
1F
100
AcDbEntity
  8
0
  6
Continuous
 62
     7
370
     0
100
AcDbMText
 10
244.3222392177
 20
46.5014826335
 30
0.0
 40
1.5
 41
0.0
 71
     1
 72
     1
  1
NAME
  7
SLDTEXTSTYLE0
 73
     1
 44
1.0
  0
MTEXT
  5
E5
330
1F
100
AcDbEntity
  8
0
  6
Continuous
 62
     7
370
     0
100
AcDbMText
 10
260.0335875632
 20
46.5617563795
 30
0.0
 40
1.5
 41
0.0
 71
     1
 72
     1
  1
SIGNATURE
  7
SLDTEXTSTYLE0
 73
     1
 44
1.0
  0
MTEXT
  5
E6
330
1F
100
AcDbEntity
  8
0
  6
Continuous
 62
     7
370
     0
100
AcDbMText
 10
277.2147019657
 20
46.5761792212
 30
0.0
 40
1.5
 41
0.0
 71
     1
 72
     1
  1
DATE
  7
SLDTEXTSTYLE0
 73
     1
 44
1.0
  0
MTEXT
  5
E7
330
1F
100
AcDbEntity
  8
0
  6
Continuous
 62
     7
370
     0
100
AcDbMText
 10
285.6458623088
 20
25.9860562892
 30
0.0
 40
1.5
 41
0.0
 71
     1
 72
     1
  1
MATERIAL:
  7
SLDTEXTSTYLE0
 73
     1
 44
1.0
  0
MTEXT
  5
E8
330
1F
100
AcDbEntity
  8
0
  6
Continuous
 62
     7
370
     0
100
AcDbMText
 10
342.6146405229
 20
62.5329935751
 30
0.0
 40
1.5
 41
0.0
 71
     1
 72
     1
  1
DO NOT SCALE DRAWING
  7
SLDTEXTSTYLE0
 73
     1
 44
1.0
  0
MTEXT
  5
E9
330
1F
100
AcDbEntity
  8
0
  6
Continuous
 62
     7
370
     0
100
AcDbMText
 10
383.3275816993
 20
62.3349086805
 30
0.0
 40
1.5
 41
0.0
 71
     1
 72
     1
  1
REVISION
  7
SLDTEXTSTYLE0
 73
     1
 44
1.0
  0
MTEXT
  5
EA
330
1F
100
AcDbEntity
  8
0
  6
Continuous
 62
     7
370
     0
100
AcDbMText
 10
330.090160639
 20
46.5761792212
 30
0.0
 40
1.5
 41
0.0
 71
     1
 72
     1
  1
TITLE:
  7
SLDTEXTSTYLE0
 73
     1
 44
1.0
  0
MTEXT
  5
EB
330
1F
100
AcDbEntity
  8
0
  6
Continuous
 62
     7
370
     0
100
AcDbMText
 10
329.9530022162
 20
25.9860562892
 30
0.0
 40
1.5
 41
0.0
 71
     1
 72
     1
  1
DWG NO.
  7
SLDTEXTSTYLE0
 73
     1
 44
1.0
  0
MTEXT
  5
EC
330
1F
100
AcDbEntity
  8
0
  6
Continuous
 62
     7
370
     0
100
AcDbMText
 10
330.0739661175
 20
12.9000872745
 30
0.0
 40
1.5
 41
0.0
 71
     1
 72
     1
  1
SCALE:1:1
  7
SLDTEXTSTYLE0
 73
     1
 44
1.0
  0
MTEXT
  5
EE
330
1F
100
AcDbEntity
  8
0
  6
Continuous
 62
     7
370
     0
100
AcDbMText
 10
374.4782944278
 20
12.9000872745
 30
0.0
 40
1.5
 41
0.0
 71
     1
 72
     1
  1
SHEET 1 OF 1
  7
SLDTEXTSTYLE2
 73
     1
 44
1.0
  0
MTEXT
  5
EF
330
1F
100
AcDbEntity
  8
0
  6
Continuous
 62
     7
370
     0
100
AcDbMText
 10
400.8711564346
 20
24.406388569
 30
0.0
 40
2.9104166667
 41
0.0
 71
     1
 72
     1
  1
A3
  7
SLDTEXTSTYLE0
 73
     1
 44
1.0
  0
MTEXT
  5
F0
330
1F
100
AcDbEntity
  8
0
  6
Continuous
 62
     7
370
     0
100
AcDbMText
 10
285.6178111281
 20
12.9493119036
 30
0.0
 40
1.4986
 41
0.0
 71
     1
 72
     1
  1
WEIGHT:
  7
SLDTEXTSTYLE0
 73
     1
 44
1.0
  0
MTEXT
  5
F1
330
1F
100
AcDbEntity
  8
0
  6
Continuous
 62
     7
370
     0
100
AcDbMText
 10
364.6272194281
 20
23.6069109673
 30
0.0
 40
6.35
 41
0.0
 71
     2
 72
     1
  1
Case
  7
SLDTEXTSTYLE0
 73
     1
 44
1.0
  0
MTEXT
  5
F2
330
1F
100
AcDbEntity
  8
0
  6
Continuous
 62
     7
370
     0
100
AcDbMText
 10
369.6622733875
 20
56.3257281104
 30
0.0
 40
6.35
 41
0.0
 71
     2
 72
     1
  1
IRNAS
  7
SLDTEXTSTYLE0
 73
     1
 44
1.0
  0
LINE
  5
F3
330
1F
100
AcDbEntity
  8
0
  6
Continuous
 62
     7
370
    15
100
AcDbLine
 10
109.2676515331
 20
218.1473307563
 30
0.0
 11
99.1413902423
 21
210.2358283596
 31
0.0
  0
ARC
  5
F4
330
1F
100
AcDbEntity
  8
0
  6
Continuous
 62
     7
370
    15
100
AcDbCircle
 10
149.522967033
 20
166.622876531
 30
0.0
 40
65.38547093357887
100
AcDbArc
 50
52.0
 51
128.0
  0
LINE
  5
F5
330
1F
100
AcDbEntity
  8
0
  6
Continuous
 62
     7
370
    15
100
AcDbLine
 10
199.9045438236
 20
210.2358283596
 30
0.0
 11
189.7782825328
 21
218.1473307563
 31
0.0
  0
LINE
  5
F6
330
1F
100
AcDbEntity
  8
0
  6
Continuous
 62
     7
370
    15
100
AcDbLine
 10
99.1413902423
 20
210.2358283596
 30
0.0
 11
199.9045438236
 21
210.2358283596
 31
0.0
  0
LINE
  5
F7
330
1F
100
AcDbEntity
  8
0
  6
Continuous
 62
     7
370
    15
100
AcDbLine
 10
103.7266982552
 20
225.2394275388
 30
0.0
 11
109.2676515331
 21
218.1473307563
 31
0.0
  0
LINE
  5
F8
330
1F
100
AcDbEntity
  8
0
  6
Continuous
 62
     7
370
    15
100
AcDbLine
 10
99.1413902423
 20
210.2358283596
 30
0.0
 11
96.0980425882
 21
210.2358283596
 31
0.0
  0
LINE
  5
F9
330
1F
100
AcDbEntity
  8
0
  6
Continuous
 62
     7
370
    15
100
AcDbLine
 10
94.6355740323
 20
218.1366628547
 30
0.0
 11
96.0980425882
 21
210.2358283596
 31
0.0
  0
LINE
  5
FA
330
1F
100
AcDbEntity
  8
0
  6
Continuous
 62
     7
370
    15
100
AcDbLine
 10
94.6355740323
 20
218.1366628547
 30
0.0
 11
103.7266982552
 21
225.2394275388
 31
0.0
  0
LINE
  5
FB
330
1F
100
AcDbEntity
  8
0
  6
Continuous
 62
     7
370
    15
100
AcDbLine
 10
195.3192358107
 20
225.2394275388
 30
0.0
 11
189.7782825328
 21
218.1473307563
 31
0.0
  0
LINE
  5
FC
330
1F
100
AcDbEntity
  8
0
  6
Continuous
 62
     7
370
    15
100
AcDbLine
 10
195.3192358107
 20
225.2394275388
 30
0.0
 11
204.4103600336
 21
218.1366628547
 31
0.0
  0
LINE
  5
FD
330
1F
100
AcDbEntity
  8
0
  6
Continuous
 62
     7
370
    15
100
AcDbLine
 10
202.9478914777
 20
210.2358283596
 30
0.0
 11
204.4103600336
 21
218.1366628547
 31
0.0
  0
LINE
  5
FE
330
1F
100
AcDbEntity
  8
0
  6
Continuous
 62
     7
370
    15
100
AcDbLine
 10
202.9478914777
 20
210.2358283596
 30
0.0
 11
199.9045438236
 21
210.2358283596
 31
0.0
  0
ARC
  5
FF
330
1F
100
AcDbEntity
  8
0
  6
Continuous
 62
     7
370
    15
100
AcDbCircle
 10
149.522967033
 20
166.622876531
 30
0.0
 40
74.38547093357886
100
AcDbArc
 50
52.0
 51
128.0
  0
ARC
  5
100
330
1F
100
AcDbEntity
  8
0
  6
Continuous
 62
     7
370
    15
100
AcDbCircle
 10
202.5633756076
 20
215.7726305939
 30
0.0
 40
3.0
100
AcDbArc
 50
0.0
 51
52.0
  0
LINE
  5
101
330
1F
100
AcDbEntity
  8
0
  6
Continuous
 62
     7
370
    15
100
AcDbLine
 10
205.5633756076
 20
215.7726305939
 30
0.0
 11
205.5633756076
 21
210.2358283596
 31
0.0
  0
SPLINE
  5
102
330
1F
100
AcDbEntity
  8
0
  6
Continuous
 62
     7
370
    15
100
AcDbSpline
210
0.0
220
0.0
230
1.0
 70
    24
 71
     3
 72
    20
 73
    16
 74
     0
 42
0.000000001
 43
0.00000001
 40
0.0
 40
0.0
 40
0.0
 40
0.0
 40
0.2499999999999946
 40
0.2499999999999946
 40
0.3749999999999955
 40
0.3749999999999955
 40
0.4999999999999964
 40
0.4999999999999964
 40
0.6249999999999974
 40
0.6249999999999974
 40
0.7499999999999982
 40
0.7499999999999982
 40
0.8749999999999991
 40
0.8749999999999991
 40
1.0
 40
1.0
 40
1.0
 40
1.0
 10
205.5633756076155
 20
210.2358283595618
 30
0.0
 10
205.5633756076156
 20
210.2358283595618
 30
0.0
 10
205.5003920792702
 20
210.2358283595618
 30
0.0
 10
205.3115321988405
 20
210.2358283595618
 30
0.0
 10
205.2342261874261
 20
210.2358283595618
 30
0.0
 10
205.051634131615
 20
210.2358283595618
 30
0.0
 10
204.9454073527629
 20
210.2358283595618
 30
0.0
 10
204.7073635767962
 20
210.2358283595618
 30
0.0
 10
204.5773576377183
 20
210.2358283595618
 30
0.0
 10
204.2958077587354
 20
210.2358283595618
 30
0.0
 10
204.142563171251
 20
210.2358283595618
 30
0.0
 10
203.8219272380299
 20
210.2358283595618
 30
0.0
 10
203.6554212093072
 20
210.2358283595618
 30
0.0
 10
203.3101723567848
 20
210.2358283595618
 30
0.0
 10
203.1302503648235
 20
210.2358283595618
 30
0.0
 10
202.9478914777243
 20
210.2358283595618
 30
0.0
  0
LINE
  5
103
330
1F
100
AcDbEntity
  8
0
  6
Continuous
 62
     7
370
    15
100
AcDbLine
 10
93.4825584583
 20
210.2358283596
 30
0.0
 11
93.4825584583
 21
215.7726305939
 31
0.0
  0
ARC
  5
104
330
1F
100
AcDbEntity
  8
0
  6
Continuous
 62
     7
370
    15
100
AcDbCircle
 10
96.4825584583
 20
215.7726305939
 30
0.0
 40
3.000000000000014
100
AcDbArc
 50
128.0
 51
180.0
  0
SPLINE
  5
105
330
1F
100
AcDbEntity
  8
0
  6
Continuous
 62
     7
370
    15
100
AcDbSpline
210
0.0
220
0.0
230
1.0
 70
    24
 71
     3
 72
    22
 73
    18
 74
     0
 42
0.000000001
 43
0.00000001
 40
0.0
 40
0.0
 40
0.0
 40
0.0
 40
0.125
 40
0.125
 40
0.25
 40
0.25
 40
0.375
 40
0.375
 40
0.5
 40
0.5
 40
0.625
 40
0.625
 40
0.75
 40
0.75
 40
0.875
 40
0.875
 40
1.0
 40
1.0
 40
1.0
 40
1.0
 10
96.09804258820976
 20
210.2358283595618
 30
0.0
 10
95.9157861316089
 20
210.2358283595618
 30
0.0
 10
95.73860842622126
 20
210.2358283595618
 30
0.0
 10
95.39396072531257
 20
210.2358283595618
 30
0.0
 10
95.22524709274707
 20
210.2358283595618
 30
0.0
 10
94.90386681175414
 20
210.2358283595618
 30
0.0
 10
94.75318745198473
 20
210.2358283595618
 30
0.0
 10
94.47122305266075
 20
210.2358283595618
 30
0.0
 10
94.33878483879141
 20
210.2358283595618
 30
0.0
 10
94.10161640462717
 20
210.2358283595618
 30
0.0
 10
93.99658080329739
 20
210.2358283595618
 30
0.0
 10
93.81310225862019
 20
210.2358283595618
 30
0.0
 10
93.7343406390313
 20
210.2358283595618
 30
0.0
 10
93.60938451204746
 20
210.2358283595618
 30
0.0
 10
93.56231778581532
 20
210.2358283595618
 30
0.0
 10
93.49879931480847
 20
210.2358283595618
 30
0.0
 10
93.48255845831855
 20
210.2358283595618
 30
0.0
 10
93.48255845831856
 20
210.2358283595618
 30
0.0
  0
LINE
  5
106
330
1F
100
AcDbEntity
  8
0
  6
Continuous
 62
     7
370
     0
100
AcDbLine
 10
147.8098557591
 20
240.9886182121
 30
0.0
 11
151.2360783069
 21
240.9886182121
 31
0.0
  0
DIMENSION
  5
107
330
1F
100
AcDbEntity
  8
0
  6
Continuous
 62
     7
370
     0
100
AcDbDimension
  2
_D
 10
83.3040654912
 20
210.2358283596
 30
0.0
 11
83.3040654912
 21
225.8641780041
 31
0.0
 70
   160
  1
<>
 71
     2
 42
-1.0
  3
SLDDIMSTYLE0
100
AcDbAlignedDimension
 13
147.8098557591
 23
240.9886182121
 33
0.0
 14
93.4825584583
 24
210.2358283596
 34
0.0
 50
90.0
100
AcDbRotatedDimension
  0
ELLIPSE
  5
112
330
1F
100
AcDbEntity
  8
0
  6
Continuous
 62
     7
370
    15
100
AcDbEllipse
 10
199.9045438236
 20
113.0678021978
 30
0.0
 11
-14.61842320934466
 21
0.0
 31
0.0
210
0.0
220
0.0
230
1.0
 40
0.6156614753
 41
1.570796326794899
 42
1.780516045004663
  0
ARC
  5
113
330
1F
100
AcDbEntity
  8
0
  6
Continuous
 62
     7
370
    15
100
AcDbCircle
 10
192.5633756076
 20
117.0678021978
 30
0.0
 40
4.0
100
AcDbArc
 50
270.0
 51
0.0
  0
LINE
  5
114
330
1F
100
AcDbEntity
  8
0
  6
Continuous
 62
     7
370
    15
100
AcDbLine
 10
196.5633756076
 20
117.0678021978
 30
0.0
 11
196.5633756076
 21
161.0678021978
 31
0.0
  0
ARC
  5
115
330
1F
100
AcDbEntity
  8
0
  6
Continuous
 62
     7
370
    15
100
AcDbCircle
 10
192.5633756076
 20
161.0678021978
 30
0.0
 40
4.0
100
AcDbArc
 50
0.0
 51
90.0
  0
LINE
  5
116
330
1F
100
AcDbEntity
  8
0
  6
Continuous
 62
     7
370
    15
100
AcDbLine
 10
106.4825584583
 20
165.0678021978
 30
0.0
 11
192.5633756076
 21
165.0678021978
 31
0.0
  0
ARC
  5
117
330
1F
100
AcDbEntity
  8
0
  6
Continuous
 62
     7
370
    15
100
AcDbCircle
 10
106.4825584583
 20
161.0678021978
 30
0.0
 40
4.0
100
AcDbArc
 50
90.0
 51
180.0
  0
LINE
  5
118
330
1F
100
AcDbEntity
  8
0
  6
Continuous
 62
     7
370
    15
100
AcDbLine
 10
102.4825584583
 20
161.0678021978
 30
0.0
 11
102.4825584583
 21
117.0678021978
 31
0.0
  0
ARC
  5
119
330
1F
100
AcDbEntity
  8
0
  6
Continuous
 62
     7
370
    15
100
AcDbCircle
 10
106.4825584583
 20
117.0678021978
 30
0.0
 40
3.999999999999986
100
AcDbArc
 50
180.0
 51
270.0
  0
LINE
  5
11A
330
1F
100
AcDbEntity
  8
0
  6
Continuous
 62
     7
370
    15
100
AcDbLine
 10
106.4825584583
 20
113.0678021978
 30
0.0
 11
192.5633756076
 21
113.0678021978
 31
0.0
  0
LINE
  5
11B
330
1F
100
AcDbEntity
  8
0
  6
Continuous
 62
     7
370
    15
100
AcDbLine
 10
99.1413902423
 20
174.0678021978
 30
0.0
 11
199.9045438236
 21
174.0678021978
 31
0.0
  0
ELLIPSE
  5
11C
330
1F
100
AcDbEntity
  8
0
  6
Continuous
 62
     7
370
    15
100
AcDbEllipse
 10
199.9045438236
 20
165.0678021978
 30
0.0
 11
14.61842320934468
 21
0.0
 31
0.0
210
0.0
220
0.0
230
1.0
 40
0.6156614753
 41
1.361076608585131
 42
1.570796326794895
  0
SPLINE
  5
11D
330
1F
100
AcDbEntity
  8
0
  6
Continuous
 62
     7
370
    15
100
AcDbSpline
210
0.0
220
0.0
230
1.0
 70
     8
 71
     3
 72
    20
 73
    16
 74
     0
 42
0.000000001
 43
0.00000001
 40
0.0
 40
0.0
 40
0.0
 40
0.0
 40
0.2499999999999946
 40
0.2499999999999946
 40
0.3749999999999955
 40
0.3749999999999955
 40
0.4999999999999964
 40
0.4999999999999964
 40
0.6249999999999974
 40
0.6249999999999974
 40
0.7499999999999982
 40
0.7499999999999982
 40
0.8749999999999991
 40
0.8749999999999991
 40
1.0
 40
1.0
 40
1.0
 40
1.0
 10
205.5633756076155
 20
170.840187013305
 30
0.0
 10
205.5633756076156
 20
171.2078017855989
 30
0.0
 10
205.5003920792702
 20
171.5665085877904
 30
0.0
 10
205.3115321988405
 20
172.083269032724
 30
0.0
 10
205.2342261874261
 20
172.247559611048
 30
0.0
 10
205.051634131615
 20
172.5606174153587
 30
0.0
 10
204.9454073527629
 20
172.7104588613751
 30
0.0
 10
204.7073635767962
 20
172.9885268886065
 30
0.0
 10
204.5773576377183
 20
173.1150630590248
 30
0.0
 10
204.2958077587354
 20
173.3436290902305
 30
0.0
 10
204.142563171251
 20
173.4465118402471
 30
0.0
 10
203.8219272380299
 20
173.6211668205571
 30
0.0
 10
203.6554212093072
 20
173.6929285866644
 30
0.0
 10
203.3101723567848
 20
173.8056711454585
 30
0.0
 10
203.1302503648235
 20
173.8467090392515
 30
0.0
 10
202.9478914777243
 20
173.8706059321941
 30
0.0
  0
LINE
  5
11E
330
1F
100
AcDbEntity
  8
0
  6
Continuous
 62
     7
370
    15
100
AcDbLine
 10
205.5633756076
 20
170.8401870133
 30
0.0
 11
205.5633756076
 21
107.2954173823
 31
0.0
  0
SPLINE
  5
11F
330
1F
100
AcDbEntity
  8
0
  6
Continuous
 62
     7
370
    15
100
AcDbSpline
210
0.0
220
0.0
230
1.0
 70
     8
 71
     3
 72
    22
 73
    18
 74
     0
 42
0.000000001
 43
0.00000001
 40
0.0
 40
0.0
 40
0.0
 40
0.0
 40
0.125
 40
0.125
 40
0.25
 40
0.25
 40
0.375
 40
0.375
 40
0.5
 40
0.5
 40
0.625
 40
0.625
 40
0.75
 40
0.75
 40
0.875
 40
0.875
 40
1.0
 40
1.0
 40
1.0
 40
1.0
 10
202.9478914777243
 20
104.2649984634109
 30
0.0
 10
203.130147961669
 20
104.2888819371159
 30
0.0
 10
203.307325656396
 20
104.3292182089995
 30
0.0
 10
203.6519732747698
 20
104.4413391928364
 30
0.0
 10
203.8206867351826
 20
104.5138311177415
 30
0.0
 10
204.142067240529
 20
104.6887535257074
 30
0.0
 10
204.2927466055419
 20
104.789779196236
 30
0.0
 10
204.5747108754774
 20
105.018109476184
 30
0.0
 10
204.7071489770602
 20
105.1469199571174
 30
0.0
 10
204.9443176745727
 20
105.4237800181073
 30
0.0
 10
205.0493532906795
 20
105.571510942591
 30
0.0
 10
205.2328317546908
 20
105.8852281165631
 30
0.0
 10
205.3115933925871
 20
106.052710313861
 30
0.0
 10
205.4365496158271
 20
106.3942032288979
 30
0.0
 10
205.4836163201609
 20
106.5692178680972
 30
0.0
 10
205.547134740863
 20
106.9277259523808
 30
0.0
 10
205.5633756076156
 20
107.1117007104365
 30
0.0
 10
205.5633756076155
 20
107.2954173823
 30
0.0
  0
ELLIPSE
  5
120
330
1F
100
AcDbEntity
  8
0
  6
Continuous
 62
     7
370
    15
100
AcDbEllipse
 10
99.1413902423
 20
113.0678021978
 30
0.0
 11
-14.61842320934468
 21
0.0
 31
0.0
210
0.0
220
0.0
230
1.0
 40
0.6156614753
 41
1.361076608585131
 42
1.570796326794897
  0
SPLINE
  5
121
330
1F
100
AcDbEntity
  8
0
  6
Continuous
 62
     7
370
    15
100
AcDbSpline
210
0.0
220
0.0
230
1.0
 70
     8
 71
     3
 72
    20
 73
    16
 74
     0
 42
0.000000001
 43
0.00000001
 40
0.0
 40
0.0
 40
0.0
 40
0.0
 40
0.2499999999999989
 40
0.2499999999999989
 40
0.3749999999999992
 40
0.3749999999999992
 40
0.4999999999999994
 40
0.4999999999999994
 40
0.6249999999999996
 40
0.6249999999999996
 40
0.7499999999999997
 40
0.7499999999999997
 40
0.8749999999999998
 40
0.8749999999999998
 40
1.0
 40
1.0
 40
1.0
 40
1.0
 10
93.48255845831856
 20
107.2954173823
 30
0.0
 10
93.48255845831856
 20
106.9278026100061
 30
0.0
 10
93.5455419866639
 20
106.5690958078145
 30
0.0
 10
93.73440186709364
 20
106.052335362881
 30
0.0
 10
93.81170787850796
 20
105.888044784557
 30
0.0
 10
93.9942999343191
 20
105.5749869802462
 30
0.0
 10
94.10052671317123
 20
105.4251455342298
 30
0.0
 10
94.33857048913788
 20
105.1470775069985
 30
0.0
 10
94.46857642821577
 20
105.0205413365802
 30
0.0
 10
94.75012630719873
 20
104.7919753053744
 30
0.0
 10
94.90337089468312
 20
104.6890925553578
 30
0.0
 10
95.22400682790419
 20
104.5144375750479
 30
0.0
 10
95.39051285662687
 20
104.4426758089405
 30
0.0
 10
95.7357617091493
 20
104.3299332501465
 30
0.0
 10
95.91568370111065
 20
104.2888953563534
 30
0.0
 10
96.09804258820976
 20
104.2649984634109
 30
0.0
  0
LINE
  5
122
330
1F
100
AcDbEntity
  8
0
  6
Continuous
 62
     7
370
    15
100
AcDbLine
 10
93.4825584583
 20
170.8401870133
 30
0.0
 11
93.4825584583
 21
107.2954173823
 31
0.0
  0
SPLINE
  5
123
330
1F
100
AcDbEntity
  8
0
  6
Continuous
 62
     7
370
    15
100
AcDbSpline
210
0.0
220
0.0
230
1.0
 70
     8
 71
     3
 72
    22
 73
    18
 74
     0
 42
0.000000001
 43
0.00000001
 40
0.0
 40
0.0
 40
0.0
 40
0.0
 40
0.125
 40
0.125
 40
0.25
 40
0.25
 40
0.375
 40
0.375
 40
0.5
 40
0.5
 40
0.625
 40
0.625
 40
0.75
 40
0.75
 40
0.875
 40
0.875
 40
1.0
 40
1.0
 40
1.0
 40
1.0
 10
96.09804258820976
 20
173.8706059321941
 30
0.0
 10
95.9157861316089
 20
173.8467224620723
 30
0.0
 10
95.73860842622126
 20
173.8063861936928
 30
0.0
 10
95.39396072531257
 20
173.6942651796857
 30
0.0
 10
95.22524709274707
 20
173.6217731583296
 30
0.0
 10
94.90386681175414
 20
173.4468508524593
 30
0.0
 10
94.75318745198473
 20
173.3458251998777
 30
0.0
 10
94.47122305266075
 20
173.117494800519
 30
0.0
 10
94.33878483879141
 20
172.9886841634064
 30
0.0
 10
94.10161640462717
 20
172.7118243761296
 30
0.0
 10
93.99658080329739
 20
172.5640935038309
 30
0.0
 10
93.81310225862019
 20
172.2503761861968
 30
0.0
 10
93.7343406390313
 20
172.0828939810728
 30
0.0
 10
93.60938451204746
 20
171.7414013428738
 30
0.0
 10
93.56231778581532
 20
171.5663867249627
 30
0.0
 10
93.49879931480847
 20
171.207878413849
 30
0.0
 10
93.48255845831855
 20
171.0239036589963
 30
0.0
 10
93.48255845831856
 20
170.8401870133047
 30
0.0
  0
ELLIPSE
  5
124
330
1F
100
AcDbEntity
  8
0
  6
Continuous
 62
     7
370
    15
100
AcDbEllipse
 10
99.1413902423
 20
165.0678021978
 30
0.0
 11
14.61842320934467
 21
0.0
 31
0.0
210
0.0
220
0.0
230
1.0
 40
0.6156614753
 41
1.570796326794897
 42
1.780516045004663
  0
CIRCLE
  5
125
330
1F
100
AcDbEntity
  8
0
  6
Continuous
 62
     7
370
    15
100
AcDbCircle
 10
99.4825584583
 20
168.0678021978
 30
0.0
 40
1.599999999999994
  0
CIRCLE
  5
126
330
1F
100
AcDbEntity
  8
0
  6
Continuous
 62
     7
370
    15
100
AcDbCircle
 10
149.522967033
 20
169.5678021978
 30
0.0
 40
1.599999999999994
  0
CIRCLE
  5
127
330
1F
100
AcDbEntity
  8
0
  6
Continuous
 62
     7
370
    15
100
AcDbCircle
 10
123.4825584583
 20
169.5678021978
 30
0.0
 40
1.600000000000023
  0
CIRCLE
  5
128
330
1F
100
AcDbEntity
  8
0
  6
Continuous
 62
     7
370
    15
100
AcDbCircle
 10
97.9825584583
 20
151.0678021978
 30
0.0
 40
1.599999999999994
  0
CIRCLE
  5
129
330
1F
100
AcDbEntity
  8
0
  6
Continuous
 62
     7
370
    15
100
AcDbCircle
 10
201.0633756076
 20
151.0678021978
 30
0.0
 40
1.600000000000023
  0
CIRCLE
  5
12A
330
1F
100
AcDbEntity
  8
0
  6
Continuous
 62
     7
370
    15
100
AcDbCircle
 10
199.5633756076
 20
168.0678021978
 30
0.0
 40
1.599999999999994
  0
CIRCLE
  5
12B
330
1F
100
AcDbEntity
  8
0
  6
Continuous
 62
     7
370
    15
100
AcDbCircle
 10
175.5633756076
 20
169.5678021978
 30
0.0
 40
1.600000000000023
  0
CIRCLE
  5
12C
330
1F
100
AcDbEntity
  8
0
  6
Continuous
 62
     7
370
    15
100
AcDbCircle
 10
175.5633756076
 20
108.5678021978
 30
0.0
 40
1.600000000000023
  0
CIRCLE
  5
12D
330
1F
100
AcDbEntity
  8
0
  6
Continuous
 62
     7
370
    15
100
AcDbCircle
 10
201.0633756076
 20
127.0678021978
 30
0.0
 40
1.600000000000023
  0
CIRCLE
  5
12E
330
1F
100
AcDbEntity
  8
0
  6
Continuous
 62
     7
370
    15
100
AcDbCircle
 10
199.5633756076
 20
110.0678021978
 30
0.0
 40
1.599999999999994
  0
CIRCLE
  5
12F
330
1F
100
AcDbEntity
  8
0
  6
Continuous
 62
     7
370
    15
100
AcDbCircle
 10
149.522967033
 20
108.5678021978
 30
0.0
 40
1.599999999999994
  0
CIRCLE
  5
130
330
1F
100
AcDbEntity
  8
0
  6
Continuous
 62
     7
370
    15
100
AcDbCircle
 10
123.4825584583
 20
108.5678021978
 30
0.0
 40
1.600000000000009
  0
CIRCLE
  5
131
330
1F
100
AcDbEntity
  8
0
  6
Continuous
 62
     7
370
    15
100
AcDbCircle
 10
99.4825584583
 20
110.0678021978
 30
0.0
 40
1.59999999999998
  0
CIRCLE
  5
132
330
1F
100
AcDbEntity
  8
0
  6
Continuous
 62
     7
370
    15
100
AcDbCircle
 10
97.9825584583
 20
127.0678021978
 30
0.0
 40
1.599999999999994
  0
LINE
  5
133
330
1F
100
AcDbEntity
  8
0
  6
Continuous
 62
     7
370
    15
100
AcDbLine
 10
99.1413902423
 20
104.0678021978
 30
0.0
 11
199.9045438236
 21
104.0678021978
 31
0.0
  0
DIMENSION
  5
134
330
1F
100
AcDbEntity
  8
0
  6
Continuous
 62
     7
370
     0
100
AcDbDimension
  2
_D_1
 10
205.5633756076
 20
190.0678021978
 30
0.0
 11
151.7364691845
 21
190.0678021978
 31
0.0
 70
   160
  1
<>
 71
     2
 42
-1.0
  3
SLDDIMSTYLE1
100
AcDbAlignedDimension
 13
93.4825584583
 23
170.8401870133
 33
0.0
 14
205.5633756076
 24
170.8401870133
 34
0.0
100
AcDbRotatedDimension
  0
DIMENSION
  5
13F
330
1F
100
AcDbEntity
  8
0
  6
Continuous
 62
     7
370
     0
100
AcDbDimension
  2
_D_2
 10
77.3040654912
 20
104.0678021978
 30
0.0
 11
77.3040654912
 21
143.3226589832
 31
0.0
 70
   160
  1
<>
 71
     2
 42
-1.0
  3
SLDDIMSTYLE0
100
AcDbAlignedDimension
 13
99.1413902423
 23
174.0678021978
 33
0.0
 14
99.1413902423
 24
104.0678021978
 34
0.0
 50
90.0
100
AcDbRotatedDimension
  0
DIMENSION
  5
149
330
1F
100
AcDbEntity
  8
0
  6
Continuous
 62
     7
370
     0
100
AcDbDimension
  2
_D_3
 10
196.5633756076
 20
184.0678021978
 30
0.0
 11
151.7364691845
 21
184.0678021978
 31
0.0
 70
   160
  1
<>
 71
     2
 42
-1.0
  3
SLDDIMSTYLE1
100
AcDbAlignedDimension
 13
102.4825584583
 23
161.0678021978
 33
0.0
 14
196.5633756076
 24
161.0678021978
 34
0.0
100
AcDbRotatedDimension
  0
DIMENSION
  5
153
330
1F
100
AcDbEntity
  8
0
  6
Continuous
 62
     7
370
     0
100
AcDbDimension
  2
_D_4
 10
86.8641603709
 20
113.0678021978
 30
0.0
 11
86.8641603709
 21
143.3226589832
 31
0.0
 70
   160
  1
<>
 71
     2
 42
-1.0
  3
SLDDIMSTYLE0
100
AcDbAlignedDimension
 13
106.4825584583
 23
165.0678021978
 33
0.0
 14
106.4825584583
 24
113.0678021978
 34
0.0
 50
90.0
100
AcDbRotatedDimension
  0
DIMENSION
  5
15D
330
1F
100
AcDbEntity
  8
0
  6
Continuous
 62
     7
370
     0
100
AcDbDimension
  2
_D_5
 10
96.4143069343
 20
150.7506474132
 30
0.0
 11
113.5301953217
 21
154.2120809412
 31
0.0
 70
   163
  1
<>
 71
     1
 42
-1.0
  3
SLDDIMSTYLE2
100
AcDbDiametricDimension
 15
99.5508099823
 25
151.3849569824
 35
0.0
 40
0.0
  0
INSERT
  5
175
330
1F
100
AcDbEntity
  8
0
  6
Continuous
 62
     7
370
     0
100
AcDbBlockReference
  2
SW_CENTERMARKSYMBOL_0
 10
99.4825584583
 20
168.0678021978
 30
0.0
  0
INSERT
  5
181
330
1F
100
AcDbEntity
  8
0
  6
Continuous
 62
     7
370
     0
100
AcDbBlockReference
  2
SW_CENTERMARKSYMBOL_1
 10
149.522967033
 20
169.5678021978
 30
0.0
  0
INSERT
  5
18D
330
1F
100
AcDbEntity
  8
0
  6
Continuous
 62
     7
370
     0
100
AcDbBlockReference
  2
SW_CENTERMARKSYMBOL_2
 10
123.4825584583
 20
169.5678021978
 30
0.0
  0
INSERT
  5
199
330
1F
100
AcDbEntity
  8
0
  6
Continuous
 62
     7
370
     0
100
AcDbBlockReference
  2
SW_CENTERMARKSYMBOL_3
 10
97.9825584583
 20
151.0678021978
 30
0.0
  0
INSERT
  5
1A5
330
1F
100
AcDbEntity
  8
0
  6
Continuous
 62
     7
370
     0
100
AcDbBlockReference
  2
SW_CENTERMARKSYMBOL_4
 10
201.0633756076
 20
151.0678021978
 30
0.0
  0
INSERT
  5
1B1
330
1F
100
AcDbEntity
  8
0
  6
Continuous
 62
     7
370
     0
100
AcDbBlockReference
  2
SW_CENTERMARKSYMBOL_5
 10
199.5633756076
 20
168.0678021978
 30
0.0
  0
INSERT
  5
1BD
330
1F
100
AcDbEntity
  8
0
  6
Continuous
 62
     7
370
     0
100
AcDbBlockReference
  2
SW_CENTERMARKSYMBOL_6
 10
175.5633756076
 20
169.5678021978
 30
0.0
  0
INSERT
  5
1C9
330
1F
100
AcDbEntity
  8
0
  6
Continuous
 62
     7
370
     0
100
AcDbBlockReference
  2
SW_CENTERMARKSYMBOL_7
 10
175.5633756076
 20
108.5678021978
 30
0.0
  0
INSERT
  5
1D5
330
1F
100
AcDbEntity
  8
0
  6
Continuous
 62
     7
370
     0
100
AcDbBlockReference
  2
SW_CENTERMARKSYMBOL_8
 10
201.0633756076
 20
127.0678021978
 30
0.0
  0
INSERT
  5
1E1
330
1F
100
AcDbEntity
  8
0
  6
Continuous
 62
     7
370
     0
100
AcDbBlockReference
  2
SW_CENTERMARKSYMBOL_9
 10
199.5633756076
 20
110.0678021978
 30
0.0
  0
INSERT
  5
1ED
330
1F
100
AcDbEntity
  8
0
  6
Continuous
 62
     7
370
     0
100
AcDbBlockReference
  2
SW_CENTERMARKSYMBOL_10
 10
149.522967033
 20
108.5678021978
 30
0.0
  0
INSERT
  5
1F9
330
1F
100
AcDbEntity
  8
0
  6
Continuous
 62
     7
370
     0
100
AcDbBlockReference
  2
SW_CENTERMARKSYMBOL_11
 10
123.4825584583
 20
108.5678021978
 30
0.0
  0
INSERT
  5
205
330
1F
100
AcDbEntity
  8
0
  6
Continuous
 62
     7
370
     0
100
AcDbBlockReference
  2
SW_CENTERMARKSYMBOL_12
 10
99.4825584583
 20
110.0678021978
 30
0.0
  0
INSERT
  5
211
330
1F
100
AcDbEntity
  8
0
  6
Continuous
 62
     7
370
     0
100
AcDbBlockReference
  2
SW_CENTERMARKSYMBOL_13
 10
97.9825584583
 20
127.0678021978
 30
0.0
  0
SPLINE
  5
212
330
1F
100
AcDbEntity
  8
0
  6
Continuous
 62
     7
370
    15
100
AcDbSpline
210
0.0
220
0.0
230
1.0
 70
     8
 71
     3
 72
    10
 73
     6
 74
     0
 42
0.000000001
 43
0.00000001
 40
0.0
 40
0.0
 40
0.0
 40
0.0
 40
0.3215290245430527
 40
0.8693301255852129
 40
1.0
 40
1.0
 40
1.0
 40
1.0
 10
369.2434277617544
 20
189.8006933996017
 30
0.0
 10
369.240130845492
 20
189.951834505133
 30
0.0
 10
369.2312168489017
 20
190.3604804009095
 30
0.0
 10
369.1859632574646
 20
190.8258609760139
 30
0.0
 10
369.1118569709074
 20
191.1283140871195
 30
0.0
 10
369.097584497201
 20
191.1865649356808
 30
0.0
  0
LINE
  5
213
330
1F
100
AcDbEntity
  8
0
  6
Continuous
 62
     7
370
    15
100
AcDbLine
 10
369.0995394862
 20
191.2118807169
 30
0.0
 11
367.6852539432
 21
197.8613296325
 31
0.0
  0
LINE
  5
214
330
1F
100
AcDbEntity
  8
0
  6
Continuous
 62
     7
370
    15
100
AcDbLine
 10
369.2434277618
 20
147.3405711815
 30
0.0
 11
369.2434277618
 21
189.8006933996
 31
0.0
  0
SPLINE
  5
215
330
1F
100
AcDbEntity
  8
0
  6
Continuous
 62
     7
370
    15
100
AcDbSpline
210
0.0
220
0.0
230
1.0
 70
     8
 71
     3
 72
    47
 73
    43
 74
     0
 42
0.000000001
 43
0.00000001
 40
0.0
 40
0.0
 40
0.0
 40
0.0
 40
0.0147729474457819
 40
0.0386925141394323
 40
0.0626947893373257
 40
0.0868356068919306
 40
0.1111338266174107
 40
0.135604714478064
 40
0.1602593254009909
 40
0.1851041489676973
 40
0.2101409172973603
 40
0.23536661879888
 40
0.2607737456218193
 40
0.2863507783765351
 40
0.3120828819757159
 40
0.3379527574883832
 40
0.3639415736834185
 40
0.3900298938148187
 40
0.4161985198565056
 40
0.4424291953158138
 40
0.4687051333931112
 40
0.4950113632308314
 40
0.5213349082106525
 40
0.5476639213337918
 40
0.5739877634551153
 40
0.600299853450141
 40
0.6265951818600879
 40
0.6528701077236126
 40
0.6791221569938128
 40
0.7053498341183154
 40
0.7315524522477578
 40
0.7577299844152888
 40
0.7838829359158205
 40
0.8100122367968671
 40
0.8361191526414111
 40
0.8622052114965086
 40
0.8882721447365852
 40
0.9143218397433492
 40
0.94035630246165
 40
0.966377628104085
 40
0.9923879784960152
 40
1.0
 40
1.0
 40
1.0
 40
1.0
 10
367.6852539432339
 20
197.8613296325496
 30
0.0
 10
367.6123518531804
 20
198.1888413470263
 30
0.0
 10
367.421410596499
 20
199.0466425197259
 30
0.0
 10
367.0421707221641
 20
200.4237508533138
 30
0.0
 10
366.5303701859084
 20
201.9890745556488
 30
0.0
 10
365.9351439375166
 20
203.5414506833042
 30
0.0
 10
365.2579046101137
 20
205.0804273715936
 30
0.0
 10
364.4983251426394
 20
206.6044236578377
 30
0.0
 10
363.6566882151185
 20
208.1118455582868
 30
0.0
 10
362.7332458649922
 20
209.6009622899462
 30
0.0
 10
361.728454335992
 20
211.0699330030016
 30
0.0
 10
360.642968414336
 20
212.5168071021477
 30
0.0
 10
359.477691833376
 20
213.9395461187785
 30
0.0
 10
358.2337979407939
 20
215.3360531902456
 30
0.0
 10
356.9127398856533
 20
216.7042110263158
 30
0.0
 10
355.5162434014161
 20
218.0419236146311
 30
0.0
 10
354.0462850450137
 20
219.3471575621412
 30
0.0
 10
352.5050586015501
 20
220.6179788688559
 30
0.0
 10
350.8949341713476
 20
221.8525819512224
 30
0.0
 10
349.2184146767535
 20
223.0493090900803
 30
0.0
 10
347.4780941027323
 20
224.2066599667332
 30
0.0
 10
345.6766207202625
 20
225.3232922130053
 30
0.0
 10
343.8166884941314
 20
226.3980024654619
 30
0.0
 10
341.9010366637773
 20
227.4297074833282
 30
0.0
 10
339.9323849342954
 20
228.4174626013763
 30
0.0
 10
337.9133996936184
 20
229.3604536660309
 30
0.0
 10
335.8466665172625
 20
230.2579844431449
 30
0.0
 10
333.7347471703055
 20
231.1094328317459
 30
0.0
 10
331.5801830395155
 20
231.9142390153044
 30
0.0
 10
329.3854997163947
 20
232.6718956965445
 30
0.0
 10
327.153211979256
 20
233.3819403683721
 30
0.0
 10
324.885828662968
 20
234.0439493868536
 30
0.0
 10
322.5858571076366
 20
234.6575337460855
 30
0.0
 10
320.2558069059002
 20
235.2223357244561
 30
0.0
 10
317.8981931630867
 20
235.7380282418161
 30
0.0
 10
315.5155380820627
 20
236.20430887188
 30
0.0
 10
313.1103752187408
 20
236.6209174550437
 30
0.0
 10
310.6852403262398
 20
236.987568466305
 30
0.0
 10
308.2427089903395
 20
237.3042031523143
 30
0.0
 10
305.7852568915965
 20
237.5700505997301
 30
0.0
 10
303.8977439396172
 20
237.7359734216818
 30
0.0
 10
302.8305148181395
 20
237.8136406129814
 30
0.0
 10
302.5888967952494
 20
237.8312242722234
 30
0.0
  0
SPLINE
  5
216
330
1F
100
AcDbEntity
  8
0
  6
Continuous
 62
     7
370
    15
100
AcDbSpline
210
0.0
220
0.0
230
1.0
 70
     8
 71
     3
 72
    21
 73
    17
 74
     0
 42
0.000000001
 43
0.00000001
 40
0.0
 40
0.0
 40
0.0
 40
0.0
 40
0.0272445631194726
 40
0.1151110093206357
 40
0.2012043903817975
 40
0.285299806770481
 40
0.3673250804938506
 40
0.4473347767143964
 40
0.5254970925079347
 40
0.6020816295069905
 40
0.6774420143264113
 40
0.7519864110687118
 40
0.8261259061201796
 40
0.9001885796234397
 40
0.9742974733640496
 40
1.0
 40
1.0
 40
1.0
 40
1.0
 10
363.9386803289483
 20
137.8135420698755
 30
0.0
 10
364.0150739488874
 20
137.8734892652363
 30
0.0
 10
364.3378446484318
 20
138.1267721728634
 30
0.0
 10
364.8855230467244
 20
138.6134822081226
 30
0.0
 10
365.5634097315692
 20
139.2864583641777
 30
0.0
 10
366.1942747620694
 20
139.9968773992912
 30
0.0
 10
366.7747635958532
 20
140.7349810733344
 30
0.0
 10
367.3013069240241
 20
141.494928794976
 30
0.0
 10
367.7712239315499
 20
142.2710758293012
 30
0.0
 10
368.1821242617407
 20
143.0590109687519
 30
0.0
 10
368.5317212756675
 20
143.8552670267424
 30
0.0
 10
368.8172994915082
 20
144.6571289230409
 30
0.0
 10
369.0357927483834
 20
145.4621900200249
 30
0.0
 10
369.1817525971688
 20
146.2670160600283
 30
0.0
 10
369.2383518123131
 20
146.8934731714436
 30
0.0
 10
369.242388317702
 20
147.2490152326862
 30
0.0
 10
369.2434277617543
 20
147.3405711815426
 30
0.0
  0
LINE
  5
217
330
1F
100
AcDbEntity
  8
0
  6
Continuous
 62
     7
370
    15
100
AcDbLine
 10
302.5888967952
 20
237.8312242722
 30
0.0
 11
289.1847027197
 21
238.7813406012
 31
0.0
  0
SPLINE
  5
218
330
1F
100
AcDbEntity
  8
0
  6
Continuous
 62
     7
370
    15
100
AcDbSpline
210
0.0
220
0.0
230
1.0
 70
     8
 71
     3
 72
    13
 73
     9
 74
     0
 42
0.000000001
 43
0.00000001
 40
0.0
 40
0.0
 40
0.0
 40
0.0
 40
0.0257836416031821
 40
0.2383232521355272
 40
0.4608108918309505
 40
0.6945476379135619
 40
0.9397507265992635
 40
1.0
 40
1.0
 40
1.0
 40
1.0
 10
289.1821816608658
 20
238.7774911814896
 30
0.0
 10
289.1543067807686
 20
238.7807588535607
 30
0.0
 10
288.8966538014149
 20
238.8109625868773
 30
0.0
 10
288.3965022968369
 20
238.7958233344032
 30
0.0
 10
287.6767912391128
 20
238.7293523704038
 30
0.0
 10
286.930896250311
 20
238.5754155161863
 30
0.0
 10
286.3651088669927
 20
238.4099581901071
 30
0.0
 10
286.04925747904
 20
238.2913479406861
 30
0.0
 10
285.9869570388117
 20
238.2679525369096
 30
0.0
  0
LWPOLYLINE
  5
219
330
1F
100
AcDbEntity
  8
0
  6
Continuous
 62
     7
370
    15
100
AcDbPolyline
 90
       11
 70
   128
 43
0.0
 10
355.2572495439
 20
149.1624666118
 10
355.6997130281
 20
148.9472497688
 10
356.1312815928
 20
148.8177560577
 10
356.5413285878
 20
148.7771740434
 10
356.919757295
 20
148.8265029898
 10
357.2572495439
 20
148.9645282544
 10
357.5454951552
 20
149.1878511973
 10
357.7773965653
 20
149.4909728663
 10
357.9472435918
 20
149.8664294001
 10
358.0508540373
 20
150.3049758126
 10
358.0856766687
 20
150.7958136357
  0
LINE
  5
21A
330
1F
100
AcDbEntity
  8
0
  6
Continuous
 62
     7
370
    15
100
AcDbLine
 10
358.0856766687
 20
150.7958136357
 30
0.0
 11
358.0856766687
 21
186.7236093587
 31
0.0
  0
ARC
  5
21B
330
1F
100
AcDbEntity
  8
0
  6
Continuous
 62
     7
370
    15
100
AcDbCircle
 10
351.9886381917
 20
186.4694688613
 30
0.0
 40
6.10233279837832
100
AcDbArc
 50
2.3868561234
 51
57.6131440222
  0
LINE
  5
21C
330
1F
100
AcDbEntity
  8
0
  6
Continuous
 62
     7
370
    15
100
AcDbLine
 10
294.3889200076
 20
226.7611275264
 30
0.0
 11
355.2572495439
 21
191.6225888299
 31
0.0
  0
LWPOLYLINE
  5
21D
330
1F
100
AcDbEntity
  8
0
  6
Continuous
 62
     7
370
    15
100
AcDbPolyline
 90
       11
 70
   128
 43
0.0
 10
294.3889200076
 20
226.7611275264
 10
293.9464565234
 20
226.9763443694
 10
293.5148879587
 20
227.1058380805
 10
293.1048409637
 20
227.1464200948
 10
292.7264122565
 20
227.0970911485
 10
292.3889200076
 20
226.9590658838
 10
292.1006743963
 20
226.735742941
 10
291.8687729862
 20
226.4326212719
 10
291.6989259597
 20
226.0571647382
 10
291.5953155142
 20
225.6186183257
 10
291.5604928828
 20
225.1277805025
  0
LINE
  5
21E
330
1F
100
AcDbEntity
  8
0
  6
Continuous
 62
     7
370
    15
100
AcDbLine
 10
291.5604928828
 20
225.1277805025
 30
0.0
 11
291.5604928828
 21
189.1999847795
 31
0.0
  0
ARC
  5
21F
330
1F
100
AcDbEntity
  8
0
  6
Continuous
 62
     7
370
    15
100
AcDbCircle
 10
297.6575313598
 20
189.4541252769
 30
0.0
 40
6.102332798379227
100
AcDbArc
 50
182.3868561234
 51
237.6131440222
  0
LINE
  5
220
330
1F
100
AcDbEntity
  8
0
  6
Continuous
 62
     7
370
    15
100
AcDbLine
 10
294.3889200076
 20
184.3010053083
 30
0.0
 11
355.2572495439
 21
149.1624666118
 31
0.0
  0
LINE
  5
221
330
1F
100
AcDbEntity
  8
0
  6
Continuous
 62
     7
370
    15
100
AcDbLine
 10
289.1979301802
 20
237.1066894743
 30
0.0
 11
360.4482393713
 21
195.974761496
 31
0.0
  0
ELLIPSE
  5
222
330
1F
100
AcDbEntity
  8
0
  6
Continuous
 62
     7
370
    15
100
AcDbEllipse
 10
360.4482393713
 20
188.625894189
 30
0.0
 11
9.558301605966221
 21
-8.315794063268811
 31
0.0
210
0.0
220
0.0
230
1.0
 40
0.4732539095
 41
1.751657781997804
 42
1.961377500207568
  0
SPLINE
  5
223
330
1F
100
AcDbEntity
  8
0
  6
Continuous
 62
     7
370
    15
100
AcDbSpline
210
0.0
220
0.0
230
1.0
 70
     8
 71
     3
 72
    20
 73
    16
 74
     0
 42
0.000000001
 43
0.00000001
 40
0.0
 40
0.0
 40
0.0
 40
0.0
 40
0.2499999999999946
 40
0.2499999999999946
 40
0.3749999999999955
 40
0.3749999999999955
 40
0.4999999999999964
 40
0.4999999999999964
 40
0.6249999999999974
 40
0.6249999999999974
 40
0.7499999999999982
 40
0.7499999999999982
 40
0.8749999999999991
 40
0.8749999999999991
 40
1.0
 40
1.0
 40
1.0
 40
1.0
 10
364.4496376993501
 20
191.0293238868137
 30
0.0
 10
364.4496376993501
 20
191.3294963514438
 30
0.0
 10
364.405101619354
 20
191.6481052266604
 30
0.0
 10
364.2715575172081
 20
192.1471545891073
 30
0.0
 10
364.2168939123105
 20
192.3128611787228
 30
0.0
 10
364.0877818314557
 20
192.6430204701811
 30
0.0
 10
364.0126681557857
 20
192.8087343281394
 30
0.0
 10
363.8443457875804
 20
193.1329586556883
 30
0.0
 10
363.7524177064639
 20
193.2893495546388
 30
0.0
 10
363.5533318777928
 20
193.5909128498712
 30
0.0
 10
363.4449715908025
 20
193.7374758762564
 30
0.0
 10
363.2182477481298
 20
194.0109736840904
 30
0.0
 10
363.1005102061116
 20
194.1375385311083
 30
0.0
 10
362.8563824012961
 20
194.3705294134984
 30
0.0
 10
362.7291583406956
 20
194.4774834154806
 30
0.0
 10
362.6002111350182
 20
194.5714358411907
 30
0.0
  0
LINE
  5
224
330
1F
100
AcDbEntity
  8
0
  6
Continuous
 62
     7
370
    15
100
AcDbLine
 10
364.4496376994
 20
191.0293238868
 30
0.0
 11
364.4496376993
 21
139.1424261012
 31
0.0
  0
SPLINE
  5
225
330
1F
100
AcDbEntity
  8
0
  6
Continuous
 62
     7
370
    15
100
AcDbSpline
210
0.0
220
0.0
230
1.0
 70
     8
 71
     3
 72
    22
 73
    18
 74
     0
 42
0.000000001
 43
0.00000001
 40
0.0
 40
0.0
 40
0.0
 40
0.0
 40
0.125
 40
0.125
 40
0.25
 40
0.25
 40
0.375
 40
0.375
 40
0.5
 40
0.5
 40
0.625
 40
0.625
 40
0.75
 40
0.75
 40
0.875
 40
0.875
 40
1.0
 40
1.0
 40
1.0
 40
1.0
 10
362.600211135018
 20
137.7356166068296
 30
0.0
 10
362.7290859307305
 20
137.680720601877
 30
0.0
 10
362.8543694801469
 20
137.6413321604647
 30
0.0
 10
363.0980721482189
 20
137.592196963956
 30
0.0
 10
363.2173705801542
 20
137.5825200603457
 30
0.0
 10
363.4446209148258
 20
137.59416251959
 30
0.0
 10
363.5511673156113
 20
137.6151461746844
 30
0.0
 10
363.750546162935
 20
137.6864882082414
 30
0.0
 10
363.8441940426517
 20
137.7376054526988
 30
0.0
 10
364.011897636948
 20
137.8668597674185
 30
0.0
 10
364.0861690333632
 20
137.944612131927
 30
0.0
 10
364.2159078994673
 20
138.1258783546829
 30
0.0
 10
364.2716007877211
 20
138.2304835840016
 30
0.0
 10
364.3599581805256
 20
138.4583188489611
 30
0.0
 10
364.3932393663281
 20
138.5820126249373
 30
0.0
 10
364.4381536723368
 20
138.8488206301901
 30
0.0
 10
364.4496376993499
 20
138.9924139408195
 30
0.0
 10
364.4496376993499
 20
139.1424261012199
 30
0.0
  0
ELLIPSE
  5
226
330
1F
100
AcDbEntity
  8
0
  6
Continuous
 62
     7
370
    15
100
AcDbEllipse
 10
360.4482393713
 20
146.1657719709
 30
0.0
 11
9.558301605966221
 21
-8.315794063268811
 31
0.0
210
0.0
220
0.0
230
1.0
 40
0.4732539095
 41
5.102970153797372
 42
5.312689872007144
  0
LINE
  5
227
330
1F
100
AcDbEntity
  8
0
  6
Continuous
 62
     7
370
    15
100
AcDbLine
 10
289.1979301802
 20
179.9488326423
 30
0.0
 11
360.4482393713
 21
138.816904664
 31
0.0
  0
ELLIPSE
  5
228
330
1F
100
AcDbEntity
  8
0
  6
Continuous
 62
     7
370
    15
100
AcDbEllipse
 10
289.1979301802
 20
187.2976999492
 30
0.0
 11
9.558301605966221
 21
-8.315794063268811
 31
0.0
210
0.0
220
0.0
230
1.0
 40
0.4732539095
 41
4.893250435587603
 42
5.102970153797372
  0
SPLINE
  5
229
330
1F
100
AcDbEntity
  8
0
  6
Continuous
 62
     7
370
    15
100
AcDbSpline
210
0.0
220
0.0
230
1.0
 70
     8
 71
     3
 72
    20
 73
    16
 74
     0
 42
0.000000001
 43
0.00000001
 40
0.0
 40
0.0
 40
0.0
 40
0.0
 40
0.2499999999999989
 40
0.2499999999999989
 40
0.3749999999999992
 40
0.3749999999999992
 40
0.4999999999999994
 40
0.4999999999999994
 40
0.6249999999999996
 40
0.6249999999999996
 40
0.7499999999999997
 40
0.7499999999999997
 40
0.8749999999999998
 40
0.8749999999999998
 40
1.0
 40
1.0
 40
1.0
 40
1.0
 10
285.1965318521526
 20
184.8942702514219
 30
0.0
 10
285.1965318521526
 20
184.5940977867918
 30
0.0
 10
285.2410679321487
 20
184.2754889115752
 30
0.0
 10
285.3746120342947
 20
183.7764395491284
 30
0.0
 10
285.4292756391922
 20
183.6107329595129
 30
0.0
 10
285.5583877200471
 20
183.2805736680545
 30
0.0
 10
285.633501395717
 20
183.1148598100963
 30
0.0
 10
285.8018237639222
 20
182.7906354825473
 30
0.0
 10
285.8937518450387
 20
182.6342445835969
 30
0.0
 10
286.0928376737099
 20
182.3326812883644
 30
0.0
 10
286.2011979607002
 20
182.1861182619793
 30
0.0
 10
286.4279218033729
 20
181.9126204541453
 30
0.0
 10
286.5456593453911
 20
181.7860556071274
 30
0.0
 10
286.7897871502066
 20
181.5530647247372
 30
0.0
 10
286.9170112108071
 20
181.4461107227551
 30
0.0
 10
287.0459584164845
 20
181.3521582970449
 30
0.0
  0
LINE
  5
22A
330
1F
100
AcDbEntity
  8
0
  6
Continuous
 62
     7
370
    15
100
AcDbLine
 10
285.1965318522
 20
236.781168037
 30
0.0
 11
285.1965318522
 21
184.8942702514
 31
0.0
  0
SPLINE
  5
22B
330
1F
100
AcDbEntity
  8
0
  6
Continuous
 62
     7
370
    15
100
AcDbSpline
210
0.0
220
0.0
230
1.0
 70
     8
 71
     3
 72
    22
 73
    18
 74
     0
 42
0.000000001
 43
0.00000001
 40
0.0
 40
0.0
 40
0.0
 40
0.0
 40
0.125
 40
0.125
 40
0.25
 40
0.25
 40
0.375
 40
0.375
 40
0.5
 40
0.5
 40
0.625
 40
0.625
 40
0.75
 40
0.75
 40
0.875
 40
0.875
 40
1.0
 40
1.0
 40
1.0
 40
1.0
 10
287.0459584164847
 20
238.187977531406
 30
0.0
 10
286.9170836401071
 20
238.2428735281226
 30
0.0
 10
286.7918000831525
 20
238.2822619767479
 30
0.0
 10
286.5480973567196
 20
238.3313971823125
 30
0.0
 10
286.428798803054
 20
238.34107407744
 30
0.0
 10
286.2015486270242
 20
238.329431609979
 30
0.0
 10
286.0950022299464
 20
238.3084479673986
 30
0.0
 10
285.8956232911312
 20
238.2371058891547
 30
0.0
 10
285.801975332016
 20
238.1859885630065
 30
0.0
 10
285.634271923935
 20
238.056734364285
 30
0.0
 10
285.5600005379687
 20
237.9789820363555
 30
0.0
 10
285.4302616148253
 20
237.7977157292219
 30
0.0
 10
285.3745687395167
 20
237.6931104860398
 30
0.0
 10
285.2862114147756
 20
237.4652754078375
 30
0.0
 10
285.2529302134886
 20
237.341581658183
 30
0.0
 10
285.2080158719091
 20
237.0747734882488
 30
0.0
 10
285.1965318521528
 20
236.9311801760455
 30
0.0
 10
285.1965318521528
 20
236.7811680370155
 30
0.0
  0
ELLIPSE
  5
22C
330
1F
100
AcDbEntity
  8
0
  6
Continuous
 62
     7
370
    15
100
AcDbEllipse
 10
289.1979301802
 20
229.7578221673
 30
0.0
 11
9.558301605966221
 21
-8.315794063268839
 31
0.0
210
0.0
220
0.0
230
1.0
 40
0.4732539095
 41
1.961377500207566
 42
2.171097218417334
  0
LWPOLYLINE
  5
22D
330
1F
100
AcDbEntity
  8
0
  6
Continuous
 62
     7
370
    15
100
AcDbPolyline
 90
       27
 70
   128
 43
0.0
 10
289.4391725393
 20
230.7617130544
 10
289.7099273058
 20
230.6433731619
 10
289.9649467894
 20
230.6078377682
 10
290.1894101847
 20
230.6571720612
 10
290.3702724951
 20
230.788508911
 10
290.4970226604
 20
230.9942154975
 10
290.5622944219
 20
231.2623369014
 10
290.5622944219
 20
231.5772908815
 10
290.4970226604
 20
231.920773457
 10
290.3702724951
 20
232.2728226694
 10
290.1894101847
 20
232.612978698
 10
289.9649467894
 20
232.9214729108
 10
289.7099273058
 20
233.1803767456
 10
289.4391725393
 20
233.3746436525
 10
289.1684177728
 20
233.492983545
 10
288.9133982891
 20
233.5285189387
 10
288.6889348938
 20
233.4791846457
 10
288.5080725835
 20
233.3478477958
 10
288.3813224181
 20
233.1421412094
 10
288.3160506567
 20
232.8740198054
 10
288.3160506567
 20
232.5590658254
 10
288.3813224181
 20
232.2155832498
 10
288.5080725835
 20
231.8635340375
 10
288.6889348938
 20
231.5233780089
 10
288.9133982891
 20
231.214883796
 10
289.1684177728
 20
230.9559799613
 10
289.4391725393
 20
230.7617130544
  0
LWPOLYLINE
  5
22E
330
1F
100
AcDbEntity
  8
0
  6
Continuous
 62
     7
370
    15
100
AcDbPolyline
 90
       27
 70
   128
 43
0.0
 10
324.8230847758
 20
211.5598265326
 10
325.0938395423
 20
211.4414866401
 10
325.3488590259
 20
211.4059512464
 10
325.5733224212
 20
211.4552855393
 10
325.7541847316
 20
211.5866223892
 10
325.8809348969
 20
211.7923289757
 10
325.9462066583
 20
212.0604503796
 10
325.9462066583
 20
212.3754043597
 10
325.8809348969
 20
212.7188869352
 10
325.7541847316
 20
213.0709361476
 10
325.5733224212
 20
213.4110921762
 10
325.3488590259
 20
213.719586389
 10
325.0938395423
 20
213.9784902238
 10
324.8230847758
 20
214.1727571307
 10
324.5523300093
 20
214.2910970232
 10
324.2973105256
 20
214.3266324169
 10
324.0728471303
 20
214.2772981239
 10
323.8919848199
 20
214.145961274
 10
323.7652346546
 20
213.9402546876
 10
323.6999628932
 20
213.6721332836
 10
323.6999628932
 20
213.3571793036
 10
323.7652346546
 20
213.013696728
 10
323.8919848199
 20
212.6616475156
 10
324.0728471303
 20
212.3214914871
 10
324.2973105256
 20
212.0129972742
 10
324.5523300093
 20
211.7540934395
 10
324.8230847758
 20
211.5598265326
  0
LWPOLYLINE
  5
22F
330
1F
100
AcDbEntity
  8
0
  6
Continuous
 62
     7
370
    15
100
AcDbPolyline
 90
       27
 70
   128
 43
0.0
 10
306.4097352877
 20
222.1896269304
 10
306.6804900542
 20
222.0712870379
 10
306.9355095379
 20
222.0357516441
 10
307.1599729332
 20
222.0850859371
 10
307.3408352436
 20
222.216422787
 10
307.4675854089
 20
222.4221293734
 10
307.5328571703
 20
222.6902507774
 10
307.5328571703
 20
223.0052047574
 10
307.4675854089
 20
223.348687333
 10
307.3408352436
 20
223.7007365454
 10
307.1599729332
 20
224.040892574
 10
306.9355095379
 20
224.3493867868
 10
306.6804900542
 20
224.6082906215
 10
306.4097352877
 20
224.8025575284
 10
306.1389805213
 20
224.9208974209
 10
305.8839610376
 20
224.9564328146
 10
305.6594976423
 20
224.9070985217
 10
305.4786353319
 20
224.7757616718
 10
305.3518851666
 20
224.5700550853
 10
305.2866134052
 20
224.3019336814
 10
305.2866134052
 20
223.9869797014
 10
305.3518851666
 20
223.6434971258
 10
305.4786353319
 20
223.2914479134
 10
305.6594976423
 20
222.9512918848
 10
305.8839610376
 20
222.642797672
 10
306.1389805213
 20
222.3838938373
 10
306.4097352877
 20
222.1896269304
  0
LWPOLYLINE
  5
230
330
1F
100
AcDbEntity
  8
0
  6
Continuous
 62
     7
370
    15
100
AcDbPolyline
 90
       27
 70
   128
 43
0.0
 10
288.3785123675
 20
217.4928253362
 10
288.649267134
 20
217.3744854437
 10
288.9042866176
 20
217.33895005
 10
289.1287500129
 20
217.388284343
 10
289.3096123233
 20
217.5196211928
 10
289.4363624886
 20
217.7253277793
 10
289.5016342501
 20
217.9934491832
 10
289.5016342501
 20
218.3084031633
 10
289.4363624886
 20
218.6518857389
 10
289.3096123233
 20
219.0039349512
 10
289.1287500129
 20
219.3440909798
 10
288.9042866176
 20
219.6525851926
 10
288.649267134
 20
219.9114890274
 10
288.3785123675
 20
220.1057559343
 10
288.107757601
 20
220.2240958268
 10
287.8527381174
 20
220.2596312205
 10
287.6282747221
 20
220.2102969275
 10
287.4474124117
 20
220.0789600777
 10
287.3206622463
 20
219.8732534912
 10
287.2553904849
 20
219.6051320873
 10
287.2553904849
 20
219.2901781072
 10
287.3206622463
 20
218.9466955316
 10
287.4474124117
 20
218.5946463193
 10
287.6282747221
 20
218.2544902907
 10
287.8527381174
 20
217.9459960779
 10
288.107757601
 20
217.6870922431
 10
288.3785123675
 20
217.4928253362
  0
LWPOLYLINE
  5
231
330
1F
100
AcDbEntity
  8
0
  6
Continuous
 62
     7
370
    15
100
AcDbPolyline
 90
       27
 70
   128
 43
0.0
 10
361.267657184
 20
178.0277482873
 10
360.9969024175
 20
178.1460881798
 10
360.7418829339
 20
178.1816235735
 10
360.5174195386
 20
178.1322892805
 10
360.3365572282
 20
178.0009524307
 10
360.2098070629
 20
177.7952458442
 10
360.1445353014
 20
177.5271244403
 10
360.1445353014
 20
177.2121704602
 10
360.2098070629
 20
176.8686878846
 10
360.3365572282
 20
176.5166386723
 10
360.5174195386
 20
176.1764826437
 10
360.7418829339
 20
175.8679884309
 10
360.9969024175
 20
175.6090845961
 10
361.267657184
 20
175.4148176892
 10
361.5384119505
 20
175.2964777967
 10
361.7934314341
 20
175.260942403
 10
362.0178948295
 20
175.310276696
 10
362.1987571398
 20
175.4416135458
 10
362.3255073052
 20
175.6473201323
 10
362.3907790666
 20
175.9154415362
 10
362.3907790666
 20
176.2303955163
 10
362.3255073052
 20
176.5738780919
 10
362.1987571398
 20
176.9259273042
 10
362.0178948295
 20
177.2660833328
 10
361.7934314341
 20
177.5745775456
 10
361.5384119505
 20
177.8334813804
 10
361.267657184
 20
178.0277482873
  0
LWPOLYLINE
  5
232
330
1F
100
AcDbEntity
  8
0
  6
Continuous
 62
     7
370
    15
100
AcDbPolyline
 90
       27
 70
   128
 43
0.0
 10
360.2069970122
 20
192.5212481732
 10
359.9362422457
 20
192.6395880657
 10
359.6812227621
 20
192.6751234594
 10
359.4567593668
 20
192.6257891665
 10
359.2758970564
 20
192.4944523166
 10
359.1491468911
 20
192.2887457301
 10
359.0838751296
 20
192.0206243262
 10
359.0838751296
 20
191.7056703462
 10
359.1491468911
 20
191.3621877706
 10
359.2758970564
 20
191.0101385582
 10
359.4567593668
 20
190.6699825296
 10
359.6812227621
 20
190.3614883168
 10
359.9362422457
 20
190.102584482
 10
360.2069970122
 20
189.9083175752
 10
360.4777517787
 20
189.7899776827
 10
360.7327712624
 20
189.7544422889
 10
360.9572346577
 20
189.8037765819
 10
361.138096968
 20
189.9351134318
 10
361.2648471334
 20
190.1408200182
 10
361.3301188948
 20
190.4089414222
 10
361.3301188948
 20
190.7238954022
 10
361.2648471334
 20
191.0673779778
 10
361.138096968
 20
191.4194271902
 10
360.9572346577
 20
191.7595832187
 10
360.7327712624
 20
192.0680774316
 10
360.4777517787
 20
192.3269812663
 10
360.2069970122
 20
192.5212481732
  0
LWPOLYLINE
  5
233
330
1F
100
AcDbEntity
  8
0
  6
Continuous
 62
     7
370
    15
100
AcDbPolyline
 90
       27
 70
   128
 43
0.0
 10
343.2364342638
 20
203.5429567329
 10
342.9656794973
 20
203.6612966254
 10
342.7106600136
 20
203.6968320191
 10
342.4861966183
 20
203.6474977262
 10
342.3053343079
 20
203.5161608763
 10
342.1785841426
 20
203.3104542898
 10
342.1133123812
 20
203.0423328859
 10
342.1133123812
 20
202.7273789059
 10
342.1785841426
 20
202.3838963303
 10
342.3053343079
 20
202.0318471179
 10
342.4861966183
 20
201.6916910893
 10
342.7106600136
 20
201.3831968765
 10
342.9656794973
 20
201.1242930417
 10
343.2364342638
 20
200.9300261349
 10
343.5071890303
 20
200.8116862424
 10
343.7622085139
 20
200.7761508486
 10
343.9866719092
 20
200.8254851416
 10
344.1675342196
 20
200.9568219915
 10
344.2942843849
 20
201.1625285779
 10
344.3595561463
 20
201.4306499819
 10
344.3595561463
 20
201.7456039619
 10
344.2942843849
 20
202.0890865375
 10
344.1675342196
 20
202.4411357499
 10
343.9866719092
 20
202.7812917784
 10
343.7622085139
 20
203.0897859913
 10
343.5071890303
 20
203.348689826
 10
343.2364342638
 20
203.5429567329
  0
LWPOLYLINE
  5
234
330
1F
100
AcDbEntity
  8
0
  6
Continuous
 62
     7
370
    15
100
AcDbPolyline
 90
       27
 70
   128
 43
0.0
 10
343.2364342638
 20
151.1210366098
 10
343.5071890303
 20
151.0026967173
 10
343.7622085139
 20
150.9671613236
 10
343.9866719092
 20
151.0164956166
 10
344.1675342196
 20
151.1478324664
 10
344.2942843849
 20
151.3535390529
 10
344.3595561463
 20
151.6216604568
 10
344.3595561463
 20
151.9366144369
 10
344.2942843849
 20
152.2800970125
 10
344.1675342196
 20
152.6321462248
 10
343.9866719092
 20
152.9723022534
 10
343.7622085139
 20
153.2807964662
 10
343.5071890303
 20
153.539700301
 10
343.2364342638
 20
153.7339672079
 10
342.9656794973
 20
153.8523071004
 10
342.7106600136
 20
153.8878424941
 10
342.4861966183
 20
153.8385082011
 10
342.3053343079
 20
153.7071713513
 10
342.1785841426
 20
153.5014647648
 10
342.1133123812
 20
153.2333433608
 10
342.1133123812
 20
152.9183893808
 10
342.1785841426
 20
152.5749068052
 10
342.3053343079
 20
152.2228575929
 10
342.4861966183
 20
151.8827015643
 10
342.7106600136
 20
151.5742073514
 10
342.9656794973
 20
151.3153035167
 10
343.2364342638
 20
151.1210366098
  0
LWPOLYLINE
  5
235
330
1F
100
AcDbEntity
  8
0
  6
Continuous
 62
     7
370
    15
100
AcDbPolyline
 90
       27
 70
   128
 43
0.0
 10
361.267657184
 20
155.817838204
 10
361.5384119505
 20
155.6994983115
 10
361.7934314341
 20
155.6639629177
 10
362.0178948295
 20
155.7132972107
 10
362.1987571398
 20
155.8446340606
 10
362.3255073052
 20
156.050340647
 10
362.3907790666
 20
156.318462051
 10
362.3907790666
 20
156.633416031
 10
362.3255073052
 20
156.9768986066
 10
362.1987571398
 20
157.328947819
 10
362.0178948295
 20
157.6691038476
 10
361.7934314341
 20
157.9775980604
 10
361.5384119505
 20
158.2365018951
 10
361.267657184
 20
158.430768802
 10
360.9969024175
 20
158.5491086945
 10
360.7418829339
 20
158.5846440882
 10
360.5174195386
 20
158.5353097953
 10
360.3365572282
 20
158.4039729454
 10
360.2098070629
 20
158.1982663589
 10
360.1445353014
 20
157.930144955
 10
360.1445353014
 20
157.615190975
 10
360.2098070629
 20
157.2717083994
 10
360.3365572282
 20
156.919659187
 10
360.5174195386
 20
156.5795031584
 10
360.7418829339
 20
156.2710089456
 10
360.9969024175
 20
156.0121051108
 10
361.267657184
 20
155.817838204
  0
LWPOLYLINE
  5
236
330
1F
100
AcDbEntity
  8
0
  6
Continuous
 62
     7
370
    15
100
AcDbPolyline
 90
       27
 70
   128
 43
0.0
 10
360.2069970122
 20
142.5489504858
 10
360.4777517787
 20
142.4306105933
 10
360.7327712624
 20
142.3950751995
 10
360.9572346577
 20
142.4444094925
 10
361.138096968
 20
142.5757463424
 10
361.2648471334
 20
142.7814529288
 10
361.3301188948
 20
143.0495743328
 10
361.3301188948
 20
143.3645283128
 10
361.2648471334
 20
143.7080108884
 10
361.138096968
 20
144.0600601008
 10
360.9572346577
 20
144.4002161294
 10
360.7327712624
 20
144.7087103422
 10
360.4777517787
 20
144.9676141769
 10
360.2069970122
 20
145.1618810838
 10
359.9362422457
 20
145.2802209763
 10
359.6812227621
 20
145.31575637
 10
359.4567593668
 20
145.2664220771
 10
359.2758970564
 20
145.1350852272
 10
359.1491468911
 20
144.9293786408
 10
359.0838751296
 20
144.6612572368
 10
359.0838751296
 20
144.3463032568
 10
359.1491468911
 20
144.0028206812
 10
359.2758970564
 20
143.6507714688
 10
359.4567593668
 20
143.3106154402
 10
359.6812227621
 20
143.0021212274
 10
359.9362422457
 20
142.7432173927
 10
360.2069970122
 20
142.5489504858
  0
LWPOLYLINE
  5
237
330
1F
100
AcDbEntity
  8
0
  6
Continuous
 62
     7
370
    15
100
AcDbPolyline
 90
       27
 70
   128
 43
0.0
 10
324.8230847758
 20
164.3637676056
 10
324.5523300093
 20
164.4821074981
 10
324.2973105256
 20
164.5176428919
 10
324.0728471303
 20
164.4683085989
 10
323.8919848199
 20
164.336971749
 10
323.7652346546
 20
164.1312651626
 10
323.6999628932
 20
163.8631437586
 10
323.6999628932
 20
163.5481897786
 10
323.7652346546
 20
163.204707203
 10
323.8919848199
 20
162.8526579906
 10
324.0728471303
 20
162.512501962
 10
324.2973105256
 20
162.2040077492
 10
324.5523300093
 20
161.9451039145
 10
324.8230847758
 20
161.7508370076
 10
325.0938395423
 20
161.6324971151
 10
325.3488590259
 20
161.5969617214
 10
325.5733224212
 20
161.6462960143
 10
325.7541847316
 20
161.7776328642
 10
325.8809348969
 20
161.9833394506
 10
325.9462066583
 20
162.2514608546
 10
325.9462066583
 20
162.5664148346
 10
325.8809348969
 20
162.9098974102
 10
325.7541847316
 20
163.2619466226
 10
325.5733224212
 20
163.6021026512
 10
325.3488590259
 20
163.910596864
 10
325.0938395423
 20
164.1695006987
 10
324.8230847758
 20
164.3637676056
  0
LWPOLYLINE
  5
238
330
1F
100
AcDbEntity
  8
0
  6
Continuous
 62
     7
370
    15
100
AcDbPolyline
 90
       27
 70
   128
 43
0.0
 10
306.4097352877
 20
174.9935680034
 10
306.1389805213
 20
175.1119078959
 10
305.8839610376
 20
175.1474432896
 10
305.6594976423
 20
175.0981089966
 10
305.4786353319
 20
174.9667721468
 10
305.3518851666
 20
174.7610655603
 10
305.2866134052
 20
174.4929441564
 10
305.2866134052
 20
174.1779901763
 10
305.3518851666
 20
173.8345076008
 10
305.4786353319
 20
173.4824583884
 10
305.6594976423
 20
173.1423023598
 10
305.8839610376
 20
172.833808147
 10
306.1389805213
 20
172.5749043122
 10
306.4097352877
 20
172.3806374053
 10
306.6804900542
 20
172.2622975128
 10
306.9355095379
 20
172.2267621191
 10
307.1599729332
 20
172.2760964121
 10
307.3408352436
 20
172.407433262
 10
307.4675854089
 20
172.6131398484
 10
307.5328571703
 20
172.8812612524
 10
307.5328571703
 20
173.1962152324
 10
307.4675854089
 20
173.539697808
 10
307.3408352436
 20
173.8917470204
 10
307.1599729332
 20
174.2319030489
 10
306.9355095379
 20
174.5403972618
 10
306.6804900542
 20
174.7993010965
 10
306.4097352877
 20
174.9935680034
  0
LWPOLYLINE
  5
239
330
1F
100
AcDbEntity
  8
0
  6
Continuous
 62
     7
370
    15
100
AcDbPolyline
 90
       27
 70
   128
 43
0.0
 10
289.4391725393
 20
186.0152765631
 10
289.1684177728
 20
186.1336164556
 10
288.9133982891
 20
186.1691518493
 10
288.6889348938
 20
186.1198175563
 10
288.5080725835
 20
185.9884807065
 10
288.3813224181
 20
185.78277412
 10
288.3160506567
 20
185.5146527161
 10
288.3160506567
 20
185.199698736
 10
288.3813224181
 20
184.8562161605
 10
288.5080725835
 20
184.5041669481
 10
288.6889348938
 20
184.1640109195
 10
288.9133982891
 20
183.8555167067
 10
289.1684177728
 20
183.5966128719
 10
289.4391725393
 20
183.402345965
 10
289.7099273058
 20
183.2840060725
 10
289.9649467894
 20
183.2484706788
 10
290.1894101847
 20
183.2978049718
 10
290.3702724951
 20
183.4291418217
 10
290.4970226604
 20
183.6348484081
 10
290.5622944219
 20
183.9029698121
 10
290.5622944219
 20
184.2179237921
 10
290.4970226604
 20
184.5614063677
 10
290.3702724951
 20
184.9134555801
 10
290.1894101847
 20
185.2536116086
 10
289.9649467894
 20
185.5621058215
 10
289.7099273058
 20
185.8210096562
 10
289.4391725393
 20
186.0152765631
  0
LWPOLYLINE
  5
23A
330
1F
100
AcDbEntity
  8
0
  6
Continuous
 62
     7
370
    15
100
AcDbPolyline
 90
       27
 70
   128
 43
0.0
 10
288.3785123675
 20
200.508776449
 10
288.107757601
 20
200.6271163415
 10
287.8527381174
 20
200.6626517352
 10
287.6282747221
 20
200.6133174423
 10
287.4474124117
 20
200.4819805924
 10
287.3206622463
 20
200.2762740059
 10
287.2553904849
 20
200.008152602
 10
287.2553904849
 20
199.693198622
 10
287.3206622463
 20
199.3497160464
 10
287.4474124117
 20
198.997666834
 10
287.6282747221
 20
198.6575108054
 10
287.8527381174
 20
198.3490165926
 10
288.107757601
 20
198.0901127578
 10
288.3785123675
 20
197.895845851
 10
288.649267134
 20
197.7775059585
 10
288.9042866176
 20
197.7419705647
 10
289.1287500129
 20
197.7913048577
 10
289.3096123233
 20
197.9226417076
 10
289.4363624886
 20
198.128348294
 10
289.5016342501
 20
198.396469698
 10
289.5016342501
 20
198.711423678
 10
289.4363624886
 20
199.0549062536
 10
289.3096123233
 20
199.406955466
 10
289.1287500129
 20
199.7471114946
 10
288.9042866176
 20
200.0556057074
 10
288.649267134
 20
200.3145095421
 10
288.3785123675
 20
200.508776449
  0
ELLIPSE
  5
23B
330
1F
100
AcDbEntity
  8
0
  6
Continuous
 62
     7
370
    15
100
AcDbEllipse
 10
362.9807597934
 20
185.4679709374
 30
0.0
 11
4.557944520219905
 21
5.238971539706171
 31
0.0
210
0.0
220
0.0
230
1.0
 40
0.5470045124
 41
5.721904369726863
 42
7.016374166970443
  0
LINE
  5
23C
330
1F
100
AcDbEntity
  8
0
  6
Continuous
 62
     7
370
    15
100
AcDbLine
 10
360.4482393713
 20
195.974761496
 30
0.0
 11
358.8821683386
 21
203.3378497928
 31
0.0
  0
LINE
  5
23D
330
1F
100
AcDbEntity
  8
0
  6
Continuous
 62
     7
370
    15
100
AcDbLine
 10
368.3647481053
 20
146.1159590138
 30
0.0
 11
368.3647481053
 21
188.5760812319
 31
0.0
  0
ELLIPSE
  5
23E
330
1F
100
AcDbEntity
  8
0
  6
Continuous
 62
     7
370
    15
100
AcDbEllipse
 10
362.9807597934
 20
143.0078487193
 30
0.0
 11
4.557944520219962
 21
5.2389715397062
 31
0.0
210
0.0
220
0.0
230
1.0
 40
0.5470045124
 41
4.427434572483249
 42
5.721904369726852
  0
LINE
  5
23F
330
1F
100
AcDbEntity
  8
0
  6
Continuous
 62
     7
370
    15
100
AcDbLine
 10
301.9525552011
 20
236.2026159109
 30
0.0
 11
289.1979301802
 21
237.1066894743
 31
0.0
  0
LWPOLYLINE
  5
240
330
1F
100
AcDbEntity
  8
0
  6
Continuous
 62
     7
370
    15
100
AcDbPolyline
 90
       36
 70
   128
 43
0.0
 10
358.8821683386
 20
203.3378497928
 10
358.533645335
 20
204.7540722079
 10
358.0924207308
 20
206.1616543884
 10
357.559128182
 20
207.5585748627
 10
356.9345335661
 20
208.9428274712
 10
356.2195338825
 20
210.3124242465
 10
355.4151559638
 20
211.6653982693
 10
354.5225550016
 20
212.9998064926
 10
353.5430128871
 20
214.3137325323
 10
352.4779363706
 20
215.6052894193
 10
351.3288550406
 20
216.8726223097
 10
350.0974191277
 20
218.1139111483
 10
348.7853971343
 20
219.3273732825
 10
347.394673295
 20
220.5112660226
 10
345.9272448705
 20
221.6638891444
 10
344.3852192791
 20
222.7835873309
 10
342.7708110706
 20
223.8687525495
 10
341.0863387456
 20
224.9178263616
 10
339.3342214258
 20
225.9293021604
 10
337.51697538
 20
226.901727335
 10
335.6372104103
 20
227.8337053561
 10
333.6976261042
 20
228.7238977817
 10
331.7010079575
 20
229.5710261795
 10
329.6502233741
 20
230.3738739629
 10
327.5482175478
 20
231.1312881376
 10
325.398009233
 20
231.8421809584
 10
323.2026864089
 20
232.5055314904
 10
320.9654018453
 20
233.1203870758
 10
318.6893685743
 20
233.6858647019
 10
316.3778552762
 20
234.2011522692
 10
314.0341815855
 20
234.6655097575
 10
311.6617133228
 20
235.0782702891
 10
309.2638576619
 20
235.4388410858
 10
306.8440582359
 20
235.7467043212
 10
304.4057901921
 20
236.0014178635
 10
301.9525552011
 20
236.2026159109
  0
LWPOLYLINE
  5
241
330
1F
100
AcDbEntity
  8
0
  6
Continuous
 62
     7
370
    15
100
AcDbPolyline
 90
       29
 70
   128
 43
0.0
 10
358.0856766687
 20
166.5624224483
 10
357.0183396503
 20
167.8159299341
 10
355.8065277073
 20
169.1197558741
 10
354.5128440171
 20
170.3970970437
 10
353.1390230346
 20
171.6462408985
 10
351.6869066556
 20
172.8655126988
 10
350.1584417471
 20
174.0532777544
 10
348.5556775377
 20
175.2079436166
 10
346.8807628696
 20
176.3279622133
 10
345.1359433179
 20
177.4118319241
 10
343.3235581799
 20
178.4580995938
 10
341.4460373388
 20
179.4653624808
 10
339.5058980058
 20
180.4322701375
 10
337.5057413455
 20
181.357526221
 10
335.4482489881
 20
182.239890231
 10
333.3361794347
 20
183.0781791731
 10
331.1723643583
 20
183.8712691449
 10
328.9597048077
 20
184.6180968426
 10
326.7011673182
 20
185.3176609866
 10
324.3997799338
 20
185.9690236643
 10
322.058628148
 20
186.5713115871
 10
319.6808507668
 20
187.1237172613
 10
317.2696357005
 20
187.6255000713
 10
314.8282156896
 20
188.0759872715
 10
312.3598639707
 20
188.4745748893
 10
309.8678898881
 20
188.8207285342
 10
307.3556344566
 20
189.1139841145
 10
304.8264658828
 20
189.3539484594
 10
302.3810490763
 20
189.5341734138
  0
SPLINE
  5
242
330
1F
100
AcDbEntity
  8
0
  6
Continuous
 62
     7
370
    15
100
AcDbSpline
210
0.0
220
0.0
230
1.0
 70
     8
 71
     3
 72
    20
 73
    16
 74
     0
 42
0.000000001
 43
0.00000001
 40
0.0
 40
0.0
 40
0.0
 40
0.0
 40
0.2500000000000002
 40
0.2500000000000002
 40
0.3750000000000002
 40
0.3750000000000002
 40
0.5000000000000001
 40
0.5000000000000001
 40
0.6250000000000001
 40
0.6250000000000001
 40
0.7500000000000001
 40
0.7500000000000001
 40
0.8750000000000001
 40
0.8750000000000001
 40
1.0
 40
1.0
 40
1.0
 40
1.0
 10
302.2837750485447
 20
189.6122546380041
 30
0.0
 10
301.7747706896927
 20
189.7136346212206
 30
0.0
 10
301.2847956349386
 20
189.8580542588413
 30
0.0
 10
300.5803257192584
 20
190.1445371296002
 30
0.0
 10
300.3490103382257
 20
190.2528659113414
 30
0.0
 10
299.9091667027193
 20
190.4914886153103
 30
0.0
 10
299.7002286072412
 20
190.6216539830291
 30
0.0
 10
299.3070331004603
 20
190.9068265551235
 30
0.0
 10
299.1211026381474
 20
191.06353544831
 30
0.0
 10
298.7892169750306
 20
191.3985263477681
 30
0.0
 10
298.6432158196157
 20
191.5761342152104
 30
0.0
 10
298.3979290432382
 20
191.9556037712518
 30
0.0
 10
298.2998480716627
 20
192.157252372055
 30
0.0
 10
298.168222040805
 20
192.5676741206327
 30
0.0
 10
298.1331295303466
 20
192.7808985435272
 30
0.0
 10
298.1331295303466
 20
192.9942871521436
 30
0.0
  0
LINE
  5
243
330
1F
100
AcDbEntity
  8
0
  6
Continuous
 62
     7
370
    15
100
AcDbLine
 10
298.1331295303
 20
192.9942871521
 30
0.0
 11
298.1331295303
 21
224.5996413774
 31
0.0
  0
LINE
  5
244
330
1F
100
AcDbEntity
  8
0
  6
Continuous
 62
     7
370
    15
100
AcDbLine
 10
302.8742013818
 20
189.1994539793
 30
0.0
 11
294.3889200076
 21
184.3010053083
 31
0.0
  0
LINE
  5
245
330
1F
100
AcDbEntity
  8
0
  6
Continuous
 62
     7
370
    15
100
AcDbLine
 10
298.1331295303
 20
192.9942871521
 30
0.0
 11
291.5604928828
 21
189.1999847795
 31
0.0
  0
ARC
  5
246
330
1F
100
AcDbEntity
  8
0
  6
Continuous
 62
     7
370
    15
100
AcDbCircle
 10
305.07380157
 20
192.9741710498
 30
0.0
 40
4.36883622376234
100
AcDbArc
 50
230.3110011607
 51
239.7698226835
  0
ELLIPSE
  5
247
330
1F
100
AcDbEntity
  8
0
  6
Continuous
 62
     8
370
    15
100
AcDbEllipse
 10
360.8594394498
 20
186.6925831051
 30
0.0
 11
7.200830774609301
 21
6.59387224113388
 31
0.0
210
0.0
220
0.0
230
1.0
 40
0.6445795331
 41
5.917765520107348
 42
7.111043952814708
  0
ARC
  5
248
330
1F
100
AcDbEntity
  8
0
  6
Continuous
 62
     8
370
    15
100
AcDbCircle
 10
367.7049439109
 20
189.9769492353
 30
0.0
 40
1.548474325909791
100
AcDbArc
 50
295.2202804269
 51
353.4879618823
  0
LWPOLYLINE
  5
249
330
1F
100
AcDbEntity
  8
0
  6
Continuous
 62
     8
370
    15
100
AcDbPolyline
 90
       15
 70
   128
 43
0.0
 10
367.6852539432
 20
197.8613296325
 10
367.6198780702
 20
198.1362444138
 10
367.3778757058
 20
198.8621002577
 10
367.0427925936
 20
199.556477622
 10
366.6182999744
 20
200.2117687631
 10
366.109048678
 20
200.820794174
 10
365.5206181684
 20
201.3768812449
 10
364.8594554132
 20
201.8739373696
 10
364.13280425
 20
202.306516697
 10
363.348626021
 20
202.6698797976
 10
362.515512347
 20
202.9600455892
 10
361.6425909956
 20
203.1738349547
 10
360.739425876
 20
203.3089055729
 10
359.8159122542
 20
203.363777582
 10
358.8821683386
 20
203.3378497928
  0
ARC
  5
24A
330
1F
100
AcDbEntity
  8
0
  6
Continuous
 62
     8
370
    15
100
AcDbCircle
 10
367.7047726547
 20
147.5170421465
 30
0.0
 40
1.548741921706103
100
AcDbArc
 50
295.2226209206
 51
353.4572381218
  0
ARC
  5
24B
330
1F
100
AcDbEntity
  8
0
  6
Continuous
 62
     8
370
    15
100
AcDbCircle
 10
304.4825225686
 20
236.1527725805
 30
0.0
 40
2.530458305910049
100
AcDbArc
 50
138.4478951069
 51
178.8713518165
  0
LINE
  5
24C
330
1F
100
AcDbEntity
  8
0
  6
Continuous
 62
     8
370
    15
100
AcDbLine
 10
358.0856766313
 20
150.7952828139
 30
0.0
 11
355.2572495439
 21
149.1624666118
 31
0.0
  0
ELLIPSE
  5
24D
330
1F
100
AcDbEntity
  8
0
  6
Continuous
 62
     8
370
    15
100
AcDbEllipse
 10
285.8489742897
 20
229.9952029198
 30
0.0
 11
4.132398524958945
 21
8.578948931746453
 31
0.0
210
0.0
220
0.0
230
1.0
 40
0.4659827099
 41
0.1830375816191478
 42
0.5922520793388661
  0
LINE
  5
24E
330
1F
100
AcDbEntity
  8
0
  6
Continuous
 62
     8
370
    15
100
AcDbLine
 10
294.3893797439
 20
226.7608621263
 30
0.0
 11
291.5604928828
 21
225.1277805025
 31
0.0
  0
ENDSEC
  0
SECTION
  2
OBJECTS
  0
DICTIONARY
  5
C
330
0
100
AcDbDictionary
281
     1
  3
ACAD_GROUP
350
D
  3
ACAD_LAYOUT
350
1A
  3
ACAD_MLINESTYLE
350
17
  3
ACAD_PLOTSETTINGS
350
19
  3
ACAD_PLOTSTYLENAME
350
E
  3
ACAD_SCALELIST
350
47
  0
DICTIONARY
  5
D
102
{ACAD_REACTORS
330
C
102
}
330
C
100
AcDbDictionary
281
     1
  0
DICTIONARY
  5
1A
102
{ACAD_REACTORS
330
C
102
}
330
C
100
AcDbDictionary
281
     1
  3
Layout1
350
1E
  3
Layout2
350
26
  3
Model
350
22
  0
DICTIONARY
  5
17
102
{ACAD_REACTORS
330
C
102
}
330
C
100
AcDbDictionary
281
     1
  3
Standard
350
18
  0
DICTIONARY
  5
19
102
{ACAD_REACTORS
330
C
102
}
330
C
100
AcDbDictionary
281
     1
  0
ACDBDICTIONARYWDFLT
  5
E
102
{ACAD_REACTORS
330
C
102
}
330
C
100
AcDbDictionary
281
     1
  3
Normal
350
F
100
AcDbDictionaryWithDefault
340
F
  0
DICTIONARY
  5
47
102
{ACAD_REACTORS
330
C
102
}
330
C
100
AcDbDictionary
281
     1
  3
A0
350
48
  3
A1
350
49
  3
A2
350
4A
  3
A3
350
4B
  3
A4
350
4C
  3
A5
350
4D
  3
A6
350
4E
  3
A7
350
4F
  3
A8
350
50
  3
A9
350
51
  3
B0
350
52
  3
B1
350
53
  3
B2
350
54
  3
B3
350
55
  3
B4
350
56
  3
B5
350
57
  3
B6
350
58
  3
B7
350
59
  3
B8
350
5A
  3
B9
350
5B
  3
C0
350
5C
  3
C1
350
5D
  3
C2
350
5E
  3
C3
350
5F
  3
C4
350
60
  3
C5
350
61
  3
C6
350
62
  3
C7
350
63
  3
C8
350
64
  3
C9
350
65
  3
D0
350
66
  3
D1
350
67
  3
D2
350
68
  0
LAYOUT
  5
1E
102
{ACAD_REACTORS
330
1A
102
}
330
1A
100
AcDbPlotSettings
  1

  2
none_device
  4

  6

 40
0.0
 41
0.0
 42
0.0
 43
0.0
 44
0.0
 45
0.0
 46
0.0
 47
0.0
 48
0.0
 49
0.0
140
0.0
141
0.0
142
1.0
143
1.0
 70
   688
 72
     1
 73
     0
 74
     5
  7

 75
    16
147
1.0
148
0.0
149
0.0
100
AcDbLayout
  1
Layout1
 70
     1
 71
     1
 10
0.0
 20
0.0
 11
420.0
 21
297.0
 12
0.0
 22
0.0
 32
0.0
 14
1.0000000000E+20
 24
1.0000000000E+20
 34
1.0000000000E+20
 15
-1.0000000000E+20
 25
-1.0000000000E+20
 35
-1.0000000000E+20
146
0.0
 13
0.0
 23
0.0
 33
0.0
 16
1.0
 26
0.0
 36
0.0
 17
0.0
 27
1.0
 37
0.0
 76
     0
330
1B
  0
LAYOUT
  5
26
102
{ACAD_REACTORS
330
1A
102
}
330
1A
100
AcDbPlotSettings
  1

  2
none_device
  4

  6

 40
0.0
 41
0.0
 42
0.0
 43
0.0
 44
0.0
 45
0.0
 46
0.0
 47
0.0
 48
0.0
 49
0.0
140
0.0
141
0.0
142
1.0
143
1.0
 70
   688
 72
     1
 73
     0
 74
     5
  7

 75
    16
147
1.0
148
0.0
149
0.0
100
AcDbLayout
  1
Layout2
 70
     1
 71
     2
 10
0.0
 20
0.0
 11
0.0
 21
0.0
 12
0.0
 22
0.0
 32
0.0
 14
0.0
 24
0.0
 34
0.0
 15
0.0
 25
0.0
 35
0.0
146
0.0
 13
0.0
 23
0.0
 33
0.0
 16
1.0
 26
0.0
 36
0.0
 17
0.0
 27
1.0
 37
0.0
 76
     0
330
23
  0
LAYOUT
  5
22
102
{ACAD_REACTORS
330
1A
102
}
330
1A
100
AcDbPlotSettings
  1

  2
none_device
  4
Letter_(8.50_x_11.00_Inches)
  6

 40
6.35
 41
6.35
 42
6.35000508
 43
6.35000508
 44
215.9
 45
279.4
 46
0.0
 47
0.0
 48
0.0
 49
0.0
140
0.0
141
0.0
142
1.0
143
1.0
 70
  1712
 72
     1
 73
     0
 74
     0
  7

 75
     0
147
1.0
148
0.0
149
0.0
100
AcDbLayout
  1
Model
 70
     1
 71
     0
 10
0.0
 20
0.0
 11
420.0
 21
297.0
 12
0.0
 22
0.0
 32
0.0
 14
0.0
 24
0.0
 34
0.0
 15
420.0
 25
297.0
 35
0.0
146
0.0
 13
0.0
 23
0.0
 33
0.0
 16
1.0
 26
0.0
 36
0.0
 17
0.0
 27
1.0
 37
0.0
 76
     0
330
1F
331
29
  0
MLINESTYLE
  5
18
102
{ACAD_REACTORS
330
17
102
}
330
17
100
AcDbMlineStyle
  2
Standard
 70
     0
  3

 62
   256
 51
90.0
 52
90.0
 71
     2
 49
0.5
 62
   256
  6
BYLAYER
 49
-0.5
 62
   256
  6
BYLAYER
  0
ACDBPLACEHOLDER
  5
F
102
{ACAD_REACTORS
330
E
102
}
330
E
  0
SCALE
  5
48
102
{ACAD_REACTORS
330
47
102
}
330
47
100
AcDbScale
 70
     0
300
1:1
140
1.0
141
1.0
290
     1
  0
SCALE
  5
49
102
{ACAD_REACTORS
330
47
102
}
330
47
100
AcDbScale
 70
     0
300
1:2
140
1.0
141
2.0
290
     0
  0
SCALE
  5
4A
102
{ACAD_REACTORS
330
47
102
}
330
47
100
AcDbScale
 70
     0
300
1:4
140
1.0
141
4.0
290
     0
  0
SCALE
  5
4B
102
{ACAD_REACTORS
330
47
102
}
330
47
100
AcDbScale
 70
     0
300
1:5
140
1.0
141
5.0
290
     0
  0
SCALE
  5
4C
102
{ACAD_REACTORS
330
47
102
}
330
47
100
AcDbScale
 70
     0
300
1:8
140
1.0
141
8.0
290
     0
  0
SCALE
  5
4D
102
{ACAD_REACTORS
330
47
102
}
330
47
100
AcDbScale
 70
     0
300
1:10
140
1.0
141
10.0
290
     0
  0
SCALE
  5
4E
102
{ACAD_REACTORS
330
47
102
}
330
47
100
AcDbScale
 70
     0
300
1:16
140
1.0
141
16.0
290
     0
  0
SCALE
  5
4F
102
{ACAD_REACTORS
330
47
102
}
330
47
100
AcDbScale
 70
     0
300
1:20
140
1.0
141
20.0
290
     0
  0
SCALE
  5
50
102
{ACAD_REACTORS
330
47
102
}
330
47
100
AcDbScale
 70
     0
300
1:30
140
1.0
141
30.0
290
     0
  0
SCALE
  5
51
102
{ACAD_REACTORS
330
47
102
}
330
47
100
AcDbScale
 70
     0
300
1:40
140
1.0
141
40.0
290
     0
  0
SCALE
  5
52
102
{ACAD_REACTORS
330
47
102
}
330
47
100
AcDbScale
 70
     0
300
1:50
140
1.0
141
50.0
290
     0
  0
SCALE
  5
53
102
{ACAD_REACTORS
330
47
102
}
330
47
100
AcDbScale
 70
     0
300
1:100
140
1.0
141
100.0
290
     0
  0
SCALE
  5
54
102
{ACAD_REACTORS
330
47
102
}
330
47
100
AcDbScale
 70
     0
300
2:1
140
2.0
141
1.0
290
     0
  0
SCALE
  5
55
102
{ACAD_REACTORS
330
47
102
}
330
47
100
AcDbScale
 70
     0
300
4:1
140
4.0
141
1.0
290
     0
  0
SCALE
  5
56
102
{ACAD_REACTORS
330
47
102
}
330
47
100
AcDbScale
 70
     0
300
8:1
140
8.0
141
1.0
290
     0
  0
SCALE
  5
57
102
{ACAD_REACTORS
330
47
102
}
330
47
100
AcDbScale
 70
     0
300
10:1
140
10.0
141
1.0
290
     0
  0
SCALE
  5
58
102
{ACAD_REACTORS
330
47
102
}
330
47
100
AcDbScale
 70
     0
300
100:1
140
100.0
141
1.0
290
     0
  0
SCALE
  5
59
102
{ACAD_REACTORS
330
47
102
}
330
47
100
AcDbScale
 70
     0
300
1/128" = 1'-0"
140
0.0078125
141
12.0
290
     0
  0
SCALE
  5
5A
102
{ACAD_REACTORS
330
47
102
}
330
47
100
AcDbScale
 70
     0
300
1/64" = 1'-0"
140
0.015625
141
12.0
290
     0
  0
SCALE
  5
5B
102
{ACAD_REACTORS
330
47
102
}
330
47
100
AcDbScale
 70
     0
300
1/32" = 1'-0"
140
0.03125
141
12.0
290
     0
  0
SCALE
  5
5C
102
{ACAD_REACTORS
330
47
102
}
330
47
100
AcDbScale
 70
     0
300
1/16" = 1'-0"
140
0.0625
141
12.0
290
     0
  0
SCALE
  5
5D
102
{ACAD_REACTORS
330
47
102
}
330
47
100
AcDbScale
 70
     0
300
3/32" = 1'-0"
140
0.09375
141
12.0
290
     0
  0
SCALE
  5
5E
102
{ACAD_REACTORS
330
47
102
}
330
47
100
AcDbScale
 70
     0
300
1/8" = 1'-0"
140
0.125
141
12.0
290
     0
  0
SCALE
  5
5F
102
{ACAD_REACTORS
330
47
102
}
330
47
100
AcDbScale
 70
     0
300
3/16" = 1'-0"
140
0.1875
141
12.0
290
     0
  0
SCALE
  5
60
102
{ACAD_REACTORS
330
47
102
}
330
47
100
AcDbScale
 70
     0
300
1/4" = 1'-0"
140
0.25
141
12.0
290
     0
  0
SCALE
  5
61
102
{ACAD_REACTORS
330
47
102
}
330
47
100
AcDbScale
 70
     0
300
3/8" = 1'-0"
140
0.375
141
12.0
290
     0
  0
SCALE
  5
62
102
{ACAD_REACTORS
330
47
102
}
330
47
100
AcDbScale
 70
     0
300
1/2" = 1'-0"
140
0.5
141
12.0
290
     0
  0
SCALE
  5
63
102
{ACAD_REACTORS
330
47
102
}
330
47
100
AcDbScale
 70
     0
300
3/4" = 1'-0"
140
0.75
141
12.0
290
     0
  0
SCALE
  5
64
102
{ACAD_REACTORS
330
47
102
}
330
47
100
AcDbScale
 70
     0
300
1" = 1'-0"
140
1.0
141
12.0
290
     0
  0
SCALE
  5
65
102
{ACAD_REACTORS
330
47
102
}
330
47
100
AcDbScale
 70
     0
300
1-1/2" = 1'-0"
140
1.5
141
12.0
290
     0
  0
SCALE
  5
66
102
{ACAD_REACTORS
330
47
102
}
330
47
100
AcDbScale
 70
     0
300
3" = 1'-0"
140
3.0
141
12.0
290
     0
  0
SCALE
  5
67
102
{ACAD_REACTORS
330
47
102
}
330
47
100
AcDbScale
 70
     0
300
6" = 1'-0"
140
6.0
141
12.0
290
     0
  0
SCALE
  5
68
102
{ACAD_REACTORS
330
47
102
}
330
47
100
AcDbScale
 70
     0
300
1'-0" = 1'-0"
140
12.0
141
12.0
290
     0
  0
ENDSEC
  0
EOF
