  0
SECTION
  2
HEADER
  9
$ACADVER
  1
AC1015
  9
$ACADMAINTVER
 70
     6
  9
$DWGCODEPAGE
  3
ANSI_1250
  9
$INSBASE
 10
0.0
 20
0.0
 30
0.0
  9
$EXTMIN
 10
0.0
 20
0.0
 30
0.0
  9
$EXTMAX
 10
420.0
 20
297.0
 30
0.0
  9
$LIMMIN
 10
0.0
 20
0.0
  9
$LIMMAX
 10
420.0
 20
297.0
  9
$ORTHOMODE
 70
     0
  9
$REGENMODE
 70
     1
  9
$FILLMODE
 70
     1
  9
$QTEXTMODE
 70
     0
  9
$MIRRTEXT
 70
     1
  9
$LTSCALE
 40
1.0
  9
$ATTMODE
 70
     1
  9
$TEXTSIZE
 40
3.5
  9
$TRACEWID
 40
1.0
  9
$TEXTSTYLE
  7
Standard
  9
$CLAYER
  8
0
  9
$CELTYPE
  6
ByLayer
  9
$CECOLOR
 62
   256
  9
$CELTSCALE
 40
1.0
  9
$DISPSILH
 70
     0
  9
$DIMSCALE
 40
1.0
  9
$DIMASZ
 40
3.302
  9
$DIMEXO
 40
1.0
  9
$DIMDLI
 40
3.75
  9
$DIMRND
 40
0.0
  9
$DIMDLE
 40
0.0
  9
$DIMEXE
 40
1.0
  9
$DIMTP
 40
0.0
  9
$DIMTM
 40
0.0
  9
$DIMTXT
 40
3.5
  9
$DIMCEN
 40
2.5
  9
$DIMTSZ
 40
0.0
  9
$DIMTOL
 70
     0
  9
$DIMLIM
 70
     0
  9
$DIMTIH
 70
     1
  9
$DIMTOH
 70
     1
  9
$DIMSE1
 70
     0
  9
$DIMSE2
 70
     0
  9
$DIMTAD
 70
     1
  9
$DIMZIN
 70
     0
  9
$DIMBLK
  1

  9
$DIMASO
 70
     1
  9
$DIMSHO
 70
     1
  9
$DIMPOST
  1

  9
$DIMAPOST
  1

  9
$DIMALT
 70
     0
  9
$DIMALTD
 70
     3
  9
$DIMALTF
 40
0.0393700787
  9
$DIMLFAC
 40
1.0
  9
$DIMTOFL
 70
     1
  9
$DIMTVP
 40
0.0
  9
$DIMTIX
 70
     0
  9
$DIMSOXD
 70
     0
  9
$DIMSAH
 70
     0
  9
$DIMBLK1
  1

  9
$DIMBLK2
  1

  9
$DIMSTYLE
  2
ISO-25
  9
$DIMCLRD
 70
     0
  9
$DIMCLRE
 70
     0
  9
$DIMCLRT
 70
     0
  9
$DIMTFAC
 40
1.0
  9
$DIMGAP
 40
1.524
  9
$DIMJUST
 70
     0
  9
$DIMSD1
 70
     0
  9
$DIMSD2
 70
     0
  9
$DIMTOLJ
 70
     0
  9
$DIMTZIN
 70
     0
  9
$DIMALTZ
 70
     0
  9
$DIMALTTZ
 70
     0
  9
$DIMUPT
 70
     0
  9
$DIMDEC
 70
     2
  9
$DIMTDEC
 70
     2
  9
$DIMALTU
 70
     2
  9
$DIMALTTD
 70
     3
  9
$DIMTXSTY
  7
Standard
  9
$DIMAUNIT
 70
     0
  9
$DIMADEC
 70
     2
  9
$DIMALTRND
 40
0.0
  9
$DIMAZIN
 70
     0
  9
$DIMDSEP
 70
    44
  9
$DIMATFIT
 70
     3
  9
$DIMFRAC
 70
     0
  9
$DIMLDRBLK
  1

  9
$DIMLUNIT
 70
     2
  9
$DIMLWD
 70
    -2
  9
$DIMLWE
 70
    -2
  9
$DIMTMOVE
 70
     0
  9
$LUNITS
 70
     2
  9
$LUPREC
 70
     2
  9
$SKETCHINC
 40
1.0
  9
$FILLETRAD
 40
10.0
  9
$AUNITS
 70
     0
  9
$AUPREC
 70
     2
  9
$MENU
  1
.
  9
$ELEVATION
 40
0.0
  9
$PELEVATION
 40
0.0
  9
$THICKNESS
 40
0.0
  9
$LIMCHECK
 70
     0
  9
$CHAMFERA
 40
0.0
  9
$CHAMFERB
 40
0.0
  9
$CHAMFERC
 40
0.0
  9
$CHAMFERD
 40
0.0
  9
$SKPOLY
 70
     0
  9
$TDCREATE
 40
2457406.56576787
  9
$TDUCREATE
 40
2457406.524101204
  9
$TDUPDATE
 40
2457406.565770092
  9
$TDUUPDATE
 40
2457406.524103426
  9
$TDINDWG
 40
0.0000000116
  9
$TDUSRTIMER
 40
0.0000000116
  9
$USRTIMER
 70
     1
  9
$ANGBASE
 50
0.0
  9
$ANGDIR
 70
     0
  9
$PDMODE
 70
     0
  9
$PDSIZE
 40
-1.0
  9
$PLINEWID
 40
0.0
  9
$SPLFRAME
 70
     0
  9
$SPLINETYPE
 70
     6
  9
$SPLINESEGS
 70
     8
  9
$HANDSEED
  5
28B
  9
$SURFTAB1
 70
     6
  9
$SURFTAB2
 70
     6
  9
$SURFTYPE
 70
     6
  9
$SURFU
 70
     6
  9
$SURFV
 70
     6
  9
$UCSBASE
  2

  9
$UCSNAME
  2

  9
$UCSORG
 10
0.0
 20
0.0
 30
0.0
  9
$UCSXDIR
 10
1.0
 20
0.0
 30
0.0
  9
$UCSYDIR
 10
0.0
 20
1.0
 30
0.0
  9
$UCSORTHOREF
  2

  9
$UCSORTHOVIEW
 70
     0
  9
$UCSORGTOP
 10
0.0
 20
0.0
 30
0.0
  9
$UCSORGBOTTOM
 10
0.0
 20
0.0
 30
0.0
  9
$UCSORGLEFT
 10
0.0
 20
0.0
 30
0.0
  9
$UCSORGRIGHT
 10
0.0
 20
0.0
 30
0.0
  9
$UCSORGFRONT
 10
0.0
 20
0.0
 30
0.0
  9
$UCSORGBACK
 10
0.0
 20
0.0
 30
0.0
  9
$PUCSBASE
  2

  9
$PUCSNAME
  2

  9
$PUCSORG
 10
0.0
 20
0.0
 30
0.0
  9
$PUCSXDIR
 10
1.0
 20
0.0
 30
0.0
  9
$PUCSYDIR
 10
0.0
 20
1.0
 30
0.0
  9
$PUCSORTHOREF
  2

  9
$PUCSORTHOVIEW
 70
     0
  9
$PUCSORGTOP
 10
0.0
 20
0.0
 30
0.0
  9
$PUCSORGBOTTOM
 10
0.0
 20
0.0
 30
0.0
  9
$PUCSORGLEFT
 10
0.0
 20
0.0
 30
0.0
  9
$PUCSORGRIGHT
 10
0.0
 20
0.0
 30
0.0
  9
$PUCSORGFRONT
 10
0.0
 20
0.0
 30
0.0
  9
$PUCSORGBACK
 10
0.0
 20
0.0
 30
0.0
  9
$USERI1
 70
     0
  9
$USERI2
 70
     0
  9
$USERI3
 70
     0
  9
$USERI4
 70
     0
  9
$USERI5
 70
     0
  9
$USERR1
 40
0.0
  9
$USERR2
 40
0.0
  9
$USERR3
 40
0.0
  9
$USERR4
 40
0.0
  9
$USERR5
 40
0.0
  9
$WORLDVIEW
 70
     1
  9
$SHADEDGE
 70
     3
  9
$SHADEDIF
 70
    70
  9
$TILEMODE
 70
     1
  9
$MAXACTVP
 70
    64
  9
$PINSBASE
 10
0.0
 20
0.0
 30
0.0
  9
$PLIMCHECK
 70
     0
  9
$PEXTMIN
 10
1.0000000000E+20
 20
1.0000000000E+20
 30
1.0000000000E+20
  9
$PEXTMAX
 10
-1.0000000000E+20
 20
-1.0000000000E+20
 30
-1.0000000000E+20
  9
$PLIMMIN
 10
0.0
 20
0.0
  9
$PLIMMAX
 10
420.0
 20
297.0
  9
$UNITMODE
 70
     0
  9
$VISRETAIN
 70
     1
  9
$PLINEGEN
 70
     0
  9
$PSLTSCALE
 70
     1
  9
$TREEDEPTH
 70
  3020
  9
$CMLSTYLE
  2
Standard
  9
$CMLJUST
 70
     0
  9
$CMLSCALE
 40
20.0
  9
$PROXYGRAPHICS
 70
     1
  9
$MEASUREMENT
 70
     1
  9
$CELWEIGHT
370
    -1
  9
$ENDCAPS
280
     0
  9
$JOINSTYLE
280
     0
  9
$LWDISPLAY
290
     1
  9
$INSUNITS
 70
     4
  9
$HYPERLINKBASE
  1

  9
$STYLESHEET
  1

  9
$XEDIT
290
     1
  9
$CEPSNTYPE
380
     0
  9
$PSTYLEMODE
290
     1
  9
$FINGERPRINTGUID
  2
{6751D8C4-86B1-4385-B948-99E3AF38CD52}
  9
$VERSIONGUID
  2
{FAEB1C32-E019-11D5-929B-00C0DF256EC4}
  9
$EXTNAMES
290
     1
  9
$PSVPSCALE
 40
0.0
  9
$OLESTARTUP
290
     0
  0
ENDSEC
  0
SECTION
  2
CLASSES
  0
CLASS
  1
ACDBDICTIONARYWDFLT
  2
AcDbDictionaryWithDefault
  3
ObjectDBX Classes
 90
        0
280
     0
281
     0
  0
CLASS
  1
VISUALSTYLE
  2
AcDbVisualStyle
  3
ObjectDBX Classes
 90
     4095
280
     0
281
     0
  0
CLASS
  1
MATERIAL
  2
AcDbMaterial
  3
ObjectDBX Classes
 90
     1153
280
     0
281
     0
  0
CLASS
  1
SCALE
  2
AcDbScale
  3
ObjectDBX Classes
 90
     1153
280
     0
281
     0
  0
CLASS
  1
TABLESTYLE
  2
AcDbTableStyle
  3
ObjectDBX Classes
 90
     4095
280
     0
281
     0
  0
CLASS
  1
MLEADERSTYLE
  2
AcDbMLeaderStyle
  3
ACDB_MLEADERSTYLE_CLASS
 90
     4095
280
     0
281
     0
  0
CLASS
  1
SUN
  2
AcDbSun
  3
SCENEOE
 90
     1153
280
     0
281
     0
  0
CLASS
  1
ACDBPLACEHOLDER
  2
AcDbPlaceHolder
  3
ObjectDBX Classes
 90
        0
280
     0
281
     0
  0
CLASS
  1
LAYOUT
  2
AcDbLayout
  3
ObjectDBX Classes
 90
        0
280
     0
281
     0
  0
ENDSEC
  0
SECTION
  2
TABLES
  0
TABLE
  2
VPORT
  5
8
330
0
100
AcDbSymbolTable
 70
     1
  0
VPORT
  5
29
330
8
100
AcDbSymbolTableRecord
100
AcDbViewportTableRecord
  2
*Active
 70
     0
 10
0.0
 20
0.0
 11
1.0
 21
1.0
 12
210.0
 22
148.5
 13
0.0
 23
0.0
 14
10.0
 24
10.0
 15
10.0
 25
10.0
 16
0.0
 26
0.0
 36
1.0
 17
0.0
 27
0.0
 37
0.0
 40
297.0
 41
1.4141414141
 42
50.0
 43
0.0
 44
0.0
 50
0.0
 51
0.0
 71
     0
 72
  2000
 73
     1
 74
     3
 75
     0
 76
     0
 77
     0
 78
     0
281
     0
 65
     1
110
0.0
120
0.0
130
0.0
111
1.0
121
0.0
131
0.0
112
0.0
122
1.0
132
0.0
 79
     0
146
0.0
  0
ENDTAB
  0
TABLE
  2
LTYPE
  5
5
330
0
100
AcDbSymbolTable
 70
     6
  0
LTYPE
  5
14
330
5
100
AcDbSymbolTableRecord
100
AcDbLinetypeTableRecord
  2
ByBlock
 70
     0
  3

 72
    65
 73
     0
 40
0.0
  0
LTYPE
  5
15
330
5
100
AcDbSymbolTableRecord
100
AcDbLinetypeTableRecord
  2
ByLayer
 70
     0
  3

 72
    65
 73
     0
 40
0.0
  0
LTYPE
  5
16
330
5
100
AcDbSymbolTableRecord
100
AcDbLinetypeTableRecord
  2
Continuous
 70
     0
  3
Solid line
 72
    65
 73
     0
 40
0.0
  0
LTYPE
  5
6E
330
5
100
AcDbSymbolTableRecord
100
AcDbLinetypeTableRecord
  2
HIDDEN
 70
     0
  3
Hidden __ __ __ __ __ __ __ __ __ __ __ __ __ __
 72
    65
 73
     2
 40
1.905
 49
1.27
 74
     0
 49
-0.635
 74
     0
  0
LTYPE
  5
6F
330
5
100
AcDbSymbolTableRecord
100
AcDbLinetypeTableRecord
  2
PHANTOM
 70
     0
  3
Phantom ______  __  __  ______  __  __  ______
 72
    65
 73
     6
 40
12.7
 49
6.35
 74
     0
 49
-1.27
 74
     0
 49
1.27
 74
     0
 49
-1.27
 74
     0
 49
1.27
 74
     0
 49
-1.27
 74
     0
  0
LTYPE
  5
70
330
5
100
AcDbSymbolTableRecord
100
AcDbLinetypeTableRecord
  2
CENTER
 70
     0
  3
Center ____ _ ____ _ ____ _ ____ _ ____ _ ____
 72
    65
 73
     4
 40
10.16
 49
6.35
 74
     0
 49
-1.27
 74
     0
 49
1.27
 74
     0
 49
-1.27
 74
     0
  0
LTYPE
  5
71
330
5
100
AcDbSymbolTableRecord
100
AcDbLinetypeTableRecord
  2
CENTERX2
 70
     0
  3
Center (2x) ________  __  ________  __  _____
 72
    65
 73
     4
 40
20.32
 49
12.7
 74
     0
 49
-2.54
 74
     0
 49
2.54
 74
     0
 49
-2.54
 74
     0
  0
LTYPE
  5
72
330
5
100
AcDbSymbolTableRecord
100
AcDbLinetypeTableRecord
  2
DOT2
 70
     0
  3
Dot (.5x) ........................................
 72
    65
 73
     2
 40
0.635
 49
0.0
 74
     0
 49
-0.635
 74
     0
  0
ENDTAB
  0
TABLE
  2
LAYER
  5
2
330
0
100
AcDbSymbolTable
 70
     2
  0
LAYER
  5
10
330
2
100
AcDbSymbolTableRecord
100
AcDbLayerTableRecord
  2
0
 70
     0
 62
     7
  6
Continuous
370
    -3
390
F
  0
LAYER
  5
73
330
2
100
AcDbSymbolTableRecord
100
AcDbLayerTableRecord
  2
FORMAT
 70
     0
 62
     7
  6
Continuous
370
    -3
390
F
  0
ENDTAB
  0
TABLE
  2
STYLE
  5
3
330
0
100
AcDbSymbolTable
 70
     4
  0
STYLE
  5
11
330
3
100
AcDbSymbolTableRecord
100
AcDbTextStyleTableRecord
  2
Standard
 70
     0
 40
0.0
 41
1.0
 50
0.0
 71
     0
 42
3.5
  3
txt
  4

  0
STYLE
  5
AF
330
3
100
AcDbSymbolTableRecord
100
AcDbTextStyleTableRecord
  2
SLDTEXTSTYLE0
 70
     0
 40
0.0
 41
0.75
 50
0.0
 71
     0
 42
3.5
  3
TXT
  4

  0
STYLE
  5
CC
330
3
100
AcDbSymbolTableRecord
100
AcDbTextStyleTableRecord
  2
SLDTEXTSTYLE1
 70
     0
 40
0.0
 41
0.6864493306
 50
0.0
 71
     0
 42
3.5
  3
TXT
  4

  0
STYLE
  5
ED
330
3
100
AcDbSymbolTableRecord
100
AcDbTextStyleTableRecord
  2
SLDTEXTSTYLE2
 70
     0
 40
0.0
 41
0.6875
 50
0.0
 71
     0
 42
3.5
  3
TXT
  4

  0
ENDTAB
  0
TABLE
  2
VIEW
  5
6
330
0
100
AcDbSymbolTable
 70
     0
  0
ENDTAB
  0
TABLE
  2
UCS
  5
7
330
0
100
AcDbSymbolTable
 70
     0
  0
ENDTAB
  0
TABLE
  2
APPID
  5
9
330
0
100
AcDbSymbolTable
 70
     1
  0
APPID
  5
12
330
9
100
AcDbSymbolTableRecord
100
AcDbRegAppTableRecord
  2
ACAD
 70
     0
  0
ENDTAB
  0
TABLE
  2
DIMSTYLE
  5
A
330
0
100
AcDbSymbolTable
 70
     4
100
AcDbDimStyleTable
  0
DIMSTYLE
105
27
330
A
100
AcDbSymbolTableRecord
100
AcDbDimStyleTableRecord
  2
ISO-25
 70
     0
 41
2.5
 42
0.625
 43
3.75
 44
1.25
 73
     0
 74
     0
 77
     1
 78
     8
140
2.5
141
2.5
143
0.0393700787
147
0.625
171
     3
172
     1
178
     0
271
     2
272
     2
274
     3
278
    44
283
     0
284
     8
340
11
  0
DIMSTYLE
105
12A
102
{ACAD_REACTORS
330
129
330
134
330
13E
330
200
102
}
330
A
100
AcDbSymbolTableRecord
100
AcDbDimStyleTableRecord
  2
SLDDIMSTYLE0
 70
     0
 41
3.302
 44
0.0
 45
0.000000001
 73
     0
 74
     0
 77
     1
 78
    12
 79
     3
140
3.5
147
0.875
173
     1
178
     0
271
     2
272
     2
276
     2
284
    12
340
AF
  0
DIMSTYLE
105
149
102
{ACAD_REACTORS
330
148
330
1DD
330
1E9
330
1F5
102
}
330
A
100
AcDbSymbolTableRecord
100
AcDbDimStyleTableRecord
  2
SLDDIMSTYLE1
 70
     0
 41
3.302
 44
0.0
 45
0.000000001
 73
     0
 74
     0
 77
     1
 78
    12
 79
     3
140
3.5
147
0.875
172
     1
173
     1
178
     0
271
     2
272
     2
276
     2
284
    12
289
     0
340
AF
  0
DIMSTYLE
105
157
102
{ACAD_REACTORS
330
156
330
163
102
}
330
A
100
AcDbSymbolTableRecord
100
AcDbDimStyleTableRecord
  2
SLDDIMSTYLE2
 70
     0
 41
3.302
 44
0.0
 45
0.000000001
 73
     0
 74
     0
 77
     1
 78
    12
 79
     3
140
3.5
141
0.0
147
0.875
172
     1
173
     1
178
     0
271
     2
272
     2
276
     2
284
    12
340
AF
341
158
343
158
  0
ENDTAB
  0
TABLE
  2
BLOCK_RECORD
  5
1
330
0
100
AcDbSymbolTable
 70
    14
  0
BLOCK_RECORD
  5
1F
330
1
100
AcDbSymbolTableRecord
100
AcDbBlockTableRecord
  2
*Model_Space
340
22
  0
BLOCK_RECORD
  5
1B
330
1
100
AcDbSymbolTableRecord
100
AcDbBlockTableRecord
  2
*Paper_Space
340
1E
  0
BLOCK_RECORD
  5
23
330
1
100
AcDbSymbolTableRecord
100
AcDbBlockTableRecord
  2
*Paper_Space0
340
26
  0
BLOCK_RECORD
  5
D2
330
1
100
AcDbSymbolTableRecord
100
AcDbBlockTableRecord
  2
SW_NOTE_0
340
0
102
{BLKREFS
331
DB
102
}
  0
BLOCK_RECORD
  5
DD
330
1
100
AcDbSymbolTableRecord
100
AcDbBlockTableRecord
  2
SW_NOTE_1
340
0
102
{BLKREFS
331
E3
102
}
  0
BLOCK_RECORD
  5
12B
330
1
100
AcDbSymbolTableRecord
100
AcDbBlockTableRecord
  2
_D
340
0
  0
BLOCK_RECORD
  5
135
330
1
100
AcDbSymbolTableRecord
100
AcDbBlockTableRecord
  2
_D_1
340
0
  0
BLOCK_RECORD
  5
13F
330
1
100
AcDbSymbolTableRecord
100
AcDbBlockTableRecord
  2
_D_2
340
0
  0
BLOCK_RECORD
  5
14A
330
1
100
AcDbSymbolTableRecord
100
AcDbBlockTableRecord
  2
_D_3
340
0
  0
BLOCK_RECORD
  5
158
330
1
100
AcDbSymbolTableRecord
100
AcDbBlockTableRecord
  2
_NONE
340
0
  0
BLOCK_RECORD
  5
15B
330
1
100
AcDbSymbolTableRecord
100
AcDbBlockTableRecord
  2
_D_4
340
0
  0
BLOCK_RECORD
  5
164
330
1
100
AcDbSymbolTableRecord
100
AcDbBlockTableRecord
  2
_D_5
340
0
  0
BLOCK_RECORD
  5
1DE
330
1
100
AcDbSymbolTableRecord
100
AcDbBlockTableRecord
  2
_D_6
340
0
  0
BLOCK_RECORD
  5
1EA
330
1
100
AcDbSymbolTableRecord
100
AcDbBlockTableRecord
  2
_D_7
340
0
  0
BLOCK_RECORD
  5
1F6
330
1
100
AcDbSymbolTableRecord
100
AcDbBlockTableRecord
  2
_D_8
340
0
  0
BLOCK_RECORD
  5
201
330
1
100
AcDbSymbolTableRecord
100
AcDbBlockTableRecord
  2
_D_9
340
0
  0
ENDTAB
  0
ENDSEC
  0
SECTION
  2
BLOCKS
  0
BLOCK
  5
20
330
1F
100
AcDbEntity
  8
0
100
AcDbBlockBegin
  2
*Model_Space
 70
     0
 10
0.0
 20
0.0
 30
0.0
  3
*Model_Space
  1

  0
ENDBLK
  5
21
330
1F
100
AcDbEntity
  8
0
100
AcDbBlockEnd
  0
BLOCK
  5
1C
330
1B
100
AcDbEntity
 67
     1
  8
0
100
AcDbBlockBegin
  2
*Paper_Space
 70
     0
 10
0.0
 20
0.0
 30
0.0
  3
*Paper_Space
  1

  0
ENDBLK
  5
1D
330
1B
100
AcDbEntity
 67
     1
  8
0
100
AcDbBlockEnd
  0
BLOCK
  5
24
330
23
100
AcDbEntity
  8
0
100
AcDbBlockBegin
  2
*Paper_Space0
 70
     0
 10
0.0
 20
0.0
 30
0.0
  3
*Paper_Space0
  1

  0
ENDBLK
  5
25
330
23
100
AcDbEntity
  8
0
100
AcDbBlockEnd
  0
BLOCK
  5
D3
330
D2
100
AcDbEntity
  8
0
100
AcDbBlockBegin
  2
SW_NOTE_0
 70
     0
 10
0.0
 20
0.0
 30
0.0
  3
SW_NOTE_0
  1

  0
MTEXT
  5
D5
330
D2
100
AcDbEntity
  8
0
  6
Continuous
 62
     0
370
     0
100
AcDbMText
 10
0.0
 20
1.9336016097
 30
0.0
 40
1.5
 41
0.0
 71
     1
 72
     1
  1
UNLESS OTHERWISE SPECIFIED:
  7
SLDTEXTSTYLE0
 73
     1
 44
1.0
  0
MTEXT
  5
D6
330
D2
100
AcDbEntity
  8
0
  6
Continuous
 62
     0
370
     0
100
AcDbMText
 10
0.0
 20
-0.5663983345
 30
0.0
 40
1.5
 41
0.0
 71
     1
 72
     1
  1
DIMENSIONS ARE IN MILLIMETERS
  7
SLDTEXTSTYLE0
 73
     1
 44
1.0
  0
MTEXT
  5
D7
330
D2
100
AcDbEntity
  8
0
  6
Continuous
 62
     0
370
     0
100
AcDbMText
 10
0.0
 20
-3.0663982786
 30
0.0
 40
1.5
 41
0.0
 71
     1
 72
     1
  1
SURFACE FINISH:
  7
SLDTEXTSTYLE0
 73
     1
 44
1.0
  0
MTEXT
  5
D8
330
D2
100
AcDbEntity
  8
0
  6
Continuous
 62
     0
370
     0
100
AcDbMText
 10
0.0
 20
-5.5663982227
 30
0.0
 40
1.5
 41
0.0
 71
     1
 72
     1
  1
TOLERANCES:
  7
SLDTEXTSTYLE0
 73
     1
 44
1.0
  0
MTEXT
  5
D9
330
D2
100
AcDbEntity
  8
0
  6
Continuous
 62
     0
370
     0
100
AcDbMText
 10
1.6875
 20
-8.0663981668
 30
0.0
 40
1.5
 41
0.0
 71
     1
 72
     1
  1
LINEAR:
  7
SLDTEXTSTYLE0
 73
     1
 44
1.0
  0
MTEXT
  5
DA
330
D2
100
AcDbEntity
  8
0
  6
Continuous
 62
     0
370
     0
100
AcDbMText
 10
1.6875
 20
-10.5663981109
 30
0.0
 40
1.5
 41
0.0
 71
     1
 72
     1
  1
ANGULAR:
  7
SLDTEXTSTYLE0
 73
     1
 44
1.0
  0
ENDBLK
  5
D4
330
D2
100
AcDbEntity
  8
0
100
AcDbBlockEnd
  0
BLOCK
  5
DE
330
DD
100
AcDbEntity
  8
0
100
AcDbBlockBegin
  2
SW_NOTE_1
 70
     0
 10
0.0
 20
0.0
 30
0.0
  3
SW_NOTE_1
  1

  0
MTEXT
  5
E0
330
DD
100
AcDbEntity
  8
0
  6
Continuous
 62
     0
370
     0
100
AcDbMText
 10
0.0
 20
1.9336016097
 30
0.0
 40
1.5
 41
0.0
 71
     1
 72
     1
  1
DEBURR AND
  7
SLDTEXTSTYLE0
 73
     1
 44
1.0
  0
MTEXT
  5
E1
330
DD
100
AcDbEntity
  8
0
  6
Continuous
 62
     0
370
     0
100
AcDbMText
 10
0.0
 20
-0.5663983345
 30
0.0
 40
1.5
 41
0.0
 71
     1
 72
     1
  1
BREAK SHARP
  7
SLDTEXTSTYLE0
 73
     1
 44
1.0
  0
MTEXT
  5
E2
330
DD
100
AcDbEntity
  8
0
  6
Continuous
 62
     0
370
     0
100
AcDbMText
 10
0.0
 20
-3.0663982786
 30
0.0
 40
1.5
 41
0.0
 71
     1
 72
     1
  1
EDGES
  7
SLDTEXTSTYLE0
 73
     1
 44
1.0
  0
ENDBLK
  5
DF
330
DD
100
AcDbEntity
  8
0
100
AcDbBlockEnd
  0
BLOCK
  5
12C
330
12B
100
AcDbEntity
  8
0
100
AcDbBlockBegin
  2
_D
 70
     0
 10
0.0
 20
0.0
 30
0.0
  3
_D
  1

  0
SOLID
  5
12E
330
12B
100
AcDbEntity
  8
0
  6
Continuous
 62
     7
370
     0
100
AcDbTrace
 10
97.3147450581
 20
216.8323004437
 30
0.0
 11
100.6167450581
 21
216.3243004437
 31
0.0
 12
100.6167450581
 22
217.3403004437
 32
0.0
 13
100.6167450581
 23
217.3403004437
 33
0.0
  0
SOLID
  5
12F
330
12B
100
AcDbEntity
  8
0
  6
Continuous
 62
     7
370
     0
100
AcDbTrace
 10
209.3147450581
 20
216.8323004437
 30
0.0
 11
206.0127450581
 21
217.3403004437
 31
0.0
 12
206.0127450581
 22
216.3243004437
 32
0.0
 13
206.0127450581
 23
216.3243004437
 33
0.0
  0
LINE
  5
130
330
12B
100
AcDbEntity
  8
0
  6
Continuous
 62
     7
370
     0
100
AcDbLine
 10
97.3147450581
 20
189.8323004437
 30
0.0
 11
97.3147450581
 21
217.8323004437
 31
0.0
  0
LINE
  5
131
330
12B
100
AcDbEntity
  8
0
  6
Continuous
 62
     7
370
     0
100
AcDbLine
 10
209.3147450581
 20
189.8323004437
 30
0.0
 11
209.3147450581
 21
217.8323004437
 31
0.0
  0
LINE
  5
132
330
12B
100
AcDbEntity
  8
0
  6
Continuous
 62
     7
370
     0
100
AcDbLine
 10
97.3147450581
 20
216.8323004437
 30
0.0
 11
209.3147450581
 21
216.8323004437
 31
0.0
  0
MTEXT
  5
133
330
12B
100
AcDbEntity
  8
0
  6
Continuous
 62
     7
370
     0
100
AcDbMText
 10
150.5768861038
 20
221.3440373583
 30
0.0
 40
3.5
 41
0.0
 71
     1
 72
     1
  1
112
  7
SLDTEXTSTYLE0
 73
     1
 44
1.0
  0
ENDBLK
  5
12D
330
12B
100
AcDbEntity
  8
0
100
AcDbBlockEnd
  0
BLOCK
  5
136
330
135
100
AcDbEntity
  8
0
100
AcDbBlockBegin
  2
_D_1
 70
     0
 10
0.0
 20
0.0
 30
0.0
  3
_D_1
  1

  0
SOLID
  5
138
330
135
100
AcDbEntity
  8
0
  6
Continuous
 62
     7
370
     0
100
AcDbTrace
 10
75.3147450581
 20
206.8323004437
 30
0.0
 11
74.8067450581
 21
203.5303004437
 31
0.0
 12
75.8227450581
 22
203.5303004437
 32
0.0
 13
75.8227450581
 23
203.5303004437
 33
0.0
  0
SOLID
  5
139
330
135
100
AcDbEntity
  8
0
  6
Continuous
 62
     7
370
     0
100
AcDbTrace
 10
75.3147450581
 20
106.8323004437
 30
0.0
 11
75.8227450581
 21
110.1343004437
 31
0.0
 12
74.8067450581
 22
110.1343004437
 32
0.0
 13
74.8067450581
 23
110.1343004437
 33
0.0
  0
LINE
  5
13A
330
135
100
AcDbEntity
  8
0
  6
Continuous
 62
     7
370
     0
100
AcDbLine
 10
144.5296788295
 20
206.8323004437
 30
0.0
 11
74.3147450581
 21
206.8323004437
 31
0.0
  0
LINE
  5
13B
330
135
100
AcDbEntity
  8
0
  6
Continuous
 62
     7
370
     0
100
AcDbLine
 10
144.5296788295
 20
106.8323004437
 30
0.0
 11
74.3147450581
 21
106.8323004437
 31
0.0
  0
LINE
  5
13C
330
135
100
AcDbEntity
  8
0
  6
Continuous
 62
     7
370
     0
100
AcDbLine
 10
75.3147450581
 20
206.8323004437
 30
0.0
 11
75.3147450581
 21
106.8323004437
 31
0.0
  0
MTEXT
  5
13D
330
135
100
AcDbEntity
  8
0
  6
Continuous
 62
     7
370
     0
100
AcDbMText
 10
70.8030081436
 20
152.9194157513
 30
0.0
 40
3.5
 41
0.0
 71
     1
 72
     1
  1
100
  7
SLDTEXTSTYLE0
 11
-5.267838178243384E-15
 21
1.0
 31
0.0
 73
     1
 44
1.0
  0
ENDBLK
  5
137
330
135
100
AcDbEntity
  8
0
100
AcDbBlockEnd
  0
BLOCK
  5
140
330
13F
100
AcDbEntity
  8
0
100
AcDbBlockBegin
  2
_D_2
 70
     0
 10
0.0
 20
0.0
 30
0.0
  3
_D_2
  1

  0
SOLID
  5
142
330
13F
100
AcDbEntity
  8
0
  6
Continuous
 62
     7
370
     0
100
AcDbTrace
 10
83.8381824438
 20
191.8323004437
 30
0.0
 11
83.3301824438
 21
188.5303004437
 31
0.0
 12
84.3461824438
 22
188.5303004437
 32
0.0
 13
84.3461824438
 23
188.5303004437
 33
0.0
  0
SOLID
  5
143
330
13F
100
AcDbEntity
  8
0
  6
Continuous
 62
     7
370
     0
100
AcDbTrace
 10
83.8381824438
 20
121.8323004437
 30
0.0
 11
84.3461824438
 21
125.1343004437
 31
0.0
 12
83.3301824438
 22
125.1343004437
 32
0.0
 13
83.3301824438
 23
125.1343004437
 33
0.0
  0
LINE
  5
144
330
13F
100
AcDbEntity
  8
0
  6
Continuous
 62
     7
370
     0
100
AcDbLine
 10
99.3147450581
 20
191.8323004437
 30
0.0
 11
82.8381824438
 21
191.8323004437
 31
0.0
  0
LINE
  5
145
330
13F
100
AcDbEntity
  8
0
  6
Continuous
 62
     7
370
     0
100
AcDbLine
 10
99.3147450581
 20
121.8323004437
 30
0.0
 11
82.8381824438
 21
121.8323004437
 31
0.0
  0
LINE
  5
146
330
13F
100
AcDbEntity
  8
0
  6
Continuous
 62
     7
370
     0
100
AcDbLine
 10
83.8381824438
 20
191.8323004437
 30
0.0
 11
83.8381824438
 21
121.8323004437
 31
0.0
  0
MTEXT
  5
147
330
13F
100
AcDbEntity
  8
0
  6
Continuous
 62
     7
370
     0
100
AcDbMText
 10
79.3264455293
 20
154.2124712316
 30
0.0
 40
3.5
 41
0.0
 71
     1
 72
     1
  1
70
  7
SLDTEXTSTYLE0
 11
-7.044195017643634E-15
 21
1.0
 31
0.0
 73
     1
 44
1.0
  0
ENDBLK
  5
141
330
13F
100
AcDbEntity
  8
0
100
AcDbBlockEnd
  0
BLOCK
  5
14B
330
14A
100
AcDbEntity
  8
0
100
AcDbBlockBegin
  2
_D_3
 70
     0
 10
0.0
 20
0.0
 30
0.0
  3
_D_3
  1

  0
SOLID
  5
14D
330
14A
100
AcDbEntity
  8
0
  6
Continuous
 62
     7
370
     0
100
AcDbTrace
 10
147.4650029068
 20
210.2790084297
 30
0.0
 11
144.1630029068
 21
210.7870084297
 31
0.0
 12
144.1630029068
 22
209.7710084297
 32
0.0
 13
144.1630029068
 23
209.7710084297
 33
0.0
  0
SOLID
  5
14E
330
14A
100
AcDbEntity
  8
0
  6
Continuous
 62
     7
370
     0
100
AcDbTrace
 10
159.1644872095
 20
210.2790084297
 30
0.0
 11
162.4664872095
 21
209.7710084297
 31
0.0
 12
162.4664872095
 22
210.7870084297
 32
0.0
 13
162.4664872095
 23
210.7870084297
 33
0.0
  0
LINE
  5
14F
330
14A
100
AcDbEntity
  8
0
  6
Continuous
 62
     7
370
     0
100
AcDbLine
 10
147.4650029068
 20
199.8323004437
 30
0.0
 11
147.4650029068
 21
211.2790084297
 31
0.0
  0
LINE
  5
150
330
14A
100
AcDbEntity
  8
0
  6
Continuous
 62
     7
370
     0
100
AcDbLine
 10
159.1644872095
 20
199.8323004437
 30
0.0
 11
159.1644872095
 21
211.2790084297
 31
0.0
  0
LINE
  5
151
330
14A
100
AcDbEntity
  8
0
  6
Continuous
 62
     7
370
     0
100
AcDbLine
 10
147.4650029068
 20
210.2790084297
 30
0.0
 11
141.1150029068
 21
210.2790084297
 31
0.0
  0
LINE
  5
152
330
14A
100
AcDbEntity
  8
0
  6
Continuous
 62
     7
370
     0
100
AcDbLine
 10
147.4650029068
 20
210.2790084297
 30
0.0
 11
159.1644872095
 21
210.2790084297
 31
0.0
  0
LINE
  5
153
330
14A
100
AcDbEntity
  8
0
  6
Continuous
 62
     7
370
     0
100
AcDbLine
 10
159.1644872095
 20
210.2790084297
 30
0.0
 11
165.5144872095
 21
210.2790084297
 31
0.0
  0
MTEXT
  5
154
330
14A
100
AcDbEntity
  8
0
  6
Continuous
 62
     7
370
     0
100
AcDbMText
 10
143.7572041849
 20
214.7907455189
 30
0.0
 40
3.5
 41
0.0
 71
     1
 72
     1
  1
%%c
  7
SLDTEXTSTYLE0
 73
     1
 44
1.0
  0
MTEXT
  5
155
330
14A
100
AcDbEntity
  8
0
  6
Continuous
 62
     7
370
     0
100
AcDbMText
 10
149.0356415833
 20
214.8442176956
 30
0.0
 40
3.5
 41
0.0
 71
     1
 72
     1
  1
11,70
  7
SLDTEXTSTYLE0
 73
     1
 44
1.0
  0
ENDBLK
  5
14C
330
14A
100
AcDbEntity
  8
0
100
AcDbBlockEnd
  0
BLOCK
  5
159
330
158
100
AcDbEntity
  8
0
100
AcDbBlockBegin
  2
_NONE
 70
     0
 10
0.0
 20
0.0
 30
0.0
  3
_NONE
  1

  0
ENDBLK
  5
15A
330
158
100
AcDbEntity
  8
0
100
AcDbBlockEnd
  0
BLOCK
  5
15C
330
15B
100
AcDbEntity
  8
0
100
AcDbBlockBegin
  2
_D_4
 70
     0
 10
0.0
 20
0.0
 30
0.0
  3
_D_4
  1

  0
SOLID
  5
15E
330
15B
100
AcDbEntity
  8
0
  6
Continuous
 62
     7
370
     0
100
AcDbTrace
 10
155.9814554601
 20
199.8371317537
 30
0.0
 11
159.2504993096
 21
200.52605868
 31
0.0
 12
158.8922533502
 22
201.4768035631
 32
0.0
 13
158.8922533502
 23
201.4768035631
 33
0.0
  0
LINE
  5
15F
330
15B
100
AcDbEntity
  8
0
  6
Continuous
 62
     7
370
     0
100
AcDbLine
 10
155.9814554601
 20
199.8371317537
 30
0.0
 11
182.1315304976
 21
209.6906254575
 31
0.0
  0
LINE
  5
160
330
15B
100
AcDbEntity
  8
0
  6
Continuous
 62
     7
370
     0
100
AcDbLine
 10
155.9814554601
 20
199.8371317537
 30
0.0
 11
150.6480346562
 21
197.8274691338
 31
0.0
  0
MTEXT
  5
161
330
15B
100
AcDbEntity
  8
0
  6
Continuous
 62
     7
370
     0
100
AcDbMText
 10
167.1380150664
 20
208.8417769329
 30
0.0
 40
3.5
 41
0.0
 71
     1
 72
     1
  1
%%c
  7
SLDTEXTSTYLE0
 11
0.9357725226683112
 21
0.3526042906984895
 31
0.0
 73
     1
 44
1.0
  0
MTEXT
  5
162
330
15B
100
AcDbEntity
  8
0
  6
Continuous
 62
     7
370
     0
100
AcDbMText
 10
172.0585772275
 20
210.7530144014
 30
0.0
 40
3.5
 41
0.0
 71
     1
 72
     1
  1
5,70
  7
SLDTEXTSTYLE0
 11
0.9357725226683112
 21
0.3526042906984895
 31
0.0
 73
     1
 44
1.0
  0
ENDBLK
  5
15D
330
15B
100
AcDbEntity
  8
0
100
AcDbBlockEnd
  0
BLOCK
  5
165
330
164
100
AcDbEntity
  8
0
100
AcDbBlockBegin
  2
_D_5
 70
     0
 10
0.0
 20
0.0
 30
0.0
  3
_D_5
  1

  0
SOLID
  5
167
330
164
100
AcDbEntity
  8
0
  6
Continuous
 62
     7
370
     0
100
AcDbTrace
 10
103.5517721192
 20
169.7798986851
 30
0.0
 11
106.7146508944
 21
170.8557545553
 31
0.0
 12
106.2450119611
 22
171.756695881
 32
0.0
 13
106.2450119611
 23
171.756695881
 33
0.0
  0
LINE
  5
168
330
164
100
AcDbEntity
  8
0
  6
Continuous
 62
     7
370
     0
100
AcDbLine
 10
103.5517721192
 20
169.7798986851
 30
0.0
 11
120.3330993629
 21
178.5275988967
 31
0.0
  0
LINE
  5
169
330
164
100
AcDbEntity
  8
0
  6
Continuous
 62
     7
370
     0
100
AcDbLine
 10
103.5517721192
 20
169.7798986851
 30
0.0
 11
99.9160836985
 21
167.8847022024
 31
0.0
  0
MTEXT
  5
16A
330
164
100
AcDbEntity
  8
0
  6
Continuous
 62
     7
370
     0
100
AcDbMText
 10
105.56554058
 20
175.8566094349
 30
0.0
 40
3.5
 41
0.0
 71
     1
 72
     1
  1
%%c
  7
SLDTEXTSTYLE0
 11
0.8867532733308431
 21
0.46224304455236
 31
0.0
 73
     1
 44
1.0
  0
MTEXT
  5
16B
330
164
100
AcDbEntity
  8
0
  6
Continuous
 62
     7
370
     0
100
AcDbMText
 10
110.2214950793
 20
178.3439470361
 30
0.0
 40
3.5
 41
0.0
 71
     1
 72
     1
  1
4,10
  7
SLDTEXTSTYLE0
 11
0.8867532733308431
 21
0.46224304455236
 31
0.0
 73
     1
 44
1.0
  0
ENDBLK
  5
166
330
164
100
AcDbEntity
  8
0
100
AcDbBlockEnd
  0
BLOCK
  5
1DF
330
1DE
100
AcDbEntity
  8
0
100
AcDbBlockBegin
  2
_D_6
 70
     0
 10
0.0
 20
0.0
 30
0.0
  3
_D_6
  1

  0
SOLID
  5
1E1
330
1DE
100
AcDbEntity
  8
0
  6
Continuous
 62
     7
370
     0
100
AcDbTrace
 10
92.2168080848
 20
245.7054218107
 30
0.0
 11
92.7248080848
 21
249.0074218107
 31
0.0
 12
91.7088080848
 22
249.0074218107
 32
0.0
 13
91.7088080848
 23
249.0074218107
 33
0.0
  0
SOLID
  5
1E2
330
1DE
100
AcDbEntity
  8
0
  6
Continuous
 62
     7
370
     0
100
AcDbTrace
 10
92.2168080848
 20
240.7054218107
 30
0.0
 11
91.7088080848
 21
237.4034218107
 31
0.0
 12
92.7248080848
 22
237.4034218107
 32
0.0
 13
92.7248080848
 23
237.4034218107
 33
0.0
  0
LINE
  5
1E3
330
1DE
100
AcDbEntity
  8
0
  6
Continuous
 62
     7
370
     0
100
AcDbLine
 10
96.3147450581
 20
245.7054218107
 30
0.0
 11
91.2168080848
 21
245.7054218107
 31
0.0
  0
LINE
  5
1E4
330
1DE
100
AcDbEntity
  8
0
  6
Continuous
 62
     7
370
     0
100
AcDbLine
 10
96.3147450581
 20
240.7054218107
 30
0.0
 11
91.2168080848
 21
240.7054218107
 31
0.0
  0
LINE
  5
1E5
330
1DE
100
AcDbEntity
  8
0
  6
Continuous
 62
     7
370
     0
100
AcDbLine
 10
92.2168080848
 20
245.7054218107
 30
0.0
 11
92.2168080848
 21
252.0554218107
 31
0.0
  0
LINE
  5
1E6
330
1DE
100
AcDbEntity
  8
0
  6
Continuous
 62
     7
370
     0
100
AcDbLine
 10
92.2168080848
 20
245.7054218107
 30
0.0
 11
92.2168080848
 21
240.7054218107
 31
0.0
  0
LINE
  5
1E7
330
1DE
100
AcDbEntity
  8
0
  6
Continuous
 62
     7
370
     0
100
AcDbLine
 10
92.2168080848
 20
240.7054218107
 30
0.0
 11
92.2168080848
 21
234.3554218107
 31
0.0
  0
MTEXT
  5
1E8
330
1DE
100
AcDbEntity
  8
0
  6
Continuous
 62
     7
370
     0
100
AcDbMText
 10
87.7050711702
 20
241.8915166362
 30
0.0
 40
3.5
 41
0.0
 71
     1
 72
     1
  1
5
  7
SLDTEXTSTYLE0
 11
-7.044195017643634E-15
 21
1.0
 31
0.0
 73
     1
 44
1.0
  0
ENDBLK
  5
1E0
330
1DE
100
AcDbEntity
  8
0
100
AcDbBlockEnd
  0
BLOCK
  5
1EB
330
1EA
100
AcDbEntity
  8
0
100
AcDbBlockBegin
  2
_D_7
 70
     0
 10
0.0
 20
0.0
 30
0.0
  3
_D_7
  1

  0
SOLID
  5
1ED
330
1EA
100
AcDbEntity
  8
0
  6
Continuous
 62
     7
370
     0
100
AcDbTrace
 10
214.678772091
 20
245.7054218107
 30
0.0
 11
215.186772091
 21
249.0074218107
 31
0.0
 12
214.170772091
 22
249.0074218107
 32
0.0
 13
214.170772091
 23
249.0074218107
 33
0.0
  0
SOLID
  5
1EE
330
1EA
100
AcDbEntity
  8
0
  6
Continuous
 62
     7
370
     0
100
AcDbTrace
 10
214.678772091
 20
243.7054218107
 30
0.0
 11
214.170772091
 21
240.4034218107
 31
0.0
 12
215.186772091
 22
240.4034218107
 32
0.0
 13
215.186772091
 23
240.4034218107
 33
0.0
  0
LINE
  5
1EF
330
1EA
100
AcDbEntity
  8
0
  6
Continuous
 62
     7
370
     0
100
AcDbLine
 10
210.3147450581
 20
245.7054218107
 30
0.0
 11
215.678772091
 21
245.7054218107
 31
0.0
  0
LINE
  5
1F0
330
1EA
100
AcDbEntity
  8
0
  6
Continuous
 62
     7
370
     0
100
AcDbLine
 10
210.3147450581
 20
243.7054218107
 30
0.0
 11
215.678772091
 21
243.7054218107
 31
0.0
  0
LINE
  5
1F1
330
1EA
100
AcDbEntity
  8
0
  6
Continuous
 62
     7
370
     0
100
AcDbLine
 10
214.678772091
 20
245.7054218107
 30
0.0
 11
214.678772091
 21
254.1621198812
 31
0.0
  0
LINE
  5
1F2
330
1EA
100
AcDbEntity
  8
0
  6
Continuous
 62
     7
370
     0
100
AcDbLine
 10
214.678772091
 20
245.7054218107
 30
0.0
 11
214.678772091
 21
243.7054218107
 31
0.0
  0
LINE
  5
1F3
330
1EA
100
AcDbEntity
  8
0
  6
Continuous
 62
     7
370
     0
100
AcDbLine
 10
214.678772091
 20
243.7054218107
 30
0.0
 11
214.678772091
 21
237.3554218107
 31
0.0
  0
MTEXT
  5
1F4
330
1EA
100
AcDbEntity
  8
0
  6
Continuous
 62
     7
370
     0
100
AcDbMText
 10
210.1670351764
 20
251.5760086877
 30
0.0
 40
3.5
 41
0.0
 71
     1
 72
     1
  1
2
  7
SLDTEXTSTYLE0
 11
-7.044195017643634E-15
 21
1.0
 31
0.0
 73
     1
 44
1.0
  0
ENDBLK
  5
1EC
330
1EA
100
AcDbEntity
  8
0
100
AcDbBlockEnd
  0
BLOCK
  5
1F7
330
1F6
100
AcDbEntity
  8
0
100
AcDbBlockBegin
  2
_D_8
 70
     0
 10
0.0
 20
0.0
 30
0.0
  3
_D_8
  1

  0
SOLID
  5
1F9
330
1F6
100
AcDbEntity
  8
0
  6
Continuous
 62
     7
370
     0
100
AcDbTrace
 10
193.0005414162
 20
242.9054218107
 30
0.0
 11
193.5085414162
 21
246.2074218107
 31
0.0
 12
192.4925414162
 22
246.2074218107
 32
0.0
 13
192.4925414162
 23
246.2074218107
 33
0.0
  0
SOLID
  5
1FA
330
1F6
100
AcDbEntity
  8
0
  6
Continuous
 62
     7
370
     0
100
AcDbTrace
 10
193.0005414162
 20
240.7054218107
 30
0.0
 11
192.4925414162
 21
237.4034218107
 31
0.0
 12
193.5085414162
 22
237.4034218107
 32
0.0
 13
193.5085414162
 23
237.4034218107
 33
0.0
  0
LINE
  5
1FB
330
1F6
100
AcDbEntity
  8
0
  6
Continuous
 62
     7
370
     0
100
AcDbLine
 10
182.3147450581
 20
242.9054218107
 30
0.0
 11
194.0005414162
 21
242.9054218107
 31
0.0
  0
LINE
  5
1FC
330
1F6
100
AcDbEntity
  8
0
  6
Continuous
 62
     7
370
     0
100
AcDbLine
 10
193.0005414162
 20
242.9054218107
 30
0.0
 11
193.0005414162
 21
249.2554218107
 31
0.0
  0
LINE
  5
1FD
330
1F6
100
AcDbEntity
  8
0
  6
Continuous
 62
     7
370
     0
100
AcDbLine
 10
193.0005414162
 20
242.9054218107
 30
0.0
 11
193.0005414162
 21
240.7054218107
 31
0.0
  0
LINE
  5
1FE
330
1F6
100
AcDbEntity
  8
0
  6
Continuous
 62
     7
370
     0
100
AcDbLine
 10
193.0005414162
 20
240.7054218107
 30
0.0
 11
193.0005414162
 21
228.7558035922
 31
0.0
  0
MTEXT
  5
1FF
330
1F6
100
AcDbEntity
  8
0
  6
Continuous
 62
     7
370
     0
100
AcDbMText
 10
188.4888045016
 20
228.7558035922
 30
0.0
 40
3.5
 41
0.0
 71
     1
 72
     1
  1
2,20
  7
SLDTEXTSTYLE0
 11
-7.044195017643634E-15
 21
1.0
 31
0.0
 73
     1
 44
1.0
  0
ENDBLK
  5
1F8
330
1F6
100
AcDbEntity
  8
0
100
AcDbBlockEnd
  0
BLOCK
  5
202
330
201
100
AcDbEntity
  8
0
100
AcDbBlockBegin
  2
_D_9
 70
     0
 10
0.0
 20
0.0
 30
0.0
  3
_D_9
  1

  0
SOLID
  5
204
330
201
100
AcDbEntity
  8
0
  6
Continuous
 62
     7
370
     0
100
AcDbTrace
 10
175.1147450581
 20
232.5003853617
 30
0.0
 11
178.4167450581
 21
231.9923853617
 31
0.0
 12
178.4167450581
 22
233.0083853617
 32
0.0
 13
178.4167450581
 23
233.0083853617
 33
0.0
  0
SOLID
  5
205
330
201
100
AcDbEntity
  8
0
  6
Continuous
 62
     7
370
     0
100
AcDbTrace
 10
183.5147450581
 20
232.5003853617
 30
0.0
 11
180.2127450581
 21
233.0083853617
 31
0.0
 12
180.2127450581
 22
231.9923853617
 32
0.0
 13
180.2127450581
 23
231.9923853617
 33
0.0
  0
LINE
  5
206
330
201
100
AcDbEntity
  8
0
  6
Continuous
 62
     7
370
     0
100
AcDbLine
 10
175.1147450581
 20
239.7054218107
 30
0.0
 11
175.1147450581
 21
231.5003853617
 31
0.0
  0
LINE
  5
207
330
201
100
AcDbEntity
  8
0
  6
Continuous
 62
     7
370
     0
100
AcDbLine
 10
183.5147450581
 20
239.7054218107
 30
0.0
 11
183.5147450581
 21
231.5003853617
 31
0.0
  0
LINE
  5
208
330
201
100
AcDbEntity
  8
0
  6
Continuous
 62
     7
370
     0
100
AcDbLine
 10
175.1147450581
 20
232.5003853617
 30
0.0
 11
156.5794043101
 21
232.5003853617
 31
0.0
  0
LINE
  5
209
330
201
100
AcDbEntity
  8
0
  6
Continuous
 62
     7
370
     0
100
AcDbLine
 10
175.1147450581
 20
232.5003853617
 30
0.0
 11
183.5147450581
 21
232.5003853617
 31
0.0
  0
MTEXT
  5
20A
330
201
100
AcDbEntity
  8
0
  6
Continuous
 62
     7
370
     0
100
AcDbMText
 10
156.5794043101
 20
237.0121224509
 30
0.0
 40
3.5
 41
0.0
 71
     1
 72
     1
  1
%%c
  7
SLDTEXTSTYLE0
 73
     1
 44
1.0
  0
MTEXT
  5
20B
330
201
100
AcDbEntity
  8
0
  6
Continuous
 62
     7
370
     0
100
AcDbMText
 10
161.8578417085
 20
237.0655946275
 30
0.0
 40
3.5
 41
0.0
 71
     1
 72
     1
  1
8,40
  7
SLDTEXTSTYLE0
 73
     1
 44
1.0
  0
ENDBLK
  5
203
330
201
100
AcDbEntity
  8
0
100
AcDbBlockEnd
  0
ENDSEC
  0
SECTION
  2
ENTITIES
  0
LINE
  5
74
330
1F
100
AcDbEntity
  8
0
  6
Continuous
 62
     7
370
    60
100
AcDbLine
 10
20.0
 20
287.0
 30
0.0
 11
410.0
 21
287.0
 31
0.0
  0
LINE
  5
75
330
1F
100
AcDbEntity
  8
0
  6
Continuous
 62
     7
370
    60
100
AcDbLine
 10
410.0
 20
287.0
 30
0.0
 11
410.0
 21
10.0
 31
0.0
  0
LINE
  5
76
330
1F
100
AcDbEntity
  8
0
  6
Continuous
 62
     7
370
    60
100
AcDbLine
 10
410.0
 20
10.0
 30
0.0
 11
20.0
 21
10.0
 31
0.0
  0
LINE
  5
77
330
1F
100
AcDbEntity
  8
0
  6
Continuous
 62
     7
370
    60
100
AcDbLine
 10
20.0
 20
10.0
 30
0.0
 11
20.0
 21
287.0
 31
0.0
  0
LINE
  5
78
330
1F
100
AcDbEntity
  8
0
  6
Continuous
 62
     7
370
    60
100
AcDbLine
 10
15.0
 20
292.0
 30
0.0
 11
415.0
 21
292.0
 31
0.0
  0
LINE
  5
79
330
1F
100
AcDbEntity
  8
0
  6
Continuous
 62
     7
370
    60
100
AcDbLine
 10
415.0
 20
292.0
 30
0.0
 11
415.0
 21
5.0
 31
0.0
  0
LINE
  5
7A
330
1F
100
AcDbEntity
  8
0
  6
Continuous
 62
     7
370
    60
100
AcDbLine
 10
415.0
 20
5.0
 30
0.0
 11
15.0
 21
5.0
 31
0.0
  0
LINE
  5
7B
330
1F
100
AcDbEntity
  8
0
  6
Continuous
 62
     7
370
    60
100
AcDbLine
 10
15.0
 20
5.0
 30
0.0
 11
15.0
 21
292.0
 31
0.0
  0
LINE
  5
7C
330
1F
100
AcDbEntity
  8
0
  6
Continuous
 62
     7
370
    60
100
AcDbLine
 10
410.0
 20
65.25
 30
0.0
 11
410.0
 21
10.0
 31
0.0
  0
LINE
  5
7D
330
1F
100
AcDbEntity
  8
0
  6
Continuous
 62
     7
370
    60
100
AcDbLine
 10
410.0
 20
10.0
 30
0.0
 11
222.8
 21
10.0
 31
0.0
  0
LINE
  5
7E
330
1F
100
AcDbEntity
  8
0
  6
Continuous
 62
     7
370
    60
100
AcDbLine
 10
415.0
 20
148.5
 30
0.0
 11
405.0
 21
148.5
 31
0.0
  0
LINE
  5
7F
330
1F
100
AcDbEntity
  8
0
  6
Continuous
 62
     7
370
    60
100
AcDbLine
 10
215.0
 20
292.0
 30
0.0
 11
215.0
 21
282.0
 31
0.0
  0
LINE
  5
80
330
1F
100
AcDbEntity
  8
0
  6
Continuous
 62
     7
370
    60
100
AcDbLine
 10
215.0
 20
5.0
 30
0.0
 11
215.0
 21
15.0
 31
0.0
  0
LINE
  5
81
330
1F
100
AcDbEntity
  8
0
  6
Continuous
 62
     7
370
    60
100
AcDbLine
 10
15.0
 20
148.5
 30
0.0
 11
25.0
 21
148.5
 31
0.0
  0
LINE
  5
82
330
1F
100
AcDbEntity
  8
0
  6
Continuous
 62
     7
370
    40
100
AcDbLine
 10
230.0
 20
14.25
 30
0.0
 11
410.0
 21
14.25
 31
0.0
  0
LINE
  5
83
330
1F
100
AcDbEntity
  8
0
  6
Continuous
 62
     7
370
    40
100
AcDbLine
 10
410.0
 20
48.25
 30
0.0
 11
230.0
 21
48.25
 31
0.0
  0
LINE
  5
84
330
1F
100
AcDbEntity
  8
0
  6
Continuous
 62
     7
370
    40
100
AcDbLine
 10
230.0
 20
65.25
 30
0.0
 11
410.0
 21
65.25
 31
0.0
  0
LINE
  5
85
330
1F
100
AcDbEntity
  8
0
  6
Continuous
 62
     7
370
    40
100
AcDbLine
 10
256.9909524338
 20
48.25
 30
0.0
 11
256.9909524338
 21
10.0
 31
0.0
  0
LINE
  5
86
330
1F
100
AcDbEntity
  8
0
  6
Continuous
 62
     7
370
    40
100
AcDbLine
 10
328.8
 20
31.25
 30
0.0
 11
230.0
 21
31.25
 31
0.0
  0
LINE
  5
87
330
1F
100
AcDbEntity
  8
0
  6
Continuous
 62
     7
370
    40
100
AcDbLine
 10
328.8
 20
35.5
 30
0.0
 11
230.0
 21
35.5
 31
0.0
  0
LINE
  5
88
330
1F
100
AcDbEntity
  8
0
  6
Continuous
 62
     7
370
    40
100
AcDbLine
 10
328.8
 20
39.75
 30
0.0
 11
230.0
 21
39.75
 31
0.0
  0
LINE
  5
89
330
1F
100
AcDbEntity
  8
0
  6
Continuous
 62
     7
370
    40
100
AcDbLine
 10
328.8
 20
44.0
 30
0.0
 11
230.0
 21
44.0
 31
0.0
  0
LINE
  5
8A
330
1F
100
AcDbEntity
  8
0
  6
Continuous
 62
     7
370
    40
100
AcDbLine
 10
284.6
 20
10.0
 30
0.0
 11
284.6
 21
48.25
 31
0.0
  0
LINE
  5
8B
330
1F
100
AcDbEntity
  8
0
  6
Continuous
 62
     7
370
    40
100
AcDbLine
 10
230.0
 20
65.25
 30
0.0
 11
230.0
 21
10.0
 31
0.0
  0
LINE
  5
8C
330
1F
100
AcDbEntity
  8
0
  6
Continuous
 62
     7
370
    40
100
AcDbLine
 10
237.8
 20
48.25
 30
0.0
 11
237.8
 21
10.0
 31
0.0
  0
LINE
  5
8D
330
1F
100
AcDbEntity
  8
0
  6
Continuous
 62
     7
370
    40
100
AcDbLine
 10
263.8
 20
48.25
 30
0.0
 11
263.8
 21
65.25
 31
0.0
  0
LINE
  5
8E
330
1F
100
AcDbEntity
  8
0
  6
Continuous
 62
     7
370
    40
100
AcDbLine
 10
274.3989261635
 20
48.25
 30
0.0
 11
274.3989261635
 21
10.0
 31
0.0
  0
LINE
  5
8F
330
1F
100
AcDbEntity
  8
0
  6
Continuous
 62
     7
370
    40
100
AcDbLine
 10
295.0
 20
31.25
 30
0.0
 11
295.0
 21
48.25
 31
0.0
  0
LINE
  5
90
330
1F
100
AcDbEntity
  8
0
  6
Continuous
 62
     7
370
    40
100
AcDbLine
 10
284.6
 20
18.5
 30
0.0
 11
230.0
 21
18.5
 31
0.0
  0
LINE
  5
91
330
1F
100
AcDbEntity
  8
0
  6
Continuous
 62
     7
370
    40
100
AcDbLine
 10
310.6
 20
65.25
 30
0.0
 11
310.6
 21
27.0
 31
0.0
  0
LINE
  5
92
330
1F
100
AcDbEntity
  8
0
  6
Continuous
 62
     7
370
    40
100
AcDbLine
 10
284.6
 20
22.749928
 30
0.0
 11
230.0
 21
22.749928
 31
0.0
  0
LINE
  5
93
330
1F
100
AcDbEntity
  8
0
  6
Continuous
 62
     7
370
    40
100
AcDbLine
 10
284.6
 20
27.0
 30
0.0
 11
230.0
 21
27.0
 31
0.0
  0
LINE
  5
94
330
1F
100
AcDbEntity
  8
0
  6
Continuous
 62
     7
370
    40
100
AcDbLine
 10
284.6
 20
27.0
 30
0.0
 11
410.0
 21
27.0
 31
0.0
  0
LINE
  5
95
330
1F
100
AcDbEntity
  8
0
  6
Continuous
 62
     7
370
    40
100
AcDbLine
 10
328.8
 20
65.25
 30
0.0
 11
328.8
 21
10.0
 31
0.0
  0
LINE
  5
96
330
1F
100
AcDbEntity
  8
0
  6
Continuous
 62
     7
370
    40
100
AcDbLine
 10
373.0
 20
10.0
 30
0.0
 11
373.0
 21
14.25
 31
0.0
  0
LINE
  5
97
330
1F
100
AcDbEntity
  8
0
  6
Continuous
 62
     7
370
    40
100
AcDbLine
 10
380.8
 20
58.875
 30
0.0
 11
380.8
 21
65.25
 31
0.0
  0
LINE
  5
98
330
1F
100
AcDbEntity
  8
0
  6
Continuous
 62
     7
370
    40
100
AcDbLine
 10
397.0
 20
14.25
 30
0.0
 11
397.0
 21
27.0
 31
0.0
  0
LINE
  5
99
330
1F
100
AcDbEntity
  8
0
  6
Continuous
 62
     7
370
    40
100
AcDbLine
 10
410.0
 20
58.875
 30
0.0
 11
328.8
 21
58.875
 31
0.0
  0
LINE
  5
9A
330
1F
100
AcDbEntity
  8
0
  6
Continuous
 62
     7
370
    40
100
AcDbLine
 10
410.0
 20
18.5
 30
0.0
 11
397.0
 21
18.5
 31
0.0
  0
LINE
  5
9B
330
1F
100
AcDbEntity
  8
0
  6
Continuous
 62
     7
370
    30
100
AcDbLine
 10
65.0
 20
292.0
 30
0.0
 11
65.0
 21
287.0
 31
0.0
  0
LINE
  5
9C
330
1F
100
AcDbEntity
  8
0
  6
Continuous
 62
     7
370
    30
100
AcDbLine
 10
115.0
 20
292.0
 30
0.0
 11
115.0
 21
287.0
 31
0.0
  0
LINE
  5
9D
330
1F
100
AcDbEntity
  8
0
  6
Continuous
 62
     7
370
    30
100
AcDbLine
 10
165.0
 20
292.0
 30
0.0
 11
165.0
 21
287.0
 31
0.0
  0
LINE
  5
9E
330
1F
100
AcDbEntity
  8
0
  6
Continuous
 62
     7
370
    30
100
AcDbLine
 10
265.0
 20
292.0
 30
0.0
 11
265.0
 21
287.0
 31
0.0
  0
LINE
  5
9F
330
1F
100
AcDbEntity
  8
0
  6
Continuous
 62
     7
370
    30
100
AcDbLine
 10
315.0
 20
292.0
 30
0.0
 11
315.0
 21
287.0
 31
0.0
  0
LINE
  5
A0
330
1F
100
AcDbEntity
  8
0
  6
Continuous
 62
     7
370
    30
100
AcDbLine
 10
365.0
 20
292.0
 30
0.0
 11
365.0
 21
287.0
 31
0.0
  0
LINE
  5
A1
330
1F
100
AcDbEntity
  8
0
  6
Continuous
 62
     7
370
    30
100
AcDbLine
 10
415.0
 20
248.5
 30
0.0
 11
410.0
 21
248.5
 31
0.0
  0
LINE
  5
A2
330
1F
100
AcDbEntity
  8
0
  6
Continuous
 62
     7
370
    30
100
AcDbLine
 10
415.0
 20
198.5
 30
0.0
 11
410.0
 21
198.5
 31
0.0
  0
LINE
  5
A3
330
1F
100
AcDbEntity
  8
0
  6
Continuous
 62
     7
370
    30
100
AcDbLine
 10
415.0
 20
98.5
 30
0.0
 11
410.0
 21
98.5
 31
0.0
  0
LINE
  5
A4
330
1F
100
AcDbEntity
  8
0
  6
Continuous
 62
     7
370
    30
100
AcDbLine
 10
415.0
 20
48.5
 30
0.0
 11
410.0
 21
48.5
 31
0.0
  0
LINE
  5
A5
330
1F
100
AcDbEntity
  8
0
  6
Continuous
 62
     7
370
    30
100
AcDbLine
 10
365.0
 20
5.0
 30
0.0
 11
365.0
 21
10.0
 31
0.0
  0
LINE
  5
A6
330
1F
100
AcDbEntity
  8
0
  6
Continuous
 62
     7
370
    30
100
AcDbLine
 10
315.0
 20
5.0
 30
0.0
 11
315.0
 21
10.0
 31
0.0
  0
LINE
  5
A7
330
1F
100
AcDbEntity
  8
0
  6
Continuous
 62
     7
370
    30
100
AcDbLine
 10
265.0
 20
5.0
 30
0.0
 11
265.0
 21
10.0
 31
0.0
  0
LINE
  5
A8
330
1F
100
AcDbEntity
  8
0
  6
Continuous
 62
     7
370
    30
100
AcDbLine
 10
165.0
 20
5.0
 30
0.0
 11
165.0
 21
10.0
 31
0.0
  0
LINE
  5
A9
330
1F
100
AcDbEntity
  8
0
  6
Continuous
 62
     7
370
    30
100
AcDbLine
 10
115.0
 20
5.0
 30
0.0
 11
115.0
 21
10.0
 31
0.0
  0
LINE
  5
AA
330
1F
100
AcDbEntity
  8
0
  6
Continuous
 62
     7
370
    30
100
AcDbLine
 10
65.0
 20
5.0
 30
0.0
 11
65.0
 21
10.0
 31
0.0
  0
LINE
  5
AB
330
1F
100
AcDbEntity
  8
0
  6
Continuous
 62
     7
370
    30
100
AcDbLine
 10
15.0
 20
48.5
 30
0.0
 11
20.0
 21
48.5
 31
0.0
  0
LINE
  5
AC
330
1F
100
AcDbEntity
  8
0
  6
Continuous
 62
     7
370
    30
100
AcDbLine
 10
15.0
 20
98.5
 30
0.0
 11
20.0
 21
98.5
 31
0.0
  0
LINE
  5
AD
330
1F
100
AcDbEntity
  8
0
  6
Continuous
 62
     7
370
    30
100
AcDbLine
 10
15.0
 20
198.5
 30
0.0
 11
20.0
 21
198.5
 31
0.0
  0
LINE
  5
AE
330
1F
100
AcDbEntity
  8
0
  6
Continuous
 62
     7
370
    30
100
AcDbLine
 10
15.0
 20
248.5
 30
0.0
 11
20.0
 21
248.5
 31
0.0
  0
MTEXT
  5
B0
330
1F
100
AcDbEntity
  8
0
  6
Continuous
 62
     7
370
     0
100
AcDbMText
 10
32.4647569032
 20
9.4948948176
 30
0.0
 40
3.5
 41
0.0
 71
     2
 72
     1
  1
8
  7
SLDTEXTSTYLE0
 73
     1
 44
1.0
  0
MTEXT
  5
B1
330
1F
100
AcDbEntity
  8
0
  6
Continuous
 62
     7
370
     0
100
AcDbMText
 10
89.9647569032
 20
9.4948948176
 30
0.0
 40
3.5
 41
0.0
 71
     2
 72
     1
  1
7
  7
SLDTEXTSTYLE0
 73
     1
 44
1.0
  0
MTEXT
  5
B2
330
1F
100
AcDbEntity
  8
0
  6
Continuous
 62
     7
370
     0
100
AcDbMText
 10
17.3602431025
 20
26.4948948176
 30
0.0
 40
3.5
 41
0.0
 71
     2
 72
     1
  1
A
  7
SLDTEXTSTYLE0
 73
     1
 44
1.0
  0
MTEXT
  5
B3
330
1F
100
AcDbEntity
  8
0
  6
Continuous
 62
     7
370
     0
100
AcDbMText
 10
17.4732638421
 20
75.7448948176
 30
0.0
 40
3.5
 41
0.0
 71
     2
 72
     1
  1
B
  7
SLDTEXTSTYLE0
 73
     1
 44
1.0
  0
MTEXT
  5
B4
330
1F
100
AcDbEntity
  8
0
  6
Continuous
 62
     7
370
     0
100
AcDbMText
 10
339.9647569032
 20
9.4948948176
 30
0.0
 40
3.5
 41
0.0
 71
     2
 72
     1
  1
2
  7
SLDTEXTSTYLE0
 73
     1
 44
1.0
  0
MTEXT
  5
B5
330
1F
100
AcDbEntity
  8
0
  6
Continuous
 62
     7
370
     0
100
AcDbMText
 10
289.9647569032
 20
9.4948948176
 30
0.0
 40
3.5
 41
0.0
 71
     2
 72
     1
  1
3
  7
SLDTEXTSTYLE0
 73
     1
 44
1.0
  0
MTEXT
  5
B6
330
1F
100
AcDbEntity
  8
0
  6
Continuous
 62
     7
370
     0
100
AcDbMText
 10
239.9647569032
 20
9.4948948176
 30
0.0
 40
3.5
 41
0.0
 71
     2
 72
     1
  1
4
  7
SLDTEXTSTYLE0
 73
     1
 44
1.0
  0
MTEXT
  5
B7
330
1F
100
AcDbEntity
  8
0
  6
Continuous
 62
     7
370
     0
100
AcDbMText
 10
189.9647569032
 20
9.4948948176
 30
0.0
 40
3.5
 41
0.0
 71
     2
 72
     1
  1
5
  7
SLDTEXTSTYLE0
 73
     1
 44
1.0
  0
MTEXT
  5
B8
330
1F
100
AcDbEntity
  8
0
  6
Continuous
 62
     7
370
     0
100
AcDbMText
 10
139.9647569032
 20
9.4948948176
 30
0.0
 40
3.5
 41
0.0
 71
     2
 72
     1
  1
6
  7
SLDTEXTSTYLE0
 73
     1
 44
1.0
  0
MTEXT
  5
B9
330
1F
100
AcDbEntity
  8
0
  6
Continuous
 62
     7
370
     0
100
AcDbMText
 10
392.4647569032
 20
9.4948948176
 30
0.0
 40
3.5
 41
0.0
 71
     2
 72
     1
  1
1
  7
SLDTEXTSTYLE0
 73
     1
 44
1.0
  0
MTEXT
  5
BA
330
1F
100
AcDbEntity
  8
0
  6
Continuous
 62
     7
370
     0
100
AcDbMText
 10
189.9647569032
 20
291.4948948176
 30
0.0
 40
3.5
 41
0.0
 71
     2
 72
     1
  1
5
  7
SLDTEXTSTYLE0
 73
     1
 44
1.0
  0
MTEXT
  5
BB
330
1F
100
AcDbEntity
  8
0
  6
Continuous
 62
     7
370
     0
100
AcDbMText
 10
89.9647569032
 20
291.4948948176
 30
0.0
 40
3.5
 41
0.0
 71
     2
 72
     1
  1
7
  7
SLDTEXTSTYLE0
 73
     1
 44
1.0
  0
MTEXT
  5
BC
330
1F
100
AcDbEntity
  8
0
  6
Continuous
 62
     7
370
     0
100
AcDbMText
 10
32.4647569032
 20
291.4948948176
 30
0.0
 40
3.5
 41
0.0
 71
     2
 72
     1
  1
8
  7
SLDTEXTSTYLE0
 73
     1
 44
1.0
  0
MTEXT
  5
BD
330
1F
100
AcDbEntity
  8
0
  6
Continuous
 62
     7
370
     0
100
AcDbMText
 10
339.9647569032
 20
291.4948948176
 30
0.0
 40
3.5
 41
0.0
 71
     2
 72
     1
  1
2
  7
SLDTEXTSTYLE0
 73
     1
 44
1.0
  0
MTEXT
  5
BE
330
1F
100
AcDbEntity
  8
0
  6
Continuous
 62
     7
370
     0
100
AcDbMText
 10
239.9647569032
 20
291.4948948176
 30
0.0
 40
3.5
 41
0.0
 71
     2
 72
     1
  1
4
  7
SLDTEXTSTYLE0
 73
     1
 44
1.0
  0
MTEXT
  5
BF
330
1F
100
AcDbEntity
  8
0
  6
Continuous
 62
     7
370
     0
100
AcDbMText
 10
139.9647569032
 20
291.4948948176
 30
0.0
 40
3.5
 41
0.0
 71
     2
 72
     1
  1
6
  7
SLDTEXTSTYLE0
 73
     1
 44
1.0
  0
MTEXT
  5
C0
330
1F
100
AcDbEntity
  8
0
  6
Continuous
 62
     7
370
     0
100
AcDbMText
 10
392.4647569032
 20
291.4948948176
 30
0.0
 40
3.5
 41
0.0
 71
     2
 72
     1
  1
1
  7
SLDTEXTSTYLE0
 73
     1
 44
1.0
  0
MTEXT
  5
C1
330
1F
100
AcDbEntity
  8
0
  6
Continuous
 62
     7
370
     0
100
AcDbMText
 10
289.9647569032
 20
291.4948948176
 30
0.0
 40
3.5
 41
0.0
 71
     2
 72
     1
  1
3
  7
SLDTEXTSTYLE0
 73
     1
 44
1.0
  0
MTEXT
  5
C2
330
1F
100
AcDbEntity
  8
0
  6
Continuous
 62
     7
370
     0
100
AcDbMText
 10
17.5060764262
 20
225.7448948176
 30
0.0
 40
3.5
 41
0.0
 71
     2
 72
     1
  1
E
  7
SLDTEXTSTYLE0
 73
     1
 44
1.0
  0
MTEXT
  5
C3
330
1F
100
AcDbEntity
  8
0
  6
Continuous
 62
     7
370
     0
100
AcDbMText
 10
17.4598957933
 20
175.7448948176
 30
0.0
 40
3.5
 41
0.0
 71
     2
 72
     1
  1
D
  7
SLDTEXTSTYLE0
 73
     1
 44
1.0
  0
MTEXT
  5
C4
330
1F
100
AcDbEntity
  8
0
  6
Continuous
 62
     7
370
     0
100
AcDbMText
 10
17.4635417052
 20
125.7448948176
 30
0.0
 40
3.5
 41
0.0
 71
     2
 72
     1
  1
C
  7
SLDTEXTSTYLE0
 73
     1
 44
1.0
  0
MTEXT
  5
C5
330
1F
100
AcDbEntity
  8
0
  6
Continuous
 62
     7
370
     0
100
AcDbMText
 10
17.4635416269
 20
274.9948948176
 30
0.0
 40
3.5
 41
0.0
 71
     2
 72
     1
  1
F
  7
SLDTEXTSTYLE0
 73
     1
 44
1.0
  0
MTEXT
  5
C6
330
1F
100
AcDbEntity
  8
0
  6
Continuous
 62
     7
370
     0
100
AcDbMText
 10
412.4635416269
 20
274.9948948176
 30
0.0
 40
3.5
 41
0.0
 71
     2
 72
     1
  1
F
  7
SLDTEXTSTYLE0
 73
     1
 44
1.0
  0
MTEXT
  5
C7
330
1F
100
AcDbEntity
  8
0
  6
Continuous
 62
     7
370
     0
100
AcDbMText
 10
412.4598957933
 20
175.7448948176
 30
0.0
 40
3.5
 41
0.0
 71
     2
 72
     1
  1
D
  7
SLDTEXTSTYLE0
 73
     1
 44
1.0
  0
MTEXT
  5
C8
330
1F
100
AcDbEntity
  8
0
  6
Continuous
 62
     7
370
     0
100
AcDbMText
 10
412.4732638421
 20
75.7448948176
 30
0.0
 40
3.5
 41
0.0
 71
     2
 72
     1
  1
B
  7
SLDTEXTSTYLE0
 73
     1
 44
1.0
  0
MTEXT
  5
C9
330
1F
100
AcDbEntity
  8
0
  6
Continuous
 62
     7
370
     0
100
AcDbMText
 10
412.3602431025
 20
26.4948948176
 30
0.0
 40
3.5
 41
0.0
 71
     2
 72
     1
  1
A
  7
SLDTEXTSTYLE0
 73
     1
 44
1.0
  0
MTEXT
  5
CA
330
1F
100
AcDbEntity
  8
0
  6
Continuous
 62
     7
370
     0
100
AcDbMText
 10
412.5060764262
 20
225.7448948176
 30
0.0
 40
3.5
 41
0.0
 71
     2
 72
     1
  1
E
  7
SLDTEXTSTYLE0
 73
     1
 44
1.0
  0
MTEXT
  5
CB
330
1F
100
AcDbEntity
  8
0
  6
Continuous
 62
     7
370
     0
100
AcDbMText
 10
412.4635417052
 20
125.7448948176
 30
0.0
 40
3.5
 41
0.0
 71
     2
 72
     1
  1
C
  7
SLDTEXTSTYLE0
 73
     1
 44
1.0
  0
MTEXT
  5
CD
330
1F
100
AcDbEntity
  8
0
  6
Continuous
 62
     7
370
     0
100
AcDbMText
 10
230.6433628979
 20
42.3847813173
 30
0.0
 40
1.5
 41
0.0
 71
     1
 72
     1
  1
DRAWN
  7
SLDTEXTSTYLE1
 73
     1
 44
1.0
  0
MTEXT
  5
CE
330
1F
100
AcDbEntity
  8
0
  6
Continuous
 62
     7
370
     0
100
AcDbMText
 10
230.9392221937
 20
38.1618530186
 30
0.0
 40
1.5
 41
0.0
 71
     1
 72
     1
  1
CHK'D
  7
SLDTEXTSTYLE0
 73
     1
 44
1.0
  0
MTEXT
  5
CF
330
1F
100
AcDbEntity
  8
0
  6
Continuous
 62
     7
370
     0
100
AcDbMText
 10
230.4017224083
 20
34.0658666243
 30
0.0
 40
1.5
 41
0.0
 71
     1
 72
     1
  1
APPV'D
  7
SLDTEXTSTYLE0
 73
     1
 44
1.0
  0
MTEXT
  5
D0
330
1F
100
AcDbEntity
  8
0
  6
Continuous
 62
     7
370
     0
100
AcDbMText
 10
231.1240107386
 20
29.7157844608
 30
0.0
 40
1.5
 41
0.0
 71
     1
 72
     1
  1
MFG
  7
SLDTEXTSTYLE0
 73
     1
 44
1.0
  0
MTEXT
  5
D1
330
1F
100
AcDbEntity
  8
0
  6
Continuous
 62
     7
370
     0
100
AcDbMText
 10
231.509036604
 20
25.504662132
 30
0.0
 40
1.5
 41
0.0
 71
     1
 72
     1
  1
Q.A
  7
SLDTEXTSTYLE0
 73
     1
 44
1.0
  0
INSERT
  5
DB
330
1F
100
AcDbEntity
  8
0
  6
Continuous
 62
     7
370
     0
100
AcDbBlockReference
  2
SW_NOTE_0
 10
230.5936687456
 20
61.9873698743
 30
0.0
  0
MTEXT
  5
DC
330
1F
100
AcDbEntity
  8
0
  6
Continuous
 62
     7
370
     0
100
AcDbMText
 10
264.3712921668
 20
63.9192719951
 30
0.0
 40
1.5
 41
0.0
 71
     1
 72
     1
  1
FINISH:
  7
SLDTEXTSTYLE0
 73
     1
 44
1.0
  0
INSERT
  5
E3
330
1F
100
AcDbEntity
  8
0
  6
Continuous
 62
     7
370
     0
100
AcDbBlockReference
  2
SW_NOTE_1
 10
311.3092156863
 20
62.069489643
 30
0.0
  0
MTEXT
  5
E4
330
1F
100
AcDbEntity
  8
0
  6
Continuous
 62
     7
370
     0
100
AcDbMText
 10
244.3222392177
 20
46.5014826335
 30
0.0
 40
1.5
 41
0.0
 71
     1
 72
     1
  1
NAME
  7
SLDTEXTSTYLE0
 73
     1
 44
1.0
  0
MTEXT
  5
E5
330
1F
100
AcDbEntity
  8
0
  6
Continuous
 62
     7
370
     0
100
AcDbMText
 10
260.0335875632
 20
46.5617563795
 30
0.0
 40
1.5
 41
0.0
 71
     1
 72
     1
  1
SIGNATURE
  7
SLDTEXTSTYLE0
 73
     1
 44
1.0
  0
MTEXT
  5
E6
330
1F
100
AcDbEntity
  8
0
  6
Continuous
 62
     7
370
     0
100
AcDbMText
 10
277.2147019657
 20
46.5761792212
 30
0.0
 40
1.5
 41
0.0
 71
     1
 72
     1
  1
DATE
  7
SLDTEXTSTYLE0
 73
     1
 44
1.0
  0
MTEXT
  5
E7
330
1F
100
AcDbEntity
  8
0
  6
Continuous
 62
     7
370
     0
100
AcDbMText
 10
285.6458623088
 20
25.9860562892
 30
0.0
 40
1.5
 41
0.0
 71
     1
 72
     1
  1
MATERIAL:
  7
SLDTEXTSTYLE0
 73
     1
 44
1.0
  0
MTEXT
  5
E8
330
1F
100
AcDbEntity
  8
0
  6
Continuous
 62
     7
370
     0
100
AcDbMText
 10
342.6146405229
 20
62.5329935751
 30
0.0
 40
1.5
 41
0.0
 71
     1
 72
     1
  1
DO NOT SCALE DRAWING
  7
SLDTEXTSTYLE0
 73
     1
 44
1.0
  0
MTEXT
  5
E9
330
1F
100
AcDbEntity
  8
0
  6
Continuous
 62
     7
370
     0
100
AcDbMText
 10
383.3275816993
 20
62.3349086805
 30
0.0
 40
1.5
 41
0.0
 71
     1
 72
     1
  1
REVISION
  7
SLDTEXTSTYLE0
 73
     1
 44
1.0
  0
MTEXT
  5
EA
330
1F
100
AcDbEntity
  8
0
  6
Continuous
 62
     7
370
     0
100
AcDbMText
 10
330.090160639
 20
46.5761792212
 30
0.0
 40
1.5
 41
0.0
 71
     1
 72
     1
  1
TITLE:
  7
SLDTEXTSTYLE0
 73
     1
 44
1.0
  0
MTEXT
  5
EB
330
1F
100
AcDbEntity
  8
0
  6
Continuous
 62
     7
370
     0
100
AcDbMText
 10
329.9530022162
 20
25.9860562892
 30
0.0
 40
1.5
 41
0.0
 71
     1
 72
     1
  1
DWG NO.
  7
SLDTEXTSTYLE0
 73
     1
 44
1.0
  0
MTEXT
  5
EC
330
1F
100
AcDbEntity
  8
0
  6
Continuous
 62
     7
370
     0
100
AcDbMText
 10
330.0739661175
 20
12.9000872745
 30
0.0
 40
1.5
 41
0.0
 71
     1
 72
     1
  1
SCALE:1:1
  7
SLDTEXTSTYLE0
 73
     1
 44
1.0
  0
MTEXT
  5
EE
330
1F
100
AcDbEntity
  8
0
  6
Continuous
 62
     7
370
     0
100
AcDbMText
 10
374.4782944278
 20
12.9000872745
 30
0.0
 40
1.5
 41
0.0
 71
     1
 72
     1
  1
SHEET 1 OF 1
  7
SLDTEXTSTYLE2
 73
     1
 44
1.0
  0
MTEXT
  5
EF
330
1F
100
AcDbEntity
  8
0
  6
Continuous
 62
     7
370
     0
100
AcDbMText
 10
400.8711564346
 20
24.406388569
 30
0.0
 40
2.9104166667
 41
0.0
 71
     1
 72
     1
  1
A3
  7
SLDTEXTSTYLE0
 73
     1
 44
1.0
  0
MTEXT
  5
F0
330
1F
100
AcDbEntity
  8
0
  6
Continuous
 62
     7
370
     0
100
AcDbMText
 10
285.6178111281
 20
12.9493119036
 30
0.0
 40
1.4986
 41
0.0
 71
     1
 72
     1
  1
WEIGHT:
  7
SLDTEXTSTYLE0
 73
     1
 44
1.0
  0
MTEXT
  5
F1
330
1F
100
AcDbEntity
  8
0
  6
Continuous
 62
     7
370
     0
100
AcDbMText
 10
364.9579476252
 20
23.6069109673
 30
0.0
 40
6.35
 41
0.0
 71
     2
 72
     1
  1
Lid with PU
  7
SLDTEXTSTYLE0
 73
     1
 44
1.0
  0
MTEXT
  5
F2
330
1F
100
AcDbEntity
  8
0
  6
Continuous
 62
     7
370
     0
100
AcDbMText
 10
369.6622733875
 20
56.3257281104
 30
0.0
 40
6.35
 41
0.0
 71
     2
 72
     1
  1
IRNAS
  7
SLDTEXTSTYLE0
 73
     1
 44
1.0
  0
ARC
  5
F3
330
1F
100
AcDbEntity
  8
0
  6
Continuous
 62
     7
370
    15
100
AcDbCircle
 10
123.9170231009
 20
201.8323004437
 30
0.0
 40
10.00000000000003
100
AcDbArc
 50
270.0
 51
321.339451539
  0
LINE
  5
F4
330
1F
100
AcDbEntity
  8
0
  6
Continuous
 62
     7
370
    15
100
AcDbLine
 10
137.7210714404
 20
203.0793517996
 30
0.0
 11
131.7256304901
 21
195.5852490879
 31
0.0
  0
ARC
  5
F5
330
1F
100
AcDbEntity
  8
0
  6
Continuous
 62
     7
370
    15
100
AcDbCircle
 10
145.5296788295
 20
196.8323004437
 30
0.0
 40
10.0
100
AcDbArc
 50
90.0
 51
141.339451539
  0
LINE
  5
F6
330
1F
100
AcDbEntity
  8
0
  6
Continuous
 62
     7
370
    15
100
AcDbLine
 10
161.0998112868
 20
206.8323004437
 30
0.0
 11
145.5296788295
 21
206.8323004437
 31
0.0
  0
ARC
  5
F7
330
1F
100
AcDbEntity
  8
0
  6
Continuous
 62
     7
370
    15
100
AcDbCircle
 10
161.0998112868
 20
196.8323004437
 30
0.0
 40
10.0
100
AcDbArc
 50
38.660548461
 51
90.0
  0
LINE
  5
F8
330
1F
100
AcDbEntity
  8
0
  6
Continuous
 62
     7
370
    15
100
AcDbLine
 10
168.9084186759
 20
203.0793517996
 30
0.0
 11
174.9038596262
 21
195.5852490879
 31
0.0
  0
ARC
  5
F9
330
1F
100
AcDbEntity
  8
0
  6
Continuous
 62
     7
370
    15
100
AcDbCircle
 10
182.7124670154
 20
201.8323004437
 30
0.0
 40
10.0
100
AcDbArc
 50
218.660548461
 51
270.0
  0
ARC
  5
FA
330
1F
100
AcDbEntity
  8
0
  6
Continuous
 62
     7
370
    15
100
AcDbCircle
 10
182.7124670154
 20
111.8323004437
 30
0.0
 40
10.00000000000001
100
AcDbArc
 50
90.0
 51
141.339451539
  0
LINE
  5
FB
330
1F
100
AcDbEntity
  8
0
  6
Continuous
 62
     7
370
    15
100
AcDbLine
 10
168.9084186759
 20
110.5852490879
 30
0.0
 11
174.9038596262
 21
118.0793517996
 31
0.0
  0
LINE
  5
FC
330
1F
100
AcDbEntity
  8
0
  6
Continuous
 62
     7
370
    15
100
AcDbLine
 10
145.5296788295
 20
106.8323004437
 30
0.0
 11
161.0998112868
 21
106.8323004437
 31
0.0
  0
ARC
  5
FD
330
1F
100
AcDbEntity
  8
0
  6
Continuous
 62
     7
370
    15
100
AcDbCircle
 10
145.5296788295
 20
116.8323004437
 30
0.0
 40
9.999999999999979
100
AcDbArc
 50
218.660548461
 51
270.0
  0
LINE
  5
FE
330
1F
100
AcDbEntity
  8
0
  6
Continuous
 62
     7
370
    15
100
AcDbLine
 10
137.7210714404
 20
110.5852490879
 30
0.0
 11
131.7256304901
 21
118.0793517996
 31
0.0
  0
ARC
  5
FF
330
1F
100
AcDbEntity
  8
0
  6
Continuous
 62
     7
370
    15
100
AcDbCircle
 10
123.9170231009
 20
111.8323004437
 30
0.0
 40
10.00000000000004
100
AcDbArc
 50
38.660548461
 51
90.0
  0
CIRCLE
  5
100
330
1F
100
AcDbEntity
  8
0
  6
Continuous
 62
     7
370
    15
100
AcDbCircle
 10
103.2339279089
 20
185.8323004437
 30
0.0
 40
2.0
  0
CIRCLE
  5
101
330
1F
100
AcDbEntity
  8
0
  6
Continuous
 62
     7
370
    15
100
AcDbCircle
 10
127.2339279089
 20
187.3323004437
 30
0.0
 40
2.0
  0
CIRCLE
  5
102
330
1F
100
AcDbEntity
  8
0
  6
Continuous
 62
     7
370
    15
100
AcDbCircle
 10
153.2743364835
 20
187.3323004437
 30
0.0
 40
2.000000000000028
  0
CIRCLE
  5
103
330
1F
100
AcDbEntity
  8
0
  6
Continuous
 62
     7
370
    15
100
AcDbCircle
 10
179.3147450581
 20
187.3323004437
 30
0.0
 40
2.0
  0
CIRCLE
  5
104
330
1F
100
AcDbEntity
  8
0
  6
Continuous
 62
     7
370
    15
100
AcDbCircle
 10
203.3147450581
 20
185.8323004437
 30
0.0
 40
2.0
  0
CIRCLE
  5
105
330
1F
100
AcDbEntity
  8
0
  6
Continuous
 62
     7
370
    15
100
AcDbCircle
 10
204.8147450581
 20
168.8323004437
 30
0.0
 40
2.0
  0
CIRCLE
  5
106
330
1F
100
AcDbEntity
  8
0
  6
Continuous
 62
     7
370
    15
100
AcDbCircle
 10
204.8147450581
 20
144.8323004437
 30
0.0
 40
2.0
  0
CIRCLE
  5
107
330
1F
100
AcDbEntity
  8
0
  6
Continuous
 62
     7
370
    15
100
AcDbCircle
 10
203.3147450581
 20
127.8323004437
 30
0.0
 40
2.0
  0
CIRCLE
  5
108
330
1F
100
AcDbEntity
  8
0
  6
Continuous
 62
     7
370
    15
100
AcDbCircle
 10
179.3147450581
 20
126.3323004437
 30
0.0
 40
2.0
  0
CIRCLE
  5
109
330
1F
100
AcDbEntity
  8
0
  6
Continuous
 62
     7
370
    15
100
AcDbCircle
 10
153.2743364835
 20
126.3323004437
 30
0.0
 40
2.0
  0
CIRCLE
  5
10A
330
1F
100
AcDbEntity
  8
0
  6
Continuous
 62
     7
370
    15
100
AcDbCircle
 10
127.3147450581
 20
126.3323004437
 30
0.0
 40
1.999999999999986
  0
CIRCLE
  5
10B
330
1F
100
AcDbEntity
  8
0
  6
Continuous
 62
     7
370
    15
100
AcDbCircle
 10
103.2339279089
 20
127.8323004437
 30
0.0
 40
2.0
  0
CIRCLE
  5
10C
330
1F
100
AcDbEntity
  8
0
  6
Continuous
 62
     7
370
    15
100
AcDbCircle
 10
101.7339279089
 20
144.8323004437
 30
0.0
 40
2.0
  0
CIRCLE
  5
10D
330
1F
100
AcDbEntity
  8
0
  6
Continuous
 62
     7
370
    15
100
AcDbCircle
 10
101.7339279089
 20
168.8323004437
 30
0.0
 40
2.0
  0
CIRCLE
  5
10E
330
1F
100
AcDbEntity
  8
0
  6
Continuous
 62
     7
370
    15
100
AcDbCircle
 10
153.3147450581
 20
198.8323004437
 30
0.0
 40
5.849742151345396
  0
CIRCLE
  5
10F
330
1F
100
AcDbEntity
  8
0
  6
Continuous
 62
     7
370
    15
100
AcDbCircle
 10
153.3147450581
 20
114.8323004437
 30
0.0
 40
6.100000000000023
  0
ARC
  5
110
330
1F
100
AcDbEntity
  8
0
  6
Continuous
 62
     7
370
    15
100
AcDbCircle
 10
161.0998112868
 20
116.8323004437
 30
0.0
 40
10.0
100
AcDbArc
 50
270.0
 51
321.339451539
  0
CIRCLE
  5
111
330
1F
100
AcDbEntity
  8
0
  6
Continuous
 62
     7
370
    15
100
AcDbCircle
 10
153.3147450581
 20
114.8323004437
 30
0.0
 40
3.10000000000008
  0
CIRCLE
  5
112
330
1F
100
AcDbEntity
  8
0
  6
Continuous
 62
     7
370
    15
100
AcDbCircle
 10
153.3147450581
 20
198.8323004437
 30
0.0
 40
2.849742151345424
  0
ARC
  5
113
330
1F
100
AcDbEntity
  8
0
  6
Continuous
 62
     7
370
    15
100
AcDbCircle
 10
100.3147450581
 20
188.8323004437
 30
0.0
 40
3.000000000000028
100
AcDbArc
 50
90.0
 51
180.0
  0
LINE
  5
114
330
1F
100
AcDbEntity
  8
0
  6
Continuous
 62
     7
370
    15
100
AcDbLine
 10
206.3147450581
 20
191.8323004437
 30
0.0
 11
100.3147450581
 21
191.8323004437
 31
0.0
  0
ARC
  5
115
330
1F
100
AcDbEntity
  8
0
  6
Continuous
 62
     7
370
    15
100
AcDbCircle
 10
206.3147450581
 20
188.8323004437
 30
0.0
 40
3.000000000000028
100
AcDbArc
 50
0.0
 51
90.0
  0
LINE
  5
116
330
1F
100
AcDbEntity
  8
0
  6
Continuous
 62
     7
370
    15
100
AcDbLine
 10
209.3147450581
 20
124.8323004437
 30
0.0
 11
209.3147450581
 21
188.8323004437
 31
0.0
  0
ARC
  5
117
330
1F
100
AcDbEntity
  8
0
  6
Continuous
 62
     7
370
    15
100
AcDbCircle
 10
206.3147450581
 20
124.8323004437
 30
0.0
 40
3.0
100
AcDbArc
 50
270.0
 51
0.0
  0
LINE
  5
118
330
1F
100
AcDbEntity
  8
0
  6
Continuous
 62
     7
370
    15
100
AcDbLine
 10
100.3147450581
 20
121.8323004437
 30
0.0
 11
206.3147450581
 21
121.8323004437
 31
0.0
  0
ARC
  5
119
330
1F
100
AcDbEntity
  8
0
  6
Continuous
 62
     7
370
    15
100
AcDbCircle
 10
100.3147450581
 20
124.8323004437
 30
0.0
 40
3.0
100
AcDbArc
 50
180.0
 51
270.0
  0
LINE
  5
11A
330
1F
100
AcDbEntity
  8
0
  6
Continuous
 62
     7
370
    15
100
AcDbLine
 10
97.3147450581
 20
188.8323004437
 30
0.0
 11
97.3147450581
 21
124.8323004437
 31
0.0
  0
CIRCLE
  5
11B
330
1F
100
AcDbEntity
  8
0
  6
Continuous
 62
     7
370
    15
100
AcDbCircle
 10
103.2339279089
 20
127.8323004437
 30
0.0
 40
2.050000000000011
  0
CIRCLE
  5
11C
330
1F
100
AcDbEntity
  8
0
  6
Continuous
 62
     7
370
    15
100
AcDbCircle
 10
101.7339279089
 20
144.8323004437
 30
0.0
 40
2.049999999999997
  0
CIRCLE
  5
11D
330
1F
100
AcDbEntity
  8
0
  6
Continuous
 62
     7
370
    15
100
AcDbCircle
 10
101.7339279089
 20
168.8323004437
 30
0.0
 40
2.049999999999997
  0
CIRCLE
  5
11E
330
1F
100
AcDbEntity
  8
0
  6
Continuous
 62
     7
370
    15
100
AcDbCircle
 10
103.2339279089
 20
185.8323004437
 30
0.0
 40
2.049999999999997
  0
CIRCLE
  5
11F
330
1F
100
AcDbEntity
  8
0
  6
Continuous
 62
     7
370
    15
100
AcDbCircle
 10
127.2339279089
 20
187.3323004437
 30
0.0
 40
2.050000000000011
  0
CIRCLE
  5
120
330
1F
100
AcDbEntity
  8
0
  6
Continuous
 62
     7
370
    15
100
AcDbCircle
 10
127.3147450581
 20
126.3323004437
 30
0.0
 40
2.050000000000026
  0
CIRCLE
  5
121
330
1F
100
AcDbEntity
  8
0
  6
Continuous
 62
     7
370
    15
100
AcDbCircle
 10
153.2743364835
 20
126.3323004437
 30
0.0
 40
2.050000000000011
  0
CIRCLE
  5
122
330
1F
100
AcDbEntity
  8
0
  6
Continuous
 62
     7
370
    15
100
AcDbCircle
 10
153.2743364835
 20
187.3323004437
 30
0.0
 40
2.050000000000011
  0
CIRCLE
  5
123
330
1F
100
AcDbEntity
  8
0
  6
Continuous
 62
     7
370
    15
100
AcDbCircle
 10
179.3147450581
 20
187.3323004437
 30
0.0
 40
2.049999999999983
  0
CIRCLE
  5
124
330
1F
100
AcDbEntity
  8
0
  6
Continuous
 62
     7
370
    15
100
AcDbCircle
 10
179.3147450581
 20
126.3323004437
 30
0.0
 40
2.049999999999983
  0
CIRCLE
  5
125
330
1F
100
AcDbEntity
  8
0
  6
Continuous
 62
     7
370
    15
100
AcDbCircle
 10
203.3147450581
 20
127.8323004437
 30
0.0
 40
2.049999999999983
  0
CIRCLE
  5
126
330
1F
100
AcDbEntity
  8
0
  6
Continuous
 62
     7
370
    15
100
AcDbCircle
 10
204.8147450581
 20
144.8323004437
 30
0.0
 40
2.049999999999983
  0
CIRCLE
  5
127
330
1F
100
AcDbEntity
  8
0
  6
Continuous
 62
     7
370
    15
100
AcDbCircle
 10
204.8147450581
 20
168.8323004437
 30
0.0
 40
2.049999999999983
  0
CIRCLE
  5
128
330
1F
100
AcDbEntity
  8
0
  6
Continuous
 62
     7
370
    15
100
AcDbCircle
 10
203.3147450581
 20
185.8323004437
 30
0.0
 40
2.049999999999983
  0
DIMENSION
  5
129
330
1F
100
AcDbEntity
  8
0
  6
Continuous
 62
     7
370
     0
100
AcDbDimension
  2
_D
 10
209.3147450581
 20
216.8323004437
 30
0.0
 11
154.4560527777
 21
216.8323004437
 31
0.0
 70
   160
  1
<>
 71
     2
 42
-1.0
  3
SLDDIMSTYLE0
100
AcDbAlignedDimension
 13
97.3147450581
 23
188.8323004437
 33
0.0
 14
209.3147450581
 24
188.8323004437
 34
0.0
100
AcDbRotatedDimension
  0
DIMENSION
  5
134
330
1F
100
AcDbEntity
  8
0
  6
Continuous
 62
     7
370
     0
100
AcDbDimension
  2
_D_1
 10
75.3147450581
 20
106.8323004437
 30
0.0
 11
75.3147450581
 21
156.7985824251
 31
0.0
 70
   160
  1
<>
 71
     2
 42
-1.0
  3
SLDDIMSTYLE0
100
AcDbAlignedDimension
 13
145.5296788295
 23
206.8323004437
 33
0.0
 14
145.5296788295
 24
106.8323004437
 34
0.0
 50
90.0
100
AcDbRotatedDimension
  0
DIMENSION
  5
13E
330
1F
100
AcDbEntity
  8
0
  6
Continuous
 62
     7
370
     0
100
AcDbDimension
  2
_D_2
 10
83.8381824438
 20
121.8323004437
 30
0.0
 11
83.8381824438
 21
156.7985824251
 31
0.0
 70
   160
  1
<>
 71
     2
 42
-1.0
  3
SLDDIMSTYLE0
100
AcDbAlignedDimension
 13
100.3147450581
 23
191.8323004437
 33
0.0
 14
100.3147450581
 24
121.8323004437
 34
0.0
 50
90.0
100
AcDbRotatedDimension
  0
DIMENSION
  5
148
330
1F
100
AcDbEntity
  8
0
  6
Continuous
 62
     7
370
     0
100
AcDbDimension
  2
_D_3
 10
159.1644872095
 20
210.2790084297
 30
0.0
 11
152.2151731277
 21
210.2790084297
 31
0.0
 70
   160
  1
%%c<>
 71
     2
 42
-1.0
  3
SLDDIMSTYLE1
100
AcDbAlignedDimension
 13
147.4650029068
 23
198.8323004437
 33
0.0
 14
159.1644872095
 24
198.8323004437
 34
0.0
100
AcDbRotatedDimension
  0
DIMENSION
  5
156
330
1F
100
AcDbEntity
  8
0
  6
Continuous
 62
     7
370
     0
100
AcDbDimension
  2
_D_4
 10
150.6480346562
 20
197.8274691338
 30
0.0
 11
175.5799232222
 21
207.2219496323
 31
0.0
 70
   163
  1
<>
 71
     1
 42
-1.0
  3
SLDDIMSTYLE2
100
AcDbDiametricDimension
 15
155.9814554601
 25
199.8371317537
 35
0.0
 40
0.0
  0
DIMENSION
  5
163
330
1F
100
AcDbEntity
  8
0
  6
Continuous
 62
     7
370
     0
100
AcDbDimension
  2
_D_5
 10
99.9160836985
 20
167.8847022024
 30
0.0
 11
114.220185217
 21
175.3410893164
 31
0.0
 70
   163
  1
<>
 71
     1
 42
-1.0
  3
SLDDIMSTYLE2
100
AcDbDiametricDimension
 15
103.5517721192
 25
169.7798986851
 35
0.0
 40
0.0
  0
LINE
  5
16C
330
1F
100
AcDbEntity
  8
0
  6
Continuous
 62
     7
370
    15
100
AcDbLine
 10
161.0998112868
 20
240.7054218107
 30
0.0
 11
161.0998112868
 21
243.7054218107
 31
0.0
  0
LINE
  5
16D
330
1F
100
AcDbEntity
  8
0
  6
Continuous
 62
     7
370
    15
100
AcDbLine
 10
145.5296788295
 20
243.7054218107
 30
0.0
 11
145.5296788295
 21
240.7054218107
 31
0.0
  0
LINE
  5
16E
330
1F
100
AcDbEntity
  8
0
  6
Continuous
 62
     7
370
    15
100
AcDbLine
 10
145.5296788295
 20
240.7054218107
 30
0.0
 11
161.0998112868
 21
240.7054218107
 31
0.0
  0
LINE
  5
16F
330
1F
100
AcDbEntity
  8
0
  6
Continuous
 62
     7
370
    15
100
AcDbLine
 10
145.5296788295
 20
243.7054218107
 30
0.0
 11
161.0998112868
 21
243.7054218107
 31
0.0
  0
LINE
  5
170
330
1F
100
AcDbEntity
  8
0
  6
Continuous
 62
     7
370
    15
100
AcDbLine
 10
168.9084186759
 20
243.7054218107
 30
0.0
 11
168.9084186759
 21
240.7054218107
 31
0.0
  0
LINE
  5
171
330
1F
100
AcDbEntity
  8
0
  6
Continuous
 62
     7
370
    15
100
AcDbLine
 10
168.9084186759
 20
240.7054218107
 30
0.0
 11
161.0998112868
 21
240.7054218107
 31
0.0
  0
LINE
  5
172
330
1F
100
AcDbEntity
  8
0
  6
Continuous
 62
     7
370
    15
100
AcDbLine
 10
161.0998112868
 20
243.7054218107
 30
0.0
 11
168.9084186759
 21
243.7054218107
 31
0.0
  0
LINE
  5
173
330
1F
100
AcDbEntity
  8
0
  6
Continuous
 62
     7
370
    15
100
AcDbLine
 10
137.7210714404
 20
240.7054218107
 30
0.0
 11
137.7210714404
 21
243.7054218107
 31
0.0
  0
LINE
  5
174
330
1F
100
AcDbEntity
  8
0
  6
Continuous
 62
     7
370
    15
100
AcDbLine
 10
145.5296788295
 20
240.7054218107
 30
0.0
 11
137.7210714404
 21
240.7054218107
 31
0.0
  0
LINE
  5
175
330
1F
100
AcDbEntity
  8
0
  6
Continuous
 62
     7
370
    15
100
AcDbLine
 10
137.7210714404
 20
243.7054218107
 30
0.0
 11
145.5296788295
 21
243.7054218107
 31
0.0
  0
LINE
  5
176
330
1F
100
AcDbEntity
  8
0
  6
Continuous
 62
     7
370
    15
100
AcDbLine
 10
174.9038596262
 20
240.7054218107
 30
0.0
 11
174.9038596262
 21
243.7054218107
 31
0.0
  0
LINE
  5
177
330
1F
100
AcDbEntity
  8
0
  6
Continuous
 62
     7
370
    15
100
AcDbLine
 10
168.9084186759
 20
240.7054218107
 30
0.0
 11
174.9038596262
 21
240.7054218107
 31
0.0
  0
LINE
  5
178
330
1F
100
AcDbEntity
  8
0
  6
Continuous
 62
     7
370
    15
100
AcDbLine
 10
168.9084186759
 20
243.7054218107
 30
0.0
 11
174.9038596262
 21
243.7054218107
 31
0.0
  0
LINE
  5
179
330
1F
100
AcDbEntity
  8
0
  6
Continuous
 62
     7
370
    15
100
AcDbLine
 10
131.7256304901
 20
240.7054218107
 30
0.0
 11
131.7256304901
 21
243.7054218107
 31
0.0
  0
LINE
  5
17A
330
1F
100
AcDbEntity
  8
0
  6
Continuous
 62
     7
370
    15
100
AcDbLine
 10
137.7210714404
 20
240.7054218107
 30
0.0
 11
131.7256304901
 21
240.7054218107
 31
0.0
  0
LINE
  5
17B
330
1F
100
AcDbEntity
  8
0
  6
Continuous
 62
     7
370
    15
100
AcDbLine
 10
137.7210714404
 20
243.7054218107
 30
0.0
 11
131.7256304901
 21
243.7054218107
 31
0.0
  0
LINE
  5
17C
330
1F
100
AcDbEntity
  8
0
  6
Continuous
 62
     7
370
    15
100
AcDbLine
 10
123.9170231009
 20
240.7054218107
 30
0.0
 11
123.9170231009
 21
243.7054218107
 31
0.0
  0
LINE
  5
17D
330
1F
100
AcDbEntity
  8
0
  6
Continuous
 62
     7
370
    15
100
AcDbLine
 10
123.9170231009
 20
240.7054218107
 30
0.0
 11
131.7256304901
 21
240.7054218107
 31
0.0
  0
LINE
  5
17E
330
1F
100
AcDbEntity
  8
0
  6
Continuous
 62
     7
370
    15
100
AcDbLine
 10
123.9170231009
 20
243.7054218107
 30
0.0
 11
131.7256304901
 21
243.7054218107
 31
0.0
  0
LINE
  5
17F
330
1F
100
AcDbEntity
  8
0
  6
Continuous
 62
     7
370
    15
100
AcDbLine
 10
182.7124670154
 20
240.7054218107
 30
0.0
 11
182.7124670154
 21
243.7054218107
 31
0.0
  0
LINE
  5
180
330
1F
100
AcDbEntity
  8
0
  6
Continuous
 62
     7
370
    15
100
AcDbLine
 10
182.7124670154
 20
240.7054218107
 30
0.0
 11
174.9038596262
 21
240.7054218107
 31
0.0
  0
LINE
  5
181
330
1F
100
AcDbEntity
  8
0
  6
Continuous
 62
     7
370
    15
100
AcDbLine
 10
182.7124670154
 20
243.7054218107
 30
0.0
 11
174.9038596262
 21
243.7054218107
 31
0.0
  0
LINE
  5
182
330
1F
100
AcDbEntity
  8
0
  6
Continuous
 62
     7
370
    15
100
AcDbLine
 10
97.3147450581
 20
240.7054218107
 30
0.0
 11
97.3147450581
 21
243.7054218107
 31
0.0
  0
LINE
  5
183
330
1F
100
AcDbEntity
  8
0
  6
Continuous
 62
     7
370
    15
100
AcDbLine
 10
100.3147450581
 20
243.7054218107
 30
0.0
 11
100.3147450581
 21
240.7054218107
 31
0.0
  0
LINE
  5
184
330
1F
100
AcDbEntity
  8
0
  6
Continuous
 62
     7
370
    15
100
AcDbLine
 10
100.3147450581
 20
240.7054218107
 30
0.0
 11
97.3147450581
 21
240.7054218107
 31
0.0
  0
LINE
  5
185
330
1F
100
AcDbEntity
  8
0
  6
Continuous
 62
     7
370
    15
100
AcDbLine
 10
97.3147450581
 20
243.7054218107
 30
0.0
 11
100.3147450581
 21
243.7054218107
 31
0.0
  0
LINE
  5
186
330
1F
100
AcDbEntity
  8
0
  6
Continuous
 62
     7
370
    15
100
AcDbLine
 10
123.9170231009
 20
240.7054218107
 30
0.0
 11
100.3147450581
 21
240.7054218107
 31
0.0
  0
LINE
  5
187
330
1F
100
AcDbEntity
  8
0
  6
Continuous
 62
     7
370
    15
100
AcDbLine
 10
123.9170231009
 20
243.7054218107
 30
0.0
 11
100.3147450581
 21
243.7054218107
 31
0.0
  0
LINE
  5
188
330
1F
100
AcDbEntity
  8
0
  6
Continuous
 62
     7
370
    15
100
AcDbLine
 10
206.3147450581
 20
240.7054218107
 30
0.0
 11
206.3147450581
 21
243.7054218107
 31
0.0
  0
LINE
  5
189
330
1F
100
AcDbEntity
  8
0
  6
Continuous
 62
     7
370
    15
100
AcDbLine
 10
182.7124670154
 20
240.7054218107
 30
0.0
 11
206.3147450581
 21
240.7054218107
 31
0.0
  0
LINE
  5
18A
330
1F
100
AcDbEntity
  8
0
  6
Continuous
 62
     7
370
    15
100
AcDbLine
 10
182.7124670154
 20
243.7054218107
 30
0.0
 11
206.3147450581
 21
243.7054218107
 31
0.0
  0
LINE
  5
18B
330
1F
100
AcDbEntity
  8
0
  6
Continuous
 62
     7
370
    15
100
AcDbLine
 10
209.3147450581
 20
243.7054218107
 30
0.0
 11
209.3147450581
 21
240.7054218107
 31
0.0
  0
LINE
  5
18C
330
1F
100
AcDbEntity
  8
0
  6
Continuous
 62
     7
370
    15
100
AcDbLine
 10
209.3147450581
 20
240.7054218107
 30
0.0
 11
206.3147450581
 21
240.7054218107
 31
0.0
  0
LINE
  5
18D
330
1F
100
AcDbEntity
  8
0
  6
Continuous
 62
     7
370
    15
100
AcDbLine
 10
206.3147450581
 20
243.7054218107
 30
0.0
 11
209.3147450581
 21
243.7054218107
 31
0.0
  0
LINE
  5
18E
330
1F
100
AcDbEntity
  8
0
  6
Continuous
 62
     7
370
    15
100
AcDbLine
 10
209.3147450581
 20
245.7054218107
 30
0.0
 11
209.3147450581
 21
243.7054218107
 31
0.0
  0
LINE
  5
18F
330
1F
100
AcDbEntity
  8
0
  6
Continuous
 62
     7
370
    15
100
AcDbLine
 10
206.3147450581
 20
243.7054218107
 30
0.0
 11
206.3147450581
 21
245.7054218107
 31
0.0
  0
LINE
  5
190
330
1F
100
AcDbEntity
  8
0
  6
Continuous
 62
     7
370
    15
100
AcDbLine
 10
206.3147450581
 20
245.7054218107
 30
0.0
 11
209.3147450581
 21
245.7054218107
 31
0.0
  0
LINE
  5
191
330
1F
100
AcDbEntity
  8
0
  6
Continuous
 62
     7
370
    15
100
AcDbLine
 10
100.3147450581
 20
245.7054218107
 30
0.0
 11
100.3147450581
 21
243.7054218107
 31
0.0
  0
LINE
  5
192
330
1F
100
AcDbEntity
  8
0
  6
Continuous
 62
     7
370
    15
100
AcDbLine
 10
100.3147450581
 20
245.7054218107
 30
0.0
 11
206.3147450581
 21
245.7054218107
 31
0.0
  0
LINE
  5
193
330
1F
100
AcDbEntity
  8
0
  6
Continuous
 62
     7
370
    15
100
AcDbLine
 10
97.3147450581
 20
243.7054218107
 30
0.0
 11
97.3147450581
 21
245.7054218107
 31
0.0
  0
LINE
  5
194
330
1F
100
AcDbEntity
  8
0
  6
Continuous
 62
     7
370
    15
100
AcDbLine
 10
97.3147450581
 20
245.7054218107
 30
0.0
 11
100.3147450581
 21
245.7054218107
 31
0.0
  0
LINE
  5
195
330
1F
100
AcDbEntity
  8
0
  6
HIDDEN
 62
     7
370
     0
100
AcDbLine
 10
129.3147450581
 20
242.9054218107
 30
0.0
 11
125.3147450581
 21
242.9054218107
 31
0.0
  0
LINE
  5
196
330
1F
100
AcDbEntity
  8
0
  6
HIDDEN
 62
     7
370
     0
100
AcDbLine
 10
181.3147450581
 20
242.9054218107
 30
0.0
 11
177.3147450581
 21
242.9054218107
 31
0.0
  0
LINE
  5
197
330
1F
100
AcDbEntity
  8
0
  6
HIDDEN
 62
     7
370
     0
100
AcDbLine
 10
155.2743364835
 20
242.9054218107
 30
0.0
 11
151.2743364835
 21
242.9054218107
 31
0.0
  0
LINE
  5
198
330
1F
100
AcDbEntity
  8
0
  6
HIDDEN
 62
     7
370
     0
100
AcDbLine
 10
105.2339279089
 20
242.9054218107
 30
0.0
 11
101.2339279089
 21
242.9054218107
 31
0.0
  0
LINE
  5
199
330
1F
100
AcDbEntity
  8
0
  6
HIDDEN
 62
     7
370
     0
100
AcDbLine
 10
205.3147450581
 20
242.9054218107
 30
0.0
 11
201.3147450581
 21
242.9054218107
 31
0.0
  0
LINE
  5
19A
330
1F
100
AcDbEntity
  8
0
  6
HIDDEN
 62
     7
370
     0
100
AcDbLine
 10
101.2339279089
 20
242.9054218107
 30
0.0
 11
99.7339279089
 21
242.9054218107
 31
0.0
  0
LINE
  5
19B
330
1F
100
AcDbEntity
  8
0
  6
HIDDEN
 62
     7
370
     0
100
AcDbLine
 10
206.8147450581
 20
242.9054218107
 30
0.0
 11
205.3147450581
 21
242.9054218107
 31
0.0
  0
LINE
  5
19C
330
1F
100
AcDbEntity
  8
0
  6
HIDDEN
 62
     7
370
     0
100
AcDbLine
 10
125.3147450581
 20
242.9054218107
 30
0.0
 11
125.2339279089
 21
242.9054218107
 31
0.0
  0
LINE
  5
19D
330
1F
100
AcDbEntity
  8
0
  6
HIDDEN
 62
     7
370
     0
100
AcDbLine
 10
100.3147450581
 20
240.7054218107
 30
0.0
 11
100.3147450581
 21
243.7054218107
 31
0.0
  0
LINE
  5
19E
330
1F
100
AcDbEntity
  8
0
  6
HIDDEN
 62
     7
370
     0
100
AcDbLine
 10
206.3147450581
 20
243.7054218107
 30
0.0
 11
206.3147450581
 21
240.7054218107
 31
0.0
  0
LINE
  5
19F
330
1F
100
AcDbEntity
  8
0
  6
HIDDEN
 62
     7
370
     0
100
AcDbLine
 10
123.9170231009
 20
240.7054218107
 30
0.0
 11
123.9170231009
 21
243.7054218107
 31
0.0
  0
LINE
  5
1A0
330
1F
100
AcDbEntity
  8
0
  6
HIDDEN
 62
     7
370
     0
100
AcDbLine
 10
182.7124670154
 20
240.7054218107
 30
0.0
 11
182.7124670154
 21
243.7054218107
 31
0.0
  0
LINE
  5
1A1
330
1F
100
AcDbEntity
  8
0
  6
HIDDEN
 62
     7
370
     0
100
AcDbLine
 10
131.7256304901
 20
240.7054218107
 30
0.0
 11
131.7256304901
 21
243.7054218107
 31
0.0
  0
LINE
  5
1A2
330
1F
100
AcDbEntity
  8
0
  6
HIDDEN
 62
     7
370
     0
100
AcDbLine
 10
174.9038596262
 20
240.7054218107
 30
0.0
 11
174.9038596262
 21
243.7054218107
 31
0.0
  0
LINE
  5
1A3
330
1F
100
AcDbEntity
  8
0
  6
HIDDEN
 62
     7
370
     0
100
AcDbLine
 10
137.7210714404
 20
243.7054218107
 30
0.0
 11
137.7210714404
 21
240.7054218107
 31
0.0
  0
LINE
  5
1A4
330
1F
100
AcDbEntity
  8
0
  6
HIDDEN
 62
     7
370
     0
100
AcDbLine
 10
168.9084186759
 20
240.7054218107
 30
0.0
 11
168.9084186759
 21
243.7054218107
 31
0.0
  0
LINE
  5
1A5
330
1F
100
AcDbEntity
  8
0
  6
HIDDEN
 62
     7
370
     0
100
AcDbLine
 10
161.0998112868
 20
243.7054218107
 30
0.0
 11
161.0998112868
 21
240.7054218107
 31
0.0
  0
LINE
  5
1A6
330
1F
100
AcDbEntity
  8
0
  6
HIDDEN
 62
     7
370
     0
100
AcDbLine
 10
145.5296788295
 20
240.7054218107
 30
0.0
 11
145.5296788295
 21
243.7054218107
 31
0.0
  0
LINE
  5
1A7
330
1F
100
AcDbEntity
  8
0
  6
HIDDEN
 62
     7
370
     0
100
AcDbLine
 10
206.3147450581
 20
245.7054218107
 30
0.0
 11
206.3147450581
 21
243.7054218107
 31
0.0
  0
LINE
  5
1A8
330
1F
100
AcDbEntity
  8
0
  6
HIDDEN
 62
     7
370
     0
100
AcDbLine
 10
100.3147450581
 20
243.7054218107
 30
0.0
 11
100.3147450581
 21
245.7054218107
 31
0.0
  0
LINE
  5
1A9
330
1F
100
AcDbEntity
  8
0
  6
HIDDEN
 62
     7
370
     0
100
AcDbLine
 10
147.2147450581
 20
243.7054218107
 30
0.0
 11
150.2147450581
 21
240.7054218107
 31
0.0
  0
LINE
  5
1AA
330
1F
100
AcDbEntity
  8
0
  6
HIDDEN
 62
     7
370
     0
100
AcDbLine
 10
156.4147450581
 20
240.7054218107
 30
0.0
 11
159.4147450581
 21
243.7054218107
 31
0.0
  0
LINE
  5
1AB
330
1F
100
AcDbEntity
  8
0
  6
HIDDEN
 62
     7
370
     0
100
AcDbLine
 10
131.5147450581
 20
240.7054218107
 30
0.0
 11
129.3147450581
 21
242.9054218107
 31
0.0
  0
LINE
  5
1AC
330
1F
100
AcDbEntity
  8
0
  6
HIDDEN
 62
     7
370
     0
100
AcDbLine
 10
125.3147450581
 20
242.9054218107
 30
0.0
 11
123.1147450581
 21
240.7054218107
 31
0.0
  0
LINE
  5
1AD
330
1F
100
AcDbEntity
  8
0
  6
HIDDEN
 62
     7
370
     0
100
AcDbLine
 10
183.5147450581
 20
240.7054218107
 30
0.0
 11
181.3147450581
 21
242.9054218107
 31
0.0
  0
LINE
  5
1AE
330
1F
100
AcDbEntity
  8
0
  6
HIDDEN
 62
     7
370
     0
100
AcDbLine
 10
177.3147450581
 20
242.9054218107
 30
0.0
 11
175.1147450581
 21
240.7054218107
 31
0.0
  0
LINE
  5
1AF
330
1F
100
AcDbEntity
  8
0
  6
HIDDEN
 62
     7
370
     0
100
AcDbLine
 10
157.4743364835
 20
240.7054218107
 30
0.0
 11
155.2743364835
 21
242.9054218107
 31
0.0
  0
LINE
  5
1B0
330
1F
100
AcDbEntity
  8
0
  6
HIDDEN
 62
     7
370
     0
100
AcDbLine
 10
151.2743364835
 20
242.9054218107
 30
0.0
 11
149.0743364835
 21
240.7054218107
 31
0.0
  0
LINE
  5
1B1
330
1F
100
AcDbEntity
  8
0
  6
HIDDEN
 62
     7
370
     0
100
AcDbLine
 10
107.4339279089
 20
240.7054218107
 30
0.0
 11
105.2339279089
 21
242.9054218107
 31
0.0
  0
LINE
  5
1B2
330
1F
100
AcDbEntity
  8
0
  6
HIDDEN
 62
     7
370
     0
100
AcDbLine
 10
101.2339279089
 20
242.9054218107
 30
0.0
 11
99.0339279089
 21
240.7054218107
 31
0.0
  0
LINE
  5
1B3
330
1F
100
AcDbEntity
  8
0
  6
HIDDEN
 62
     7
370
     0
100
AcDbLine
 10
207.5147450581
 20
240.7054218107
 30
0.0
 11
205.3147450581
 21
242.9054218107
 31
0.0
  0
LINE
  5
1B4
330
1F
100
AcDbEntity
  8
0
  6
HIDDEN
 62
     7
370
     0
100
AcDbLine
 10
201.3147450581
 20
242.9054218107
 30
0.0
 11
199.1147450581
 21
240.7054218107
 31
0.0
  0
LINE
  5
1B5
330
1F
100
AcDbEntity
  8
0
  6
HIDDEN
 62
     7
370
     0
100
AcDbLine
 10
129.3147450581
 20
242.9054218107
 30
0.0
 11
129.3147450581
 21
243.7054218107
 31
0.0
  0
LINE
  5
1B6
330
1F
100
AcDbEntity
  8
0
  6
HIDDEN
 62
     7
370
     0
100
AcDbLine
 10
125.3147450581
 20
243.7054218107
 30
0.0
 11
125.3147450581
 21
242.9054218107
 31
0.0
  0
LINE
  5
1B7
330
1F
100
AcDbEntity
  8
0
  6
HIDDEN
 62
     7
370
     0
100
AcDbLine
 10
155.2743364835
 20
242.9054218107
 30
0.0
 11
155.2743364835
 21
243.7054218107
 31
0.0
  0
LINE
  5
1B8
330
1F
100
AcDbEntity
  8
0
  6
HIDDEN
 62
     7
370
     0
100
AcDbLine
 10
151.2743364835
 20
243.7054218107
 30
0.0
 11
151.2743364835
 21
242.9054218107
 31
0.0
  0
LINE
  5
1B9
330
1F
100
AcDbEntity
  8
0
  6
HIDDEN
 62
     7
370
     0
100
AcDbLine
 10
181.3147450581
 20
242.9054218107
 30
0.0
 11
181.3147450581
 21
243.7054218107
 31
0.0
  0
LINE
  5
1BA
330
1F
100
AcDbEntity
  8
0
  6
HIDDEN
 62
     7
370
     0
100
AcDbLine
 10
177.3147450581
 20
243.7054218107
 30
0.0
 11
177.3147450581
 21
242.9054218107
 31
0.0
  0
LINE
  5
1BB
330
1F
100
AcDbEntity
  8
0
  6
HIDDEN
 62
     7
370
     0
100
AcDbLine
 10
105.2339279089
 20
242.9054218107
 30
0.0
 11
105.2339279089
 21
243.7054218107
 31
0.0
  0
LINE
  5
1BC
330
1F
100
AcDbEntity
  8
0
  6
HIDDEN
 62
     7
370
     0
100
AcDbLine
 10
101.2339279089
 20
243.7054218107
 30
0.0
 11
101.2339279089
 21
242.9054218107
 31
0.0
  0
LINE
  5
1BD
330
1F
100
AcDbEntity
  8
0
  6
HIDDEN
 62
     7
370
     0
100
AcDbLine
 10
205.3147450581
 20
242.9054218107
 30
0.0
 11
205.3147450581
 21
243.7054218107
 31
0.0
  0
LINE
  5
1BE
330
1F
100
AcDbEntity
  8
0
  6
HIDDEN
 62
     7
370
     0
100
AcDbLine
 10
201.3147450581
 20
243.7054218107
 30
0.0
 11
201.3147450581
 21
242.9054218107
 31
0.0
  0
LINE
  5
1BF
330
1F
100
AcDbEntity
  8
0
  6
HIDDEN
 62
     7
370
     0
100
AcDbLine
 10
105.9339279089
 20
240.7054218107
 30
0.0
 11
103.7339279089
 21
242.9054218107
 31
0.0
  0
LINE
  5
1C0
330
1F
100
AcDbEntity
  8
0
  6
HIDDEN
 62
     7
370
     0
100
AcDbLine
 10
99.7339279089
 20
242.9054218107
 30
0.0
 11
97.5339279089
 21
240.7054218107
 31
0.0
  0
LINE
  5
1C1
330
1F
100
AcDbEntity
  8
0
  6
HIDDEN
 62
     7
370
     0
100
AcDbLine
 10
209.0147450581
 20
240.7054218107
 30
0.0
 11
206.8147450581
 21
242.9054218107
 31
0.0
  0
LINE
  5
1C2
330
1F
100
AcDbEntity
  8
0
  6
HIDDEN
 62
     7
370
     0
100
AcDbLine
 10
202.8147450581
 20
242.9054218107
 30
0.0
 11
200.6147450581
 21
240.7054218107
 31
0.0
  0
LINE
  5
1C3
330
1F
100
AcDbEntity
  8
0
  6
HIDDEN
 62
     7
370
     0
100
AcDbLine
 10
103.7339279089
 20
242.9054218107
 30
0.0
 11
103.7339279089
 21
243.7054218107
 31
0.0
  0
LINE
  5
1C4
330
1F
100
AcDbEntity
  8
0
  6
HIDDEN
 62
     7
370
     0
100
AcDbLine
 10
99.7339279089
 20
243.7054218107
 30
0.0
 11
99.7339279089
 21
242.9054218107
 31
0.0
  0
LINE
  5
1C5
330
1F
100
AcDbEntity
  8
0
  6
HIDDEN
 62
     7
370
     0
100
AcDbLine
 10
206.8147450581
 20
242.9054218107
 30
0.0
 11
206.8147450581
 21
243.7054218107
 31
0.0
  0
LINE
  5
1C6
330
1F
100
AcDbEntity
  8
0
  6
HIDDEN
 62
     7
370
     0
100
AcDbLine
 10
202.8147450581
 20
243.7054218107
 30
0.0
 11
202.8147450581
 21
242.9054218107
 31
0.0
  0
LINE
  5
1C7
330
1F
100
AcDbEntity
  8
0
  6
HIDDEN
 62
     7
370
     0
100
AcDbLine
 10
131.4339279089
 20
240.7054218107
 30
0.0
 11
129.2339279089
 21
242.9054218107
 31
0.0
  0
LINE
  5
1C8
330
1F
100
AcDbEntity
  8
0
  6
HIDDEN
 62
     7
370
     0
100
AcDbLine
 10
125.2339279089
 20
242.9054218107
 30
0.0
 11
123.0339279089
 21
240.7054218107
 31
0.0
  0
LINE
  5
1C9
330
1F
100
AcDbEntity
  8
0
  6
HIDDEN
 62
     7
370
     0
100
AcDbLine
 10
129.2339279089
 20
242.9054218107
 30
0.0
 11
129.2339279089
 21
243.7054218107
 31
0.0
  0
LINE
  5
1CA
330
1F
100
AcDbEntity
  8
0
  6
HIDDEN
 62
     7
370
     0
100
AcDbLine
 10
125.2339279089
 20
243.7054218107
 30
0.0
 11
125.2339279089
 21
242.9054218107
 31
0.0
  0
LINE
  5
1CB
330
1F
100
AcDbEntity
  8
0
  6
HIDDEN
 62
     7
370
     0
100
AcDbLine
 10
147.4650029068
 20
243.7054218107
 30
0.0
 11
150.4650029068
 21
240.7054218107
 31
0.0
  0
LINE
  5
1CC
330
1F
100
AcDbEntity
  8
0
  6
HIDDEN
 62
     7
370
     0
100
AcDbLine
 10
156.1644872095
 20
240.7054218107
 30
0.0
 11
159.1644872095
 21
243.7054218107
 31
0.0
  0
LINE
  5
1CD
330
1F
100
AcDbEntity
  8
0
  6
HIDDEN
 62
     7
370
     0
100
AcDbLine
 10
177.2647450581
 20
245.7054218107
 30
0.0
 11
177.2647450581
 21
243.7054218107
 31
0.0
  0
LINE
  5
1CE
330
1F
100
AcDbEntity
  8
0
  6
HIDDEN
 62
     7
370
     0
100
AcDbLine
 10
181.3647450581
 20
243.7054218107
 30
0.0
 11
181.3647450581
 21
245.7054218107
 31
0.0
  0
LINE
  5
1CF
330
1F
100
AcDbEntity
  8
0
  6
HIDDEN
 62
     7
370
     0
100
AcDbLine
 10
151.2243364835
 20
245.7054218107
 30
0.0
 11
151.2243364835
 21
243.7054218107
 31
0.0
  0
LINE
  5
1D0
330
1F
100
AcDbEntity
  8
0
  6
HIDDEN
 62
     7
370
     0
100
AcDbLine
 10
155.3243364835
 20
243.7054218107
 30
0.0
 11
155.3243364835
 21
245.7054218107
 31
0.0
  0
LINE
  5
1D1
330
1F
100
AcDbEntity
  8
0
  6
HIDDEN
 62
     7
370
     0
100
AcDbLine
 10
125.2647450581
 20
245.7054218107
 30
0.0
 11
125.2647450581
 21
243.7054218107
 31
0.0
  0
LINE
  5
1D2
330
1F
100
AcDbEntity
  8
0
  6
HIDDEN
 62
     7
370
     0
100
AcDbLine
 10
129.3647450581
 20
243.7054218107
 30
0.0
 11
129.3647450581
 21
245.7054218107
 31
0.0
  0
LINE
  5
1D3
330
1F
100
AcDbEntity
  8
0
  6
HIDDEN
 62
     7
370
     0
100
AcDbLine
 10
101.1839279089
 20
245.7054218107
 30
0.0
 11
101.1839279089
 21
243.7054218107
 31
0.0
  0
LINE
  5
1D4
330
1F
100
AcDbEntity
  8
0
  6
HIDDEN
 62
     7
370
     0
100
AcDbLine
 10
105.2839279089
 20
243.7054218107
 30
0.0
 11
105.2839279089
 21
245.7054218107
 31
0.0
  0
LINE
  5
1D5
330
1F
100
AcDbEntity
  8
0
  6
HIDDEN
 62
     7
370
     0
100
AcDbLine
 10
201.2647450581
 20
245.7054218107
 30
0.0
 11
201.2647450581
 21
243.7054218107
 31
0.0
  0
LINE
  5
1D6
330
1F
100
AcDbEntity
  8
0
  6
HIDDEN
 62
     7
370
     0
100
AcDbLine
 10
205.3647450581
 20
243.7054218107
 30
0.0
 11
205.3647450581
 21
245.7054218107
 31
0.0
  0
LINE
  5
1D7
330
1F
100
AcDbEntity
  8
0
  6
HIDDEN
 62
     7
370
     0
100
AcDbLine
 10
99.6839279089
 20
245.7054218107
 30
0.0
 11
99.6839279089
 21
243.7054218107
 31
0.0
  0
LINE
  5
1D8
330
1F
100
AcDbEntity
  8
0
  6
HIDDEN
 62
     7
370
     0
100
AcDbLine
 10
103.7839279089
 20
243.7054218107
 30
0.0
 11
103.7839279089
 21
245.7054218107
 31
0.0
  0
LINE
  5
1D9
330
1F
100
AcDbEntity
  8
0
  6
HIDDEN
 62
     7
370
     0
100
AcDbLine
 10
202.7647450581
 20
245.7054218107
 30
0.0
 11
202.7647450581
 21
243.7054218107
 31
0.0
  0
LINE
  5
1DA
330
1F
100
AcDbEntity
  8
0
  6
HIDDEN
 62
     7
370
     0
100
AcDbLine
 10
206.8647450581
 20
243.7054218107
 30
0.0
 11
206.8647450581
 21
245.7054218107
 31
0.0
  0
LINE
  5
1DB
330
1F
100
AcDbEntity
  8
0
  6
HIDDEN
 62
     7
370
     0
100
AcDbLine
 10
125.1839279089
 20
245.7054218107
 30
0.0
 11
125.1839279089
 21
243.7054218107
 31
0.0
  0
LINE
  5
1DC
330
1F
100
AcDbEntity
  8
0
  6
HIDDEN
 62
     7
370
     0
100
AcDbLine
 10
129.2839279089
 20
243.7054218107
 30
0.0
 11
129.2839279089
 21
245.7054218107
 31
0.0
  0
DIMENSION
  5
1DD
330
1F
100
AcDbEntity
  8
0
  6
Continuous
 62
     7
370
     0
100
AcDbDimension
  2
_D_6
 10
92.2168080848
 20
240.7054218107
 30
0.0
 11
92.2168080848
 21
243.1845722329
 31
0.0
 70
   160
  1
<>
 71
     2
 42
-1.0
  3
SLDDIMSTYLE1
100
AcDbAlignedDimension
 13
97.3147450581
 23
245.7054218107
 33
0.0
 14
97.3147450581
 24
240.7054218107
 34
0.0
 50
90.0
100
AcDbRotatedDimension
  0
DIMENSION
  5
1E9
330
1F
100
AcDbEntity
  8
0
  6
Continuous
 62
     7
370
     0
100
AcDbDimension
  2
_D_7
 10
214.678772091
 20
243.7054218107
 30
0.0
 11
214.678772091
 21
252.8690642845
 31
0.0
 70
   160
  1
<>
 71
     2
 42
-1.0
  3
SLDDIMSTYLE1
100
AcDbAlignedDimension
 13
209.3147450581
 23
245.7054218107
 33
0.0
 14
209.3147450581
 24
243.7054218107
 34
0.0
 50
90.0
100
AcDbRotatedDimension
  0
DIMENSION
  5
1F5
330
1F
100
AcDbEntity
  8
0
  6
Continuous
 62
     7
370
     0
100
AcDbDimension
  2
_D_8
 10
193.0005414162
 20
240.7054218107
 30
0.0
 11
193.0005414162
 21
233.2814981226
 31
0.0
 70
   160
  1
<>
 71
     2
 42
-1.0
  3
SLDDIMSTYLE1
100
AcDbAlignedDimension
 13
181.3147450581
 23
242.9054218107
 33
0.0
 14
209.3147450581
 24
240.7054218107
 34
0.0
 50
90.0
100
AcDbRotatedDimension
  0
DIMENSION
  5
200
330
1F
100
AcDbEntity
  8
0
  6
Continuous
 62
     7
370
     0
100
AcDbDimension
  2
_D_9
 10
183.5147450581
 20
232.5003853617
 30
0.0
 11
163.7443180055
 21
232.5003853617
 31
0.0
 70
   160
  1
%%c<>
 71
     2
 42
-1.0
  3
SLDDIMSTYLE0
100
AcDbAlignedDimension
 13
175.1147450581
 23
240.7054218107
 33
0.0
 14
183.5147450581
 24
240.7054218107
 34
0.0
100
AcDbRotatedDimension
  0
LINE
  5
20C
330
1F
100
AcDbEntity
  8
0
  6
Continuous
 62
     7
370
    15
100
AcDbLine
 10
314.993943064
 20
234.3506714705
 30
0.0
 11
312.8726227204
 21
233.1260593027
 31
0.0
  0
LINE
  5
20D
330
1F
100
AcDbEntity
  8
0
  6
Continuous
 62
     7
370
    15
100
AcDbLine
 10
362.3536270077
 20
138.2637750626
 30
0.0
 11
364.4749473513
 21
139.4883872304
 31
0.0
  0
LINE
  5
20E
330
1F
100
AcDbEntity
  8
0
  6
Continuous
 62
     7
370
    15
100
AcDbLine
 10
286.5218723476
 20
240.2129222919
 30
0.0
 11
284.400552004
 21
238.9883101242
 31
0.0
  0
LINE
  5
20F
330
1F
100
AcDbEntity
  8
0
  6
Continuous
 62
     7
370
    15
100
AcDbLine
 10
333.8815562913
 20
144.1260258841
 30
0.0
 11
336.0028766349
 21
145.3506380518
 31
0.0
  0
LINE
  5
210
330
1F
100
AcDbEntity
  8
0
  6
Continuous
 62
     7
370
    15
100
AcDbLine
 10
360.9394134453
 20
137.4473669508
 30
0.0
 11
362.3536270077
 21
138.2637750626
 31
0.0
  0
LINE
  5
211
330
1F
100
AcDbEntity
  8
0
  6
Continuous
 62
     7
370
    15
100
AcDbLine
 10
284.400552004
 20
238.9883101242
 30
0.0
 11
282.9863384416
 21
238.1719020124
 31
0.0
  0
ARC
  5
212
330
1F
100
AcDbEntity
  8
0
  6
Continuous
 62
     7
370
    15
100
AcDbCircle
 10
305.4353799486
 20
232.9509263431
 30
0.0
 40
4.704010099852213
100
AcDbArc
 50
232.7758561272
 51
304.6704285619
  0
LINE
  5
213
330
1F
100
AcDbEntity
  8
0
  6
Continuous
 62
     7
370
    15
100
AcDbLine
 10
312.3506971471
 20
232.7540482722
 30
0.0
 11
308.1112801949
 21
229.0821708725
 31
0.0
  0
ARC
  5
214
330
1F
100
AcDbEntity
  8
0
  6
Continuous
 62
     7
370
    15
100
AcDbCircle
 10
315.0265973934
 20
228.8852928016
 30
0.0
 40
4.704010099852455
100
AcDbArc
 50
52.7758561272
 51
124.6704285619
  0
LINE
  5
215
330
1F
100
AcDbEntity
  8
0
  6
Continuous
 62
     7
370
    15
100
AcDbLine
 10
328.8819626281
 20
226.2751875776
 30
0.0
 11
317.8722163836
 21
232.6309787978
 31
0.0
  0
ARC
  5
216
330
1F
100
AcDbEntity
  8
0
  6
Continuous
 62
     7
370
    15
100
AcDbCircle
 10
320.9342969679
 20
213.6918699039
 30
0.0
 40
14.88305321914252
100
AcDbArc
 50
25.1765202651
 51
57.7233560077
  0
LINE
  5
217
330
1F
100
AcDbEntity
  8
0
  6
Continuous
 62
     7
370
    15
100
AcDbLine
 10
334.4034818646
 20
220.0232466375
 30
0.0
 11
338.6428988168
 21
211.4566426121
 31
0.0
  0
ARC
  5
218
330
1F
100
AcDbEntity
  8
0
  6
Continuous
 62
     7
370
    15
100
AcDbCircle
 10
352.1120837135
 20
217.7880193456
 30
0.0
 40
14.88305321914279
100
AcDbArc
 50
205.1765202651
 51
237.7233560077
  0
LINE
  5
219
330
1F
100
AcDbEntity
  8
0
  6
Continuous
 62
     7
370
    15
100
AcDbLine
 10
344.1644180533
 20
205.2047016719
 30
0.0
 11
360.8537489087
 21
195.5701560461
 31
0.0
  0
ARC
  5
21A
330
1F
100
AcDbEntity
  8
0
  6
Continuous
 62
     7
370
    15
100
AcDbCircle
 10
358.3694209482
 20
191.6863388859
 30
0.0
 40
4.610414422716469
100
AcDbArc
 50
2.6054784857
 51
57.39452166
  0
LINE
  5
21B
330
1F
100
AcDbEntity
  8
0
  6
Continuous
 62
     7
370
    15
100
AcDbLine
 10
362.9750692523
 20
139.637309482
 30
0.0
 11
362.9750692523
 21
191.8959214427
 31
0.0
  0
ARC
  5
21C
330
1F
100
AcDbEntity
  8
0
  6
Continuous
 62
     7
370
    15
100
AcDbCircle
 10
361.5050635453
 20
139.47504927
 30
0.0
 40
1.478933789971305
100
AcDbArc
 50
305.0133328741
 51
6.2988475192
  0
ARC
  5
21D
330
1F
100
AcDbEntity
  8
0
  6
Continuous
 62
     7
370
    15
100
AcDbCircle
 10
340.8525290099
 20
145.6190924374
 30
0.0
 40
3.374782635710192
100
AcDbArc
 50
106.0040450063
 51
130.9005000882
  0
LINE
  5
21E
330
1F
100
AcDbEntity
  8
0
  6
Continuous
 62
     7
370
    15
100
AcDbLine
 10
334.4034818646
 20
144.4980369147
 30
0.0
 11
338.6428988168
 21
148.1699143143
 31
0.0
  0
ARC
  5
21F
330
1F
100
AcDbEntity
  8
0
  6
Continuous
 62
     7
370
    15
100
AcDbCircle
 10
331.7275816183
 20
148.3667923853
 30
0.0
 40
4.70401009985226
100
AcDbArc
 50
232.7758561272
 51
304.6704285619
  0
LINE
  5
220
330
1F
100
AcDbEntity
  8
0
  6
Continuous
 62
     7
370
    15
100
AcDbLine
 10
317.8722163836
 20
150.9768976092
 30
0.0
 11
328.8819626281
 21
144.6211063891
 31
0.0
  0
ARC
  5
221
330
1F
100
AcDbEntity
  8
0
  6
Continuous
 62
     7
370
    15
100
AcDbCircle
 10
325.8198820438
 20
163.5602152829
 30
0.0
 40
14.88305321914268
100
AcDbArc
 50
205.1765202651
 51
237.7233560077
  0
LINE
  5
222
330
1F
100
AcDbEntity
  8
0
  6
Continuous
 62
     7
370
    15
100
AcDbLine
 10
312.3506971471
 20
157.2288385494
 30
0.0
 11
308.1112801949
 21
165.7954425748
 31
0.0
  0
ARC
  5
223
330
1F
100
AcDbEntity
  8
0
  6
Continuous
 62
     7
370
    15
100
AcDbCircle
 10
292.6529211669
 20
158.1453343187
 30
0.0
 40
17.24775406161078
100
AcDbArc
 50
26.3301122723
 51
34.7056260298
  0
ARC
  5
224
330
1F
100
AcDbEntity
  8
0
  6
Continuous
 62
     7
370
    15
100
AcDbCircle
 10
285.0216699384
 20
237.6131419854
 30
0.0
 40
1.508931707705389
100
AcDbArc
 50
54.3824225248
 51
114.3071190461
  0
LINE
  5
225
330
1F
100
AcDbEntity
  8
0
  6
Continuous
 62
     7
370
    15
100
AcDbLine
 10
302.5897609585
 20
229.2052403469
 30
0.0
 11
285.900430103
 21
238.8397859727
 31
0.0
  0
ARC
  5
226
330
1F
100
AcDbEntity
  8
0
  6
Continuous
 62
     7
370
    15
100
AcDbCircle
 10
289.5643069294
 20
233.6724076127
 30
0.0
 40
3.014196707174894
100
AcDbArc
 50
181.2593632087
 51
238.7352602594
  0
ARC
  5
227
330
1F
100
AcDbEntity
  8
0
  6
Continuous
 62
     7
370
    15
100
AcDbCircle
 10
306.5348696779
 20
225.1003214887
 30
0.0
 40
3.01419670718101
100
AcDbArc
 50
181.2593632089
 51
238.735260259
  0
ARC
  5
228
330
1F
100
AcDbEntity
  8
0
  6
Continuous
 62
     7
370
    15
100
AcDbCircle
 10
324.9482191662
 20
214.4705210911
 30
0.0
 40
3.014196707509419
100
AcDbArc
 50
181.2593632241
 51
238.7352602429
  0
ARC
  5
229
330
1F
100
AcDbEntity
  8
0
  6
Continuous
 62
     7
370
    15
100
AcDbCircle
 10
343.361568654
 20
203.8407206932
 30
0.0
 40
3.01419670727847
100
AcDbArc
 50
181.2593632134
 51
238.7352602542
  0
ARC
  5
22A
330
1F
100
AcDbEntity
  8
0
  6
Continuous
 62
     7
370
    15
100
AcDbCircle
 10
360.3321314026
 20
192.8190121336
 30
0.0
 40
3.014196707451135
100
AcDbArc
 50
181.2593632214
 51
238.7352602458
  0
ARC
  5
22B
330
1F
100
AcDbEntity
  8
0
  6
Continuous
 62
     7
370
    15
100
AcDbCircle
 10
361.3927915744
 20
178.3255122477
 30
0.0
 40
3.014196707439703
100
AcDbArc
 50
181.2593632209
 51
238.7352602464
  0
ARC
  5
22C
330
1F
100
AcDbEntity
  8
0
  6
Continuous
 62
     7
370
    15
100
AcDbCircle
 10
361.3927915743
 20
158.7285327623
 30
0.0
 40
3.014196707293777
100
AcDbArc
 50
181.259363214
 51
238.7352602534
  0
ARC
  5
22D
330
1F
100
AcDbEntity
  8
0
  6
Continuous
 62
     7
370
    15
100
AcDbCircle
 10
360.3321314026
 20
145.4596450442
 30
0.0
 40
3.014196707377799
100
AcDbArc
 50
181.259363218
 51
238.7352602494
  0
ARC
  5
22E
330
1F
100
AcDbEntity
  8
0
  6
Continuous
 62
     7
370
    15
100
AcDbCircle
 10
343.3615686543
 20
154.0317311683
 30
0.0
 40
3.01419670759738
100
AcDbArc
 50
181.2593632282
 51
238.7352602388
  0
ARC
  5
22F
330
1F
100
AcDbEntity
  8
0
  6
Continuous
 62
     7
370
    15
100
AcDbCircle
 10
324.9482191659
 20
164.6615315659
 30
0.0
 40
3.014196707128815
100
AcDbArc
 50
181.2593632063
 51
238.7352602614
  0
ARC
  5
230
330
1F
100
AcDbEntity
  8
0
  6
Continuous
 62
     7
370
    15
100
AcDbCircle
 10
306.5920160323
 20
175.2583420755
 30
0.0
 40
3.014196707207666
100
AcDbArc
 50
181.25936321
 51
238.7352602576
  0
ARC
  5
231
330
1F
100
AcDbEntity
  8
0
  6
Continuous
 62
     7
370
    15
100
AcDbCircle
 10
289.564306929
 20
186.3130405231
 30
0.0
 40
3.014196706701872
100
AcDbArc
 50
181.2593631865
 51
238.7352602822
  0
ARC
  5
232
330
1F
100
AcDbEntity
  8
0
  6
Continuous
 62
     7
370
    15
100
AcDbCircle
 10
288.5036467581
 20
200.8065404095
 30
0.0
 40
3.014196707647889
100
AcDbArc
 50
181.2593632305
 51
238.7352602362
  0
ARC
  5
233
330
1F
100
AcDbEntity
  8
0
  6
Continuous
 62
     7
370
    15
100
AcDbCircle
 10
288.503646758
 20
220.4035198947
 30
0.0
 40
3.014196707577294
100
AcDbArc
 50
181.2593632272
 51
238.7352602396
  0
LWPOLYLINE
  5
234
330
1F
100
AcDbEntity
  8
0
  6
Continuous
 62
     7
370
    15
100
AcDbPolyline
 90
       42
 70
   128
 43
0.0
 10
327.5134818493
 20
220.5328682204
 10
327.4650050839
 20
219.8317158335
 10
327.3207110422
 20
219.2029679462
 10
327.0839818541
 20
218.661361876
 10
326.7603662512
 20
218.2195924103
 10
326.3574495089
 20
217.8880142508
 10
325.8846756542
 20
217.6743993086
 10
325.3531261054
 20
217.5837545368
 10
324.7752599336
 20
217.6182045722
 10
324.1646218321
 20
217.776941935
 10
323.5355246402
 20
218.0562459561
 10
322.9027138631
 20
218.4495699858
 10
322.281022049
 20
218.9476948424
 10
321.6850211271
 20
219.5389449013
 10
321.1286808539
 20
220.2094617623
 10
320.6250413738
 20
220.9435290785
 10
320.1859075694
 20
221.7239409341
 10
319.8215723649
 20
222.5324051368
 10
319.5405754686
 20
223.3499719708
 10
319.3495032097
 20
224.1574783624
 10
319.25283416
 20
224.9359970463
 10
319.25283416
 20
225.6672802043
 10
319.3495032097
 20
226.3341871791
 10
319.5405754686
 20
226.9210862364
 10
319.8215723649
 20
227.4142209596
 10
320.1859075694
 20
227.802032689
 10
320.6250413738
 20
228.0754314461
 10
321.1286808539
 20
228.228008996
 10
321.6850211271
 20
228.2561890501
 10
322.281022049
 20
228.1593110918
 10
322.9027138631
 20
227.9396458584
 10
323.5355246402
 20
227.6023421167
 10
324.1646218321
 20
227.1553059807
 10
324.7752599336
 20
226.6090155983
 10
325.3531261054
 20
225.9762755533
 10
325.8846756542
 20
225.2719167359
 10
326.3574495089
 20
224.5124487198
 10
326.7603662512
 20
223.7156727917
 10
327.0839818541
 20
222.9002647039
 10
327.3207110422
 20
222.085336931
 10
327.4650050839
 20
221.2899906892
 10
327.5134818493
 20
220.5328682204
  0
LWPOLYLINE
  5
235
330
1F
100
AcDbEntity
  8
0
  6
Continuous
 62
     7
370
    15
100
AcDbPolyline
 90
       29
 70
   128
 43
0.0
 10
327.6904408711
 20
151.8412837532
 10
327.6422643001
 20
151.1267310281
 10
327.4988107723
 20
150.483763715
 10
327.2632848023
 20
149.9267446412
 10
326.9409476511
 20
149.4681166922
 10
326.538999798
 20
149.1181248588
 10
326.0664200939
 20
148.8845873799
 10
325.5337651885
 20
148.7727210971
 10
324.9529337121
 20
148.7850249183
 10
324.3369004801
 20
148.9212239963
 10
323.6994266571
 20
149.1782758689
 10
323.0547523547
 20
149.5504384219
 10
322.4172785316
 20
150.029398159
 10
321.8012452996
 20
150.6044559111
 10
321.2204138232
 20
151.2627658382
 10
320.6877589178
 20
151.9896223844
 10
320.2151792137
 20
152.7687887755
 10
319.8132313606
 20
153.5828597219
 10
319.4908942095
 20
154.4136502239
 10
319.2553682394
 20
155.2426017945
 10
319.1119147116
 20
156.0511970254
 10
319.0637381406
 20
156.8213732353
 10
319.1119147116
 20
157.5359259603
 10
319.2553682394
 20
158.1788932734
 10
319.4908942095
 20
158.7359123473
 10
319.8132313606
 20
159.1945402962
 10
320.2151792137
 20
159.5445321297
 10
320.6877589178
 20
159.7780696085
 10
320.9065885854
 20
159.8404877779
  0
ARC
  5
236
330
1F
100
AcDbEntity
  8
0
  6
Continuous
 62
     7
370
    15
100
AcDbCircle
 10
318.5686760471
 20
151.4785165857
 30
0.0
 40
9.128975491341393
100
AcDbArc
 50
2.2774189562
 51
37.122985996
  0
LINE
  5
237
330
1F
100
AcDbEntity
  8
0
  6
Continuous
 62
     7
370
    15
100
AcDbLine
 10
365.0963895959
 20
193.1205336105
 30
0.0
 11
362.9750692523
 21
191.8959214427
 31
0.0
  0
LINE
  5
238
330
1F
100
AcDbEntity
  8
0
  6
Continuous
 62
     7
370
    15
100
AcDbLine
 10
360.8537489087
 20
195.5701560461
 30
0.0
 11
362.9750692523
 21
196.7947682139
 31
0.0
  0
ARC
  5
239
330
1F
100
AcDbEntity
  8
0
  6
Continuous
 62
     7
370
    15
100
AcDbCircle
 10
360.4907412918
 20
192.9109510537
 30
0.0
 40
4.610414422716117
100
AcDbArc
 50
2.6054784857
 51
57.39452166
  0
LINE
  5
23A
330
1F
100
AcDbEntity
  8
0
  6
Continuous
 62
     7
370
    15
100
AcDbLine
 10
362.9750692523
 20
139.637309482
 30
0.0
 11
365.0963895959
 21
140.8619216498
 31
0.0
  0
LINE
  5
23B
330
1F
100
AcDbEntity
  8
0
  6
Continuous
 62
     7
370
    15
100
AcDbLine
 10
365.0963895959
 20
140.8619216498
 30
0.0
 11
365.0963895959
 21
193.1205336105
 31
0.0
  0
LINE
  5
23C
330
1F
100
AcDbEntity
  8
0
  6
Continuous
 62
     7
370
    15
100
AcDbLine
 10
346.2857383968
 20
206.4293138397
 30
0.0
 11
344.1644180533
 21
205.2047016719
 31
0.0
  0
LINE
  5
23D
330
1F
100
AcDbEntity
  8
0
  6
Continuous
 62
     7
370
    15
100
AcDbLine
 10
346.2857383968
 20
206.4293138397
 30
0.0
 11
362.9750692523
 21
196.7947682139
 31
0.0
  0
LWPOLYLINE
  5
23E
330
1F
100
AcDbEntity
  8
0
  6
Continuous
 62
     7
370
    15
100
AcDbPolyline
 90
        3
 70
   128
 43
0.0
 10
358.5337914255
 20
191.2892927543
 10
358.2981139901
 20
191.644611209
 10
358.1081112095
 20
192.026672413
  0
LWPOLYLINE
  5
23F
330
1F
100
AcDbEntity
  8
0
  6
Continuous
 62
     7
370
    15
100
AcDbPolyline
 90
        3
 70
   128
 43
0.0
 10
359.5944515974
 20
176.7957928683
 10
359.3587741619
 20
177.151111323
 10
359.1687713812
 20
177.5331725271
  0
LINE
  5
240
330
1F
100
AcDbEntity
  8
0
  6
Continuous
 62
     7
370
    15
100
AcDbLine
 10
340.7642191603
 20
212.6812547798
 30
0.0
 11
338.6428988168
 21
211.4566426121
 31
0.0
  0
ARC
  5
241
330
1F
100
AcDbEntity
  8
0
  6
Continuous
 62
     7
370
    15
100
AcDbCircle
 10
354.233404057
 20
219.0126315134
 30
0.0
 40
14.88305321914144
100
AcDbArc
 50
205.1765202651
 51
237.7233560077
  0
LINE
  5
242
330
1F
100
AcDbEntity
  8
0
  6
Continuous
 62
     7
370
    15
100
AcDbLine
 10
336.5248022082
 20
221.2478588052
 30
0.0
 11
334.4034818646
 21
220.0232466375
 31
0.0
  0
LINE
  5
243
330
1F
100
AcDbEntity
  8
0
  6
Continuous
 62
     7
370
    15
100
AcDbLine
 10
336.5248022082
 20
221.2478588052
 30
0.0
 11
340.7642191603
 21
212.6812547798
 31
0.0
  0
LINE
  5
244
330
1F
100
AcDbEntity
  8
0
  6
Continuous
 62
     7
370
    15
100
AcDbLine
 10
328.8819626281
 20
226.2751875776
 30
0.0
 11
331.0032829717
 21
227.4997997454
 31
0.0
  0
ARC
  5
245
330
1F
100
AcDbEntity
  8
0
  6
Continuous
 62
     7
370
    15
100
AcDbCircle
 10
323.0556173115
 20
214.9164820717
 30
0.0
 40
14.88305321914278
100
AcDbArc
 50
25.1765202651
 51
57.7233560077
  0
LWPOLYLINE
  5
246
330
1F
100
AcDbEntity
  8
0
  6
Continuous
 62
     7
370
    15
100
AcDbPolyline
 90
        3
 70
   128
 43
0.0
 10
341.563228677
 20
202.311001314
 10
341.3275512417
 20
202.6663197687
 10
341.137548461
 20
203.0483809727
  0
LINE
  5
247
330
1F
100
AcDbEntity
  8
0
  6
Continuous
 62
     7
370
    15
100
AcDbLine
 10
319.9935367271
 20
233.8555909655
 30
0.0
 11
317.8722163836
 21
232.6309787978
 31
0.0
  0
LINE
  5
248
330
1F
100
AcDbEntity
  8
0
  6
Continuous
 62
     7
370
    15
100
AcDbLine
 10
331.0032829717
 20
227.4997997454
 30
0.0
 11
319.9935367271
 21
233.8555909655
 31
0.0
  0
LWPOLYLINE
  5
249
330
1F
100
AcDbEntity
  8
0
  6
Continuous
 62
     7
370
    15
100
AcDbPolyline
 90
       20
 70
   128
 43
0.0
 10
324.63346577
 20
226.746355119
 10
324.6241028755
 20
226.7465877144
 10
324.2420330075
 20
226.6899275064
 10
323.9229631205
 20
226.5056725027
 10
323.682892711
 20
226.2030620186
 10
323.5338599117
 20
225.7972702073
 10
323.4833378496
 20
225.3086451648
 10
323.5338599117
 20
224.761688591
 10
323.682892711
 20
224.1838271723
 10
323.9229631205
 20
223.6040372933
 10
324.2420330075
 20
223.0513920395
 10
324.6241028755
 20
222.5536033515
 10
325.050014146
 20
222.1356324328
 10
325.4984098494
 20
221.8184380904
 10
325.9468055528
 20
221.6179257733
 10
326.3727168233
 20
221.5441500063
 10
326.7547866913
 20
221.6008102143
 10
327.0738565783
 20
221.785065218
 10
327.3139269879
 20
222.0876757021
 10
327.3182656499
 20
222.0956414044
  0
LWPOLYLINE
  5
24A
330
1F
100
AcDbEntity
  8
0
  6
Continuous
 62
     7
370
    15
100
AcDbPolyline
 90
        3
 70
   128
 43
0.0
 10
359.5944515974
 20
157.198813383
 10
359.3587741619
 20
157.5541318378
 10
359.1687713812
 20
157.9361930419
  0
ARC
  5
24B
330
1F
100
AcDbEntity
  8
0
  6
Continuous
 62
     7
370
    15
100
AcDbCircle
 10
317.0772795013
 20
229.8974864247
 30
0.0
 40
4.916416150340497
100
AcDbArc
 50
53.6179079275
 51
115.0716336434
  0
LWPOLYLINE
  5
24C
330
1F
100
AcDbEntity
  8
0
  6
Continuous
 62
     7
370
    15
100
AcDbPolyline
 90
        3
 70
   128
 43
0.0
 10
323.1498791895
 20
212.9408017112
 10
322.9142017537
 20
213.2961201664
 10
322.7241989727
 20
213.678181371
  0
LWPOLYLINE
  5
24D
330
1F
100
AcDbEntity
  8
0
  6
Continuous
 62
     7
370
    15
100
AcDbPolyline
 90
        3
 70
   128
 43
0.0
 10
358.5337914254
 20
143.9299256651
 10
358.2981139901
 20
144.2852441196
 10
358.1081112095
 20
144.6673053234
  0
ARC
  5
24E
330
1F
100
AcDbEntity
  8
0
  6
Continuous
 62
     7
370
    15
100
AcDbCircle
 10
363.6693329281
 20
140.680229564
 30
0.0
 40
1.438576639225188
100
AcDbArc
 50
304.0563508311
 51
7.2558295623
  0
LINE
  5
24F
330
1F
100
AcDbEntity
  8
0
  6
Continuous
 62
     7
370
    15
100
AcDbLine
 10
304.711081302
 20
230.4298525147
 30
0.0
 11
302.5897609585
 21
229.2052403469
 31
0.0
  0
ARC
  5
250
330
1F
100
AcDbEntity
  8
0
  6
Continuous
 62
     7
370
    15
100
AcDbCircle
 10
307.8587704841
 20
235.1967041555
 30
0.0
 40
5.712339429104942
100
AcDbArc
 50
236.5620701906
 51
277.831703684
  0
LWPOLYLINE
  5
251
330
1F
100
AcDbEntity
  8
0
  6
Continuous
 62
     7
370
    15
100
AcDbPolyline
 90
        3
 70
   128
 43
0.0
 10
304.7365297012
 20
223.5706021093
 10
304.5008522657
 20
223.9259205642
 10
304.3108494849
 20
224.3079817685
  0
LINE
  5
252
330
1F
100
AcDbEntity
  8
0
  6
Continuous
 62
     7
370
    15
100
AcDbLine
 10
288.0217504465
 20
240.0643981405
 30
0.0
 11
285.900430103
 21
238.8397859727
 31
0.0
  0
LINE
  5
253
330
1F
100
AcDbEntity
  8
0
  6
Continuous
 62
     7
370
    15
100
AcDbLine
 10
304.711081302
 20
230.4298525147
 30
0.0
 11
288.0217504465
 21
240.0643981405
 31
0.0
  0
LWPOLYLINE
  5
254
330
1F
100
AcDbEntity
  8
0
  6
Continuous
 62
     7
370
    15
100
AcDbPolyline
 90
        3
 70
   128
 43
0.0
 10
341.5632286767
 20
152.5020117895
 10
341.3275512417
 20
152.8573302436
 10
341.1375484612
 20
153.2393914471
  0
LWPOLYLINE
  5
255
330
1F
100
AcDbEntity
  8
0
  6
Continuous
 62
     7
370
    15
100
AcDbPolyline
 90
        3
 70
   128
 43
0.0
 10
287.7659669531
 20
232.1426882328
 10
287.5302895172
 20
232.4980066882
 10
287.3402867361
 20
232.8800678931
  0
LINE
  5
256
330
1F
100
AcDbEntity
  8
0
  6
Continuous
 62
     7
370
    15
100
AcDbLine
 10
334.4034818646
 20
144.4980369147
 30
0.0
 11
336.5248022082
 21
145.7226490824
 31
0.0
  0
LINE
  5
257
330
1F
100
AcDbEntity
  8
0
  6
Continuous
 62
     7
370
    15
100
AcDbLine
 10
336.5248022082
 20
145.7226490824
 30
0.0
 11
340.0592213749
 21
148.7839082144
 31
0.0
  0
ARC
  5
258
330
1F
100
AcDbEntity
  8
0
  6
Continuous
 62
     7
370
    15
100
AcDbCircle
 10
287.142990282
 20
238.8377541531
 30
0.0
 40
1.508931707705366
100
AcDbArc
 50
54.3824225248
 51
114.3071190461
  0
LWPOLYLINE
  5
259
330
1F
100
AcDbEntity
  8
0
  6
Continuous
 62
     7
370
    15
100
AcDbPolyline
 90
        3
 70
   128
 43
0.0
 10
323.1498791897
 20
163.1318121859
 10
322.9142017537
 20
163.4871306414
 10
322.7241989725
 20
163.8691918464
  0
LWPOLYLINE
  5
25A
330
1F
100
AcDbEntity
  8
0
  6
Continuous
 62
     7
370
    15
100
AcDbPolyline
 90
       19
 70
   128
 43
0.0
 10
323.8240817691
 20
158.1562548128
 10
323.7250195007
 20
158.0675441251
 10
323.4958898666
 20
157.7415337544
 10
323.3542799648
 20
157.320002478
 10
323.3063788277
 20
156.8213732353
 10
323.3542799648
 20
156.2674385169
 10
323.4958898666
 20
155.6824079281
 10
323.7250195007
 20
155.0918501129
 10
324.0316548027
 20
154.5215752817
 10
324.4023943386
 20
153.996507181
 10
324.8210350115
 20
153.5395938065
 10
325.2692802153
 20
153.170804465
 10
325.7275394835
 20
152.9062570205
 10
326.1757846873
 20
152.7575134657
 10
326.5944253603
 20
152.7310746077
 10
326.9651648961
 20
152.8280959515
 10
327.2718001982
 20
153.0443371988
 10
327.5009298323
 20
153.3703475695
 10
327.5072436932
 20
153.3832371252
  0
LINE
  5
25B
330
1F
100
AcDbEntity
  8
0
  6
Continuous
 62
     7
370
    15
100
AcDbLine
 10
336.5248022082
 20
145.7226490824
 30
0.0
 11
336.0028766349
 21
145.3506380518
 31
0.0
  0
LWPOLYLINE
  5
25C
330
1F
100
AcDbEntity
  8
0
  6
Continuous
 62
     7
370
    15
100
AcDbPolyline
 90
        3
 70
   128
 43
0.0
 10
286.7053067802
 20
218.8738005162
 10
286.4696293454
 20
219.22911897
 10
286.2796265651
 20
219.6111801732
  0
LWPOLYLINE
  5
25D
330
1F
100
AcDbEntity
  8
0
  6
Continuous
 62
     7
370
    15
100
AcDbPolyline
 90
        3
 70
   128
 43
0.0
 10
304.7936760564
 20
173.728622695
 10
304.55799862
 20
174.083941151
 10
304.3679958386
 20
174.4660023566
  0
LWPOLYLINE
  5
25E
330
1F
100
AcDbEntity
  8
0
  6
Continuous
 62
     7
370
    15
100
AcDbPolyline
 90
        3
 70
   128
 43
0.0
 10
286.7053067808
 20
199.2768210302
 10
286.4696293454
 20
199.6321394848
 10
286.2796265647
 20
200.0142006887
  0
LWPOLYLINE
  5
25F
330
1F
100
AcDbEntity
  8
0
  6
Continuous
 62
     7
370
    15
100
AcDbPolyline
 90
        3
 70
   128
 43
0.0
 10
287.7659669535
 20
184.783321143
 10
287.5302895172
 20
185.1386395988
 10
287.3402867359
 20
185.5207008043
  0
ARC
  5
260
330
1F
100
AcDbEntity
  8
0
  6
Continuous
 62
     7
370
    15
100
AcDbCircle
 10
283.6581192993
 20
237.0081491837
 30
0.0
 40
1.310127592285447
100
AcDbArc
 50
50.7967147643
 51
189.2140369905
  0
LINE
  5
261
330
1F
100
AcDbEntity
  8
0
  6
Continuous
 62
     7
370
    15
100
AcDbLine
 10
359.4395353464
 20
194.7537479343
 30
0.0
 11
284.4862165406
 21
238.0233778609
 31
0.0
  0
ARC
  5
262
330
1F
100
AcDbEntity
  8
0
  6
Continuous
 62
     7
370
    15
100
AcDbCircle
 10
356.9552073858
 20
190.8699307741
 30
0.0
 40
4.610414422716117
100
AcDbArc
 50
2.6054784857
 51
57.39452166
  0
LINE
  5
263
330
1F
100
AcDbEntity
  8
0
  6
Continuous
 62
     7
370
    15
100
AcDbLine
 10
361.5608556899
 20
138.8209013702
 30
0.0
 11
361.5608556899
 21
191.0795133309
 31
0.0
  0
ARC
  5
264
330
1F
100
AcDbEntity
  8
0
  6
Continuous
 62
     7
370
    15
100
AcDbCircle
 10
360.2676325877
 20
138.6111197795
 30
0.0
 40
1.310127592285416
100
AcDbArc
 50
230.7967147643
 51
9.2140369905
  0
LINE
  5
265
330
1F
100
AcDbEntity
  8
0
  6
Continuous
 62
     7
370
    15
100
AcDbLine
 10
284.4862165406
 20
180.8655210289
 30
0.0
 11
359.4395353464
 21
137.5958911023
 31
0.0
  0
ARC
  5
266
330
1F
100
AcDbEntity
  8
0
  6
Continuous
 62
     7
370
    15
100
AcDbCircle
 10
286.9705445011
 20
184.7493381891
 30
0.0
 40
4.610414422716547
100
AcDbArc
 50
182.6054784857
 51
237.39452166
  0
LINE
  5
267
330
1F
100
AcDbEntity
  8
0
  6
Continuous
 62
     7
370
    15
100
AcDbLine
 10
282.364896197
 20
236.798367593
 30
0.0
 11
282.364896197
 21
184.5397556323
 31
0.0
  0
LWPOLYLINE
  5
268
330
1F
100
AcDbEntity
  8
0
  6
Continuous
 62
     7
370
    15
100
AcDbPolyline
 90
       25
 70
   128
 43
0.0
 10
287.9999594313
 20
183.736325306
 10
287.9505665687
 20
184.1980786407
 10
287.805754023
 20
184.685392034
 10
287.5753905299
 20
185.1650558834
 10
287.2751749806
 20
185.6043818903
 10
286.9255665687
 20
185.9734307133
 10
286.5503905299
 20
186.247052285
 10
286.175214491
 20
186.4065997475
 10
285.8256060791
 20
186.4412002049
 10
285.5253905299
 20
186.3484956932
 10
285.2950270367
 20
186.1348038716
 10
285.150214491
 20
185.8146874847
 10
285.1008216284
 20
185.4099619352
 10
285.150214491
 20
184.9482086005
 10
285.2950270367
 20
184.4608952072
 10
285.5253905299
 20
183.9812313578
 10
285.8256060791
 20
183.541905351
 10
286.175214491
 20
183.172856528
 10
286.5503905299
 20
182.8992349562
 10
286.9255665687
 20
182.7396874937
 10
287.2751749806
 20
182.7050870363
 10
287.5753905299
 20
182.7977915481
 10
287.805754023
 20
183.0114833696
 10
287.9505665687
 20
183.3315997565
 10
287.9999594313
 20
183.736325306
  0
LWPOLYLINE
  5
269
330
1F
100
AcDbEntity
  8
0
  6
Continuous
 62
     7
370
    15
100
AcDbPolyline
 90
       25
 70
   128
 43
0.0
 10
286.9392992595
 20
198.2298251919
 10
286.889906397
 20
198.6915785266
 10
286.7450938512
 20
199.1788919199
 10
286.5147303581
 20
199.6585557693
 10
286.2145148088
 20
200.0978817762
 10
285.864906397
 20
200.4669305992
 10
285.4897303581
 20
200.7405521709
 10
285.1145543192
 20
200.9000996334
 10
284.7649459074
 20
200.9347000908
 10
284.4647303581
 20
200.8419955791
 10
284.2343668649
 20
200.6283037575
 10
284.0895543192
 20
200.3081873706
 10
284.0401614566
 20
199.9034618212
 10
284.0895543192
 20
199.4417084864
 10
284.2343668649
 20
198.9543950932
 10
284.4647303581
 20
198.4747312438
 10
284.7649459074
 20
198.0354052369
 10
285.1145543192
 20
197.6663564139
 10
285.4897303581
 20
197.3927348422
 10
285.864906397
 20
197.2331873797
 10
286.2145148088
 20
197.1985869223
 10
286.5147303581
 20
197.291291434
 10
286.7450938512
 20
197.5049832555
 10
286.889906397
 20
197.8250996424
 10
286.9392992595
 20
198.2298251919
  0
LWPOLYLINE
  5
26A
330
1F
100
AcDbEntity
  8
0
  6
Continuous
 62
     7
370
    15
100
AcDbPolyline
 90
       25
 70
   128
 43
0.0
 10
286.9392992595
 20
217.8268046772
 10
286.889906397
 20
218.2885580119
 10
286.7450938512
 20
218.7758714052
 10
286.5147303581
 20
219.2555352546
 10
286.2145148088
 20
219.6948612614
 10
285.864906397
 20
220.0639100844
 10
285.4897303581
 20
220.3375316562
 10
285.1145543192
 20
220.4970791187
 10
284.7649459074
 20
220.5316795761
 10
284.4647303581
 20
220.4389750643
 10
284.2343668649
 20
220.2252832428
 10
284.0895543192
 20
219.9051668559
 10
284.0401614566
 20
219.5004413064
 10
284.0895543192
 20
219.0386879717
 10
284.2343668649
 20
218.5513745784
 10
284.4647303581
 20
218.071710729
 10
284.7649459074
 20
217.6323847221
 10
285.1145543192
 20
217.2633358991
 10
285.4897303581
 20
216.9897143274
 10
285.864906397
 20
216.8301668649
 10
286.2145148088
 20
216.7955664075
 10
286.5147303581
 20
216.8882709192
 10
286.7450938512
 20
217.1019627408
 10
286.889906397
 20
217.4220791277
 10
286.9392992595
 20
217.8268046772
  0
LWPOLYLINE
  5
26B
330
1F
100
AcDbEntity
  8
0
  6
Continuous
 62
     7
370
    15
100
AcDbPolyline
 90
       25
 70
   128
 43
0.0
 10
287.9999594313
 20
231.0956923954
 10
287.9505665687
 20
231.5574457301
 10
287.805754023
 20
232.0447591234
 10
287.5753905299
 20
232.5244229728
 10
287.2751749806
 20
232.9637489796
 10
286.9255665687
 20
233.3327978026
 10
286.5503905299
 20
233.6064193743
 10
286.175214491
 20
233.7659668369
 10
285.8256060791
 20
233.8005672942
 10
285.5253905299
 20
233.7078627825
 10
285.2950270367
 20
233.494170961
 10
285.150214491
 20
233.1740545741
 10
285.1008216284
 20
232.7693290246
 10
285.150214491
 20
232.3075756899
 10
285.2950270367
 20
231.8202622966
 10
285.5253905299
 20
231.3405984472
 10
285.8256060791
 20
230.9012724403
 10
286.175214491
 20
230.5322236173
 10
286.5503905299
 20
230.2586020456
 10
286.9255665687
 20
230.0990545831
 10
287.2751749806
 20
230.0644541257
 10
287.5753905299
 20
230.1571586374
 10
287.805754023
 20
230.370850459
 10
287.9505665687
 20
230.6909668459
 10
287.9999594313
 20
231.0956923954
  0
LWPOLYLINE
  5
26C
330
1F
100
AcDbEntity
  8
0
  6
Continuous
 62
     7
370
    15
100
AcDbPolyline
 90
       25
 70
   128
 43
0.0
 10
304.9705221798
 20
222.5236062713
 10
304.9211293172
 20
222.985359606
 10
304.7763167715
 20
223.4726729993
 10
304.5459532783
 20
223.9523368487
 10
304.245737729
 20
224.3916628556
 10
303.8961293172
 20
224.7607116786
 10
303.5209532783
 20
225.0343332503
 10
303.1457772395
 20
225.1938807128
 10
302.7961688276
 20
225.2284811702
 10
302.4959532783
 20
225.1357766585
 10
302.2655897852
 20
224.9220848369
 10
302.1207772395
 20
224.60196845
 10
302.0713843769
 20
224.1972429006
 10
302.1207772395
 20
223.7354895658
 10
302.2655897852
 20
223.2481761726
 10
302.4959532783
 20
222.7685123232
 10
302.7961688276
 20
222.3291863163
 10
303.1457772395
 20
221.9601374933
 10
303.5209532783
 20
221.6865159216
 10
303.8961293172
 20
221.5269684591
 10
304.245737729
 20
221.4923680017
 10
304.5459532783
 20
221.5850725134
 10
304.7763167715
 20
221.7987643349
 10
304.9211293172
 20
222.1188807218
 10
304.9705221798
 20
222.5236062713
  0
LWPOLYLINE
  5
26D
330
1F
100
AcDbEntity
  8
0
  6
Continuous
 62
     7
370
    15
100
AcDbPolyline
 90
       25
 70
   128
 43
0.0
 10
305.0276685341
 20
172.6816268582
 10
304.9782756715
 20
173.1433801929
 10
304.8334631258
 20
173.6306935861
 10
304.6030996326
 20
174.1103574356
 10
304.3028840833
 20
174.5496834424
 10
303.9532756715
 20
174.9187322654
 10
303.5780996326
 20
175.1923538371
 10
303.2029235938
 20
175.3519012997
 10
302.8533151819
 20
175.386501757
 10
302.5530996326
 20
175.2937972453
 10
302.3227361395
 20
175.0801054238
 10
302.1779235938
 20
174.7599890369
 10
302.1285307312
 20
174.3552634874
 10
302.1779235938
 20
173.8935101527
 10
302.3227361395
 20
173.4061967594
 10
302.5530996326
 20
172.92653291
 10
302.8533151819
 20
172.4872069031
 10
303.2029235938
 20
172.1181580801
 10
303.5780996326
 20
171.8445365084
 10
303.9532756715
 20
171.6849890459
 10
304.3028840833
 20
171.6503885885
 10
304.6030996326
 20
171.7430931002
 10
304.8334631258
 20
171.9567849218
 10
304.9782756715
 20
172.2769013087
 10
305.0276685341
 20
172.6816268582
  0
LWPOLYLINE
  5
26E
330
1F
100
AcDbEntity
  8
0
  6
Continuous
 62
     7
370
    15
100
AcDbPolyline
 90
       25
 70
   128
 43
0.0
 10
323.3838716678
 20
162.0848163485
 10
323.3344788052
 20
162.5465696832
 10
323.1896662595
 20
163.0338830765
 10
322.9593027663
 20
163.5135469259
 10
322.659087217
 20
163.9528729328
 10
322.3094788052
 20
164.3219217558
 10
321.9343027663
 20
164.5955433275
 10
321.5591267275
 20
164.75509079
 10
321.2095183156
 20
164.7896912474
 10
320.9093027663
 20
164.6969867357
 10
320.6789392732
 20
164.4832949141
 10
320.5341267275
 20
164.1631785272
 10
320.4847338649
 20
163.7584529778
 10
320.5341267275
 20
163.296699643
 10
320.6789392732
 20
162.8093862498
 10
320.9093027663
 20
162.3297224004
 10
321.2095183156
 20
161.8903963935
 10
321.5591267275
 20
161.5213475705
 10
321.9343027663
 20
161.2477259988
 10
322.3094788052
 20
161.0881785363
 10
322.659087217
 20
161.0535780789
 10
322.9593027663
 20
161.1462825906
 10
323.1896662595
 20
161.3599744122
 10
323.3344788052
 20
161.680090799
 10
323.3838716678
 20
162.0848163485
  0
LWPOLYLINE
  5
26F
330
1F
100
AcDbEntity
  8
0
  6
Continuous
 62
     7
370
    15
100
AcDbPolyline
 90
       25
 70
   128
 43
0.0
 10
323.3838716678
 20
211.8938058736
 10
323.3344788052
 20
212.3555592083
 10
323.1896662595
 20
212.8428726015
 10
322.9593027663
 20
213.322536451
 10
322.659087217
 20
213.7618624578
 10
322.3094788052
 20
214.1309112808
 10
321.9343027663
 20
214.4045328525
 10
321.5591267275
 20
214.5640803151
 10
321.2095183156
 20
214.5986807724
 10
320.9093027663
 20
214.5059762607
 10
320.6789392732
 20
214.2922844392
 10
320.5341267275
 20
213.9721680523
 10
320.4847338649
 20
213.5674425028
 10
320.5341267275
 20
213.1056891681
 10
320.6789392732
 20
212.6183757748
 10
320.9093027663
 20
212.1387119254
 10
321.2095183156
 20
211.6993859185
 10
321.5591267275
 20
211.3303370955
 10
321.9343027663
 20
211.0567155238
 10
322.3094788052
 20
210.8971680613
 10
322.659087217
 20
210.8625676039
 10
322.9593027663
 20
210.9552721156
 10
323.1896662595
 20
211.1689639372
 10
323.3344788052
 20
211.4890803241
 10
323.3838716678
 20
211.8938058736
  0
LWPOLYLINE
  5
270
330
1F
100
AcDbEntity
  8
0
  6
Continuous
 62
     7
370
    15
100
AcDbPolyline
 90
       25
 70
   128
 43
0.0
 10
341.7972211558
 20
201.2640054758
 10
341.7478282932
 20
201.7257588105
 10
341.6030157475
 20
202.2130722038
 10
341.3726522543
 20
202.6927360532
 10
341.0724367051
 20
203.1320620601
 10
340.7228282932
 20
203.5011108831
 10
340.3476522543
 20
203.7747324548
 10
339.9724762155
 20
203.9342799173
 10
339.6228678036
 20
203.9688803747
 10
339.3226522543
 20
203.876175863
 10
339.0922887612
 20
203.6624840414
 10
338.9474762155
 20
203.3423676545
 10
338.8980833529
 20
202.937642105
 10
338.9474762155
 20
202.4758887703
 10
339.0922887612
 20
201.988575377
 10
339.3226522543
 20
201.5089115276
 10
339.6228678036
 20
201.0695855208
 10
339.9724762155
 20
200.7005366978
 10
340.3476522543
 20
200.4269151261
 10
340.7228282932
 20
200.2673676635
 10
341.0724367051
 20
200.2327672062
 10
341.3726522543
 20
200.3254717179
 10
341.6030157475
 20
200.5391635394
 10
341.7478282932
 20
200.8592799263
 10
341.7972211558
 20
201.2640054758
  0
LWPOLYLINE
  5
271
330
1F
100
AcDbEntity
  8
0
  6
Continuous
 62
     7
370
    15
100
AcDbPolyline
 90
       25
 70
   128
 43
0.0
 10
341.7972211558
 20
151.4550159508
 10
341.7478282932
 20
151.9167692855
 10
341.6030157475
 20
152.4040826788
 10
341.3726522543
 20
152.8837465282
 10
341.0724367051
 20
153.323072535
 10
340.7228282932
 20
153.692121358
 10
340.3476522543
 20
153.9657429298
 10
339.9724762155
 20
154.1252903923
 10
339.6228678036
 20
154.1598908497
 10
339.3226522543
 20
154.0671863379
 10
339.0922887612
 20
153.8534945164
 10
338.9474762155
 20
153.5333781295
 10
338.8980833529
 20
153.12865258
 10
338.9474762155
 20
152.6668992453
 10
339.0922887612
 20
152.179585852
 10
339.3226522543
 20
151.6999220026
 10
339.6228678036
 20
151.2605959957
 10
339.9724762155
 20
150.8915471727
 10
340.3476522543
 20
150.617925601
 10
340.7228282932
 20
150.4583781385
 10
341.0724367051
 20
150.4237776811
 10
341.3726522543
 20
150.5164821928
 10
341.6030157475
 20
150.7301740144
 10
341.7478282932
 20
151.0502904013
 10
341.7972211558
 20
151.4550159508
  0
LWPOLYLINE
  5
272
330
1F
100
AcDbEntity
  8
0
  6
Continuous
 62
     7
370
    15
100
AcDbPolyline
 90
       25
 70
   128
 43
0.0
 10
358.7677839042
 20
142.8829298267
 10
358.7183910417
 20
143.3446831614
 10
358.573578496
 20
143.8319965547
 10
358.3432150028
 20
144.3116604041
 10
358.0429994535
 20
144.750986411
 10
357.6933910417
 20
145.120035234
 10
357.3182150028
 20
145.3936568057
 10
356.9430389639
 20
145.5532042682
 10
356.5934305521
 20
145.5878047256
 10
356.2932150028
 20
145.4951002139
 10
356.0628515096
 20
145.2814083923
 10
355.9180389639
 20
144.9612920054
 10
355.8686461014
 20
144.556566456
 10
355.9180389639
 20
144.0948131212
 10
356.0628515096
 20
143.607499728
 10
356.2932150028
 20
143.1278358786
 10
356.5934305521
 20
142.6885098717
 10
356.9430389639
 20
142.3194610487
 10
357.3182150028
 20
142.045839477
 10
357.6933910417
 20
141.8862920145
 10
358.0429994535
 20
141.8516915571
 10
358.3432150028
 20
141.9443960688
 10
358.573578496
 20
142.1580878903
 10
358.7183910417
 20
142.4782042772
 10
358.7677839042
 20
142.8829298267
  0
LWPOLYLINE
  5
273
330
1F
100
AcDbEntity
  8
0
  6
Continuous
 62
     7
370
    15
100
AcDbPolyline
 90
       25
 70
   128
 43
0.0
 10
359.828444076
 20
156.1518175449
 10
359.7790512135
 20
156.6135708796
 10
359.6342386678
 20
157.1008842729
 10
359.4038751746
 20
157.5805481223
 10
359.1036596253
 20
158.0198741292
 10
358.7540512135
 20
158.3889229522
 10
358.3788751746
 20
158.6625445239
 10
358.0036991357
 20
158.8220919864
 10
357.6540907239
 20
158.8566924438
 10
357.3538751746
 20
158.7639879321
 10
357.1235116814
 20
158.5502961105
 10
356.9786991357
 20
158.2301797236
 10
356.9293062732
 20
157.8254541742
 10
356.9786991357
 20
157.3637008394
 10
357.1235116814
 20
156.8763874462
 10
357.3538751746
 20
156.3967235968
 10
357.6540907239
 20
155.9573975899
 10
358.0036991357
 20
155.5883487669
 10
358.3788751746
 20
155.3147271952
 10
358.7540512135
 20
155.1551797327
 10
359.1036596253
 20
155.1205792753
 10
359.4038751746
 20
155.213283787
 10
359.6342386678
 20
155.4269756085
 10
359.7790512135
 20
155.7470919954
 10
359.828444076
 20
156.1518175449
  0
LWPOLYLINE
  5
274
330
1F
100
AcDbEntity
  8
0
  6
Continuous
 62
     7
370
    15
100
AcDbPolyline
 90
       25
 70
   128
 43
0.0
 10
359.828444076
 20
175.7487970302
 10
359.7790512135
 20
176.2105503649
 10
359.6342386678
 20
176.6978637582
 10
359.4038751746
 20
177.1775276076
 10
359.1036596253
 20
177.6168536144
 10
358.7540512135
 20
177.9859024374
 10
358.3788751746
 20
178.2595240092
 10
358.0036991357
 20
178.4190714717
 10
357.6540907239
 20
178.4536719291
 10
357.3538751746
 20
178.3609674173
 10
357.1235116814
 20
178.1472755958
 10
356.9786991357
 20
177.8271592089
 10
356.9293062732
 20
177.4224336594
 10
356.9786991357
 20
176.9606803247
 10
357.1235116814
 20
176.4733669314
 10
357.3538751746
 20
175.993703082
 10
357.6540907239
 20
175.5543770751
 10
358.0036991357
 20
175.1853282521
 10
358.3788751746
 20
174.9117066804
 10
358.7540512135
 20
174.7521592179
 10
359.1036596253
 20
174.7175587605
 10
359.4038751746
 20
174.8102632722
 10
359.6342386678
 20
175.0239550938
 10
359.7790512135
 20
175.3440714807
 10
359.828444076
 20
175.7487970302
  0
LWPOLYLINE
  5
275
330
1F
100
AcDbEntity
  8
0
  6
Continuous
 62
     7
370
    15
100
AcDbPolyline
 90
       25
 70
   128
 43
0.0
 10
358.7677839042
 20
190.2422969161
 10
358.7183910417
 20
190.7040502508
 10
358.573578496
 20
191.1913636441
 10
358.3432150028
 20
191.6710274935
 10
358.0429994535
 20
192.1103535004
 10
357.6933910417
 20
192.4794023234
 10
357.3182150028
 20
192.7530238951
 10
356.9430389639
 20
192.9125713576
 10
356.5934305521
 20
192.947171815
 10
356.2932150028
 20
192.8544673033
 10
356.0628515096
 20
192.6407754817
 10
355.9180389639
 20
192.3206590948
 10
355.8686461014
 20
191.9159335453
 10
355.9180389639
 20
191.4541802106
 10
356.0628515096
 20
190.9668668173
 10
356.2932150028
 20
190.4872029679
 10
356.5934305521
 20
190.0478769611
 10
356.9430389639
 20
189.6788281381
 10
357.3182150028
 20
189.4052065664
 10
357.6933910417
 20
189.2456591038
 10
358.0429994535
 20
189.2110586465
 10
358.3432150028
 20
189.3037631582
 10
358.573578496
 20
189.5174549797
 10
358.7183910417
 20
189.8375713666
 10
358.7677839042
 20
190.2422969161
  0
LINE
  5
276
330
1F
100
AcDbEntity
  8
0
  6
Continuous
 62
     7
370
    15
100
AcDbLine
 10
359.4395353464
 20
194.7537479343
 30
0.0
 11
360.8537489087
 21
195.5701560461
 31
0.0
  0
LINE
  5
277
330
1F
100
AcDbEntity
  8
0
  6
Continuous
 62
     7
370
    15
100
AcDbLine
 10
362.9750692523
 20
191.8959214427
 30
0.0
 11
361.5608556899
 21
191.0795133309
 31
0.0
  0
LINE
  5
278
330
1F
100
AcDbEntity
  8
0
  6
Continuous
 62
     7
370
    15
100
AcDbLine
 10
361.5608556899
 20
138.8209013702
 30
0.0
 11
362.9750692523
 21
139.637309482
 31
0.0
  0
LINE
  5
279
330
1F
100
AcDbEntity
  8
0
  6
Continuous
 62
     7
370
    15
100
AcDbLine
 10
285.900430103
 20
238.8397859727
 30
0.0
 11
284.4862165406
 21
238.0233778609
 31
0.0
  0
LINE
  5
27A
330
1F
100
AcDbEntity
  8
0
  6
Continuous
 62
     7
370
    15
100
AcDbLine
 10
360.8537489087
 20
195.5701560461
 30
0.0
 11
285.900430103
 21
238.8397859727
 31
0.0
  0
ARC
  5
27B
330
1F
100
AcDbEntity
  8
0
  6
Continuous
 62
     7
370
    15
100
AcDbCircle
 10
360.3727952831
 20
192.8424868921
 30
0.0
 40
3.090297084604313
100
AcDbArc
 50
181.2939629697
 51
238.7006604976
  0
ARC
  5
27C
330
1F
100
AcDbEntity
  8
0
  6
Continuous
 62
     7
370
    15
100
AcDbCircle
 10
361.4334554548
 20
178.3489870062
 30
0.0
 40
3.090297084604587
100
AcDbArc
 50
181.2939629697
 51
238.7006604976
  0
ARC
  5
27D
330
1F
100
AcDbEntity
  8
0
  6
Continuous
 62
     7
370
    15
100
AcDbCircle
 10
343.4022325346
 20
203.8641954518
 30
0.0
 40
3.090297084605142
100
AcDbArc
 50
181.2939629697
 51
238.7006604976
  0
ARC
  5
27E
330
1F
100
AcDbEntity
  8
0
  6
Continuous
 62
     7
370
    15
100
AcDbCircle
 10
361.4334554548
 20
158.7520075209
 30
0.0
 40
3.09029708460519
100
AcDbArc
 50
181.2939629697
 51
238.7006604976
  0
ARC
  5
27F
330
1F
100
AcDbEntity
  8
0
  6
Continuous
 62
     7
370
    15
100
AcDbCircle
 10
324.9888830466
 20
214.4939958495
 30
0.0
 40
3.090297084604786
100
AcDbArc
 50
181.2939629697
 51
238.7006604976
  0
ARC
  5
280
330
1F
100
AcDbEntity
  8
0
  6
Continuous
 62
     7
370
    15
100
AcDbCircle
 10
360.3727952831
 20
145.4831198027
 30
0.0
 40
3.090297084603937
100
AcDbArc
 50
181.2939629697
 51
238.7006604976
  0
ARC
  5
281
330
1F
100
AcDbEntity
  8
0
  6
Continuous
 62
     7
370
    15
100
AcDbCircle
 10
361.5480125845
 20
139.4556173963
 30
0.0
 40
1.438576639335597
100
AcDbArc
 50
304.0563508338
 51
7.2558295596
  0
ARC
  5
282
330
1F
100
AcDbEntity
  8
0
  6
Continuous
 62
     7
370
    15
100
AcDbCircle
 10
306.5755335586
 20
225.1237962473
 30
0.0
 40
3.090297084604032
100
AcDbArc
 50
181.2939629697
 51
238.7006604976
  0
ARC
  5
283
330
1F
100
AcDbEntity
  8
0
  6
Continuous
 62
     7
370
    15
100
AcDbCircle
 10
343.4022325346
 20
154.0552059268
 30
0.0
 40
3.090297084603389
100
AcDbArc
 50
181.2939629696
 51
238.7006604977
  0
ARC
  5
284
330
1F
100
AcDbEntity
  8
0
  6
Continuous
 62
     7
370
    15
100
AcDbCircle
 10
289.6049708101
 20
233.6958823714
 30
0.0
 40
3.090297084605101
100
AcDbArc
 50
181.2939629697
 51
238.7006604976
  0
ARC
  5
285
330
1F
100
AcDbEntity
  8
0
  6
Continuous
 62
     7
370
    15
100
AcDbCircle
 10
324.9888830466
 20
164.6850063245
 30
0.0
 40
3.090297084603697
100
AcDbArc
 50
181.2939629696
 51
238.7006604977
  0
ARC
  5
286
330
1F
100
AcDbEntity
  8
0
  6
Continuous
 62
     7
370
    15
100
AcDbCircle
 10
288.5443106383
 20
220.4269946532
 30
0.0
 40
3.090297084605016
100
AcDbArc
 50
181.2939629697
 51
238.7006604976
  0
ARC
  5
287
330
1F
100
AcDbEntity
  8
0
  6
Continuous
 62
     7
370
    15
100
AcDbCircle
 10
306.6326799129
 20
175.2818168341
 30
0.0
 40
3.090297084603553
100
AcDbArc
 50
181.2939629696
 51
238.7006604977
  0
ARC
  5
288
330
1F
100
AcDbEntity
  8
0
  6
Continuous
 62
     7
370
    15
100
AcDbCircle
 10
288.5443106383
 20
200.8300151679
 30
0.0
 40
3.090297084604967
100
AcDbArc
 50
181.2939629697
 51
238.7006604976
  0
ARC
  5
289
330
1F
100
AcDbEntity
  8
0
  6
Continuous
 62
     7
370
    15
100
AcDbCircle
 10
289.6049708101
 20
186.336515282
 30
0.0
 40
3.090297084604793
100
AcDbArc
 50
181.2939629697
 51
238.7006604976
  0
LINE
  5
28A
330
1F
100
AcDbEntity
  8
0
  6
Continuous
 62
     8
370
    15
100
AcDbLine
 10
339.7479831376
 20
148.8078659136
 30
0.0
 11
338.6428988168
 21
148.1699143143
 31
0.0
  0
ENDSEC
  0
SECTION
  2
OBJECTS
  0
DICTIONARY
  5
C
330
0
100
AcDbDictionary
281
     1
  3
ACAD_GROUP
350
D
  3
ACAD_LAYOUT
350
1A
  3
ACAD_MLINESTYLE
350
17
  3
ACAD_PLOTSETTINGS
350
19
  3
ACAD_PLOTSTYLENAME
350
E
  3
ACAD_SCALELIST
350
47
  0
DICTIONARY
  5
D
102
{ACAD_REACTORS
330
C
102
}
330
C
100
AcDbDictionary
281
     1
  0
DICTIONARY
  5
1A
102
{ACAD_REACTORS
330
C
102
}
330
C
100
AcDbDictionary
281
     1
  3
Layout1
350
1E
  3
Layout2
350
26
  3
Model
350
22
  0
DICTIONARY
  5
17
102
{ACAD_REACTORS
330
C
102
}
330
C
100
AcDbDictionary
281
     1
  3
Standard
350
18
  0
DICTIONARY
  5
19
102
{ACAD_REACTORS
330
C
102
}
330
C
100
AcDbDictionary
281
     1
  0
ACDBDICTIONARYWDFLT
  5
E
102
{ACAD_REACTORS
330
C
102
}
330
C
100
AcDbDictionary
281
     1
  3
Normal
350
F
100
AcDbDictionaryWithDefault
340
F
  0
DICTIONARY
  5
47
102
{ACAD_REACTORS
330
C
102
}
330
C
100
AcDbDictionary
281
     1
  3
A0
350
48
  3
A1
350
49
  3
A2
350
4A
  3
A3
350
4B
  3
A4
350
4C
  3
A5
350
4D
  3
A6
350
4E
  3
A7
350
4F
  3
A8
350
50
  3
A9
350
51
  3
B0
350
52
  3
B1
350
53
  3
B2
350
54
  3
B3
350
55
  3
B4
350
56
  3
B5
350
57
  3
B6
350
58
  3
B7
350
59
  3
B8
350
5A
  3
B9
350
5B
  3
C0
350
5C
  3
C1
350
5D
  3
C2
350
5E
  3
C3
350
5F
  3
C4
350
60
  3
C5
350
61
  3
C6
350
62
  3
C7
350
63
  3
C8
350
64
  3
C9
350
65
  3
D0
350
66
  3
D1
350
67
  3
D2
350
68
  0
LAYOUT
  5
1E
102
{ACAD_REACTORS
330
1A
102
}
330
1A
100
AcDbPlotSettings
  1

  2
none_device
  4

  6

 40
0.0
 41
0.0
 42
0.0
 43
0.0
 44
0.0
 45
0.0
 46
0.0
 47
0.0
 48
0.0
 49
0.0
140
0.0
141
0.0
142
1.0
143
1.0
 70
   688
 72
     1
 73
     0
 74
     5
  7

 75
    16
147
1.0
148
0.0
149
0.0
100
AcDbLayout
  1
Layout1
 70
     1
 71
     1
 10
0.0
 20
0.0
 11
420.0
 21
297.0
 12
0.0
 22
0.0
 32
0.0
 14
1.0000000000E+20
 24
1.0000000000E+20
 34
1.0000000000E+20
 15
-1.0000000000E+20
 25
-1.0000000000E+20
 35
-1.0000000000E+20
146
0.0
 13
0.0
 23
0.0
 33
0.0
 16
1.0
 26
0.0
 36
0.0
 17
0.0
 27
1.0
 37
0.0
 76
     0
330
1B
  0
LAYOUT
  5
26
102
{ACAD_REACTORS
330
1A
102
}
330
1A
100
AcDbPlotSettings
  1

  2
none_device
  4

  6

 40
0.0
 41
0.0
 42
0.0
 43
0.0
 44
0.0
 45
0.0
 46
0.0
 47
0.0
 48
0.0
 49
0.0
140
0.0
141
0.0
142
1.0
143
1.0
 70
   688
 72
     1
 73
     0
 74
     5
  7

 75
    16
147
1.0
148
0.0
149
0.0
100
AcDbLayout
  1
Layout2
 70
     1
 71
     2
 10
0.0
 20
0.0
 11
0.0
 21
0.0
 12
0.0
 22
0.0
 32
0.0
 14
0.0
 24
0.0
 34
0.0
 15
0.0
 25
0.0
 35
0.0
146
0.0
 13
0.0
 23
0.0
 33
0.0
 16
1.0
 26
0.0
 36
0.0
 17
0.0
 27
1.0
 37
0.0
 76
     0
330
23
  0
LAYOUT
  5
22
102
{ACAD_REACTORS
330
1A
102
}
330
1A
100
AcDbPlotSettings
  1

  2
none_device
  4
Letter_(8.50_x_11.00_Inches)
  6

 40
6.35
 41
6.35
 42
6.35000508
 43
6.35000508
 44
215.9
 45
279.4
 46
0.0
 47
0.0
 48
0.0
 49
0.0
140
0.0
141
0.0
142
1.0
143
1.0
 70
  1712
 72
     1
 73
     0
 74
     0
  7

 75
     0
147
1.0
148
0.0
149
0.0
100
AcDbLayout
  1
Model
 70
     1
 71
     0
 10
0.0
 20
0.0
 11
420.0
 21
297.0
 12
0.0
 22
0.0
 32
0.0
 14
0.0
 24
0.0
 34
0.0
 15
420.0
 25
297.0
 35
0.0
146
0.0
 13
0.0
 23
0.0
 33
0.0
 16
1.0
 26
0.0
 36
0.0
 17
0.0
 27
1.0
 37
0.0
 76
     0
330
1F
331
29
  0
MLINESTYLE
  5
18
102
{ACAD_REACTORS
330
17
102
}
330
17
100
AcDbMlineStyle
  2
Standard
 70
     0
  3

 62
   256
 51
90.0
 52
90.0
 71
     2
 49
0.5
 62
   256
  6
BYLAYER
 49
-0.5
 62
   256
  6
BYLAYER
  0
ACDBPLACEHOLDER
  5
F
102
{ACAD_REACTORS
330
E
102
}
330
E
  0
SCALE
  5
48
102
{ACAD_REACTORS
330
47
102
}
330
47
100
AcDbScale
 70
     0
300
1:1
140
1.0
141
1.0
290
     1
  0
SCALE
  5
49
102
{ACAD_REACTORS
330
47
102
}
330
47
100
AcDbScale
 70
     0
300
1:2
140
1.0
141
2.0
290
     0
  0
SCALE
  5
4A
102
{ACAD_REACTORS
330
47
102
}
330
47
100
AcDbScale
 70
     0
300
1:4
140
1.0
141
4.0
290
     0
  0
SCALE
  5
4B
102
{ACAD_REACTORS
330
47
102
}
330
47
100
AcDbScale
 70
     0
300
1:5
140
1.0
141
5.0
290
     0
  0
SCALE
  5
4C
102
{ACAD_REACTORS
330
47
102
}
330
47
100
AcDbScale
 70
     0
300
1:8
140
1.0
141
8.0
290
     0
  0
SCALE
  5
4D
102
{ACAD_REACTORS
330
47
102
}
330
47
100
AcDbScale
 70
     0
300
1:10
140
1.0
141
10.0
290
     0
  0
SCALE
  5
4E
102
{ACAD_REACTORS
330
47
102
}
330
47
100
AcDbScale
 70
     0
300
1:16
140
1.0
141
16.0
290
     0
  0
SCALE
  5
4F
102
{ACAD_REACTORS
330
47
102
}
330
47
100
AcDbScale
 70
     0
300
1:20
140
1.0
141
20.0
290
     0
  0
SCALE
  5
50
102
{ACAD_REACTORS
330
47
102
}
330
47
100
AcDbScale
 70
     0
300
1:30
140
1.0
141
30.0
290
     0
  0
SCALE
  5
51
102
{ACAD_REACTORS
330
47
102
}
330
47
100
AcDbScale
 70
     0
300
1:40
140
1.0
141
40.0
290
     0
  0
SCALE
  5
52
102
{ACAD_REACTORS
330
47
102
}
330
47
100
AcDbScale
 70
     0
300
1:50
140
1.0
141
50.0
290
     0
  0
SCALE
  5
53
102
{ACAD_REACTORS
330
47
102
}
330
47
100
AcDbScale
 70
     0
300
1:100
140
1.0
141
100.0
290
     0
  0
SCALE
  5
54
102
{ACAD_REACTORS
330
47
102
}
330
47
100
AcDbScale
 70
     0
300
2:1
140
2.0
141
1.0
290
     0
  0
SCALE
  5
55
102
{ACAD_REACTORS
330
47
102
}
330
47
100
AcDbScale
 70
     0
300
4:1
140
4.0
141
1.0
290
     0
  0
SCALE
  5
56
102
{ACAD_REACTORS
330
47
102
}
330
47
100
AcDbScale
 70
     0
300
8:1
140
8.0
141
1.0
290
     0
  0
SCALE
  5
57
102
{ACAD_REACTORS
330
47
102
}
330
47
100
AcDbScale
 70
     0
300
10:1
140
10.0
141
1.0
290
     0
  0
SCALE
  5
58
102
{ACAD_REACTORS
330
47
102
}
330
47
100
AcDbScale
 70
     0
300
100:1
140
100.0
141
1.0
290
     0
  0
SCALE
  5
59
102
{ACAD_REACTORS
330
47
102
}
330
47
100
AcDbScale
 70
     0
300
1/128" = 1'-0"
140
0.0078125
141
12.0
290
     0
  0
SCALE
  5
5A
102
{ACAD_REACTORS
330
47
102
}
330
47
100
AcDbScale
 70
     0
300
1/64" = 1'-0"
140
0.015625
141
12.0
290
     0
  0
SCALE
  5
5B
102
{ACAD_REACTORS
330
47
102
}
330
47
100
AcDbScale
 70
     0
300
1/32" = 1'-0"
140
0.03125
141
12.0
290
     0
  0
SCALE
  5
5C
102
{ACAD_REACTORS
330
47
102
}
330
47
100
AcDbScale
 70
     0
300
1/16" = 1'-0"
140
0.0625
141
12.0
290
     0
  0
SCALE
  5
5D
102
{ACAD_REACTORS
330
47
102
}
330
47
100
AcDbScale
 70
     0
300
3/32" = 1'-0"
140
0.09375
141
12.0
290
     0
  0
SCALE
  5
5E
102
{ACAD_REACTORS
330
47
102
}
330
47
100
AcDbScale
 70
     0
300
1/8" = 1'-0"
140
0.125
141
12.0
290
     0
  0
SCALE
  5
5F
102
{ACAD_REACTORS
330
47
102
}
330
47
100
AcDbScale
 70
     0
300
3/16" = 1'-0"
140
0.1875
141
12.0
290
     0
  0
SCALE
  5
60
102
{ACAD_REACTORS
330
47
102
}
330
47
100
AcDbScale
 70
     0
300
1/4" = 1'-0"
140
0.25
141
12.0
290
     0
  0
SCALE
  5
61
102
{ACAD_REACTORS
330
47
102
}
330
47
100
AcDbScale
 70
     0
300
3/8" = 1'-0"
140
0.375
141
12.0
290
     0
  0
SCALE
  5
62
102
{ACAD_REACTORS
330
47
102
}
330
47
100
AcDbScale
 70
     0
300
1/2" = 1'-0"
140
0.5
141
12.0
290
     0
  0
SCALE
  5
63
102
{ACAD_REACTORS
330
47
102
}
330
47
100
AcDbScale
 70
     0
300
3/4" = 1'-0"
140
0.75
141
12.0
290
     0
  0
SCALE
  5
64
102
{ACAD_REACTORS
330
47
102
}
330
47
100
AcDbScale
 70
     0
300
1" = 1'-0"
140
1.0
141
12.0
290
     0
  0
SCALE
  5
65
102
{ACAD_REACTORS
330
47
102
}
330
47
100
AcDbScale
 70
     0
300
1-1/2" = 1'-0"
140
1.5
141
12.0
290
     0
  0
SCALE
  5
66
102
{ACAD_REACTORS
330
47
102
}
330
47
100
AcDbScale
 70
     0
300
3" = 1'-0"
140
3.0
141
12.0
290
     0
  0
SCALE
  5
67
102
{ACAD_REACTORS
330
47
102
}
330
47
100
AcDbScale
 70
     0
300
6" = 1'-0"
140
6.0
141
12.0
290
     0
  0
SCALE
  5
68
102
{ACAD_REACTORS
330
47
102
}
330
47
100
AcDbScale
 70
     0
300
1'-0" = 1'-0"
140
12.0
141
12.0
290
     0
  0
ENDSEC
  0
EOF
